<?xml version="1.0" standalone="no"?>
<!DOCTYPE svg PUBLIC "-//W3C//DTD SVG 1.1//EN" "http://www.w3.org/Graphics/SVG/1.1/DTD/svg11.dtd" >
<svg xmlns="http://www.w3.org/2000/svg" xmlns:xlink="http://www.w3.org/1999/xlink" version="1.1">
<metadata>
Created by FontForge 20170731 at Wed Oct 26 02:07:11 2022
 By Aleksey,,,
(c) 2013 Bureau des Affaires Typographiques. All rights reserved. Distributed exclusively by Bureau des Affaires Typographiques. Wigrum is a registered trademark of Bureau des Affaires Typographiques.
</metadata>
<defs>
<font id="Wigrum-Regular" horiz-adv-x="1136" >
  <font-face 
    font-family="Wigrum"
    font-weight="400"
    font-stretch="normal"
    units-per-em="2048"
    panose-1="2 0 0 0 0 0 0 0 0 0"
    ascent="1536"
    descent="-512"
    x-height="1024"
    cap-height="1434"
    bbox="-373 -526 2744 2269"
    underline-thickness="165"
    underline-position="-339"
    unicode-range="U+0020-FB06"
  />
<missing-glyph horiz-adv-x="1024" 
d="M102 0v1434h820v-1434h-820zM512 780l309 592h-618zM164 117l315 600l-315 600v-1200zM860 117v1200l-313 -600zM203 61h618l-309 592z" />
    <glyph glyph-name="f_f" unicode="ff" horiz-adv-x="1456" 
d="M227 0v858h-143v166h143v80q0 177 81.5 265.5t236.5 88.5q72 0 127 -22v-179q-64 31 -113 31q-69 0 -108 -44.5t-39 -121.5v-98h544v80q0 178 81 266t237 88q70 0 125 -22v-179q-60 31 -111 31q-69 0 -109 -44.5t-40 -121.5v-98h254v-166h-254v-858h-183v858h-544v-858
h-185z" />
    <glyph glyph-name="fi" unicode="fi" horiz-adv-x="1288" 
d="M905 1233v201h205v-201h-205zM227 0v858h-143v166h143v80q0 177 81.5 265.5t236.5 88.5q72 0 127 -22v-179q-64 31 -113 31q-69 0 -108 -44.5t-39 -121.5v-98h254v-166h-254v-858h-185zM918 0v1024h182v-1024h-182z" />
    <glyph glyph-name="fl" unicode="fl" horiz-adv-x="1294" 
d="M920 0v1464h182v-1464h-182zM227 0v858h-143v166h143v80q0 177 81.5 265.5t236.5 88.5q72 0 127 -22v-179q-64 31 -113 31q-69 0 -108 -44.5t-39 -121.5v-98h254v-166h-254v-858h-185z" />
    <glyph glyph-name="f_f_i" unicode="ffi" horiz-adv-x="2017" 
d="M1634 1233v201h205v-201h-205zM1647 0v1024h182v-1024h-182zM227 0v858h-143v166h143v80q0 177 81.5 265.5t236.5 88.5q72 0 127 -22v-179q-64 31 -113 31q-69 0 -108 -44.5t-39 -121.5v-98h544v80q0 178 81 266t237 88q70 0 125 -22v-179q-60 31 -111 31
q-69 0 -109 -44.5t-40 -121.5v-98h254v-166h-254v-858h-183v858h-544v-858h-185z" />
    <glyph glyph-name="f_f_l" unicode="ffl" horiz-adv-x="2021" 
d="M1649 0v1464h182v-1464h-182zM227 0v858h-143v166h143v80q0 177 81.5 265.5t236.5 88.5q72 0 127 -22v-179q-64 31 -113 31q-69 0 -108 -44.5t-39 -121.5v-98h544v80q0 178 81 266t237 88q70 0 125 -22v-179q-60 31 -111 31q-69 0 -109 -44.5t-40 -121.5v-98h254v-166
h-254v-858h-183v858h-544v-858h-185z" />
    <glyph glyph-name="f_b" unicode="fb" horiz-adv-x="2058" 
d="M1442 -25q-119 0 -210 50.5t-136 113.5l-23 -139h-153v1464h182v-581q55 69 146.5 117.5t197.5 48.5q155 0 271.5 -72.5t175.5 -193t59 -271.5q0 -148 -64.5 -271t-182 -194.5t-263.5 -71.5zM227 0v858h-143v166h143v80q0 177 81.5 265.5t236.5 88.5q72 0 127 -22v-179
q-64 31 -113 31q-69 0 -108 -44.5t-39 -121.5v-98h254v-166h-254v-858h-185zM1425 141q149 0 245.5 107t96.5 264q0 159 -92 265t-243 106t-249 -107t-98 -264q0 -158 95 -264.5t245 -106.5z" />
    <glyph glyph-name="f_f_b" unicode="ffb" horiz-adv-x="2787" 
d="M2171 -25q-119 0 -210 50.5t-136 113.5l-23 -139h-153v1464h182v-581q55 69 146.5 117.5t197.5 48.5q155 0 271.5 -72.5t175.5 -193t59 -271.5q0 -148 -64.5 -271t-182 -194.5t-263.5 -71.5zM2154 141q149 0 246 107t97 264q0 159 -92.5 265t-243.5 106t-248.5 -107
t-97.5 -264q0 -158 94.5 -264.5t244.5 -106.5zM227 0v858h-143v166h143v80q0 177 81.5 265.5t236.5 88.5q72 0 127 -22v-179q-64 31 -113 31q-69 0 -108 -44.5t-39 -121.5v-98h544v80q0 178 81 266t237 88q70 0 125 -22v-179q-60 31 -111 31q-69 0 -109 -44.5t-40 -121.5
v-98h254v-166h-254v-858h-183v858h-544v-858h-185z" />
    <glyph glyph-name="f_h" unicode="fh" horiz-adv-x="1974" 
d="M227 0v858h-143v166h143v80q0 177 81.5 265.5t236.5 88.5q72 0 127 -22v-179q-64 31 -113 31q-69 0 -108 -44.5t-39 -121.5v-98h254v-166h-254v-858h-185zM920 0v1464h182v-567q45 69 128.5 110.5t182.5 41.5q193 0 291 -115t98 -318v-616h-184v600q0 133 -67.5 208
t-176.5 75q-114 0 -193 -101.5t-79 -296.5v-485h-182z" />
    <glyph glyph-name="f_f_h" unicode="ffh" horiz-adv-x="2703" 
d="M1649 0v1464h182v-567q45 69 128 110.5t183 41.5q193 0 291 -115t98 -318v-616h-184v600q0 133 -67.5 208t-176.5 75q-114 0 -193 -101.5t-79 -296.5v-485h-182zM227 0v858h-143v166h143v80q0 177 81.5 265.5t236.5 88.5q72 0 127 -22v-179q-64 31 -113 31
q-69 0 -108 -44.5t-39 -121.5v-98h544v80q0 178 81 266t237 88q70 0 125 -22v-179q-60 31 -111 31q-69 0 -109 -44.5t-40 -121.5v-98h254v-166h-254v-858h-183v858h-544v-858h-185z" />
    <glyph glyph-name="f_j" unicode="fj" horiz-adv-x="1288" 
d="M905 1233v201h205v-201h-205zM227 0v858h-143v166h143v80q0 177 81.5 265.5t236.5 88.5q72 0 127 -22v-179q-64 31 -113 31q-69 0 -108 -44.5t-39 -121.5v-98h254v-166h-254v-858h-185zM918 -434v1458h182v-1423z" />
    <glyph glyph-name="f_f_j" unicode="ffj" horiz-adv-x="2017" 
d="M1634 1233v201h205v-201h-205zM1647 -434v1458h182v-1423zM227 0v858h-143v166h143v80q0 177 81.5 265.5t236.5 88.5q72 0 127 -22v-179q-64 31 -113 31q-69 0 -108 -44.5t-39 -121.5v-98h544v80q0 178 81 266t237 88q70 0 125 -22v-179q-60 31 -111 31q-69 0 -109 -44.5
t-40 -121.5v-98h254v-166h-254v-858h-183v858h-544v-858h-185z" />
    <glyph glyph-name="f_k" unicode="fk" horiz-adv-x="1798" 
d="M227 0v858h-143v166h143v80q0 177 81.5 265.5t236.5 88.5q72 0 127 -22v-179q-64 31 -113 31q-69 0 -108 -44.5t-39 -121.5v-98h254v-166h-254v-858h-185zM920 0v1464h182v-835l375 395h233l-450 -465l497 -559h-231l-424 481v-481h-182z" />
    <glyph glyph-name="f_f_k" unicode="ffk" horiz-adv-x="2525" 
d="M227 0v858h-143v166h143v80q0 177 81.5 265.5t236.5 88.5q72 0 127 -22v-179q-64 31 -113 31q-69 0 -108 -44.5t-39 -121.5v-98h544v80q0 178 81 266t237 88q70 0 125 -22v-179q-60 31 -111 31q-69 0 -109 -44.5t-40 -121.5v-98h254v-166h-254v-858h-183v858h-544v-858
h-185zM1649 0v1464h182v-835l375 395h233l-450 -465l497 -559h-231l-424 481v-481h-182z" />
    <glyph glyph-name="f_t" unicode="ft" horiz-adv-x="1400" 
d="M227 0v858h-143v166h143v80q0 177 81.5 265.5t236.5 88.5q72 0 127 -22v-179q-64 31 -113 31q-69 0 -108 -44.5t-39 -121.5v-98h536v281l182 34v-315h222v-166h-222v-858h-182v858h-536v-858h-185z" />
    <glyph glyph-name="f_f_t" unicode="fft" horiz-adv-x="2127" 
d="M227 0v858h-143v166h143v80q0 177 81.5 265.5t236.5 88.5q72 0 127 -22v-179q-64 31 -113 31q-69 0 -108 -44.5t-39 -121.5v-98h544v80q0 178 81 266t237 88q70 0 125 -22v-179q-60 31 -111 31q-69 0 -109 -44.5t-40 -121.5v-98h536v281l183 34v-315h223v-166h-223v-858
h-183v858h-536v-858h-183v858h-544v-858h-185z" />
    <glyph glyph-name=".notdef" horiz-adv-x="1024" 
d="M102 0v1434h820v-1434h-820zM512 780l309 592h-618zM164 117l315 600l-315 600v-1200zM860 117v1200l-313 -600zM203 61h618l-309 592z" />
    <glyph glyph-name=".null" horiz-adv-x="0" 
 />
    <glyph glyph-name="nonmarkingreturn" horiz-adv-x="682" 
 />
    <glyph glyph-name="space" unicode=" " horiz-adv-x="509" 
 />
    <glyph glyph-name="exclam" unicode="!" horiz-adv-x="587" 
d="M205 354v1080h178v-1080h-178zM190 0v199h207v-199h-207z" />
    <glyph glyph-name="quotedbl" unicode="&#x22;" horiz-adv-x="811" 
d="M168 907v527h172v-527h-172zM473 907v527h172v-527h-172z" />
    <glyph glyph-name="numbersign" unicode="#" 
d="M442 567h199l61 295h-200zM160 0l86 416h-215v151h245l62 295h-213v154h246l86 418h164l-86 -418h198l86 418h166l-88 -418h209v-154h-240l-61 -295h207v-151h-238l-86 -416h-164l86 416h-200l-86 -416h-164z" />
    <glyph glyph-name="dollar" unicode="$" 
d="M662 -184h-168v166q-297 42 -396 348l181 69q27 -98 105 -168.5t202 -70.5q106 0 179 64.5t73 164.5q0 91 -55 150.5t-165 115.5q-15 8 -99.5 53.5t-98.5 53.5q-106 56 -166.5 146.5t-60.5 199.5q0 135 83 229.5t218 116.5v164h168v-170q191 -43 276 -246l-170 -86
q-32 78 -80.5 118t-128.5 40q-71 0 -121.5 -46t-50.5 -112q0 -69 38 -115.5t128 -93.5q7 -4 54.5 -30t98.5 -53.5t56 -30.5q138 -76 204 -173t66 -229q0 -158 -101 -273t-269 -138v-164z" />
    <glyph glyph-name="percent" unicode="%" horiz-adv-x="1959" 
d="M453 16l927 1473l127 -72l-927 -1472zM416 600q-152 0 -242 113t-90 311t90 311t242 113q151 0 240 -113t89 -311t-89 -311t-240 -113zM416 748q81 0 125.5 70t44.5 206q0 135 -45.5 205.5t-124.5 70.5q-80 0 -127 -70.5t-47 -205.5t46.5 -205.5t127.5 -70.5zM1546 -14
q-152 0 -242 113t-90 311t90 311t242 113q151 0 240.5 -113t89.5 -311t-89.5 -311t-240.5 -113zM1546 133q81 0 125.5 70.5t44.5 206.5q0 135 -45.5 205.5t-124.5 70.5q-80 0 -127 -70.5t-47 -205.5t46.5 -206t127.5 -71z" />
    <glyph glyph-name="ampersand" unicode="&#x26;" horiz-adv-x="1435" 
d="M604 920q84 0 139.5 55t55.5 133q0 74 -56 130t-139 56q-84 0 -140 -56t-56 -130q0 -78 56 -133t140 -55zM604 156q188 0 289 135l-387 430q-99 -33 -157 -108.5t-58 -166.5q0 -128 87.5 -209t225.5 -81zM604 -25q-223 0 -365.5 130.5t-142.5 326.5q0 135 77 244t210 170
q-59 37 -104.5 114t-45.5 158q0 137 107 238.5t264 101.5q151 0 260 -99.5t109 -232.5q0 -125 -71 -211.5t-228 -134.5l291 -319q28 123 8 272h184q21 -258 -47 -428q18 -19 137.5 -149t145.5 -156h-240l-135 154q-150 -179 -414 -179z" />
    <glyph glyph-name="quotesingle" unicode="'" horiz-adv-x="505" 
d="M168 907v527h172v-527h-172z" />
    <glyph glyph-name="parenleft" unicode="(" horiz-adv-x="698" 
d="M485 -426q-174 230 -266 492t-92 528q0 269 93 528.5t272 489.5l141 -111q-162 -207 -245 -439t-83 -468q0 -483 328 -907z" />
    <glyph glyph-name="parenright" unicode=")" horiz-adv-x="698" 
d="M213 -426l-143 111q323 425 323 909q0 238 -82.5 470t-244.5 439l141 109q181 -228 272.5 -487t91.5 -531q0 -266 -92 -528t-266 -492z" />
    <glyph glyph-name="asterisk" unicode="*" horiz-adv-x="915" 
d="M387 705l10 262l-219 -142l-72 123l238 121l-238 121l72 123l221 -146l-12 267h141l-14 -267l223 146l72 -123l-238 -121l238 -121l-72 -123l-223 146l14 -266h-141z" />
    <glyph glyph-name="plus" unicode="+" horiz-adv-x="1134" 
d="M483 289v344h-344v168h344v344h168v-344h344v-168h-344v-344h-168z" />
    <glyph glyph-name="comma" unicode="," horiz-adv-x="565" 
d="M111 -266l110 473h217l-186 -473h-141z" />
    <glyph glyph-name="hyphen" unicode="-" horiz-adv-x="921" 
d="M160 434v172h602v-172h-602z" />
    <glyph glyph-name="period" unicode="." horiz-adv-x="575" 
d="M184 0v199h207v-199h-207z" />
    <glyph glyph-name="slash" unicode="/" horiz-adv-x="1069" 
d="M10 -72l867 1577h182l-866 -1577h-183z" />
    <glyph glyph-name="zero" unicode="0" 
d="M569 -25q-234 0 -379 199.5t-145 542.5q0 344 145 542.5t379 198.5q233 0 378 -198.5t145 -542.5q0 -343 -145 -542.5t-378 -199.5zM569 154q155 0 244.5 144.5t89.5 418.5q0 272 -91.5 417.5t-242.5 145.5q-150 0 -243 -146t-93 -417q0 -273 91 -418t245 -145z" />
    <glyph glyph-name="one" unicode="1" 
d="M958 0h-739v176h279v1045l-271 -109v174l310 148h149v-1258h272v-176z" />
    <glyph glyph-name="two" unicode="2" 
d="M117 0v172l450 494q83 91 123 143t66 114t26 128q0 98 -64.5 163.5t-164.5 65.5q-96 0 -156.5 -63t-79.5 -160l-178 55q37 156 147 251t277 95q169 0 289.5 -117.5t120.5 -279.5q0 -128 -58.5 -236.5t-179.5 -238.5l-383 -406h639v-180h-874z" />
    <glyph glyph-name="three" unicode="3" 
d="M555 -25q-180 0 -301.5 98t-163.5 267l176 53q25 -104 101 -170.5t192 -66.5q123 0 205 81t82 207q0 123 -81.5 204.5t-229.5 88.5l-181 13v124l355 383h-541v177h780v-156l-358 -387q192 -11 318 -135.5t126 -313.5q0 -207 -139.5 -337t-339.5 -130z" />
    <glyph glyph-name="four" unicode="4" 
d="M686 0v315h-616v160l653 959h151v-942h193v-177h-193v-315h-188zM276 492h410v598z" />
    <glyph glyph-name="five" unicode="5" 
d="M553 -25q-183 0 -304.5 99t-160.5 266l174 51q27 -106 103 -169.5t190 -63.5q133 0 220 88.5t87 228.5q0 141 -87 230.5t-220 89.5q-83 0 -150 -42t-102 -104l-160 37l90 748h719v-179h-571l-53 -381q38 41 106.5 70t151.5 29q201 0 333 -141.5t132 -356.5
q0 -213 -139.5 -356.5t-358.5 -143.5z" />
    <glyph glyph-name="six" unicode="6" 
d="M575 -25q-202 0 -338.5 137t-136.5 337q0 163 146 389l391 596h221l-377 -537q68 14 113 14q125 0 230 -59t167 -165.5t62 -237.5q0 -200 -137.5 -337t-340.5 -137zM575 156q126 0 206.5 84.5t80.5 208.5q0 126 -80.5 211t-206.5 85q-127 0 -206.5 -84.5t-79.5 -211.5
q0 -124 80.5 -208.5t205.5 -84.5z" />
    <glyph glyph-name="seven" unicode="7" 
d="M154 0l657 1257h-666v177h875v-164l-658 -1270h-208z" />
    <glyph glyph-name="eight" unicode="8" 
d="M567 -25q-202 0 -334.5 128t-132.5 313q0 114 59.5 215.5t162.5 156.5q-63 42 -106.5 120t-43.5 175q0 156 113.5 265.5t281.5 109.5q166 0 282 -110t116 -265q0 -93 -43.5 -172t-106.5 -120q103 -54 163 -152.5t60 -212.5q0 -192 -134 -321.5t-337 -129.5zM567 866
q90 0 152.5 59.5t62.5 147.5q0 89 -63 148t-152 59t-151 -59t-62 -148q0 -88 62 -147.5t151 -59.5zM567 156q122 0 201.5 79t79.5 191q0 109 -80 188.5t-201 79.5t-198.5 -78.5t-77.5 -189.5q0 -113 77 -191.5t199 -78.5z" />
    <glyph glyph-name="nine" unicode="9" 
d="M285 0l372 532q-55 -12 -110 -12q-191 0 -325 132t-134 331q0 200 137.5 337.5t339.5 137.5q203 0 340 -137.5t137 -337.5q0 -161 -145 -391l-393 -592h-219zM565 684q127 0 207 86t80 213q0 124 -80 209.5t-207 85.5q-124 0 -205 -86t-81 -209q0 -126 81 -212.5
t205 -86.5z" />
    <glyph glyph-name="colon" unicode=":" horiz-adv-x="575" 
d="M168 782v197h207v-197h-207zM168 0v199h207v-199h-207z" />
    <glyph glyph-name="semicolon" unicode=";" horiz-adv-x="620" 
d="M229 782v199h207v-199h-207zM119 -266l110 473h217l-186 -473h-141z" />
    <glyph glyph-name="less" unicode="&#x3c;" horiz-adv-x="1134" 
d="M995 215l-856 412v180l856 412v-183l-673 -313l673 -317v-191z" />
    <glyph glyph-name="equal" unicode="=" horiz-adv-x="1134" 
d="M139 844v166h856v-166h-856zM139 424v166h856v-166h-856z" />
    <glyph glyph-name="greater" unicode="&#x3e;" horiz-adv-x="1134" 
d="M139 1219l856 -412v-180l-856 -412v182l674 314l-674 317v191z" />
    <glyph glyph-name="question" unicode="?" horiz-adv-x="958" 
d="M389 354v428l88 13q112 18 173 77t61 172q0 97 -70 168.5t-176 71.5q-94 0 -158.5 -56.5t-91.5 -150.5l-170 60q43 157 154 239t268 82q185 0 307.5 -120t122.5 -294q0 -152 -88.5 -260.5t-243.5 -140.5v-289h-176zM373 0v199h209v-199h-209z" />
    <glyph glyph-name="at" unicode="@" horiz-adv-x="1918" 
d="M977 -240q-194 0 -356 64t-270 175t-167 261t-57 322q2 175 65.5 327t174.5 262.5t271.5 174t348.5 63.5q227 0 410.5 -92.5t289 -261t105.5 -381.5q0 -237 -99.5 -368.5t-248.5 -131.5q-75 0 -132.5 38t-88.5 110q-32 -58 -110 -103t-169 -45q-186 0 -297.5 118.5
t-111.5 291.5q0 168 114 288.5t279 120.5q81 0 149 -35t105 -84l20 101h139v-520q0 -125 121 -125q71 0 121.5 92t50.5 242q0 122 -45.5 230t-127.5 188t-204.5 126.5t-267.5 46.5q-152 0 -283.5 -53.5t-221.5 -144.5t-141 -214t-52 -261t46.5 -260t134 -212.5t217.5 -143
t288 -52.5q159 0 267.5 35.5t205.5 107.5l88 -129q-126 -90 -253.5 -129t-307.5 -39zM940 330q102 0 168 74t66 180t-66 180t-168 74t-166.5 -73.5t-64.5 -180.5q0 -106 65 -180t166 -74z" />
    <glyph glyph-name="A" unicode="A" horiz-adv-x="1349" 
d="M430 524h485l-241 686zM31 0l534 1434h219l535 -1434h-215l-125 344h-612l-125 -344h-211z" />
    <glyph glyph-name="B" unicode="B" horiz-adv-x="1310" 
d="M217 0v1434h440q174 0 284 -103.5t110 -263.5q0 -86 -45 -156t-99 -106q105 -35 184.5 -132.5t79.5 -236.5q0 -196 -123 -316t-327 -120h-504zM412 866h243q91 0 145 54t54 137q0 85 -56.5 139.5t-150.5 54.5h-235v-385zM412 182h301q115 0 189.5 69t74.5 185
q0 115 -74.5 183.5t-189.5 68.5h-301v-506z" />
    <glyph glyph-name="C" unicode="C" horiz-adv-x="1513" 
d="M827 -25q-209 0 -370 99t-245.5 267t-84.5 376q0 156 50.5 292t140 235.5t221.5 156.5t288 57q208 0 362 -93t226 -251l-170 -88q-119 248 -424 248q-216 0 -356.5 -156.5t-140.5 -400.5q0 -245 140.5 -401t362.5 -156q152 0 261 65.5t169 177.5l170 -88
q-88 -161 -239 -250.5t-361 -89.5z" />
    <glyph glyph-name="D" unicode="D" horiz-adv-x="1468" 
d="M217 0v1434h369q177 0 320.5 -54t238 -149.5t145.5 -227t51 -286.5q0 -156 -53.5 -288.5t-150.5 -227t-239 -148t-312 -53.5h-369zM412 182h192q247 0 394 144.5t147 390.5q0 247 -146.5 390.5t-394.5 143.5h-192v-1069z" />
    <glyph glyph-name="E" unicode="E" horiz-adv-x="1169" 
d="M217 0v1434h807v-183h-612v-415h571v-185h-571v-469h612v-182h-807z" />
    <glyph glyph-name="F" unicode="F" horiz-adv-x="1130" 
d="M217 0v1434h807v-183h-612v-415h571v-185h-571v-651h-195z" />
    <glyph glyph-name="G" unicode="G" horiz-adv-x="1626" 
d="M811 -25q-153 0 -282 57t-216.5 156.5t-136.5 235.5t-49 293q0 212 85.5 379.5t246.5 264.5t372 97q200 0 349.5 -88t232.5 -231l-162 -111q-151 246 -426 246q-221 0 -361 -156t-140 -401q0 -246 139.5 -401.5t355.5 -155.5q191 0 311.5 113t124.5 302h-403v183h602
v-758h-143l-39 190q-84 -105 -205.5 -160t-255.5 -55z" />
    <glyph glyph-name="H" unicode="H" horiz-adv-x="1468" 
d="M217 0v1434h195v-603h645v603h194v-1434h-194v649h-645v-649h-195z" />
    <glyph glyph-name="I" unicode="I" horiz-adv-x="628" 
d="M217 0v1434h195v-1434h-195z" />
    <glyph glyph-name="J" unicode="J" horiz-adv-x="974" 
d="M391 -25q-239 0 -371 207l146 109q33 -55 89.5 -94t133.5 -39q92 0 151.5 59t59.5 168v1049h197v-1026q0 -194 -108.5 -313.5t-297.5 -119.5z" />
    <glyph glyph-name="K" unicode="K" horiz-adv-x="1249" 
d="M217 0v1434h195v-621l542 621h232l-588 -686l612 -748h-243l-555 674v-674h-195z" />
    <glyph glyph-name="L" unicode="L" horiz-adv-x="1038" 
d="M217 0v1434h195v-1252h561v-182h-756z" />
    <glyph glyph-name="M" unicode="M" horiz-adv-x="1810" 
d="M217 0v1434h240l450 -1170l447 1170h239v-1434h-192v1040l-410 -1040h-172l-409 1040v-1040h-193z" />
    <glyph glyph-name="N" unicode="N" horiz-adv-x="1507" 
d="M217 0v1434h211l670 -1117v1117h192v-1434h-207l-673 1114v-1114h-193z" />
    <glyph glyph-name="O" unicode="O" horiz-adv-x="1681" 
d="M842 -25q-205 0 -369.5 99.5t-255 268.5t-90.5 374q0 206 88.5 374.5t253 267.5t373.5 99q157 0 291 -57.5t226 -157.5t143.5 -236t51.5 -290q0 -205 -90.5 -374t-254 -268.5t-367.5 -99.5zM842 158q226 0 371 157t145 402q0 244 -146.5 401.5t-369.5 157.5
q-225 0 -371.5 -157.5t-146.5 -401.5q0 -245 145.5 -402t372.5 -157z" />
    <glyph glyph-name="P" unicode="P" horiz-adv-x="1146" 
d="M217 0v1434h424q177 0 292.5 -111.5t115.5 -275.5q0 -169 -116 -282.5t-292 -113.5h-229v-651h-195zM412 831h223q102 0 160.5 60.5t58.5 148.5q0 89 -58.5 150t-160.5 61h-223v-420z" />
    <glyph glyph-name="Q" unicode="Q" horiz-adv-x="1671" 
d="M1370 -74l-135 164q-177 -115 -393 -115q-205 0 -369.5 99.5t-255 268.5t-90.5 374q0 206 88.5 374.5t253 267.5t373.5 99q157 0 291 -57.5t226 -157.5t143.5 -236t51.5 -290q0 -302 -186 -510l141 -162zM842 160q151 0 272 73l-180 218l129 106l178 -207
q117 148 117 367q0 244 -146 400.5t-370 156.5q-225 0 -371.5 -156.5t-146.5 -400.5t145.5 -400.5t372.5 -156.5z" />
    <glyph glyph-name="R" unicode="R" horiz-adv-x="1234" 
d="M412 866h254q99 0 153.5 55t54.5 138q0 85 -55 138.5t-153 53.5h-254v-385zM217 0v1434h457q181 0 289 -104.5t108 -264.5q0 -142 -89.5 -241.5t-236.5 -125.5l400 -698h-221l-387 688h-125v-688h-195z" />
    <glyph glyph-name="S" unicode="S" horiz-adv-x="1099" 
d="M561 -25q-372 0 -487 355l178 69q13 -45 37 -85.5t60.5 -76t90.5 -56.5t119 -21q106 0 179 64.5t73 164.5q0 91 -54 150.5t-163 115.5q-109 57 -201 107q-107 56 -167 146.5t-60 199.5q0 153 104.5 251.5t268.5 98.5q263 0 374 -256l-172 -86q-32 78 -80.5 118t-128.5 40
q-71 0 -121.5 -46t-50.5 -112q0 -69 38 -115.5t128 -93.5q9 -5 104.5 -57t104.5 -57q139 -76 205 -172.5t66 -229.5q0 -175 -123.5 -295.5t-321.5 -120.5z" />
    <glyph glyph-name="T" unicode="T" horiz-adv-x="1081" 
d="M436 0v1251h-387v183h983v-183h-401v-1251h-195z" />
    <glyph glyph-name="U" unicode="U" horiz-adv-x="1429" 
d="M715 -25q-135 0 -240.5 46.5t-170 128t-97.5 187t-33 230.5v867h197v-824q0 -226 90 -338t254 -112q163 0 252.5 112t89.5 338v824h196v-867q0 -99 -20 -186.5t-63 -162.5t-105 -128.5t-151.5 -84t-198.5 -30.5z" />
    <glyph glyph-name="V" unicode="V" horiz-adv-x="1282" 
d="M535 0l-488 1434h211l383 -1170l383 1170h211l-492 -1434h-208z" />
    <glyph glyph-name="W" unicode="W" horiz-adv-x="1851" 
d="M565 0l-518 1434h209l414 -1176l166 465l-256 711h184l164 -478l162 478h182l-250 -705l166 -471l414 1176h200l-512 -1434h-198l-164 487l-162 -487h-201z" />
    <glyph glyph-name="X" unicode="X" horiz-adv-x="1253" 
d="M33 0l483 756l-428 678h219l320 -512l323 512h215l-430 -674l486 -760h-224l-370 592l-373 -592h-221z" />
    <glyph glyph-name="Y" unicode="Y" horiz-adv-x="1130" 
d="M469 0v629l-453 805h211l340 -615l338 615h209l-452 -805v-629h-193z" />
    <glyph glyph-name="Z" unicode="Z" horiz-adv-x="1269" 
d="M117 0v162l790 1089h-749v183h991v-162l-784 -1090h804v-182h-1052z" />
    <glyph glyph-name="bracketleft" unicode="[" horiz-adv-x="706" 
d="M217 -410v2044h418v-157h-246v-1729h246v-158h-418z" />
    <glyph glyph-name="backslash" unicode="\" horiz-adv-x="1069" 
d="M877 -72l-867 1577h183l866 -1577h-182z" />
    <glyph glyph-name="bracketright" unicode="]" horiz-adv-x="706" 
d="M72 -410v158h243v1729h-243v157h417v-2044h-417z" />
    <glyph glyph-name="asciicircum" unicode="^" horiz-adv-x="1134" 
d="M96 575l381 859h180l381 -859h-178l-291 685l-293 -685h-180z" />
    <glyph glyph-name="underscore" unicode="_" horiz-adv-x="1277" 
d="M160 -256v166h958v-166h-958z" />
    <glyph glyph-name="grave" unicode="`" horiz-adv-x="1048" 
d="M569 1434l144 -260h-172l-205 260h233z" />
    <glyph glyph-name="a" unicode="a" horiz-adv-x="1331" 
d="M633 141q150 0 245 106.5t95 264.5t-95 264.5t-245 106.5q-151 0 -245.5 -106.5t-94.5 -264.5t94.5 -264.5t245.5 -106.5zM614 -25q-152 0 -268.5 72t-178 193.5t-61.5 271.5q0 227 143.5 382t364.5 155q120 0 209 -46.5t135 -107.5l27 129h156v-1024h-156l-27 137
q-46 -67 -140 -114.5t-204 -47.5z" />
    <glyph glyph-name="b" unicode="b" horiz-adv-x="1331" 
d="M715 -25q-119 0 -210 50.5t-136 113.5l-23 -139h-153v1464h182v-581q55 69 146.5 117.5t197.5 48.5q155 0 271.5 -72.5t175.5 -193t59 -271.5q0 -148 -64.5 -271t-182 -194.5t-263.5 -71.5zM698 141q149 0 245.5 107t96.5 264q0 159 -92 265t-243 106t-249 -107t-98 -264
q0 -158 95 -264.5t245 -106.5z" />
    <glyph glyph-name="c" unicode="c" horiz-adv-x="1155" 
d="M621 -25q-151 0 -269.5 72t-182 194t-63.5 271t63.5 271t182 194t269.5 72q155 0 271 -70t175 -205l-164 -74q-92 183 -289 183q-140 0 -230.5 -104.5t-90.5 -266.5q0 -163 91.5 -267t236.5 -104q105 0 180.5 53.5t111.5 131.5l162 -74q-62 -122 -178.5 -199.5
t-275.5 -77.5z" />
    <glyph glyph-name="d" unicode="d" horiz-adv-x="1331" 
d="M631 141q151 0 245.5 106.5t94.5 264.5t-94.5 264.5t-245.5 106.5q-150 0 -245 -106.5t-95 -264.5t95 -264.5t245 -106.5zM616 -25q-153 0 -270 72t-178.5 193.5t-61.5 271.5q0 149 63.5 271t181 194t265.5 72q118 0 204 -47.5t136 -108.5v571h183v-1464h-154l-24 145
q-49 -68 -141.5 -119t-203.5 -51z" />
    <glyph glyph-name="e" unicode="e" horiz-adv-x="1196" 
d="M614 -25q-236 0 -372 151.5t-136 385.5q0 150 60 271.5t177 193.5t271 72q114 0 206.5 -40t153.5 -109.5t93.5 -163t32.5 -201.5q0 -32 -4 -82h-807q11 -141 101.5 -226.5t232.5 -85.5q193 0 299 185l149 -74q-61 -126 -178.5 -201.5t-278.5 -75.5zM291 602h629
q-11 128 -92 204.5t-212 76.5q-133 0 -222 -77.5t-103 -203.5z" />
    <glyph glyph-name="f" unicode="f" horiz-adv-x="727" 
d="M227 0v858h-143v166h143v80q0 177 81.5 265.5t236.5 88.5q72 0 127 -22v-179q-64 31 -113 31q-69 0 -108 -44.5t-39 -121.5v-98h254v-166h-254v-858h-185z" />
    <glyph glyph-name="g" unicode="g" horiz-adv-x="1159" 
d="M578 -434q-97 0 -184.5 32t-153 87.5t-104 136t-38.5 172.5q0 122 69 224.5t163 146.5q-68 45 -117 122.5t-49 176.5q0 165 122.5 275t291.5 110h466v-123l-165 -29q102 -98 102 -240q0 -91 -50 -170.5t-114 -117.5q96 -44 163 -145t67 -230q0 -186 -135.5 -307
t-333.5 -121zM578 434q106 0 167.5 65t61.5 160q0 97 -62 162.5t-167 65.5q-102 0 -171 -66.5t-69 -161.5q0 -92 68.5 -158.5t171.5 -66.5zM578 -272q128 0 211 77t83 195t-84 197t-210 79q-121 0 -210 -80t-89 -196q0 -117 87.5 -194.5t211.5 -77.5z" />
    <glyph glyph-name="h" unicode="h" horiz-adv-x="1247" 
d="M193 0v1464h182v-567q45 69 128 110.5t183 41.5q193 0 291 -115t98 -318v-616h-184v600q0 133 -67.5 208t-176.5 75q-114 0 -193 -101.5t-79 -296.5v-485h-182z" />
    <glyph glyph-name="i" unicode="i" horiz-adv-x="561" 
d="M178 1233v201h205v-201h-205zM190 0v1024h183v-1024h-183z" />
    <glyph glyph-name="j" unicode="j" horiz-adv-x="561" 
d="M178 1233v201h205v-201h-205zM190 -434v1458h183v-1423z" />
    <glyph glyph-name="k" unicode="k" horiz-adv-x="1069" 
d="M193 0v1464h182v-835l375 395h233l-451 -465l498 -559h-231l-424 481v-481h-182z" />
    <glyph glyph-name="l" unicode="l" horiz-adv-x="565" 
d="M193 0v1464h182v-1464h-182z" />
    <glyph glyph-name="m" unicode="m" horiz-adv-x="1839" 
d="M193 0v1024h153l27 -131q103 156 299 156q223 0 303 -172q43 75 124 123.5t199 48.5q186 0 277.5 -112t91.5 -314v-623h-184v631q0 125 -56 188.5t-153 63.5q-110 0 -182 -102t-72 -296v-485h-182v631q0 125 -56 188.5t-153 63.5q-111 0 -182.5 -101.5t-71.5 -296.5v-485
h-182z" />
    <glyph glyph-name="n" unicode="n" horiz-adv-x="1241" 
d="M193 0v1024h153l27 -127q101 152 311 152q188 0 285.5 -115.5t97.5 -317.5v-616h-182v600q0 134 -66 208.5t-174 74.5q-115 0 -192.5 -100.5t-77.5 -297.5v-485h-182z" />
    <glyph glyph-name="o" unicode="o" horiz-adv-x="1271" 
d="M635 -25q-230 0 -379.5 155t-149.5 382t149.5 382t379.5 155t380 -155t150 -382t-150 -382t-380 -155zM635 141q147 0 245.5 104.5t98.5 266.5t-98.5 266.5t-245.5 104.5t-244.5 -104.5t-97.5 -266.5t97.5 -266.5t244.5 -104.5z" />
    <glyph glyph-name="p" unicode="p" horiz-adv-x="1331" 
d="M698 141q151 0 246.5 106.5t95.5 264.5q0 157 -95.5 264t-244.5 107q-150 0 -246 -106.5t-96 -264.5t95 -264.5t245 -106.5zM193 -410v1434h153l23 -145q53 71 149 120.5t205 49.5q114 0 209 -42t159 -114.5t99 -170.5t35 -210q0 -149 -63.5 -271t-181 -194t-265.5 -72
q-119 0 -207 48t-133 110v-543h-182z" />
    <glyph glyph-name="q" unicode="q" horiz-adv-x="1331" 
d="M956 -410v551q-56 -71 -146.5 -118.5t-197.5 -47.5q-155 0 -271.5 72.5t-175.5 193t-59 271.5q0 149 64 271t181.5 194t264.5 72q120 0 210.5 -49.5t134.5 -112.5l24 137h154v-1434h-183zM627 141q150 0 247 107t97 264q0 158 -94.5 264.5t-245.5 106.5
q-149 0 -244.5 -107t-95.5 -264q0 -159 92.5 -265t243.5 -106z" />
    <glyph glyph-name="r" unicode="r" horiz-adv-x="856" 
d="M193 0v1024h153l27 -137q89 162 278 162q90 0 166 -41l-59 -181q-62 35 -146 35q-105 0 -171 -84t-66 -243v-535h-182z" />
    <glyph glyph-name="s" unicode="s" horiz-adv-x="876" 
d="M434 -25q-139 0 -232.5 73t-138.5 200l154 63q53 -174 227 -174q77 0 125.5 44t48.5 108q0 63 -38.5 102.5t-130.5 75.5l-132 53q-82 32 -131 101t-49 161q0 111 84.5 189t208.5 78q206 0 297 -191l-145 -84q-47 113 -152 113q-49 0 -84 -32.5t-35 -78.5q0 -50 31 -77.5
t88 -51.5l150 -59q98 -41 155.5 -115.5t57.5 -181.5q0 -136 -99 -226t-260 -90z" />
    <glyph glyph-name="t" unicode="t" horiz-adv-x="673" 
d="M219 0v858h-133v166h133v281l184 34v-315h222v-166h-222v-858h-184z" />
    <glyph glyph-name="u" unicode="u" horiz-adv-x="1245" 
d="M557 -25q-195 0 -292 117t-97 324v608h182v-606q0 -132 68 -204.5t178 -72.5q122 0 198 94.5t76 264.5v524h183v-1024h-154l-29 127q-45 -69 -126 -110.5t-187 -41.5z" />
    <glyph glyph-name="v" unicode="v" horiz-adv-x="1024" 
d="M420 0l-387 1024h186l295 -821l291 821h186l-389 -1024h-182z" />
    <glyph glyph-name="w" unicode="w" horiz-adv-x="1523" 
d="M391 0l-348 1024h186l254 -803l205 555l-90 248h178l275 -803l245 803h185l-340 -1024h-176l-199 557l-201 -557h-174z" />
    <glyph glyph-name="x" unicode="x" horiz-adv-x="1009" 
d="M39 0l362 539l-327 485h202l230 -344l227 344h203l-330 -483l365 -541h-205l-262 399l-260 -399h-205z" />
    <glyph glyph-name="y" unicode="y" horiz-adv-x="1026" 
d="M471 -410h-188l149 422l-397 1012h194l297 -778l273 778h190z" />
    <glyph glyph-name="z" unicode="z" horiz-adv-x="940" 
d="M68 0v145l546 713h-505v166h739v-145l-549 -713h563v-166h-794z" />
    <glyph glyph-name="braceleft" unicode="{" horiz-adv-x="784" 
d="M670 -410q-180 0 -265.5 92.5t-85.5 284.5v443q0 76 -39 107.5t-126 31.5h-50v180h50q87 0 126 31.5t39 107.5v389q0 192 85.5 284.5t265.5 92.5h53v-157h-53q-88 0 -132 -57t-44 -163v-395q0 -95 -44.5 -151t-117.5 -72q73 -16 117.5 -72t44.5 -149v-451
q0 -106 44 -162.5t132 -56.5h53v-158h-53z" />
    <glyph glyph-name="bar" unicode="|" horiz-adv-x="569" 
d="M197 -369v1874h176v-1874h-176z" />
    <glyph glyph-name="braceright" unicode="}" horiz-adv-x="784" 
d="M61 -410v158h54q176 0 176 219v445q0 97 44.5 154t117.5 73q-74 16 -118 71t-44 152v395q0 220 -176 220h-54v157h54q179 0 264.5 -91t85.5 -281v-394q0 -76 40.5 -107.5t127.5 -31.5h47v-180h-47q-87 0 -127.5 -31.5t-40.5 -107.5v-443q0 -192 -85 -284.5t-265 -92.5
h-54z" />
    <glyph glyph-name="asciitilde" unicode="~" horiz-adv-x="1134" 
d="M139 557q0 153 69 235t177 82q45 0 90 -16t79.5 -39t65.5 -45.5t61.5 -38.5t55.5 -16q40 0 63 23t29.5 54.5t6.5 77.5h159q0 -154 -68.5 -235.5t-176.5 -81.5q-58 0 -114.5 24.5t-92 53.5t-75.5 53.5t-69 24.5q-57 0 -78.5 -42.5t-21.5 -113.5h-160z" />
    <glyph glyph-name="exclamdown" unicode="&#xa1;" horiz-adv-x="587" 
d="M188 823v201h213v-201h-213zM205 -410v1080h178v-1080h-178z" />
    <glyph glyph-name="cent" unicode="&#xa2;" 
d="M1065 252q-54 -107 -152 -180.5t-231 -91.5v-164h-168v168q-189 32 -303.5 179t-114.5 349t114.5 349t303.5 179v168h168v-164q130 -15 226.5 -83.5t148.5 -186.5l-164 -74q-92 183 -289 183q-140 0 -230.5 -104.5t-90.5 -266.5q0 -163 91.5 -267t235.5 -104
q105 0 181 53.5t112 131.5z" />
    <glyph glyph-name="sterling" unicode="&#xa3;" 
d="M1020 0h-918v180h154v455h-164v160h164v260q0 178 112.5 290.5t280.5 112.5q134 0 230.5 -65t150.5 -183l-151 -84q-72 156 -224 156q-101 0 -156 -67.5t-55 -202.5v-217h385v-160h-385v-455h576v-180z" />
    <glyph glyph-name="currency" unicode="&#xa4;" horiz-adv-x="1134" 
d="M102 371l156 155q-43 88 -43 191q0 105 45 190l-158 156l119 119l150 -148q86 60 198 60q111 0 197 -60l147 148l121 -119l-157 -156q45 -85 45 -190q0 -106 -45 -191l157 -155l-119 -121l-149 149q-83 -61 -197 -61t-200 61l-148 -149zM377 717q0 -108 52.5 -171
t139.5 -63t139 63t52 171q0 110 -52.5 170.5t-138.5 60.5t-139 -60.5t-53 -170.5z" />
    <glyph glyph-name="yen" unicode="&#xa5;" 
d="M932 475h-275v-475h-188v475h-274v160h274v164h-274v159h167l-317 476h213l305 -476l318 476h211l-326 -476h166v-159h-275v-164h275v-160z" />
    <glyph glyph-name="brokenbar" unicode="&#xa6;" horiz-adv-x="569" 
d="M373 711h-176v794h176v-794zM197 -369v793h176v-793h-176z" />
    <glyph glyph-name="section" unicode="&#xa7;" horiz-adv-x="1114" 
d="M678 279q2 -1 53 -33q78 64 78 160q0 89 -56.5 152t-164.5 124l-168 94q-42 -27 -67 -68.5t-25 -89.5q0 -77 39.5 -128t134.5 -107zM535 -434q-149 0 -254 70.5t-160 199.5l168 86q30 -70 92 -121t156 -51q81 0 135.5 46.5t54.5 113.5q0 77 -46 126.5t-142 102.5l-174 99
q-232 137 -232 378q0 85 38 159t108 126q-80 100 -80 225q0 150 101 242t263 90q265 -3 371 -256l-172 -86q-28 77 -77 117.5t-128 40.5q-70 0 -117 -38.5t-47 -102.5q0 -68 36.5 -114.5t119.5 -94.5l188 -109q134 -77 197 -175.5t63 -231.5q0 -167 -143 -285
q68 -96 68 -207q0 -148 -107 -249t-280 -101z" />
    <glyph glyph-name="dieresis" unicode="&#xa8;" horiz-adv-x="1048" 
d="M268 1210v168h183v-168h-183zM598 1210v168h182v-168h-182z" />
    <glyph glyph-name="copyright" unicode="&#xa9;" horiz-adv-x="1746" 
d="M872 -25q-209 0 -379 98t-265 267.5t-95 376.5q0 208 93 377t262.5 266.5t383.5 97.5t384 -97.5t263 -266.5t93 -377q0 -207 -95.5 -376.5t-265.5 -267.5t-379 -98zM872 104q169 0 308 77t220 218t81 318q0 133 -47.5 248t-129.5 194.5t-194 124.5t-238 45
q-169 0 -306.5 -77t-217.5 -217.5t-80 -317.5t80 -318t217.5 -218t306.5 -77zM1235 932l-148 -76q-37 63 -83.5 96t-126.5 33q-101 0 -168.5 -78t-67.5 -190q0 -113 66 -190.5t170 -77.5q81 0 131.5 33.5t83.5 97.5l153 -74q-44 -94 -138.5 -157.5t-229.5 -63.5
q-174 0 -291 127t-117 305t117 305t291 127q131 0 224.5 -62.5t133.5 -154.5z" />
    <glyph glyph-name="ordfeminine" unicode="&#xaa;" horiz-adv-x="964" 
d="M463 844q88 0 144.5 59.5t56.5 151.5t-56.5 151.5t-144.5 59.5t-143.5 -59.5t-55.5 -151.5t55.5 -151.5t143.5 -59.5zM434 700q-145 0 -238.5 100.5t-93.5 254.5q0 155 97.5 254.5t238.5 99.5q74 0 130 -26t85 -64l19 74h143v-676h-139l-23 78q-29 -39 -87 -67t-132 -28z
M164 455v139h651v-139h-651z" />
    <glyph glyph-name="guillemotleft" unicode="&#xab;" horiz-adv-x="935" 
d="M299 184l-203 348l203 349h190l-202 -346l205 -351h-193zM647 184l-203 348l203 349h191l-203 -346l205 -351h-193z" />
    <glyph glyph-name="logicalnot" unicode="&#xac;" horiz-adv-x="1134" 
d="M995 215h-168v418h-688v168h856v-586z" />
    <glyph glyph-name="registered" unicode="&#xae;" horiz-adv-x="858" 
d="M428 774q-159 0 -265 107t-106 266q0 160 104 266.5t267 106.5q164 0 268.5 -106.5t104.5 -266.5q0 -159 -106 -266t-267 -107zM428 850q124 0 207.5 84.5t83.5 212.5t-83.5 212.5t-207.5 84.5q-123 0 -206 -84t-83 -213t83 -213t206 -84zM442 1270h-61v-117h61
q29 0 45.5 15.5t16.5 39.5q0 26 -17 44t-45 18zM494 1085l92 -129h-97l-81 123h-27v-123h-82v390h147q61 0 102.5 -39.5t41.5 -96.5q0 -45 -26 -78t-70 -47z" />
    <glyph glyph-name="macron" unicode="&#xaf;" horiz-adv-x="1048" 
d="M227 1237v143h594v-143h-594z" />
    <glyph glyph-name="degree" unicode="&#xb0;" horiz-adv-x="763" 
d="M86 1151q0 124 84.5 208.5t212.5 84.5q127 0 211 -84.5t84 -208.5q0 -125 -84 -210t-211 -85q-128 0 -212.5 85t-84.5 210zM229 1151q0 -71 43.5 -116.5t110.5 -45.5q66 0 109 46t43 116q0 69 -43 114.5t-109 45.5q-67 0 -110.5 -45.5t-43.5 -114.5z" />
    <glyph glyph-name="plusminus" unicode="&#xb1;" horiz-adv-x="1134" 
d="M139 197v165h344v271h-344v168h344v344h168v-344h344v-168h-344v-271h344v-165h-856z" />
    <glyph glyph-name="twosuperior" unicode="&#xb2;" horiz-adv-x="704" 
d="M72 717v141q1 1 34.5 35.5t70.5 72t81.5 81.5t69.5 67q69 67 96 103.5t27 78.5q0 43 -31 72t-78 29t-76 -30.5t-37 -76.5l-145 45q24 94 91 154.5t177 60.5q108 0 183 -69t75 -168q0 -74 -34 -133.5t-105 -128.5l-197 -191h342v-143h-544z" />
    <glyph glyph-name="threesuperior" unicode="&#xb3;" horiz-adv-x="741" 
d="M352 702q-116 0 -189 56.5t-97 152.5l143 50q13 -47 51 -78t92 -31q60 0 100 37t40 92q0 51 -38.5 87t-103.5 42l-112 12v107l172 164h-293v143h485v-131l-190 -176q106 -14 172.5 -80.5t66.5 -167.5q0 -126 -84.5 -202.5t-214.5 -76.5z" />
    <glyph glyph-name="acute" unicode="&#xb4;" horiz-adv-x="1048" 
d="M336 1174l143 260h234l-205 -260h-172z" />
    <glyph glyph-name="mu" unicode="&#xb5;" horiz-adv-x="1267" 
d="M193 -410v1434h182v-606q0 -132 68 -204.5t178 -72.5q122 0 197 94.5t75 264.5v524h184v-1024h-155l-27 127q-45 -69 -126.5 -110.5t-186.5 -41.5q-125 0 -207 76v-461h-182z" />
    <glyph glyph-name="paragraph" unicode="&#xb6;" horiz-adv-x="1116" 
d="M741 0v1434h158v-1434h-158zM449 0v829q-149 0 -242.5 84.5t-93.5 219.5q0 128 94.5 214.5t241.5 86.5h155v-1434h-155z" />
    <glyph glyph-name="periodcentered" unicode="&#xb7;" horiz-adv-x="587" 
d="M184 492v208h219v-208h-219z" />
    <glyph glyph-name="cedilla" unicode="&#xb8;" horiz-adv-x="1050" 
d="M412 -215l-64 47l121 205h131l-90 -127q87 11 148 -42t61 -140q0 -83 -59.5 -138t-163.5 -55q-95 0 -164 55l63 97q49 -39 99 -39q43 0 72.5 21.5t29.5 58.5q0 36 -28.5 57.5t-71.5 21.5q-47 0 -84 -22z" />
    <glyph glyph-name="onesuperior" unicode="&#xb9;" horiz-adv-x="528" 
d="M221 717v645l-139 -57v147l162 84h135v-819h-158z" />
    <glyph glyph-name="ordmasculine" unicode="&#xba;" horiz-adv-x="927" 
d="M465 700q-158 0 -260.5 101t-102.5 254t102.5 253.5t260.5 100.5q155 0 256.5 -100.5t101.5 -253.5t-101.5 -254t-256.5 -101zM465 844q84 0 141.5 60t57.5 151t-57.5 151t-141.5 60q-87 0 -144 -59.5t-57 -151.5t57 -151.5t144 -59.5zM164 455v139h598v-139h-598z" />
    <glyph glyph-name="guillemotright" unicode="&#xbb;" horiz-adv-x="913" 
d="M436 184l203 346l-205 351h191l202 -349l-202 -348h-189zM88 184l203 346l-205 351h190l203 -349l-203 -348h-188z" />
    <glyph glyph-name="onequarter" unicode="&#xbc;" horiz-adv-x="1959" 
d="M358 16l928 1473l127 -72l-928 -1472zM365 614v646l-140 -58v148l162 84h135v-820h-157zM1090 160v129l366 530h139v-520h115v-139h-115v-160h-159v160h-346zM1436 571l-191 -272h191v272z" />
    <glyph glyph-name="onehalf" unicode="&#xbd;" horiz-adv-x="1959" 
d="M362 16l928 1473l127 -72l-928 -1472zM387 614v646l-139 -58v148l162 84h135v-820h-158zM1116 0v141q1 1 34.5 35.5t70.5 72t81.5 81.5t69.5 67q68 67 95.5 104t27.5 79q0 43 -31 71.5t-78 28.5t-75.5 -30.5t-36.5 -76.5l-146 45q24 95 91.5 155.5t177.5 60.5
q108 0 183 -69.5t75 -168.5q0 -74 -34 -133.5t-105 -128.5l-197 -191h342v-143h-545z" />
    <glyph glyph-name="threequarters" unicode="&#xbe;" horiz-adv-x="1959" 
d="M444 16l928 1473l127 -72l-928 -1472zM428 600q-116 0 -189.5 56.5t-97.5 152.5l144 49q13 -47 50.5 -77.5t92.5 -30.5q60 0 99.5 36.5t39.5 92.5q0 51 -38 87t-103 42l-113 12v106l172 164h-292v144h485v-131l-191 -177q107 -14 173.5 -80t66.5 -167
q0 -126 -84.5 -202.5t-214.5 -76.5zM1165 160v129l367 530h139v-520h115v-139h-115v-160h-160v160h-346zM1511 571l-190 -272h190v272z" />
    <glyph glyph-name="questiondown" unicode="&#xbf;" horiz-adv-x="958" 
d="M377 825v199h209v-199h-209zM492 -434q-185 0 -308 120t-123 294q0 152 88.5 260.5t243.5 140.5v289h176v-428l-88 -13q-231 -39 -231 -249q0 -96 69.5 -168t174.5 -72q93 0 157.5 56.5t93.5 150.5l170 -60q-45 -157 -156 -239t-267 -82z" />
    <glyph glyph-name="Agrave" unicode="&#xc0;" horiz-adv-x="1349" 
d="M621 1823l143 -260h-172l-205 260h234zM430 524h485l-241 686zM31 0l534 1434h219l535 -1434h-215l-125 344h-612l-125 -344h-211z" />
    <glyph glyph-name="Aacute" unicode="&#xc1;" horiz-adv-x="1349" 
d="M590 1563l143 260h234l-205 -260h-172zM430 524h485l-241 686zM31 0l534 1434h219l535 -1434h-215l-125 344h-612l-125 -344h-211z" />
    <glyph glyph-name="Acircumflex" unicode="&#xc2;" horiz-adv-x="1349" 
d="M375 1563l207 260h188l207 -260h-184l-117 145l-119 -145h-182zM430 524h485l-241 686zM31 0l534 1434h219l535 -1434h-215l-125 344h-612l-125 -344h-211z" />
    <glyph glyph-name="Atilde" unicode="&#xc3;" horiz-adv-x="1349" 
d="M518 1569h-137q-21 109 31.5 178.5t140.5 69.5q44 0 91 -27.5t84.5 -55.5t57.5 -28q71 0 48 111h137q21 -113 -28.5 -180.5t-145.5 -67.5q-45 0 -89.5 27.5t-80.5 55t-60 27.5q-73 0 -49 -110zM430 524h485l-241 686zM31 0l534 1434h219l535 -1434h-215l-125 344h-612
l-125 -344h-211z" />
    <glyph glyph-name="Adieresis" unicode="&#xc4;" horiz-adv-x="1349" 
d="M420 1599v168h182v-168h-182zM750 1599v168h182v-168h-182zM430 524h485l-241 686zM31 0l534 1434h219l535 -1434h-215l-125 344h-612l-125 -344h-211z" />
    <glyph glyph-name="Aring" unicode="&#xc5;" horiz-adv-x="1349" 
d="M457 1729q0 88 63 152.5t156 64.5q92 0 155.5 -64.5t63.5 -152.5q0 -87 -63.5 -152.5t-155.5 -65.5q-93 0 -156 65.5t-63 152.5zM676 1819q-40 0 -66 -26t-26 -64q0 -40 26 -66.5t66 -26.5q38 0 64 26.5t26 66.5q0 38 -26 64t-64 26zM430 524h485l-241 686zM31 0
l534 1434h219l535 -1434h-215l-125 344h-612l-125 -344h-211z" />
    <glyph glyph-name="AE" unicode="&#xc6;" horiz-adv-x="1777" 
d="M455 524h383v727h-19zM-12 0l719 1434h935v-183h-612v-415h572v-185h-572v-469h612v-182h-804v342h-471l-174 -342h-205z" />
    <glyph glyph-name="Ccedilla" unicode="&#xc7;" horiz-adv-x="1513" 
d="M754 -465q-95 0 -164 55l63 97q49 -39 99 -39q43 0 72.5 21.5t29.5 58.5q0 36 -28.5 57.5t-71.5 21.5q-47 0 -84 -22l-64 47l90 154q-261 44 -415 246t-154 485q0 156 50.5 292t140 235.5t221.5 156.5t288 57q208 0 362 -93t226 -251l-170 -88q-119 248 -424 248
q-216 0 -356.5 -156.5t-140.5 -400.5q0 -245 140.5 -401t362.5 -156q152 0 261 65.5t169 177.5l170 -88q-88 -161 -239 -250.5t-361 -89.5h-12l-47 -65q87 11 148 -42t61 -140q0 -83 -59.5 -138t-163.5 -55z" />
    <glyph glyph-name="Egrave" unicode="&#xc8;" horiz-adv-x="1169" 
d="M549 1823l143 -260h-172l-205 260h234zM217 0v1434h807v-183h-612v-415h571v-185h-571v-469h612v-182h-807z" />
    <glyph glyph-name="Eacute" unicode="&#xc9;" horiz-adv-x="1169" 
d="M518 1563l144 260h233l-205 -260h-172zM217 0v1434h807v-183h-612v-415h571v-185h-571v-469h612v-182h-807z" />
    <glyph glyph-name="Ecircumflex" unicode="&#xca;" horiz-adv-x="1169" 
d="M303 1563l207 260h188l207 -260h-184l-117 145l-119 -145h-182zM217 0v1434h807v-183h-612v-415h571v-185h-571v-469h612v-182h-807z" />
    <glyph glyph-name="Edieresis" unicode="&#xcb;" horiz-adv-x="1169" 
d="M348 1599v168h182v-168h-182zM678 1599v168h182v-168h-182zM217 0v1434h807v-183h-612v-415h571v-185h-571v-469h612v-182h-807z" />
    <glyph glyph-name="Igrave" unicode="&#xcc;" horiz-adv-x="628" 
d="M258 1823l143 -260h-172l-204 260h233zM217 0v1434h195v-1434h-195z" />
    <glyph glyph-name="Iacute" unicode="&#xcd;" horiz-adv-x="628" 
d="M229 1563l144 260h233l-205 -260h-172zM217 0v1434h195v-1434h-195z" />
    <glyph glyph-name="Icircumflex" unicode="&#xce;" horiz-adv-x="628" 
d="M14 1563l207 260h189l206 -260h-184l-117 145l-118 -145h-183zM217 0v1434h195v-1434h-195z" />
    <glyph glyph-name="Idieresis" unicode="&#xcf;" horiz-adv-x="628" 
d="M59 1599v168h183v-168h-183zM389 1599v168h182v-168h-182zM217 0v1434h195v-1434h-195z" />
    <glyph glyph-name="Eth" unicode="&#xd0;" horiz-adv-x="1486" 
d="M236 0v631h-134v172h134v631h368q178 0 321.5 -54t238 -149.5t145.5 -227t51 -286.5q0 -156 -53.5 -288.5t-150.5 -227t-239 -148t-313 -53.5h-368zM430 182h195q246 0 392 144.5t146 390.5q0 247 -145.5 390.5t-392.5 143.5h-195v-448h305v-172h-305v-449z" />
    <glyph glyph-name="Ntilde" unicode="&#xd1;" horiz-adv-x="1507" 
d="M596 1569h-137q-21 109 31.5 178.5t140.5 69.5q44 0 91 -27.5t84.5 -55.5t57.5 -28q70 0 47 111h138q21 -113 -29 -180.5t-146 -67.5q-36 0 -72 17t-59.5 38t-50.5 38t-47 17q-73 0 -49 -110zM217 0v1434h211l670 -1117v1117h192v-1434h-207l-673 1114v-1114h-193z" />
    <glyph glyph-name="Ograve" unicode="&#xd2;" horiz-adv-x="1681" 
d="M784 1823l144 -260h-172l-205 260h233zM842 -25q-205 0 -369.5 99.5t-255 268.5t-90.5 374q0 206 88.5 374.5t253 267.5t373.5 99q157 0 291 -57.5t226 -157.5t143.5 -236t51.5 -290q0 -205 -90.5 -374t-254 -268.5t-367.5 -99.5zM842 158q226 0 371 157t145 402
q0 244 -146.5 401.5t-369.5 157.5q-225 0 -371.5 -157.5t-146.5 -401.5q0 -245 145.5 -402t372.5 -157z" />
    <glyph glyph-name="Oacute" unicode="&#xd3;" horiz-adv-x="1681" 
d="M756 1563l143 260h234l-205 -260h-172zM842 -25q-205 0 -369.5 99.5t-255 268.5t-90.5 374q0 206 88.5 374.5t253 267.5t373.5 99q157 0 291 -57.5t226 -157.5t143.5 -236t51.5 -290q0 -205 -90.5 -374t-254 -268.5t-367.5 -99.5zM842 158q226 0 371 157t145 402
q0 244 -146.5 401.5t-369.5 157.5q-225 0 -371.5 -157.5t-146.5 -401.5q0 -245 145.5 -402t372.5 -157z" />
    <glyph glyph-name="Ocircumflex" unicode="&#xd4;" horiz-adv-x="1681" 
d="M541 1563l207 260h188l207 -260h-185l-116 145l-119 -145h-182zM842 -25q-205 0 -369.5 99.5t-255 268.5t-90.5 374q0 206 88.5 374.5t253 267.5t373.5 99q157 0 291 -57.5t226 -157.5t143.5 -236t51.5 -290q0 -205 -90.5 -374t-254 -268.5t-367.5 -99.5zM842 158
q226 0 371 157t145 402q0 244 -146.5 401.5t-369.5 157.5q-225 0 -371.5 -157.5t-146.5 -401.5q0 -245 145.5 -402t372.5 -157z" />
    <glyph glyph-name="Otilde" unicode="&#xd5;" horiz-adv-x="1681" 
d="M684 1569h-137q-21 109 31.5 178.5t140.5 69.5q44 0 91 -27.5t84.5 -55.5t57.5 -28q70 0 47 111h138q21 -113 -28.5 -180.5t-145.5 -67.5q-45 0 -89.5 27.5t-80.5 55t-60 27.5q-73 0 -49 -110zM842 -25q-205 0 -369.5 99.5t-255 268.5t-90.5 374q0 206 88.5 374.5
t253 267.5t373.5 99q157 0 291 -57.5t226 -157.5t143.5 -236t51.5 -290q0 -205 -90.5 -374t-254 -268.5t-367.5 -99.5zM842 158q226 0 371 157t145 402q0 244 -146.5 401.5t-369.5 157.5q-225 0 -371.5 -157.5t-146.5 -401.5q0 -245 145.5 -402t372.5 -157z" />
    <glyph glyph-name="Odieresis" unicode="&#xd6;" horiz-adv-x="1681" 
d="M586 1599v168h182v-168h-182zM915 1599v168h183v-168h-183zM842 -25q-205 0 -369.5 99.5t-255 268.5t-90.5 374q0 206 88.5 374.5t253 267.5t373.5 99q157 0 291 -57.5t226 -157.5t143.5 -236t51.5 -290q0 -205 -90.5 -374t-254 -268.5t-367.5 -99.5zM842 158
q226 0 371 157t145 402q0 244 -146.5 401.5t-369.5 157.5q-225 0 -371.5 -157.5t-146.5 -401.5q0 -245 145.5 -402t372.5 -157z" />
    <glyph glyph-name="multiply" unicode="&#xd7;" horiz-adv-x="1134" 
d="M291 324l-115 112l279 283l-279 280l115 113l276 -278l277 278l114 -113l-278 -280l278 -283l-114 -112l-277 280z" />
    <glyph glyph-name="Oslash" unicode="&#xd8;" horiz-adv-x="1681" 
d="M842 -25q-242 0 -428 140l-109 -125l-117 92l117 135q-178 206 -178 500q0 206 88.5 374.5t253 267.5t373.5 99q247 0 430 -137l106 123l117 -92l-117 -131q85 -99 130.5 -228.5t45.5 -275.5q0 -205 -90.5 -374t-254 -268.5t-367.5 -99.5zM324 717q0 -212 108 -357
l713 818q-128 98 -303 98q-225 0 -371.5 -157.5t-146.5 -401.5zM842 158q226 0 371 157t145 402q0 211 -109 354l-712 -815q131 -98 305 -98z" />
    <glyph glyph-name="Ugrave" unicode="&#xd9;" horiz-adv-x="1429" 
d="M657 1823l144 -260h-172l-205 260h233zM715 -25q-135 0 -240.5 46.5t-170 128t-97.5 187t-33 230.5v867h197v-824q0 -226 90 -338t254 -112q163 0 252.5 112t89.5 338v824h196v-867q0 -99 -20 -186.5t-63 -162.5t-105 -128.5t-151.5 -84t-198.5 -30.5z" />
    <glyph glyph-name="Uacute" unicode="&#xda;" horiz-adv-x="1429" 
d="M629 1563l143 260h234l-205 -260h-172zM715 -25q-135 0 -240.5 46.5t-170 128t-97.5 187t-33 230.5v867h197v-824q0 -226 90 -338t254 -112q163 0 252.5 112t89.5 338v824h196v-867q0 -99 -20 -186.5t-63 -162.5t-105 -128.5t-151.5 -84t-198.5 -30.5z" />
    <glyph glyph-name="Ucircumflex" unicode="&#xdb;" horiz-adv-x="1429" 
d="M414 1563l207 260h188l207 -260h-185l-116 145l-119 -145h-182zM715 -25q-135 0 -240.5 46.5t-170 128t-97.5 187t-33 230.5v867h197v-824q0 -226 90 -338t254 -112q163 0 252.5 112t89.5 338v824h196v-867q0 -99 -20 -186.5t-63 -162.5t-105 -128.5t-151.5 -84
t-198.5 -30.5z" />
    <glyph glyph-name="Udieresis" unicode="&#xdc;" horiz-adv-x="1429" 
d="M459 1599v168h182v-168h-182zM788 1599v168h183v-168h-183zM715 -25q-135 0 -240.5 46.5t-170 128t-97.5 187t-33 230.5v867h197v-824q0 -226 90 -338t254 -112q163 0 252.5 112t89.5 338v824h196v-867q0 -99 -20 -186.5t-63 -162.5t-105 -128.5t-151.5 -84t-198.5 -30.5
z" />
    <glyph glyph-name="Yacute" unicode="&#xdd;" horiz-adv-x="1130" 
d="M479 1563l144 260h233l-205 -260h-172zM469 0v629l-453 805h211l340 -615l338 615h209l-452 -805v-629h-193z" />
    <glyph glyph-name="Thorn" unicode="&#xde;" horiz-adv-x="1153" 
d="M172 0v1434h195v-287h254q184 0 302.5 -116t118.5 -288q0 -176 -119 -294.5t-302 -118.5h-254v-330h-195zM367 514h243q110 0 174 63.5t64 161.5t-64 161t-174 63h-243v-449z" />
    <glyph glyph-name="germandbls" unicode="&#xdf;" horiz-adv-x="1234" 
d="M647 -434q-99 0 -184 24v170q94 -24 158 -24q151 0 243 81t92 203q0 128 -99.5 201.5t-256.5 73.5v151l270 353h-495v-799h-182v1108q0 168 79 259t228 91q67 0 141 -22v-183q-60 29 -115 29q-69 0 -110 -44t-41 -114v-153h700v-170l-284 -363q160 -36 257 -155t97 -265
q0 -91 -35.5 -173t-98.5 -144t-158 -98.5t-206 -36.5z" />
    <glyph glyph-name="agrave" unicode="&#xe0;" horiz-adv-x="1331" 
d="M582 1434l143 -260h-172l-205 260h234zM633 141q150 0 245 106.5t95 264.5t-95 264.5t-245 106.5q-151 0 -245.5 -106.5t-94.5 -264.5t94.5 -264.5t245.5 -106.5zM614 -25q-152 0 -268.5 72t-178 193.5t-61.5 271.5q0 227 143.5 382t364.5 155q120 0 209 -46.5
t135 -107.5l27 129h156v-1024h-156l-27 137q-46 -67 -140 -114.5t-204 -47.5z" />
    <glyph glyph-name="aacute" unicode="&#xe1;" horiz-adv-x="1331" 
d="M553 1174l143 260h234l-205 -260h-172zM633 141q150 0 245 106.5t95 264.5t-95 264.5t-245 106.5q-151 0 -245.5 -106.5t-94.5 -264.5t94.5 -264.5t245.5 -106.5zM614 -25q-152 0 -268.5 72t-178 193.5t-61.5 271.5q0 227 143.5 382t364.5 155q120 0 209 -46.5
t135 -107.5l27 129h156v-1024h-156l-27 137q-46 -67 -140 -114.5t-204 -47.5z" />
    <glyph glyph-name="acircumflex" unicode="&#xe2;" horiz-adv-x="1331" 
d="M336 1174l207 260h188l207 -260h-184l-117 145l-119 -145h-182zM633 141q150 0 245 106.5t95 264.5t-95 264.5t-245 106.5q-151 0 -245.5 -106.5t-94.5 -264.5t94.5 -264.5t245.5 -106.5zM614 -25q-152 0 -268.5 72t-178 193.5t-61.5 271.5q0 227 143.5 382t364.5 155
q120 0 209 -46.5t135 -107.5l27 129h156v-1024h-156l-27 137q-46 -67 -140 -114.5t-204 -47.5z" />
    <glyph glyph-name="atilde" unicode="&#xe3;" horiz-adv-x="1331" 
d="M479 1180h-137q-21 109 31.5 178t140.5 69q44 0 91.5 -27.5t85 -55t57.5 -27.5q70 0 47 110h137q21 -113 -28.5 -180t-145.5 -67q-45 0 -89.5 27.5t-80.5 55t-60 27.5q-73 0 -49 -110zM633 141q150 0 245 106.5t95 264.5t-95 264.5t-245 106.5q-151 0 -245.5 -106.5
t-94.5 -264.5t94.5 -264.5t245.5 -106.5zM614 -25q-152 0 -268.5 72t-178 193.5t-61.5 271.5q0 227 143.5 382t364.5 155q120 0 209 -46.5t135 -107.5l27 129h156v-1024h-156l-27 137q-46 -67 -140 -114.5t-204 -47.5z" />
    <glyph glyph-name="adieresis" unicode="&#xe4;" horiz-adv-x="1331" 
d="M381 1210v168h182v-168h-182zM711 1210v168h182v-168h-182zM633 141q150 0 245 106.5t95 264.5t-95 264.5t-245 106.5q-151 0 -245.5 -106.5t-94.5 -264.5t94.5 -264.5t245.5 -106.5zM614 -25q-152 0 -268.5 72t-178 193.5t-61.5 271.5q0 227 143.5 382t364.5 155
q120 0 209 -46.5t135 -107.5l27 129h156v-1024h-156l-27 137q-46 -67 -140 -114.5t-204 -47.5z" />
    <glyph glyph-name="aring" unicode="&#xe5;" horiz-adv-x="1331" 
d="M418 1339q0 88 63 152.5t156 64.5q92 0 155.5 -64.5t63.5 -152.5q0 -87 -63.5 -152t-155.5 -65q-93 0 -156 65t-63 152zM637 1430q-39 0 -65.5 -26t-26.5 -65q0 -40 26 -66t66 -26q38 0 64 26t26 66q0 38 -26 64.5t-64 26.5zM633 141q150 0 245 106.5t95 264.5t-95 264.5
t-245 106.5q-151 0 -245.5 -106.5t-94.5 -264.5t94.5 -264.5t245.5 -106.5zM614 -25q-152 0 -268.5 72t-178 193.5t-61.5 271.5q0 227 143.5 382t364.5 155q120 0 209 -46.5t135 -107.5l27 129h156v-1024h-156l-27 137q-46 -67 -140 -114.5t-204 -47.5z" />
    <glyph glyph-name="ae" unicode="&#xe6;" horiz-adv-x="2056" 
d="M610 -25q-152 0 -268.5 72t-178 193.5t-61.5 271.5q0 227 143.5 382t364.5 155q120 0 209 -46.5t135 -107.5l27 129h156v-139q126 162 354 162q101 0 184 -32t139.5 -88.5t92.5 -131.5t47.5 -162.5t-0.5 -181.5h-805q11 -143 101.5 -227.5t232.5 -84.5q194 0 297 185
l149 -74q-60 -128 -172 -202.5t-272 -74.5q-111 0 -200.5 39.5t-147.5 110.5v-123h-156l-27 137q-46 -67 -140 -114.5t-204 -47.5zM629 141q150 0 245 106.5t95 264.5t-95 264.5t-245 106.5t-245 -106.5t-95 -264.5t95 -264.5t245 -106.5zM1149 600h629q-11 128 -91 204.5
t-212 76.5q-133 0 -222 -78t-104 -203z" />
    <glyph glyph-name="ccedilla" unicode="&#xe7;" horiz-adv-x="1155" 
d="M575 -465q-94 0 -163 55l63 97q49 -39 98 -39q43 0 73 21.5t30 58.5q0 36 -29 57.5t-72 21.5q-46 0 -83 -22l-64 47l90 152q-187 35 -299.5 181.5t-112.5 346.5q0 149 63.5 271t182 194t269.5 72q155 0 271 -70t175 -205l-164 -74q-92 183 -289 183q-140 0 -230.5 -104.5
t-90.5 -266.5q0 -163 91.5 -267t236.5 -104q105 0 180.5 53.5t111.5 131.5l162 -74q-60 -118 -172.5 -195.5t-265.5 -81.5l-47 -65q87 11 148 -42t61 -140q0 -83 -60 -138t-164 -55z" />
    <glyph glyph-name="egrave" unicode="&#xe8;" horiz-adv-x="1196" 
d="M543 1434l143 -260h-172l-205 260h234zM614 -25q-236 0 -372 151.5t-136 385.5q0 150 60 271.5t177 193.5t271 72q114 0 206.5 -40t153.5 -109.5t93.5 -163t32.5 -201.5q0 -32 -4 -82h-807q11 -141 101.5 -226.5t232.5 -85.5q193 0 299 185l149 -74
q-61 -126 -178.5 -201.5t-278.5 -75.5zM291 602h629q-11 128 -92 204.5t-212 76.5q-133 0 -222 -77.5t-103 -203.5z" />
    <glyph glyph-name="eacute" unicode="&#xe9;" horiz-adv-x="1196" 
d="M514 1174l143 260h234l-205 -260h-172zM614 -25q-236 0 -372 151.5t-136 385.5q0 150 60 271.5t177 193.5t271 72q114 0 206.5 -40t153.5 -109.5t93.5 -163t32.5 -201.5q0 -32 -4 -82h-807q11 -141 101.5 -226.5t232.5 -85.5q193 0 299 185l149 -74
q-61 -126 -178.5 -201.5t-278.5 -75.5zM291 602h629q-11 128 -92 204.5t-212 76.5q-133 0 -222 -77.5t-103 -203.5z" />
    <glyph glyph-name="ecircumflex" unicode="&#xea;" horiz-adv-x="1196" 
d="M299 1174l207 260h188l207 -260h-184l-117 145l-119 -145h-182zM614 -25q-236 0 -372 151.5t-136 385.5q0 150 60 271.5t177 193.5t271 72q114 0 206.5 -40t153.5 -109.5t93.5 -163t32.5 -201.5q0 -32 -4 -82h-807q11 -141 101.5 -226.5t232.5 -85.5q193 0 299 185
l149 -74q-61 -126 -178.5 -201.5t-278.5 -75.5zM291 602h629q-11 128 -92 204.5t-212 76.5q-133 0 -222 -77.5t-103 -203.5z" />
    <glyph glyph-name="edieresis" unicode="&#xeb;" horiz-adv-x="1196" 
d="M344 1210v168h182v-168h-182zM674 1210v168h182v-168h-182zM614 -25q-236 0 -372 151.5t-136 385.5q0 150 60 271.5t177 193.5t271 72q114 0 206.5 -40t153.5 -109.5t93.5 -163t32.5 -201.5q0 -32 -4 -82h-807q11 -141 101.5 -226.5t232.5 -85.5q193 0 299 185l149 -74
q-61 -126 -178.5 -201.5t-278.5 -75.5zM291 602h629q-11 128 -92 204.5t-212 76.5q-133 0 -222 -77.5t-103 -203.5z" />
    <glyph glyph-name="igrave" unicode="&#xec;" horiz-adv-x="561" 
d="M225 1434l144 -260h-172l-205 260h233zM190 0v1024h183v-1024h-183z" />
    <glyph glyph-name="iacute" unicode="&#xed;" horiz-adv-x="561" 
d="M197 1174l143 260h233l-204 -260h-172zM190 0v1024h183v-1024h-183z" />
    <glyph glyph-name="icircumflex" unicode="&#xee;" horiz-adv-x="561" 
d="M-20 1174l206 260h189l207 -260h-185l-116 145l-119 -145h-182zM190 0v1024h183v-1024h-183z" />
    <glyph glyph-name="idieresis" unicode="&#xef;" horiz-adv-x="561" 
d="M25 1210v168h182v-168h-182zM354 1210v168h183v-168h-183zM190 0v1024h183v-1024h-183z" />
    <glyph glyph-name="eth" unicode="&#xf0;" horiz-adv-x="1271" 
d="M635 -25q-230 0 -379.5 155t-149.5 382q0 148 67 271t186.5 194.5t265.5 71.5q64 0 116 -29l-157 162l-246 -68l-37 139l174 47l-149 164h227l98 -116l215 57l37 -135l-155 -43l268 -322q149 -181 149 -393q0 -227 -150 -382t-380 -155zM635 141q147 0 245.5 104.5
t98.5 266.5t-98.5 266.5t-245.5 104.5t-244.5 -104.5t-97.5 -266.5t97.5 -266.5t244.5 -104.5z" />
    <glyph glyph-name="ntilde" unicode="&#xf1;" horiz-adv-x="1241" 
d="M467 1180h-137q-21 109 31.5 178t140.5 69q44 0 91 -27.5t84.5 -55t57.5 -27.5q70 0 47 110h138q21 -113 -29 -180t-146 -67q-36 0 -72 17t-59.5 38t-50.5 38t-47 17q-73 0 -49 -110zM193 0v1024h153l27 -127q101 152 311 152q188 0 285.5 -115.5t97.5 -317.5v-616h-182
v600q0 134 -66 208.5t-174 74.5q-115 0 -192.5 -100.5t-77.5 -297.5v-485h-182z" />
    <glyph glyph-name="ograve" unicode="&#xf2;" horiz-adv-x="1271" 
d="M580 1436l143 -260h-172l-205 260h234zM635 -25q-230 0 -379.5 155t-149.5 382t149.5 382t379.5 155t380 -155t150 -382t-150 -382t-380 -155zM635 141q147 0 245.5 104.5t98.5 266.5t-98.5 266.5t-245.5 104.5t-244.5 -104.5t-97.5 -266.5t97.5 -266.5t244.5 -104.5z
" />
    <glyph glyph-name="oacute" unicode="&#xf3;" horiz-adv-x="1271" 
d="M551 1176l143 260h234l-205 -260h-172zM635 -25q-230 0 -379.5 155t-149.5 382t149.5 382t379.5 155t380 -155t150 -382t-150 -382t-380 -155zM635 141q147 0 245.5 104.5t98.5 266.5t-98.5 266.5t-245.5 104.5t-244.5 -104.5t-97.5 -266.5t97.5 -266.5t244.5 -104.5z
" />
    <glyph glyph-name="ocircumflex" unicode="&#xf4;" horiz-adv-x="1271" 
d="M334 1176l207 260h188l207 -260h-184l-117 145l-119 -145h-182zM635 -25q-230 0 -379.5 155t-149.5 382t149.5 382t379.5 155t380 -155t150 -382t-150 -382t-380 -155zM635 141q147 0 245.5 104.5t98.5 266.5t-98.5 266.5t-245.5 104.5t-244.5 -104.5t-97.5 -266.5
t97.5 -266.5t244.5 -104.5z" />
    <glyph glyph-name="otilde" unicode="&#xf5;" horiz-adv-x="1271" 
d="M477 1182h-137q-21 109 31.5 178.5t140.5 69.5q44 0 91 -28t84.5 -55.5t57.5 -27.5q71 0 48 111h137q21 -113 -28.5 -180.5t-145.5 -67.5q-45 0 -89.5 27.5t-80.5 55t-60 27.5q-73 0 -49 -110zM635 -25q-230 0 -379.5 155t-149.5 382t149.5 382t379.5 155t380 -155
t150 -382t-150 -382t-380 -155zM635 141q147 0 245.5 104.5t98.5 266.5t-98.5 266.5t-245.5 104.5t-244.5 -104.5t-97.5 -266.5t97.5 -266.5t244.5 -104.5z" />
    <glyph glyph-name="odieresis" unicode="&#xf6;" horiz-adv-x="1271" 
d="M379 1212v168h182v-168h-182zM709 1212v168h182v-168h-182zM635 -25q-230 0 -379.5 155t-149.5 382t149.5 382t379.5 155t380 -155t150 -382t-150 -382t-380 -155zM635 141q147 0 245.5 104.5t98.5 266.5t-98.5 266.5t-245.5 104.5t-244.5 -104.5t-97.5 -266.5
t97.5 -266.5t244.5 -104.5z" />
    <glyph glyph-name="divide" unicode="&#xf7;" horiz-adv-x="1134" 
d="M465 987v195h203v-195h-203zM139 633v168h856v-168h-856zM465 252v194h203v-194h-203z" />
    <glyph glyph-name="oslash" unicode="&#xf8;" horiz-adv-x="1271" 
d="M293 512q0 -126 59 -215l465 534q-80 52 -182 52q-147 0 -244.5 -104.5t-97.5 -266.5zM635 141q147 0 245.5 104.5t98.5 266.5q0 122 -57 213l-467 -532q80 -52 180 -52zM635 -25q-165 0 -295 84l-76 -86l-114 93l79 92q-123 148 -123 354q0 227 149.5 382t379.5 155
q169 0 297 -86l78 88l114 -93l-82 -94q123 -148 123 -352q0 -227 -150 -382t-380 -155z" />
    <glyph glyph-name="ugrave" unicode="&#xf9;" horiz-adv-x="1245" 
d="M547 1434l143 -260h-172l-205 260h234zM557 -25q-195 0 -292 117t-97 324v608h182v-606q0 -132 68 -204.5t178 -72.5q122 0 198 94.5t76 264.5v524h183v-1024h-154l-29 127q-45 -69 -126 -110.5t-187 -41.5z" />
    <glyph glyph-name="uacute" unicode="&#xfa;" horiz-adv-x="1245" 
d="M518 1174l144 260h233l-205 -260h-172zM557 -25q-195 0 -292 117t-97 324v608h182v-606q0 -132 68 -204.5t178 -72.5q122 0 198 94.5t76 264.5v524h183v-1024h-154l-29 127q-45 -69 -126 -110.5t-187 -41.5z" />
    <glyph glyph-name="ucircumflex" unicode="&#xfb;" horiz-adv-x="1245" 
d="M303 1174l207 260h188l207 -260h-184l-117 145l-119 -145h-182zM557 -25q-195 0 -292 117t-97 324v608h182v-606q0 -132 68 -204.5t178 -72.5q122 0 198 94.5t76 264.5v524h183v-1024h-154l-29 127q-45 -69 -126 -110.5t-187 -41.5z" />
    <glyph glyph-name="udieresis" unicode="&#xfc;" horiz-adv-x="1245" 
d="M348 1210v168h182v-168h-182zM678 1210v168h182v-168h-182zM557 -25q-195 0 -292 117t-97 324v608h182v-606q0 -132 68 -204.5t178 -72.5q122 0 198 94.5t76 264.5v524h183v-1024h-154l-29 127q-45 -69 -126 -110.5t-187 -41.5z" />
    <glyph glyph-name="yacute" unicode="&#xfd;" horiz-adv-x="1026" 
d="M426 1174l143 260h234l-205 -260h-172zM471 -410h-188l149 422l-397 1012h194l297 -778l273 778h190z" />
    <glyph glyph-name="thorn" unicode="&#xfe;" horiz-adv-x="1294" 
d="M664 141q149 0 244.5 107t95.5 264q0 159 -92 265t-244 106q-150 0 -247 -107t-97 -264q0 -158 95 -264.5t245 -106.5zM156 -410v1858h182v-574q55 72 147 123.5t197 51.5q117 0 213.5 -42t160.5 -114.5t99 -170.5t35 -210q0 -149 -64.5 -271.5t-182.5 -194t-265 -71.5
q-119 0 -206 47.5t-134 110.5v-543h-182z" />
    <glyph glyph-name="ydieresis" unicode="&#xff;" horiz-adv-x="1026" 
d="M256 1210v168h182v-168h-182zM586 1210v168h182v-168h-182zM471 -410h-188l149 422l-397 1012h194l297 -778l273 778h190z" />
    <glyph glyph-name="Amacron" unicode="&#x100;" horiz-adv-x="1349" 
d="M379 1626v143h594v-143h-594zM430 524h485l-241 686zM31 0l534 1434h219l535 -1434h-215l-125 344h-612l-125 -344h-211z" />
    <glyph glyph-name="amacron" unicode="&#x101;" horiz-adv-x="1331" 
d="M340 1237v143h594v-143h-594zM633 141q150 0 245 106.5t95 264.5t-95 264.5t-245 106.5q-151 0 -245.5 -106.5t-94.5 -264.5t94.5 -264.5t245.5 -106.5zM614 -25q-152 0 -268.5 72t-178 193.5t-61.5 271.5q0 227 143.5 382t364.5 155q120 0 209 -46.5t135 -107.5l27 129
h156v-1024h-156l-27 137q-46 -67 -140 -114.5t-204 -47.5z" />
    <glyph glyph-name="Abreve" unicode="&#x102;" horiz-adv-x="1349" 
d="M676 1696q54 0 87.5 35.5t33.5 91.5h145q0 -114 -73.5 -187t-192.5 -73t-192.5 73t-73.5 187h145q0 -56 33.5 -91.5t87.5 -35.5zM430 524h485l-241 686zM31 0l534 1434h219l535 -1434h-215l-125 344h-612l-125 -344h-211z" />
    <glyph glyph-name="abreve" unicode="&#x103;" horiz-adv-x="1331" 
d="M637 1307q54 0 87.5 35.5t33.5 91.5h145q0 -114 -73.5 -187t-192.5 -73t-192.5 73t-73.5 187h145q0 -56 33.5 -91.5t87.5 -35.5zM633 141q150 0 245 106.5t95 264.5t-95 264.5t-245 106.5q-151 0 -245.5 -106.5t-94.5 -264.5t94.5 -264.5t245.5 -106.5zM614 -25
q-152 0 -268.5 72t-178 193.5t-61.5 271.5q0 227 143.5 382t364.5 155q120 0 209 -46.5t135 -107.5l27 129h156v-1024h-156l-27 137q-46 -67 -140 -114.5t-204 -47.5z" />
    <glyph glyph-name="Aogonek" unicode="&#x104;" horiz-adv-x="1349" 
d="M430 524h485l-241 686zM1399 -299q-31 -39 -84.5 -67.5t-120.5 -28.5q-97 0 -155 50.5t-58 133.5q0 130 154 211h-31l-125 344h-612l-125 -344h-211l534 1434h219l535 -1434h-45q-69 -36 -106.5 -75t-37.5 -91q0 -36 25 -57t62 -21q52 0 92 37z" />
    <glyph glyph-name="aogonek" unicode="&#x105;" horiz-adv-x="1331" 
d="M1014 -410q-97 0 -155 51t-58 134q0 143 184 225l-27 137q-46 -67 -140 -114.5t-204 -47.5q-152 0 -268.5 72t-178 193.5t-61.5 271.5q0 227 143.5 382t364.5 155q120 0 209 -46.5t135 -107.5l27 129h156v-1024h-25q-82 -43 -124 -83.5t-42 -96.5q0 -34 25 -56t61 -22
q53 0 90 37l91 -92q-30 -39 -83 -68t-120 -29zM633 141q150 0 245 106.5t95 264.5t-95 264.5t-245 106.5q-151 0 -245.5 -106.5t-94.5 -264.5t94.5 -264.5t245.5 -106.5z" />
    <glyph glyph-name="Cacute" unicode="&#x106;" horiz-adv-x="1513" 
d="M698 1563l144 260h233l-205 -260h-172zM827 -25q-209 0 -370 99t-245.5 267t-84.5 376q0 156 50.5 292t140 235.5t221.5 156.5t288 57q208 0 362 -93t226 -251l-170 -88q-119 248 -424 248q-216 0 -356.5 -156.5t-140.5 -400.5q0 -245 140.5 -401t362.5 -156
q152 0 261 65.5t169 177.5l170 -88q-88 -161 -239 -250.5t-361 -89.5z" />
    <glyph glyph-name="cacute" unicode="&#x107;" horiz-adv-x="1155" 
d="M518 1174l144 260h233l-205 -260h-172zM621 -25q-151 0 -269.5 72t-182 194t-63.5 271t63.5 271t182 194t269.5 72q155 0 271 -70t175 -205l-164 -74q-92 183 -289 183q-140 0 -230.5 -104.5t-90.5 -266.5q0 -163 91.5 -267t236.5 -104q105 0 180.5 53.5t111.5 131.5
l162 -74q-62 -122 -178.5 -199.5t-275.5 -77.5z" />
    <glyph glyph-name="Ccircumflex" unicode="&#x108;" horiz-adv-x="1513" 
d="M504 1563l207 260h188l207 -260h-184l-117 145l-119 -145h-182zM827 -25q-209 0 -370 99t-245.5 267t-84.5 376q0 156 50.5 292t140 235.5t221.5 156.5t288 57q208 0 362 -93t226 -251l-170 -88q-119 248 -424 248q-216 0 -356.5 -156.5t-140.5 -400.5q0 -245 140.5 -401
t362.5 -156q152 0 261 65.5t169 177.5l170 -88q-88 -161 -239 -250.5t-361 -89.5z" />
    <glyph glyph-name="ccircumflex" unicode="&#x109;" horiz-adv-x="1155" 
d="M303 1174l207 260h188l207 -260h-184l-117 145l-119 -145h-182zM621 -25q-151 0 -269.5 72t-182 194t-63.5 271t63.5 271t182 194t269.5 72q155 0 271 -70t175 -205l-164 -74q-92 183 -289 183q-140 0 -230.5 -104.5t-90.5 -266.5q0 -163 91.5 -267t236.5 -104
q105 0 180.5 53.5t111.5 131.5l162 -74q-62 -122 -178.5 -199.5t-275.5 -77.5z" />
    <glyph glyph-name="Cdotaccent" unicode="&#x10a;" horiz-adv-x="1513" 
d="M700 1593v205h215v-205h-215zM827 -25q-209 0 -370 99t-245.5 267t-84.5 376q0 156 50.5 292t140 235.5t221.5 156.5t288 57q208 0 362 -93t226 -251l-170 -88q-119 248 -424 248q-216 0 -356.5 -156.5t-140.5 -400.5q0 -245 140.5 -401t362.5 -156q152 0 261 65.5
t169 177.5l170 -88q-88 -161 -239 -250.5t-361 -89.5z" />
    <glyph glyph-name="cdotaccent" unicode="&#x10b;" horiz-adv-x="1155" 
d="M498 1206v205h215v-205h-215zM621 -25q-151 0 -269.5 72t-182 194t-63.5 271t63.5 271t182 194t269.5 72q155 0 271 -70t175 -205l-164 -74q-92 183 -289 183q-140 0 -230.5 -104.5t-90.5 -266.5q0 -163 91.5 -267t236.5 -104q105 0 180.5 53.5t111.5 131.5l162 -74
q-62 -122 -178.5 -199.5t-275.5 -77.5z" />
    <glyph glyph-name="Ccaron" unicode="&#x10c;" horiz-adv-x="1513" 
d="M711 1563l-207 260h182l119 -146l117 146h184l-207 -260h-188zM827 -25q-209 0 -370 99t-245.5 267t-84.5 376q0 156 50.5 292t140 235.5t221.5 156.5t288 57q208 0 362 -93t226 -251l-170 -88q-119 248 -424 248q-216 0 -356.5 -156.5t-140.5 -400.5q0 -245 140.5 -401
t362.5 -156q152 0 261 65.5t169 177.5l170 -88q-88 -161 -239 -250.5t-361 -89.5z" />
    <glyph glyph-name="ccaron" unicode="&#x10d;" horiz-adv-x="1155" 
d="M510 1174l-207 260h182l119 -146l117 146h184l-207 -260h-188zM621 -25q-151 0 -269.5 72t-182 194t-63.5 271t63.5 271t182 194t269.5 72q155 0 271 -70t175 -205l-164 -74q-92 183 -289 183q-140 0 -230.5 -104.5t-90.5 -266.5q0 -163 91.5 -267t236.5 -104
q105 0 180.5 53.5t111.5 131.5l162 -74q-62 -122 -178.5 -199.5t-275.5 -77.5z" />
    <glyph glyph-name="Dcaron" unicode="&#x10e;" horiz-adv-x="1468" 
d="M633 1563l-207 260h182l119 -146l117 146h184l-207 -260h-188zM217 0v1434h369q177 0 320.5 -54t238 -149.5t145.5 -227t51 -286.5q0 -156 -53.5 -288.5t-150.5 -227t-239 -148t-312 -53.5h-369zM412 182h192q247 0 394 144.5t147 390.5q0 247 -146.5 390.5t-394.5 143.5
h-192v-1069z" />
    <glyph glyph-name="dcaron" unicode="&#x10f;" horiz-adv-x="1482" 
d="M1292 1102l74 362h188l-116 -362h-146zM631 141q151 0 245.5 106.5t94.5 264.5t-94.5 264.5t-245.5 106.5q-150 0 -245 -106.5t-95 -264.5t95 -264.5t245 -106.5zM616 -25q-153 0 -270 72t-178.5 193.5t-61.5 271.5q0 149 63.5 271t181 194t265.5 72q118 0 204 -47.5
t136 -108.5v571h183v-1464h-154l-24 145q-49 -68 -141.5 -119t-203.5 -51z" />
    <glyph glyph-name="Dcroat" unicode="&#x110;" horiz-adv-x="1468" 
d="M217 0v631h-133v172h133v631h369q178 0 321.5 -54t238 -149.5t145 -226.5t50.5 -287q0 -208 -91.5 -370.5t-263.5 -254.5t-400 -92h-369zM412 182h194q246 0 392.5 144.5t146.5 390.5q0 247 -146 390.5t-393 143.5h-194v-448h305v-172h-305v-449z" />
    <glyph glyph-name="dcroat" unicode="&#x111;" horiz-adv-x="1331" 
d="M631 141q151 0 245.5 106.5t94.5 264.5t-94.5 264.5t-245.5 106.5q-150 0 -245 -106.5t-95 -264.5t95 -264.5t245 -106.5zM961 145q-49 -68 -141.5 -119t-203.5 -51q-153 0 -270 72t-178.5 193.5t-61.5 271.5q0 149 63.5 271t181 194t265.5 72q118 0 204 -47.5
t136 -108.5v240h-256v143h256v188h183v-188h127v-143h-127v-1133h-154z" />
    <glyph glyph-name="Emacron" unicode="&#x112;" horiz-adv-x="1169" 
d="M307 1626v143h594v-143h-594zM217 0v1434h807v-183h-612v-415h571v-185h-571v-469h612v-182h-807z" />
    <glyph glyph-name="emacron" unicode="&#x113;" horiz-adv-x="1196" 
d="M303 1237v143h594v-143h-594zM614 -25q-236 0 -372 151.5t-136 385.5q0 150 60 271.5t177 193.5t271 72q114 0 206.5 -40t153.5 -109.5t93.5 -163t32.5 -201.5q0 -32 -4 -82h-807q11 -141 101.5 -226.5t232.5 -85.5q193 0 299 185l149 -74q-61 -126 -178.5 -201.5
t-278.5 -75.5zM291 602h629q-11 128 -92 204.5t-212 76.5q-133 0 -222 -77.5t-103 -203.5z" />
    <glyph glyph-name="Ebreve" unicode="&#x114;" horiz-adv-x="1169" 
d="M604 1696q54 0 87.5 35.5t33.5 91.5h145q0 -114 -73.5 -187t-192.5 -73t-192.5 73t-73.5 187h145q0 -56 33.5 -91.5t87.5 -35.5zM217 0v1434h807v-183h-612v-415h571v-185h-571v-469h612v-182h-807z" />
    <glyph glyph-name="ebreve" unicode="&#x115;" horiz-adv-x="1196" 
d="M600 1307q54 0 87.5 35.5t33.5 91.5h145q0 -114 -73.5 -187t-192.5 -73t-192.5 73t-73.5 187h145q0 -56 33.5 -91.5t87.5 -35.5zM614 -25q-236 0 -372 151.5t-136 385.5q0 150 60 271.5t177 193.5t271 72q114 0 206.5 -40t153.5 -109.5t93.5 -163t32.5 -201.5
q0 -32 -4 -82h-807q11 -141 101.5 -226.5t232.5 -85.5q193 0 299 185l149 -74q-61 -126 -178.5 -201.5t-278.5 -75.5zM291 602h629q-11 128 -92 204.5t-212 76.5q-133 0 -222 -77.5t-103 -203.5z" />
    <glyph glyph-name="Edotaccent" unicode="&#x116;" horiz-adv-x="1169" 
d="M500 1593v205h215v-205h-215zM217 0v1434h807v-183h-612v-415h571v-185h-571v-469h612v-182h-807z" />
    <glyph glyph-name="edotaccent" unicode="&#x117;" horiz-adv-x="1196" 
d="M492 1206v205h215v-205h-215zM614 -25q-236 0 -372 151.5t-136 385.5q0 150 60 271.5t177 193.5t271 72q114 0 206.5 -40t153.5 -109.5t93.5 -163t32.5 -201.5q0 -32 -4 -82h-807q11 -141 101.5 -226.5t232.5 -85.5q193 0 299 185l149 -74q-61 -126 -178.5 -201.5
t-278.5 -75.5zM291 602h629q-11 128 -92 204.5t-212 76.5q-133 0 -222 -77.5t-103 -203.5z" />
    <glyph glyph-name="Eogonek" unicode="&#x118;" horiz-adv-x="1169" 
d="M1059 -299q-31 -39 -84.5 -67.5t-120.5 -28.5q-97 0 -155 50.5t-58 133.5q0 130 154 211h-578v1434h807v-183h-612v-415h571v-185h-571v-469h612v-182h-90q-69 -36 -106 -75t-37 -91q0 -36 24.5 -57t61.5 -21q52 0 92 37z" />
    <glyph glyph-name="eogonek" unicode="&#x119;" horiz-adv-x="1196" 
d="M819 -344q-94 0 -153.5 53.5t-59.5 132.5t53 135q-14 -2 -45 -2q-236 0 -372 151.5t-136 385.5q0 150 60 271.5t177 193.5t271 72q114 0 206.5 -40t153.5 -109.5t93.5 -163t32.5 -201.5q0 -32 -4 -82h-807q11 -141 101.5 -226.5t232.5 -85.5q193 0 299 185l149 -74
q-58 -124 -160 -186q-34 -22 -54 -36t-47.5 -38.5t-40.5 -51t-13 -55.5q0 -34 25 -56t61 -22q50 0 90 37l90 -90q-31 -40 -83.5 -69t-119.5 -29zM291 602h629q-11 128 -92 204.5t-212 76.5q-133 0 -222 -77.5t-103 -203.5z" />
    <glyph glyph-name="Ecaron" unicode="&#x11a;" horiz-adv-x="1169" 
d="M510 1563l-207 260h182l119 -146l117 146h184l-207 -260h-188zM217 0v1434h807v-183h-612v-415h571v-185h-571v-469h612v-182h-807z" />
    <glyph glyph-name="ecaron" unicode="&#x11b;" horiz-adv-x="1196" 
d="M506 1174l-207 260h182l119 -146l117 146h184l-207 -260h-188zM614 -25q-236 0 -372 151.5t-136 385.5q0 150 60 271.5t177 193.5t271 72q114 0 206.5 -40t153.5 -109.5t93.5 -163t32.5 -201.5q0 -32 -4 -82h-807q11 -141 101.5 -226.5t232.5 -85.5q193 0 299 185
l149 -74q-61 -126 -178.5 -201.5t-278.5 -75.5zM291 602h629q-11 128 -92 204.5t-212 76.5q-133 0 -222 -77.5t-103 -203.5z" />
    <glyph glyph-name="Gcircumflex" unicode="&#x11c;" horiz-adv-x="1626" 
d="M496 1563l206 260h189l207 -260h-185l-116 145l-119 -145h-182zM811 -25q-153 0 -282 57t-216.5 156.5t-136.5 235.5t-49 293q0 212 85.5 379.5t246.5 264.5t372 97q200 0 349.5 -88t232.5 -231l-162 -111q-151 246 -426 246q-221 0 -361 -156t-140 -401
q0 -246 139.5 -401.5t355.5 -155.5q191 0 311.5 113t124.5 302h-403v183h602v-758h-143l-39 190q-84 -105 -205.5 -160t-255.5 -55z" />
    <glyph glyph-name="gcircumflex" unicode="&#x11d;" horiz-adv-x="1159" 
d="M268 1174l207 260h189l206 -260h-184l-117 145l-118 -145h-183zM578 -434q-97 0 -184.5 32t-153 87.5t-104 136t-38.5 172.5q0 122 69 224.5t163 146.5q-68 45 -117 122.5t-49 176.5q0 165 122.5 275t291.5 110h466v-123l-165 -29q102 -98 102 -240q0 -91 -50 -170.5
t-114 -117.5q96 -44 163 -145t67 -230q0 -186 -135.5 -307t-333.5 -121zM578 434q106 0 167.5 65t61.5 160q0 97 -62 162.5t-167 65.5q-102 0 -171 -66.5t-69 -161.5q0 -92 68.5 -158.5t171.5 -66.5zM578 -272q128 0 211 77t83 195t-84 197t-210 79q-121 0 -210 -80
t-89 -196q0 -117 87.5 -194.5t211.5 -77.5z" />
    <glyph glyph-name="Gbreve" unicode="&#x11e;" horiz-adv-x="1626" 
d="M797 1696q54 0 87.5 35.5t33.5 91.5h145q0 -114 -73.5 -187t-192.5 -73t-193 73t-74 187h146q0 -56 33.5 -91.5t87.5 -35.5zM811 -25q-153 0 -282 57t-216.5 156.5t-136.5 235.5t-49 293q0 212 85.5 379.5t246.5 264.5t372 97q200 0 349.5 -88t232.5 -231l-162 -111
q-151 246 -426 246q-221 0 -361 -156t-140 -401q0 -246 139.5 -401.5t355.5 -155.5q191 0 311.5 113t124.5 302h-403v183h602v-758h-143l-39 190q-84 -105 -205.5 -160t-255.5 -55z" />
    <glyph glyph-name="gbreve" unicode="&#x11f;" horiz-adv-x="1159" 
d="M569 1307q54 0 87.5 35.5t33.5 91.5h146q0 -114 -74 -187t-193 -73t-192.5 73t-73.5 187h146q0 -56 33 -91.5t87 -35.5zM578 -434q-97 0 -184.5 32t-153 87.5t-104 136t-38.5 172.5q0 122 69 224.5t163 146.5q-68 45 -117 122.5t-49 176.5q0 165 122.5 275t291.5 110h466
v-123l-165 -29q102 -98 102 -240q0 -91 -50 -170.5t-114 -117.5q96 -44 163 -145t67 -230q0 -186 -135.5 -307t-333.5 -121zM578 434q106 0 167.5 65t61.5 160q0 97 -62 162.5t-167 65.5q-102 0 -171 -66.5t-69 -161.5q0 -92 68.5 -158.5t171.5 -66.5zM578 -272
q128 0 211 77t83 195t-84 197t-210 79q-121 0 -210 -80t-89 -196q0 -117 87.5 -194.5t211.5 -77.5z" />
    <glyph glyph-name="Gdotaccent" unicode="&#x120;" horiz-adv-x="1626" 
d="M690 1593v205h215v-205h-215zM811 -25q-153 0 -282 57t-216.5 156.5t-136.5 235.5t-49 293q0 212 85.5 379.5t246.5 264.5t372 97q200 0 349.5 -88t232.5 -231l-162 -111q-151 246 -426 246q-221 0 -361 -156t-140 -401q0 -246 139.5 -401.5t355.5 -155.5
q191 0 311.5 113t124.5 302h-403v183h602v-758h-143l-39 190q-84 -105 -205.5 -160t-255.5 -55z" />
    <glyph glyph-name="gdotaccent" unicode="&#x121;" horiz-adv-x="1159" 
d="M461 1206v205h215v-205h-215zM578 -434q-97 0 -184.5 32t-153 87.5t-104 136t-38.5 172.5q0 122 69 224.5t163 146.5q-68 45 -117 122.5t-49 176.5q0 165 122.5 275t291.5 110h466v-123l-165 -29q102 -98 102 -240q0 -91 -50 -170.5t-114 -117.5q96 -44 163 -145t67 -230
q0 -186 -135.5 -307t-333.5 -121zM578 434q106 0 167.5 65t61.5 160q0 97 -62 162.5t-167 65.5q-102 0 -171 -66.5t-69 -161.5q0 -92 68.5 -158.5t171.5 -66.5zM578 -272q128 0 211 77t83 195t-84 197t-210 79q-121 0 -210 -80t-89 -196q0 -117 87.5 -194.5t211.5 -77.5z
" />
    <glyph glyph-name="Gcommaaccent" unicode="&#x122;" horiz-adv-x="1626" 
d="M811 -25q-153 0 -282 57t-216.5 156.5t-136.5 235.5t-49 293q0 212 85.5 379.5t246.5 264.5t372 97q200 0 349.5 -88t232.5 -231l-162 -111q-151 246 -426 246q-221 0 -361 -156t-140 -401q0 -246 139.5 -401.5t355.5 -155.5q191 0 311.5 113t124.5 302h-403v183h602
v-758h-143l-39 190q-84 -105 -205.5 -160t-255.5 -55zM639 -471l53 315h215l-133 -315h-135z" />
    <glyph glyph-name="gcommaaccent" unicode="&#x123;" horiz-adv-x="1159" 
d="M463 1151l133 315h135l-53 -315h-215zM578 -434q-97 0 -184.5 32t-153 87.5t-104 136t-38.5 172.5q0 122 69 224.5t163 146.5q-68 45 -117 122.5t-49 176.5q0 165 122.5 275t291.5 110h466v-123l-165 -29q102 -98 102 -240q0 -91 -50 -170.5t-114 -117.5q96 -44 163 -145
t67 -230q0 -186 -135.5 -307t-333.5 -121zM578 434q106 0 167.5 65t61.5 160q0 97 -62 162.5t-167 65.5q-102 0 -171 -66.5t-69 -161.5q0 -92 68.5 -158.5t171.5 -66.5zM578 -272q128 0 211 77t83 195t-84 197t-210 79q-121 0 -210 -80t-89 -196q0 -117 87.5 -194.5
t211.5 -77.5z" />
    <glyph glyph-name="Hcircumflex" unicode="&#x124;" horiz-adv-x="1468" 
d="M434 1563l207 260h188l207 -260h-184l-117 145l-119 -145h-182zM217 0v1434h195v-603h645v603h194v-1434h-194v649h-645v-649h-195z" />
    <glyph glyph-name="hcircumflex" unicode="&#x125;" horiz-adv-x="1247" 
d="M-18 1610l206 260h189l207 -260h-185l-116 145l-119 -145h-182zM193 0v1464h182v-567q45 69 128 110.5t183 41.5q193 0 291 -115t98 -318v-616h-184v600q0 133 -67.5 208t-176.5 75q-114 0 -193 -101.5t-79 -296.5v-485h-182z" />
    <glyph glyph-name="Hbar" unicode="&#x126;" horiz-adv-x="1468" 
d="M412 831h645v232h-645v-232zM217 0v1063h-131v154h131v217h195v-217h645v217h194v-217h131v-154h-131v-1063h-194v649h-645v-649h-195z" />
    <glyph glyph-name="hbar" unicode="&#x127;" horiz-adv-x="1247" 
d="M375 485v-485h-182v1133h-127v143h127v188h182v-188h256v-143h-256v-236q45 69 128 110.5t183 41.5q193 0 291 -115t98 -318v-616h-184v600q0 133 -67.5 208t-176.5 75q-114 0 -193 -101.5t-79 -296.5z" />
    <glyph glyph-name="Itilde" unicode="&#x128;" horiz-adv-x="628" 
d="M158 1569h-138q-21 109 32 178.5t141 69.5q44 0 91 -27.5t84.5 -55.5t57.5 -28q70 0 47 111h137q21 -113 -28.5 -180.5t-145.5 -67.5q-36 0 -72 17t-59.5 38t-50.5 38t-47 17q-73 0 -49 -110zM217 0v1434h195v-1434h-195z" />
    <glyph glyph-name="itilde" unicode="&#x129;" horiz-adv-x="561" 
d="M123 1180h-137q-21 109 31.5 178t140.5 69q44 0 91 -27.5t84.5 -55t57.5 -27.5q70 0 47 110h137q21 -113 -28.5 -180t-145.5 -67q-36 0 -72 17t-59.5 38t-50.5 38t-47 17q-73 0 -49 -110zM190 0v1024h183v-1024h-183z" />
    <glyph glyph-name="Imacron" unicode="&#x12a;" horiz-adv-x="628" 
d="M18 1626v143h594v-143h-594zM217 0v1434h195v-1434h-195z" />
    <glyph glyph-name="imacron" unicode="&#x12b;" horiz-adv-x="561" 
d="M-16 1237v143h594v-143h-594zM190 0v1024h183v-1024h-183z" />
    <glyph glyph-name="Ibreve" unicode="&#x12c;" horiz-adv-x="628" 
d="M315 1696q54 0 87.5 35.5t33.5 91.5h146q0 -114 -74 -187t-193 -73t-192.5 73t-73.5 187h146q0 -56 33 -91.5t87 -35.5zM217 0v1434h195v-1434h-195z" />
    <glyph glyph-name="ibreve" unicode="&#x12d;" horiz-adv-x="561" 
d="M281 1307q54 0 87 35.5t33 91.5h146q0 -114 -73.5 -187t-192.5 -73t-193 73t-74 187h146q0 -56 33.5 -91.5t87.5 -35.5zM190 0v1024h183v-1024h-183z" />
    <glyph glyph-name="Iogonek" unicode="&#x12e;" horiz-adv-x="628" 
d="M502 -299q-31 -39 -84.5 -67.5t-120.5 -28.5q-97 0 -155 50.5t-58 133.5q0 130 154 211h-21v1434h195v-1434h-35q-69 -36 -106.5 -75t-37.5 -91q0 -36 24.5 -57t61.5 -21q53 0 93 37z" />
    <glyph glyph-name="iogonek" unicode="&#x12f;" horiz-adv-x="561" 
d="M178 1233v201h205v-201h-205zM455 -299q-31 -39 -84.5 -67.5t-120.5 -28.5q-97 0 -155 50.5t-58 133.5q0 131 153 211v1024h183v-1024h-43q-69 -36 -106.5 -75t-37.5 -91q0 -36 24.5 -57t61.5 -21q53 0 93 37z" />
    <glyph glyph-name="Idotaccent" unicode="&#x130;" horiz-adv-x="628" 
d="M209 1593v205h215v-205h-215zM217 0v1434h195v-1434h-195z" />
    <glyph glyph-name="dotlessi" unicode="&#x131;" horiz-adv-x="561" 
d="M190 0v1024h183v-1024h-183z" />
    <glyph glyph-name="IJ" unicode="&#x132;" horiz-adv-x="1593" 
d="M217 0v1434h195v-1434h-195zM1010 -25q-239 0 -371 207l145 109q33 -55 90 -94t134 -39q92 0 151.5 59t59.5 168v1049h196v-1026q0 -194 -108 -313.5t-297 -119.5z" />
    <glyph glyph-name="ij" unicode="&#x133;" horiz-adv-x="1112" 
d="M729 1233v201h205v-201h-205zM178 1233v201h205v-201h-205zM741 -434v1458h183v-1423zM190 0v1024h183v-1024h-183z" />
    <glyph glyph-name="Jcircumflex" unicode="&#x134;" horiz-adv-x="974" 
d="M397 1563l207 260h189l206 -260h-184l-117 145l-118 -145h-183zM391 -25q-239 0 -371 207l146 109q33 -55 89.5 -94t133.5 -39q92 0 151.5 59t59.5 168v1049h197v-1026q0 -194 -108.5 -313.5t-297.5 -119.5z" />
    <glyph glyph-name="jcircumflex" unicode="&#x135;" horiz-adv-x="561" 
d="M-20 1174l206 260h189l207 -260h-185l-116 145l-119 -145h-182zM190 -434v1458h183v-1423z" />
    <glyph glyph-name="Kcommaaccent" unicode="&#x136;" horiz-adv-x="1249" 
d="M217 0v1434h195v-621l542 621h232l-588 -686l612 -748h-243l-555 674v-674h-195zM504 -471l53 315h215l-133 -315h-135z" />
    <glyph glyph-name="kcommaaccent" unicode="&#x137;" horiz-adv-x="1081" 
d="M193 0v1464h182v-835l375 395h233l-451 -465l498 -559h-231l-424 481v-481h-182zM397 -471l54 315h215l-134 -315h-135z" />
    <glyph glyph-name="Lacute" unicode="&#x139;" horiz-adv-x="1038" 
d="M231 1563l144 260h233l-205 -260h-172zM217 0v1434h195v-1252h561v-182h-756z" />
    <glyph glyph-name="lacute" unicode="&#x13a;" horiz-adv-x="565" 
d="M197 1610l143 260h233l-204 -260h-172zM193 0v1464h182v-1464h-182z" />
    <glyph glyph-name="Lcommaaccent" unicode="&#x13b;" horiz-adv-x="1038" 
d="M217 0v1434h195v-1252h561v-182h-756zM426 -471l53 315h215l-133 -315h-135z" />
    <glyph glyph-name="lcommaaccent" unicode="&#x13c;" horiz-adv-x="565" 
d="M193 0v1464h182v-1464h-182zM127 -471l53 315h215l-133 -315h-135z" />
    <glyph glyph-name="Lcaron" unicode="&#x13d;" horiz-adv-x="1038" 
d="M217 0v1434h195v-1252h561v-182h-756zM645 1071l74 363h188l-116 -363h-146z" />
    <glyph glyph-name="lcaron" unicode="&#x13e;" horiz-adv-x="716" 
d="M193 0v1464h182v-1464h-182zM526 1102l74 362h188l-116 -362h-146z" />
    <glyph glyph-name="Ldot" unicode="&#x13f;" horiz-adv-x="1038" 
d="M217 0v1434h195v-1252h561v-182h-756zM692 668v204h215v-204h-215z" />
    <glyph glyph-name="ldot" unicode="&#x140;" horiz-adv-x="598" 
d="M193 0v1464h182v-1464h-182zM473 514v205h215v-205h-215z" />
    <glyph glyph-name="Lslash" unicode="&#x141;" horiz-adv-x="1038" 
d="M217 0v444l-174 -106v180l174 107v809h195v-693l331 199v-178l-331 -201v-379h561v-182h-756z" />
    <glyph glyph-name="lslash" unicode="&#x142;" horiz-adv-x="565" 
d="M375 0h-182v596l-152 -102v180l152 102v688h182v-567l162 109v-179l-162 -108v-719z" />
    <glyph glyph-name="Nacute" unicode="&#x143;" horiz-adv-x="1507" 
d="M668 1563l143 260h233l-204 -260h-172zM217 0v1434h211l670 -1117v1117h192v-1434h-207l-673 1114v-1114h-193z" />
    <glyph glyph-name="nacute" unicode="&#x144;" horiz-adv-x="1241" 
d="M539 1174l143 260h233l-204 -260h-172zM193 0v1024h153l27 -127q101 152 311 152q188 0 285.5 -115.5t97.5 -317.5v-616h-182v600q0 134 -66 208.5t-174 74.5q-115 0 -192.5 -100.5t-77.5 -297.5v-485h-182z" />
    <glyph glyph-name="Ncommaaccent" unicode="&#x145;" horiz-adv-x="1507" 
d="M217 0v1434h211l670 -1117v1117h192v-1434h-207l-673 1114v-1114h-193zM598 -471l53 315h215l-133 -315h-135z" />
    <glyph glyph-name="ncommaaccent" unicode="&#x146;" horiz-adv-x="1241" 
d="M193 0v1024h153l27 -127q101 152 311 152q188 0 285.5 -115.5t97.5 -317.5v-616h-182v600q0 134 -66 208.5t-174 74.5q-115 0 -192.5 -100.5t-77.5 -297.5v-485h-182zM467 -471l53 315h215l-133 -315h-135z" />
    <glyph glyph-name="Ncaron" unicode="&#x147;" horiz-adv-x="1507" 
d="M659 1563l-206 260h182l119 -146l116 146h185l-207 -260h-189zM217 0v1434h211l670 -1117v1117h192v-1434h-207l-673 1114v-1114h-193z" />
    <glyph glyph-name="ncaron" unicode="&#x148;" horiz-adv-x="1241" 
d="M530 1174l-206 260h182l119 -146l116 146h185l-207 -260h-189zM193 0v1024h153l27 -127q101 152 311 152q188 0 285.5 -115.5t97.5 -317.5v-616h-182v600q0 134 -66 208.5t-174 74.5q-115 0 -192.5 -100.5t-77.5 -297.5v-485h-182z" />
    <glyph glyph-name="Eng" unicode="&#x14a;" horiz-adv-x="1507" 
d="M922 -434q-47 0 -104.5 13t-94.5 34l63 166q60 -29 125 -29q83 0 135 50t52 157v43l-688 1108v-1108h-193v1434h211l670 -1104v1104h192v-1477q0 -187 -97.5 -289t-270.5 -102z" />
    <glyph glyph-name="eng" unicode="&#x14b;" horiz-adv-x="1232" 
d="M184 0v1024h154l29 -127q97 152 309 152q192 0 288.5 -115t96.5 -318v-1026l-184 -34v1044q0 134 -66 208.5t-174 74.5q-115 0 -192.5 -100.5t-77.5 -297.5v-485h-183z" />
    <glyph glyph-name="Omacron" unicode="&#x14c;" horiz-adv-x="1681" 
d="M545 1626v143h594v-143h-594zM842 -25q-205 0 -369.5 99.5t-255 268.5t-90.5 374q0 206 88.5 374.5t253 267.5t373.5 99q157 0 291 -57.5t226 -157.5t143.5 -236t51.5 -290q0 -205 -90.5 -374t-254 -268.5t-367.5 -99.5zM842 158q226 0 371 157t145 402
q0 244 -146.5 401.5t-369.5 157.5q-225 0 -371.5 -157.5t-146.5 -401.5q0 -245 145.5 -402t372.5 -157z" />
    <glyph glyph-name="omacron" unicode="&#x14d;" horiz-adv-x="1271" 
d="M338 1239v143h594v-143h-594zM635 -25q-230 0 -379.5 155t-149.5 382t149.5 382t379.5 155t380 -155t150 -382t-150 -382t-380 -155zM635 141q147 0 245.5 104.5t98.5 266.5t-98.5 266.5t-245.5 104.5t-244.5 -104.5t-97.5 -266.5t97.5 -266.5t244.5 -104.5z" />
    <glyph glyph-name="Obreve" unicode="&#x14e;" horiz-adv-x="1681" 
d="M842 1696q54 0 87.5 35.5t33.5 91.5h145q0 -114 -73.5 -187t-192.5 -73t-193 73t-74 187h146q0 -56 33.5 -91.5t87.5 -35.5zM842 -25q-205 0 -369.5 99.5t-255 268.5t-90.5 374q0 206 88.5 374.5t253 267.5t373.5 99q157 0 291 -57.5t226 -157.5t143.5 -236t51.5 -290
q0 -205 -90.5 -374t-254 -268.5t-367.5 -99.5zM842 158q226 0 371 157t145 402q0 244 -146.5 401.5t-369.5 157.5q-225 0 -371.5 -157.5t-146.5 -401.5q0 -245 145.5 -402t372.5 -157z" />
    <glyph glyph-name="obreve" unicode="&#x14f;" horiz-adv-x="1271" 
d="M635 1309q54 0 87.5 35.5t33.5 91.5h145q0 -114 -73.5 -187t-192.5 -73t-192.5 73t-73.5 187h145q0 -56 33.5 -91.5t87.5 -35.5zM635 -25q-230 0 -379.5 155t-149.5 382t149.5 382t379.5 155t380 -155t150 -382t-150 -382t-380 -155zM635 141q147 0 245.5 104.5
t98.5 266.5t-98.5 266.5t-245.5 104.5t-244.5 -104.5t-97.5 -266.5t97.5 -266.5t244.5 -104.5z" />
    <glyph glyph-name="Ohungarumlaut" unicode="&#x150;" horiz-adv-x="1681" 
d="M627 1563l75 260h199l-139 -260h-135zM915 1563l76 260h201l-133 -260h-144zM842 -25q-205 0 -369.5 99.5t-255 268.5t-90.5 374q0 206 88.5 374.5t253 267.5t373.5 99q157 0 291 -57.5t226 -157.5t143.5 -236t51.5 -290q0 -205 -90.5 -374t-254 -268.5t-367.5 -99.5z
M842 158q226 0 371 157t145 402q0 244 -146.5 401.5t-369.5 157.5q-225 0 -371.5 -157.5t-146.5 -401.5q0 -245 145.5 -402t372.5 -157z" />
    <glyph glyph-name="ohungarumlaut" unicode="&#x151;" horiz-adv-x="1271" 
d="M422 1176l76 260h198l-139 -260h-135zM711 1176l75 260h201l-133 -260h-143zM635 -25q-230 0 -379.5 155t-149.5 382t149.5 382t379.5 155t380 -155t150 -382t-150 -382t-380 -155zM635 141q147 0 245.5 104.5t98.5 266.5t-98.5 266.5t-245.5 104.5t-244.5 -104.5
t-97.5 -266.5t97.5 -266.5t244.5 -104.5z" />
    <glyph glyph-name="OE" unicode="&#x152;" horiz-adv-x="2009" 
d="M883 0q-170 0 -312 53.5t-239 148t-151 227t-54 288.5q0 155 51 286.5t146 227t238.5 149.5t320.5 54h981v-183h-613v-415h572v-185h-572v-469h613v-182h-981zM864 182h193v1069h-193q-248 0 -394 -143.5t-146 -390.5t146.5 -391t393.5 -144z" />
    <glyph glyph-name="oe" unicode="&#x153;" horiz-adv-x="2074" 
d="M631 -25q-230 0 -379.5 155t-149.5 382t149.5 382t379.5 155q140 0 254.5 -64.5t183.5 -175.5q62 112 171.5 176t252.5 64q117 0 210 -39t152.5 -108.5t91 -162.5t31.5 -204q0 -32 -4 -82h-807q11 -142 101.5 -227t234.5 -85q191 0 297 185l150 -74
q-61 -126 -178.5 -201.5t-278.5 -75.5q-145 0 -255 63.5t-171 174.5q-67 -110 -182 -174t-254 -64zM1169 602h629q-11 128 -92 204.5t-211 76.5q-133 0 -222.5 -77.5t-103.5 -203.5zM631 141q147 0 245.5 104.5t98.5 266.5t-98.5 266.5t-245.5 104.5t-244.5 -104.5
t-97.5 -266.5t97.5 -266.5t244.5 -104.5z" />
    <glyph glyph-name="Racute" unicode="&#x154;" horiz-adv-x="1234" 
d="M522 1563l144 260h233l-205 -260h-172zM412 866h254q99 0 153.5 55t54.5 138q0 85 -55 138.5t-153 53.5h-254v-385zM217 0v1434h457q181 0 289 -104.5t108 -264.5q0 -142 -89.5 -241.5t-236.5 -125.5l400 -698h-221l-387 688h-125v-688h-195z" />
    <glyph glyph-name="racute" unicode="&#x155;" horiz-adv-x="856" 
d="M375 1174l143 260h234l-205 -260h-172zM193 0v1024h153l27 -137q89 162 278 162q90 0 166 -41l-59 -181q-62 35 -146 35q-105 0 -171 -84t-66 -243v-535h-182z" />
    <glyph glyph-name="Rcommaaccent" unicode="&#x156;" horiz-adv-x="1234" 
d="M412 866h254q99 0 153.5 55t54.5 138q0 85 -55 138.5t-153 53.5h-254v-385zM217 0v1434h457q181 0 289 -104.5t108 -264.5q0 -142 -89.5 -241.5t-236.5 -125.5l400 -698h-221l-387 688h-125v-688h-195zM453 -471l53 315h215l-133 -315h-135z" />
    <glyph glyph-name="rcommaaccent" unicode="&#x157;" horiz-adv-x="856" 
d="M193 0v1024h153l27 -137q89 162 278 162q90 0 166 -41l-59 -181q-62 35 -146 35q-105 0 -171 -84t-66 -243v-535h-182zM127 -471l53 315h215l-133 -315h-135z" />
    <glyph glyph-name="Rcaron" unicode="&#x158;" horiz-adv-x="1234" 
d="M514 1563l-207 260h182l119 -146l117 146h184l-207 -260h-188zM412 866h254q99 0 153.5 55t54.5 138q0 85 -55 138.5t-153 53.5h-254v-385zM217 0v1434h457q181 0 289 -104.5t108 -264.5q0 -142 -89.5 -241.5t-236.5 -125.5l400 -698h-221l-387 688h-125v-688h-195z" />
    <glyph glyph-name="rcaron" unicode="&#x159;" horiz-adv-x="856" 
d="M367 1174l-207 260h182l119 -146l117 146h184l-207 -260h-188zM193 0v1024h153l27 -137q89 162 278 162q90 0 166 -41l-59 -181q-62 35 -146 35q-105 0 -171 -84t-66 -243v-535h-182z" />
    <glyph glyph-name="Sacute" unicode="&#x15a;" horiz-adv-x="1099" 
d="M449 1563l143 260h233l-204 -260h-172zM561 -25q-372 0 -487 355l178 69q13 -45 37 -85.5t60.5 -76t90.5 -56.5t119 -21q106 0 179 64.5t73 164.5q0 91 -54 150.5t-163 115.5q-109 57 -201 107q-107 56 -167 146.5t-60 199.5q0 153 104.5 251.5t268.5 98.5
q263 0 374 -256l-172 -86q-32 78 -80.5 118t-128.5 40q-71 0 -121.5 -46t-50.5 -112q0 -69 38 -115.5t128 -93.5q9 -5 104.5 -57t104.5 -57q139 -76 205 -172.5t66 -229.5q0 -175 -123.5 -295.5t-321.5 -120.5z" />
    <glyph glyph-name="sacute" unicode="&#x15b;" horiz-adv-x="876" 
d="M348 1174l144 260h233l-205 -260h-172zM434 -25q-139 0 -232.5 73t-138.5 200l154 63q53 -174 227 -174q77 0 125.5 44t48.5 108q0 63 -38.5 102.5t-130.5 75.5l-132 53q-82 32 -131 101t-49 161q0 111 84.5 189t208.5 78q206 0 297 -191l-145 -84q-47 113 -152 113
q-49 0 -84 -32.5t-35 -78.5q0 -50 31 -77.5t88 -51.5l150 -59q98 -41 155.5 -115.5t57.5 -181.5q0 -136 -99 -226t-260 -90z" />
    <glyph glyph-name="Scircumflex" unicode="&#x15c;" horiz-adv-x="1099" 
d="M233 1563l207 260h189l207 -260h-185l-116 145l-119 -145h-183zM561 -25q-372 0 -487 355l178 69q13 -45 37 -85.5t60.5 -76t90.5 -56.5t119 -21q106 0 179 64.5t73 164.5q0 91 -54 150.5t-163 115.5q-109 57 -201 107q-107 56 -167 146.5t-60 199.5q0 153 104.5 251.5
t268.5 98.5q263 0 374 -256l-172 -86q-32 78 -80.5 118t-128.5 40q-71 0 -121.5 -46t-50.5 -112q0 -69 38 -115.5t128 -93.5q9 -5 104.5 -57t104.5 -57q139 -76 205 -172.5t66 -229.5q0 -175 -123.5 -295.5t-321.5 -120.5z" />
    <glyph glyph-name="scircumflex" unicode="&#x15d;" horiz-adv-x="876" 
d="M133 1174l207 260h188l207 -260h-184l-117 145l-119 -145h-182zM434 -25q-139 0 -232.5 73t-138.5 200l154 63q53 -174 227 -174q77 0 125.5 44t48.5 108q0 63 -38.5 102.5t-130.5 75.5l-132 53q-82 32 -131 101t-49 161q0 111 84.5 189t208.5 78q206 0 297 -191
l-145 -84q-47 113 -152 113q-49 0 -84 -32.5t-35 -78.5q0 -50 31 -77.5t88 -51.5l150 -59q98 -41 155.5 -115.5t57.5 -181.5q0 -136 -99 -226t-260 -90z" />
    <glyph glyph-name="Scedilla" unicode="&#x15e;" horiz-adv-x="1099" 
d="M506 -465q-95 0 -164 55l64 97q49 -39 98 -39q43 0 72.5 21.5t29.5 58.5q0 36 -28.5 57.5t-71.5 21.5q-47 0 -84 -22l-64 47l91 154q-279 48 -375 344l178 69q13 -45 37 -85.5t60.5 -76t90.5 -56.5t119 -21q106 0 179 64.5t73 164.5q0 91 -54 150.5t-163 115.5
q-109 57 -201 107q-107 56 -167 146.5t-60 199.5q0 153 104.5 251.5t268.5 98.5q263 0 374 -256l-172 -86q-32 78 -80.5 118t-128.5 40q-71 0 -121.5 -46t-50.5 -112q0 -69 38 -115.5t128 -93.5q9 -5 104.5 -57t104.5 -57q139 -76 205 -172.5t66 -229.5q0 -174 -122.5 -295
t-316.5 -121l-47 -65q87 11 148 -42t61 -140q0 -83 -59.5 -138t-163.5 -55z" />
    <glyph glyph-name="scedilla" unicode="&#x15f;" horiz-adv-x="876" 
d="M406 -465q-95 0 -164 55l63 97q49 -39 98 -39q43 0 73 21.5t30 58.5q0 36 -28.5 57.5t-71.5 21.5q-47 0 -84 -22l-64 47l90 152q-104 21 -175.5 90t-109.5 174l154 63q53 -174 227 -174q77 0 125.5 44t48.5 108q0 63 -38.5 102.5t-130.5 75.5l-132 53q-82 32 -131 101
t-49 161q0 111 84.5 189t208.5 78q206 0 297 -191l-145 -84q-47 113 -152 113q-49 0 -84 -32.5t-35 -78.5q0 -50 31 -77.5t88 -51.5l150 -59q98 -41 155.5 -115.5t57.5 -181.5q0 -130 -89 -217.5t-237 -96.5l-47 -67q87 11 148 -42t61 -140q0 -83 -59.5 -138t-163.5 -55z
" />
    <glyph glyph-name="Scaron" unicode="&#x160;" horiz-adv-x="1099" 
d="M440 1563l-207 260h183l119 -146l116 146h185l-207 -260h-189zM561 -25q-372 0 -487 355l178 69q13 -45 37 -85.5t60.5 -76t90.5 -56.5t119 -21q106 0 179 64.5t73 164.5q0 91 -54 150.5t-163 115.5q-109 57 -201 107q-107 56 -167 146.5t-60 199.5q0 153 104.5 251.5
t268.5 98.5q263 0 374 -256l-172 -86q-32 78 -80.5 118t-128.5 40q-71 0 -121.5 -46t-50.5 -112q0 -69 38 -115.5t128 -93.5q9 -5 104.5 -57t104.5 -57q139 -76 205 -172.5t66 -229.5q0 -175 -123.5 -295.5t-321.5 -120.5z" />
    <glyph glyph-name="scaron" unicode="&#x161;" horiz-adv-x="876" 
d="M340 1174l-207 260h182l119 -146l117 146h184l-207 -260h-188zM434 -25q-139 0 -232.5 73t-138.5 200l154 63q53 -174 227 -174q77 0 125.5 44t48.5 108q0 63 -38.5 102.5t-130.5 75.5l-132 53q-82 32 -131 101t-49 161q0 111 84.5 189t208.5 78q206 0 297 -191l-145 -84
q-47 113 -152 113q-49 0 -84 -32.5t-35 -78.5q0 -50 31 -77.5t88 -51.5l150 -59q98 -41 155.5 -115.5t57.5 -181.5q0 -136 -99 -226t-260 -90z" />
    <glyph glyph-name="Tcaron" unicode="&#x164;" horiz-adv-x="1081" 
d="M440 1563l-207 260h183l119 -146l116 146h185l-207 -260h-189zM436 0v1251h-387v183h983v-183h-401v-1251h-195z" />
    <glyph glyph-name="tcaron" unicode="&#x165;" horiz-adv-x="673" 
d="M526 1149l74 362h188l-116 -362h-146zM219 0v858h-133v166h133v281l184 34v-315h222v-166h-222v-858h-184z" />
    <glyph glyph-name="Tbar" unicode="&#x166;" horiz-adv-x="1081" 
d="M436 0v707h-264v153h264v391h-387v183h983v-183h-401v-391h278v-153h-278v-707h-195z" />
    <glyph glyph-name="tbar" unicode="&#x167;" horiz-adv-x="673" 
d="M575 473h-172v-473h-184v473h-104v143h104v242h-133v166h133v281l184 34v-315h222v-166h-222v-242h172v-143z" />
    <glyph glyph-name="Utilde" unicode="&#x168;" horiz-adv-x="1429" 
d="M557 1569h-137q-21 109 31.5 178.5t140.5 69.5q44 0 91 -27.5t84.5 -55.5t57.5 -28q70 0 47 111h138q21 -113 -28.5 -180.5t-145.5 -67.5q-45 0 -89.5 27.5t-80.5 55t-60 27.5q-73 0 -49 -110zM715 -25q-135 0 -240.5 46.5t-170 128t-97.5 187t-33 230.5v867h197v-824
q0 -226 90 -338t254 -112q163 0 252.5 112t89.5 338v824h196v-867q0 -99 -20 -186.5t-63 -162.5t-105 -128.5t-151.5 -84t-198.5 -30.5z" />
    <glyph glyph-name="utilde" unicode="&#x169;" horiz-adv-x="1245" 
d="M446 1180h-137q-21 109 31.5 178t140.5 69q44 0 91.5 -27.5t85 -55t57.5 -27.5q70 0 47 110h137q21 -113 -28.5 -180t-145.5 -67q-36 0 -72 17t-59.5 38t-50.5 38t-47 17q-74 0 -50 -110zM557 -25q-195 0 -292 117t-97 324v608h182v-606q0 -132 68 -204.5t178 -72.5
q122 0 198 94.5t76 264.5v524h183v-1024h-154l-29 127q-45 -69 -126 -110.5t-187 -41.5z" />
    <glyph glyph-name="Umacron" unicode="&#x16a;" horiz-adv-x="1429" 
d="M418 1626v143h594v-143h-594zM715 -25q-135 0 -240.5 46.5t-170 128t-97.5 187t-33 230.5v867h197v-824q0 -226 90 -338t254 -112q163 0 252.5 112t89.5 338v824h196v-867q0 -99 -20 -186.5t-63 -162.5t-105 -128.5t-151.5 -84t-198.5 -30.5z" />
    <glyph glyph-name="umacron" unicode="&#x16b;" horiz-adv-x="1245" 
d="M307 1237v143h594v-143h-594zM557 -25q-195 0 -292 117t-97 324v608h182v-606q0 -132 68 -204.5t178 -72.5q122 0 198 94.5t76 264.5v524h183v-1024h-154l-29 127q-45 -69 -126 -110.5t-187 -41.5z" />
    <glyph glyph-name="Ubreve" unicode="&#x16c;" horiz-adv-x="1429" 
d="M715 1696q54 0 87.5 35.5t33.5 91.5h145q0 -114 -73.5 -187t-192.5 -73t-192.5 73t-73.5 187h145q0 -56 33.5 -91.5t87.5 -35.5zM715 -25q-135 0 -240.5 46.5t-170 128t-97.5 187t-33 230.5v867h197v-824q0 -226 90 -338t254 -112q163 0 252.5 112t89.5 338v824h196v-867
q0 -99 -20 -186.5t-63 -162.5t-105 -128.5t-151.5 -84t-198.5 -30.5z" />
    <glyph glyph-name="ubreve" unicode="&#x16d;" horiz-adv-x="1245" 
d="M604 1307q54 0 87.5 35.5t33.5 91.5h145q0 -114 -73.5 -187t-192.5 -73t-192.5 73t-73.5 187h145q0 -56 33.5 -91.5t87.5 -35.5zM557 -25q-195 0 -292 117t-97 324v608h182v-606q0 -132 68 -204.5t178 -72.5q122 0 198 94.5t76 264.5v524h183v-1024h-154l-29 127
q-45 -69 -126 -110.5t-187 -41.5z" />
    <glyph glyph-name="Uring" unicode="&#x16e;" horiz-adv-x="1429" 
d="M496 1729q0 88 63 152.5t156 64.5q92 0 155.5 -64.5t63.5 -152.5q0 -87 -63.5 -152.5t-155.5 -65.5q-93 0 -156 65.5t-63 152.5zM715 1819q-40 0 -66 -26t-26 -64q0 -40 26 -66.5t66 -26.5q38 0 64 26.5t26 66.5q0 38 -26 64t-64 26zM715 -25q-135 0 -240.5 46.5
t-170 128t-97.5 187t-33 230.5v867h197v-824q0 -226 90 -338t254 -112q163 0 252.5 112t89.5 338v824h196v-867q0 -99 -20 -186.5t-63 -162.5t-105 -128.5t-151.5 -84t-198.5 -30.5z" />
    <glyph glyph-name="uring" unicode="&#x16f;" horiz-adv-x="1245" 
d="M385 1339q0 88 63 152.5t156 64.5q92 0 155.5 -64.5t63.5 -152.5q0 -87 -63.5 -152t-155.5 -65q-93 0 -156 65t-63 152zM604 1430q-40 0 -66 -26t-26 -65q0 -40 26 -66t66 -26q38 0 64 26t26 66q0 38 -26 64.5t-64 26.5zM557 -25q-195 0 -292 117t-97 324v608h182v-606
q0 -132 68 -204.5t178 -72.5q122 0 198 94.5t76 264.5v524h183v-1024h-154l-29 127q-45 -69 -126 -110.5t-187 -41.5z" />
    <glyph glyph-name="Uhungarumlaut" unicode="&#x170;" horiz-adv-x="1429" 
d="M500 1563l75 260h199l-139 -260h-135zM788 1563l76 260h201l-133 -260h-144zM715 -25q-135 0 -240.5 46.5t-170 128t-97.5 187t-33 230.5v867h197v-824q0 -226 90 -338t254 -112q163 0 252.5 112t89.5 338v824h196v-867q0 -99 -20 -186.5t-63 -162.5t-105 -128.5
t-151.5 -84t-198.5 -30.5z" />
    <glyph glyph-name="uhungarumlaut" unicode="&#x171;" horiz-adv-x="1245" 
d="M389 1174l76 260h199l-140 -260h-135zM678 1174l76 260h200l-133 -260h-143zM557 -25q-195 0 -292 117t-97 324v608h182v-606q0 -132 68 -204.5t178 -72.5q122 0 198 94.5t76 264.5v524h183v-1024h-154l-29 127q-45 -69 -126 -110.5t-187 -41.5z" />
    <glyph glyph-name="Uogonek" unicode="&#x172;" horiz-adv-x="1429" 
d="M737 -395q-97 0 -155 50.5t-58 133.5q0 117 119 191q-156 16 -263.5 99.5t-156.5 207.5t-49 280v867h197v-824q0 -226 90 -338t254 -112q163 0 252.5 112t89.5 338v824h196v-867q0 -117 -29 -218t-86 -181t-149 -130t-211 -61q-104 -63 -104 -143q0 -36 24.5 -57
t61.5 -21q52 0 92 37l90 -92q-31 -39 -84.5 -67.5t-120.5 -28.5z" />
    <glyph glyph-name="uogonek" unicode="&#x173;" horiz-adv-x="1245" 
d="M926 -410q-95 0 -153 51t-58 134q0 143 184 225l-29 127q-45 -69 -126 -110.5t-187 -41.5q-195 0 -292 117t-97 324v608h182v-606q0 -132 68 -204.5t178 -72.5q122 0 198 94.5t76 264.5v524h183v-1024h-23q-79 -39 -122.5 -81t-43.5 -99q0 -35 24.5 -56.5t61.5 -21.5
q50 0 90 37l90 -92q-32 -39 -84 -68t-120 -29z" />
    <glyph glyph-name="Wcircumflex" unicode="&#x174;" horiz-adv-x="1851" 
d="M623 1563l206 260h189l207 -260h-185l-116 145l-119 -145h-182zM565 0l-518 1434h209l414 -1176l166 465l-256 711h184l164 -478l162 478h182l-250 -705l166 -471l414 1176h200l-512 -1434h-198l-164 487l-162 -487h-201z" />
    <glyph glyph-name="wcircumflex" unicode="&#x175;" horiz-adv-x="1523" 
d="M461 1174l207 260h188l207 -260h-184l-117 145l-119 -145h-182zM391 0l-348 1024h186l254 -803l205 555l-90 248h178l275 -803l245 803h185l-340 -1024h-176l-199 557l-201 -557h-174z" />
    <glyph glyph-name="Ycircumflex" unicode="&#x176;" horiz-adv-x="1130" 
d="M264 1563l207 260h188l207 -260h-184l-117 145l-119 -145h-182zM469 0v629l-453 805h211l340 -615l338 615h209l-452 -805v-629h-193z" />
    <glyph glyph-name="ycircumflex" unicode="&#x177;" horiz-adv-x="1026" 
d="M211 1174l207 260h188l207 -260h-184l-117 145l-119 -145h-182zM471 -410h-188l149 422l-397 1012h194l297 -778l273 778h190z" />
    <glyph glyph-name="Ydieresis" unicode="&#x178;" horiz-adv-x="1130" 
d="M309 1599v168h183v-168h-183zM639 1599v168h182v-168h-182zM469 0v629l-453 805h211l340 -615l338 615h209l-452 -805v-629h-193z" />
    <glyph glyph-name="Zacute" unicode="&#x179;" horiz-adv-x="1269" 
d="M557 1563l143 260h234l-205 -260h-172zM117 0v162l790 1089h-749v183h991v-162l-784 -1090h804v-182h-1052z" />
    <glyph glyph-name="zacute" unicode="&#x17a;" horiz-adv-x="940" 
d="M385 1174l143 260h234l-205 -260h-172zM68 0v145l546 713h-505v166h739v-145l-549 -713h563v-166h-794z" />
    <glyph glyph-name="Zdotaccent" unicode="&#x17b;" horiz-adv-x="1269" 
d="M537 1593v205h215v-205h-215zM117 0v162l790 1089h-749v183h991v-162l-784 -1090h804v-182h-1052z" />
    <glyph glyph-name="zdotaccent" unicode="&#x17c;" horiz-adv-x="940" 
d="M362 1206v205h216v-205h-216zM68 0v145l546 713h-505v166h739v-145l-549 -713h563v-166h-794z" />
    <glyph glyph-name="Zcaron" unicode="&#x17d;" horiz-adv-x="1269" 
d="M547 1563l-207 260h182l119 -146l117 146h184l-207 -260h-188zM117 0v162l790 1089h-749v183h991v-162l-784 -1090h804v-182h-1052z" />
    <glyph glyph-name="zcaron" unicode="&#x17e;" horiz-adv-x="940" 
d="M375 1174l-207 260h182l119 -146l117 146h184l-207 -260h-188zM68 0v145l546 713h-505v166h739v-145l-549 -713h563v-166h-794z" />
    <glyph glyph-name="longs" unicode="&#x17f;" horiz-adv-x="727" 
d="M227 0v858h-143v166h143v80q0 177 81.5 265.5t236.5 88.5q72 0 127 -22v-179q-64 31 -115 31q-67 0 -106 -44.5t-39 -121.5v-1122h-185z" />
    <glyph glyph-name="Schwa" unicode="&#x18f;" horiz-adv-x="1638" 
d="M821 -25q-159 0 -291 61t-217 164t-131.5 237t-46.5 282q0 57 6 112h1164q-34 199 -170 321t-328 122q-174 0 -280.5 -65.5t-172.5 -196.5l-170 90q91 179 250 267.5t373 88.5q157 0 289.5 -57t223 -156.5t141 -235.5t50.5 -292t-48 -291.5t-135 -235.5t-218 -157.5
t-289 -57.5zM821 160q209 0 341 134.5t151 354.5h-979q17 -219 150 -354t337 -135z" />
    <glyph glyph-name="florin" unicode="&#x192;" 
d="M922 635h-367l-281 -1045h-190l281 1045h-181v160h224l86 319q47 172 145 258t240 86q82 0 180 -31v-170q-95 29 -160 29q-87 0 -141.5 -53t-89.5 -178l-70 -260h324v-160z" />
    <glyph glyph-name="Aringacute" unicode="&#x1fa;" horiz-adv-x="1349" 
d="M588 2009l143 260h234l-205 -260h-172zM457 1729q0 88 63 152.5t156 64.5q92 0 155.5 -64.5t63.5 -152.5q0 -87 -63.5 -152.5t-155.5 -65.5q-93 0 -156 65.5t-63 152.5zM676 1819q-40 0 -66 -26t-26 -64q0 -40 26 -66.5t66 -26.5q38 0 64 26.5t26 66.5q0 38 -26 64
t-64 26zM430 524h485l-241 686zM31 0l534 1434h219l535 -1434h-215l-125 344h-612l-125 -344h-211z" />
    <glyph glyph-name="aringacute" unicode="&#x1fb;" horiz-adv-x="1331" 
d="M555 1630l143 260h234l-205 -260h-172zM418 1339q0 88 63 152.5t156 64.5q92 0 155.5 -64.5t63.5 -152.5q0 -87 -63.5 -152t-155.5 -65q-93 0 -156 65t-63 152zM637 1430q-39 0 -65.5 -26t-26.5 -65q0 -40 26 -66t66 -26q38 0 64 26t26 66q0 38 -26 64.5t-64 26.5z
M633 141q150 0 245 106.5t95 264.5t-95 264.5t-245 106.5q-151 0 -245.5 -106.5t-94.5 -264.5t94.5 -264.5t245.5 -106.5zM614 -25q-152 0 -268.5 72t-178 193.5t-61.5 271.5q0 227 143.5 382t364.5 155q120 0 209 -46.5t135 -107.5l27 129h156v-1024h-156l-27 137
q-46 -67 -140 -114.5t-204 -47.5z" />
    <glyph glyph-name="AEacute" unicode="&#x1fc;" horiz-adv-x="1777" 
d="M770 1563l143 260h234l-205 -260h-172zM455 524h383v727h-19zM-12 0l719 1434h935v-183h-612v-415h572v-185h-572v-469h612v-182h-804v342h-471l-174 -342h-205z" />
    <glyph glyph-name="aeacute" unicode="&#x1fd;" horiz-adv-x="2056" 
d="M979 1174l143 260h234l-205 -260h-172zM610 -25q-152 0 -268.5 72t-178 193.5t-61.5 271.5q0 227 143.5 382t364.5 155q120 0 209 -46.5t135 -107.5l27 129h156v-139q126 162 354 162q101 0 184 -32t139.5 -88.5t92.5 -131.5t47.5 -162.5t-0.5 -181.5h-805
q11 -143 101.5 -227.5t232.5 -84.5q194 0 297 185l149 -74q-60 -128 -172 -202.5t-272 -74.5q-111 0 -200.5 39.5t-147.5 110.5v-123h-156l-27 137q-46 -67 -140 -114.5t-204 -47.5zM629 141q150 0 245 106.5t95 264.5t-95 264.5t-245 106.5t-245 -106.5t-95 -264.5
t95 -264.5t245 -106.5zM1149 600h629q-11 128 -91 204.5t-212 76.5q-133 0 -222 -78t-104 -203z" />
    <glyph glyph-name="Oslashacute" unicode="&#x1fe;" horiz-adv-x="1681" 
d="M729 1563l143 260h234l-205 -260h-172zM842 -25q-242 0 -428 140l-109 -125l-117 92l117 135q-178 206 -178 500q0 206 88.5 374.5t253 267.5t373.5 99q247 0 430 -137l106 123l117 -92l-117 -131q85 -99 130.5 -228.5t45.5 -275.5q0 -205 -90.5 -374t-254 -268.5
t-367.5 -99.5zM324 717q0 -212 108 -357l713 818q-128 98 -303 98q-225 0 -371.5 -157.5t-146.5 -401.5zM842 158q226 0 371 157t145 402q0 211 -109 354l-712 -815q131 -98 305 -98z" />
    <glyph glyph-name="oslashacute" unicode="&#x1ff;" horiz-adv-x="1271" 
d="M537 1176l143 260h233l-204 -260h-172zM293 512q0 -126 59 -215l465 534q-80 52 -182 52q-147 0 -244.5 -104.5t-97.5 -266.5zM635 141q147 0 245.5 104.5t98.5 266.5q0 122 -57 213l-467 -532q80 -52 180 -52zM635 -25q-165 0 -295 84l-76 -86l-114 93l79 92
q-123 148 -123 354q0 227 149.5 382t379.5 155q169 0 297 -86l78 88l114 -93l-82 -94q123 -148 123 -352q0 -227 -150 -382t-380 -155z" />
    <glyph glyph-name="Scommaaccent" unicode="&#x218;" horiz-adv-x="1099" 
d="M561 -25q-372 0 -487 355l178 69q13 -45 37 -85.5t60.5 -76t90.5 -56.5t119 -21q106 0 179 64.5t73 164.5q0 91 -54 150.5t-163 115.5q-109 57 -201 107q-107 56 -167 146.5t-60 199.5q0 153 104.5 251.5t268.5 98.5q263 0 374 -256l-172 -86q-32 78 -80.5 118t-128.5 40
q-71 0 -121.5 -46t-50.5 -112q0 -69 38 -115.5t128 -93.5q9 -5 104.5 -57t104.5 -57q139 -76 205 -172.5t66 -229.5q0 -175 -123.5 -295.5t-321.5 -120.5zM379 -471l53 315h215l-133 -315h-135z" />
    <glyph glyph-name="scommaaccent" unicode="&#x219;" horiz-adv-x="876" 
d="M434 -25q-139 0 -232.5 73t-138.5 200l154 63q53 -174 227 -174q77 0 125.5 44t48.5 108q0 63 -38.5 102.5t-130.5 75.5l-132 53q-82 32 -131 101t-49 161q0 111 84.5 189t208.5 78q206 0 297 -191l-145 -84q-47 113 -152 113q-49 0 -84 -32.5t-35 -78.5q0 -50 31 -77.5
t88 -51.5l150 -59q98 -41 155.5 -115.5t57.5 -181.5q0 -136 -99 -226t-260 -90zM276 -471l54 315h215l-133 -315h-136z" />
    <glyph glyph-name="Tcommaaccent" unicode="&#x21a;" horiz-adv-x="1081" 
d="M436 0v1251h-387v183h983v-183h-401v-1251h-195zM379 -471l53 315h215l-133 -315h-135z" />
    <glyph glyph-name="tcommaaccent" unicode="&#x21b;" horiz-adv-x="673" 
d="M219 0v858h-133v166h133v281l184 34v-315h222v-166h-222v-858h-184zM156 -471l53 315h215l-133 -315h-135z" />
    <glyph glyph-name="dotlessj" unicode="&#x237;" horiz-adv-x="561" 
d="M190 -434v1458h183v-1423z" />
    <glyph glyph-name="schwa" unicode="&#x259;" horiz-adv-x="1191" 
d="M588 -25q-114 0 -206.5 40t-153.5 109.5t-93.5 163t-32.5 201.5q0 32 4 82h807q-11 142 -101 227t-232 85q-193 0 -299 -185l-150 74q61 126 178.5 201.5t278.5 75.5q236 0 372 -151.5t136 -385.5q0 -150 -60 -271.5t-177 -193.5t-271 -72zM586 141q133 0 222 77.5
t103 203.5h-628q11 -128 92 -204.5t211 -76.5z" />
    <glyph glyph-name="circumflex" unicode="&#x2c6;" horiz-adv-x="1048" 
d="M223 1174l207 260h188l207 -260h-184l-117 145l-118 -145h-183z" />
    <glyph glyph-name="caron" unicode="&#x2c7;" horiz-adv-x="1048" 
d="M430 1174l-207 260h183l118 -146l117 146h184l-207 -260h-188z" />
    <glyph glyph-name="breve" unicode="&#x2d8;" horiz-adv-x="1048" 
d="M524 1307q54 0 87.5 35.5t33.5 91.5h146q0 -114 -74 -187t-193 -73t-192.5 73t-73.5 187h145q0 -56 33.5 -91.5t87.5 -35.5z" />
    <glyph glyph-name="dotaccent" unicode="&#x2d9;" horiz-adv-x="1050" 
d="M418 1206v205h215v-205h-215z" />
    <glyph glyph-name="ring" unicode="&#x2da;" horiz-adv-x="1048" 
d="M305 1339q0 88 63 152.5t156 64.5q92 0 155.5 -64.5t63.5 -152.5q0 -87 -63.5 -152t-155.5 -65q-93 0 -156 65t-63 152zM524 1430q-40 0 -66 -26t-26 -65q0 -40 26 -66t66 -26q38 0 64 26t26 66q0 38 -26 64.5t-64 26.5z" />
    <glyph glyph-name="ogonek" unicode="&#x2db;" horiz-adv-x="1028" 
d="M518 -395q-97 0 -155 50.5t-58 133.5q0 143 184 225h138q-82 -38 -127 -80.5t-45 -99.5q0 -36 24.5 -57t61.5 -21q52 0 92 37l90 -92q-31 -39 -84.5 -67.5t-120.5 -28.5z" />
    <glyph glyph-name="tilde" unicode="&#x2dc;" horiz-adv-x="1048" 
d="M367 1180h-138q-21 109 31.5 178t140.5 69q44 0 91.5 -27.5t85 -55t57.5 -27.5q70 0 47 110h137q21 -113 -28.5 -180t-145.5 -67q-36 0 -72 17t-59.5 38t-50.5 38t-47 17q-73 0 -49 -110z" />
    <glyph glyph-name="hungarumlaut" unicode="&#x2dd;" horiz-adv-x="1048" 
d="M246 1174l76 260h198l-139 -260h-135zM535 1174l75 260h201l-133 -260h-143z" />
    <glyph glyph-name="pi" unicode="&#x3c0;" horiz-adv-x="1298" 
d="M250 0l104 858q-47 0 -87 -9t-62.5 -19.5t-52.5 -28.5l-64 143q130 80 272 80h857v-166h-189l-57 -575q-4 -40 -4 -69.5t16.5 -46t54.5 -17.5q24 0 82 10v-160q-94 -23 -145 -23q-46 0 -81 13t-56 31.5t-34.5 49t-19 55t-6 60t1 54.5t4.5 47l62 571h-305l-105 -858h-186z
" />
    <glyph glyph-name="Wgrave" unicode="&#x1e80;" horiz-adv-x="1851" 
d="M868 1823l144 -260h-172l-205 260h233zM565 0l-518 1434h209l414 -1176l166 465l-256 711h184l164 -478l162 478h182l-250 -705l166 -471l414 1176h200l-512 -1434h-198l-164 487l-162 -487h-201z" />
    <glyph glyph-name="wgrave" unicode="&#x1e81;" horiz-adv-x="1523" 
d="M707 1434l143 -260h-172l-205 260h234zM391 0l-348 1024h186l254 -803l205 555l-90 248h178l275 -803l245 803h185l-340 -1024h-176l-199 557l-201 -557h-174z" />
    <glyph glyph-name="Wacute" unicode="&#x1e82;" horiz-adv-x="1851" 
d="M840 1563l143 260h234l-205 -260h-172zM565 0l-518 1434h209l414 -1176l166 465l-256 711h184l164 -478l162 478h182l-250 -705l166 -471l414 1176h200l-512 -1434h-198l-164 487l-162 -487h-201z" />
    <glyph glyph-name="wacute" unicode="&#x1e83;" horiz-adv-x="1523" 
d="M678 1174l143 260h234l-205 -260h-172zM391 0l-348 1024h186l254 -803l205 555l-90 248h178l275 -803l245 803h185l-340 -1024h-176l-199 557l-201 -557h-174z" />
    <glyph glyph-name="Wdieresis" unicode="&#x1e84;" horiz-adv-x="1851" 
d="M668 1599v168h182v-168h-182zM997 1599v168h183v-168h-183zM565 0l-518 1434h209l414 -1176l166 465l-256 711h184l164 -478l162 478h182l-250 -705l166 -471l414 1176h200l-512 -1434h-198l-164 487l-162 -487h-201z" />
    <glyph glyph-name="wdieresis" unicode="&#x1e85;" horiz-adv-x="1523" 
d="M506 1210v168h182v-168h-182zM836 1210v168h182v-168h-182zM391 0l-348 1024h186l254 -803l205 555l-90 248h178l275 -803l245 803h185l-340 -1024h-176l-199 557l-201 -557h-174z" />
    <glyph glyph-name="Ygrave" unicode="&#x1ef2;" horiz-adv-x="1130" 
d="M510 1823l143 -260h-172l-205 260h234zM469 0v629l-453 805h211l340 -615l338 615h209l-452 -805v-629h-193z" />
    <glyph glyph-name="ygrave" unicode="&#x1ef3;" horiz-adv-x="1026" 
d="M455 1434l143 -260h-172l-205 260h234zM471 -410h-188l149 422l-397 1012h194l297 -778l273 778h190z" />
    <glyph glyph-name="thinspace" unicode="&#x2009;" horiz-adv-x="153" 
 />
    <glyph glyph-name="endash" unicode="&#x2013;" horiz-adv-x="1267" 
d="M160 436v168h948v-168h-948z" />
    <glyph glyph-name="emdash" unicode="&#x2014;" horiz-adv-x="1869" 
d="M160 436v168h1550v-168h-1550z" />
    <glyph glyph-name="quoteleft" unicode="&#x2018;" horiz-adv-x="585" 
d="M123 936l192 498h148l-123 -498h-217z" />
    <glyph glyph-name="quoteright" unicode="&#x2019;" horiz-adv-x="563" 
d="M111 936l122 498h218l-193 -498h-147z" />
    <glyph glyph-name="quotesinglbase" unicode="&#x201a;" horiz-adv-x="573" 
d="M117 -266l123 497h217l-193 -497h-147z" />
    <glyph glyph-name="quotedblleft" unicode="&#x201c;" horiz-adv-x="952" 
d="M489 936l193 498h147l-122 -498h-218zM123 936l192 498h148l-123 -498h-217z" />
    <glyph glyph-name="quotedblright" unicode="&#x201d;" horiz-adv-x="929" 
d="M111 936l122 498h218l-193 -498h-147zM477 936l123 498h217l-192 -498h-148z" />
    <glyph glyph-name="quotedblbase" unicode="&#x201e;" horiz-adv-x="942" 
d="M485 -266l123 497h215l-192 -497h-146zM117 -266l123 497h217l-193 -497h-147z" />
    <glyph glyph-name="dagger" unicode="&#x2020;" horiz-adv-x="964" 
d="M848 950h-279v-950h-176v950h-278v166h278v318h176v-318h279v-166z" />
    <glyph glyph-name="daggerdbl" unicode="&#x2021;" horiz-adv-x="964" 
d="M848 317h-279v-317h-176v317h-278v166h278v467h-278v166h278v318h176v-318h279v-166h-279v-467h279v-166z" />
    <glyph glyph-name="bullet" unicode="&#x2022;" horiz-adv-x="620" 
d="M309 483q-82 0 -139 56.5t-57 136.5t57.5 137t138.5 57q82 0 140.5 -57t58.5 -137q0 -79 -58.5 -136t-140.5 -57z" />
    <glyph glyph-name="ellipsis" unicode="&#x2026;" horiz-adv-x="1824" 
d="M1434 0v199h206v-199h-206zM809 0v199h207v-199h-207zM184 0v199h207v-199h-207z" />
    <glyph glyph-name="perthousand" unicode="&#x2030;" horiz-adv-x="2830" 
d="M463 16l928 1473l127 -72l-928 -1472zM418 600q-152 0 -242 113t-90 311t90 311t242 113q151 0 240.5 -113t89.5 -311t-89.5 -311t-240.5 -113zM418 748q81 0 125.5 70t44.5 206q0 135 -45.5 205.5t-124.5 70.5q-80 0 -127 -70.5t-47 -205.5t46.5 -205.5t127.5 -70.5z
M2415 -14q-152 0 -242 113t-90 311t90 311t242 113q151 0 240 -113t89 -311t-89 -311t-240 -113zM1575 -14q-152 0 -242 113t-90 311t90 311t242 113q151 0 240.5 -113t89.5 -311t-89.5 -311t-240.5 -113zM2415 133q81 0 125.5 70.5t44.5 206.5q0 135 -45.5 205.5
t-124.5 70.5q-80 0 -127 -70.5t-47 -205.5t46.5 -206t127.5 -71zM1575 133q81 0 125.5 70.5t44.5 206.5q0 135 -45.5 205.5t-124.5 70.5q-80 0 -127 -70.5t-47 -205.5t46.5 -206t127.5 -71z" />
    <glyph glyph-name="guilsinglleft" unicode="&#x2039;" horiz-adv-x="587" 
d="M299 184l-203 348l203 349h190l-202 -346l205 -351h-193z" />
    <glyph glyph-name="guilsinglright" unicode="&#x203a;" horiz-adv-x="565" 
d="M88 184l203 346l-205 351h190l203 -349l-203 -348h-188z" />
    <glyph glyph-name="fraction" unicode="&#x2044;" horiz-adv-x="309" 
d="M-373 16l928 1473l127 -72l-928 -1472z" />
    <glyph glyph-name="zerosuperior" unicode="&#x2070;" horiz-adv-x="858" 
d="M430 702q-152 0 -242 113t-90 311t90 311t242 113q151 0 240.5 -113t89.5 -311t-89.5 -311t-240.5 -113zM430 850q81 0 125.5 70t44.5 206q0 135 -45.5 206t-124.5 71q-80 0 -127 -71t-47 -206t46.5 -205.5t127.5 -70.5z" />
    <glyph glyph-name="foursuperior" unicode="&#x2074;" horiz-adv-x="757" 
d="M68 877v129l366 530h139v-520h115v-139h-115v-160h-159v160h-346zM414 1288l-191 -272h191v272z" />
    <glyph glyph-name="fivesuperior" unicode="&#x2075;" horiz-adv-x="751" 
d="M616 1536v-147h-333l-27 -160q55 47 145 47q121 0 199 -81.5t78 -205.5q0 -123 -85.5 -205t-219.5 -82q-117 0 -192 56t-99 151l143 47q14 -48 52 -76t94 -28q65 0 107 39t42 102t-41.5 101.5t-107.5 38.5q-93 0 -129 -70l-133 27l55 446h452z" />
    <glyph glyph-name="sixsuperior" unicode="&#x2076;" horiz-adv-x="759" 
d="M674 985q0 -121 -85 -202t-210 -81q-124 0 -208.5 80t-84.5 199q0 94 70 203l231 352h180l-211 -291q24 6 52 6q110 0 188 -75.5t78 -190.5zM512 985q0 56 -37.5 95.5t-95.5 39.5q-59 0 -97 -39t-38 -96q0 -59 38.5 -99t96.5 -40t95.5 40t37.5 99z" />
    <glyph glyph-name="sevensuperior" unicode="&#x2077;" horiz-adv-x="651" 
d="M598 1536v-135l-356 -684h-172l360 676h-360v143h528z" />
    <glyph glyph-name="eightsuperior" unicode="&#x2078;" horiz-adv-x="759" 
d="M90 965q0 67 33 122t88 82q-33 21 -56.5 65t-23.5 91q0 97 71 161t177 64q107 0 178.5 -62.5t71.5 -162.5q0 -44 -23.5 -89t-58.5 -67q57 -28 91 -82t34 -120q0 -111 -83.5 -188t-209.5 -77q-127 0 -208 75t-81 188zM379 1409q-40 0 -68 -25.5t-28 -62.5t28 -62.5
t68 -25.5q41 0 69.5 25.5t28.5 62.5t-29 62.5t-69 25.5zM379 1092q-57 0 -94 -36t-37 -87q0 -52 36.5 -87.5t94.5 -35.5q59 0 96 35.5t37 87.5q0 49 -37.5 86t-95.5 37z" />
    <glyph glyph-name="ninesuperior" unicode="&#x2079;" horiz-adv-x="759" 
d="M88 1270q0 119 85.5 199.5t209.5 80.5t208.5 -80.5t84.5 -199.5q0 -93 -74 -203l-229 -350h-183l211 293q-18 -6 -47 -6q-111 0 -188.5 76.5t-77.5 189.5zM248 1268q0 -57 38.5 -96t96.5 -39q59 0 96 38.5t37 96.5t-37 97.5t-96 39.5q-58 0 -96.5 -39.5t-38.5 -97.5z" />
    <glyph glyph-name="plussuperior" unicode="&#x207a;" horiz-adv-x="747" 
d="M305 868v189h-196v139h196v188h137v-188h195v-139h-195v-189h-137z" />
    <glyph glyph-name="minussuperior" unicode="&#x207b;" horiz-adv-x="747" 
d="M637 1196v-139h-528v139h528z" />
    <glyph glyph-name="equalsuperior" unicode="&#x207c;" horiz-adv-x="747" 
d="M637 1327v-137h-528v137h528zM637 1063v-139h-528v139h528z" />
    <glyph glyph-name="parenleftsuperior" unicode="&#x207d;" horiz-adv-x="493" 
d="M315 539q-108 128 -165.5 281.5t-57.5 305.5q0 154 57.5 307t167.5 279l117 -88q-194 -228 -194 -498q0 -264 194 -499z" />
    <glyph glyph-name="parenrightsuperior" unicode="&#x207e;" horiz-adv-x="493" 
d="M178 539l-121 86q195 232 195 501q0 268 -195 500l119 86q110 -126 167.5 -279t57.5 -307q0 -153 -57 -306.5t-166 -280.5z" />
    <glyph glyph-name="n.superior" unicode="&#x207f;" horiz-adv-x="905" 
d="M152 717v676h133l22 -84q29 45 83.5 72.5t125.5 27.5q119 0 184.5 -72t65.5 -204v-416h-160v389q0 75 -37.5 116.5t-101.5 41.5q-67 0 -111.5 -56.5t-44.5 -167.5v-323h-159z" />
    <glyph glyph-name="zeroinferior" unicode="&#x2080;" horiz-adv-x="858" 
d="M430 -362q-152 0 -242 112.5t-90 310.5t90 311t242 113q151 0 240.5 -113t89.5 -311t-89.5 -310.5t-240.5 -112.5zM430 -215q81 0 125.5 70t44.5 206q0 135 -45.5 206t-124.5 71q-80 0 -127 -71t-47 -206t46.5 -205.5t127.5 -70.5z" />
    <glyph glyph-name="oneinferior" unicode="&#x2081;" horiz-adv-x="528" 
d="M221 -348v645l-139 -57v147l162 84h135v-819h-158z" />
    <glyph glyph-name="twoinferior" unicode="&#x2082;" horiz-adv-x="704" 
d="M72 -348v141q1 1 34.5 35.5t70.5 72t81.5 81.5t69.5 67q69 67 96 103.5t27 78.5q0 43 -31 72t-78 29t-76 -30.5t-37 -76.5l-145 45q24 94 91 154.5t177 60.5q108 0 183 -69t75 -168q0 -74 -34 -133.5t-105 -128.5l-197 -191h342v-143h-544z" />
    <glyph glyph-name="threeinferior" unicode="&#x2083;" horiz-adv-x="741" 
d="M352 -362q-116 0 -189 56t-97 152l143 50q13 -47 51 -78t92 -31q60 0 100 37t40 92q0 51 -38.5 87t-103.5 42l-112 12v107l172 164h-293v143h485v-131l-190 -176q106 -14 172.5 -80.5t66.5 -167.5q0 -125 -84.5 -201.5t-214.5 -76.5z" />
    <glyph glyph-name="fourinferior" unicode="&#x2084;" horiz-adv-x="757" 
d="M68 -188v129l366 530h139v-520h115v-139h-115v-160h-159v160h-346zM414 223l-191 -272h191v272z" />
    <glyph glyph-name="fiveinferior" unicode="&#x2085;" horiz-adv-x="751" 
d="M616 471v-147h-333l-27 -160q55 47 145 47q121 0 199 -81.5t78 -205.5q0 -123 -85.5 -204.5t-219.5 -81.5q-117 0 -192 55.5t-99 150.5l143 47q14 -48 52 -76t94 -28q65 0 107 39t42 102t-41.5 101.5t-107.5 38.5q-93 0 -129 -70l-133 27l55 446h452z" />
    <glyph glyph-name="sixinferior" unicode="&#x2086;" horiz-adv-x="759" 
d="M674 -80q0 -121 -85 -201.5t-210 -80.5q-124 0 -208.5 79.5t-84.5 198.5q0 94 70 203l231 352h180l-211 -291q24 6 52 6q110 0 188 -75.5t78 -190.5zM512 -80q0 56 -37.5 95.5t-95.5 39.5q-59 0 -97 -39t-38 -96q0 -59 38.5 -99t96.5 -40t95.5 40t37.5 99z" />
    <glyph glyph-name="seveninferior" unicode="&#x2087;" horiz-adv-x="651" 
d="M598 471v-135l-356 -684h-172l360 676h-360v143h528z" />
    <glyph glyph-name="eightinferior" unicode="&#x2088;" horiz-adv-x="759" 
d="M90 -100q0 67 33 122t88 82q-33 21 -56.5 65t-23.5 91q0 97 71 161t177 64q107 0 178.5 -62.5t71.5 -162.5q0 -44 -23.5 -89t-58.5 -67q57 -28 91 -82t34 -120q0 -111 -83.5 -187.5t-209.5 -76.5q-127 0 -208 74.5t-81 187.5zM379 344q-40 0 -68 -25.5t-28 -62.5
t28 -62.5t68 -25.5q41 0 69.5 25.5t28.5 62.5t-29 62.5t-69 25.5zM379 27q-57 0 -94 -36t-37 -87q0 -52 36.5 -87.5t94.5 -35.5q59 0 96 35.5t37 87.5q0 49 -37.5 86t-95.5 37z" />
    <glyph glyph-name="nineinferior" unicode="&#x2089;" horiz-adv-x="759" 
d="M88 205q0 119 85.5 199.5t209.5 80.5t208.5 -80.5t84.5 -199.5q0 -93 -74 -203l-229 -350h-183l211 293q-18 -6 -47 -6q-111 0 -188.5 76.5t-77.5 189.5zM248 203q0 -57 38.5 -96t96.5 -39q59 0 96 38.5t37 96.5t-37 97.5t-96 39.5q-58 0 -96.5 -39.5t-38.5 -97.5z" />
    <glyph glyph-name="parenleftinferior" unicode="&#x208d;" horiz-adv-x="493" 
d="M315 -526q-108 128 -165.5 281.5t-57.5 305.5q0 154 57.5 307t167.5 279l117 -88q-194 -228 -194 -498q0 -264 194 -499z" />
    <glyph glyph-name="parenrightinferior" unicode="&#x208e;" horiz-adv-x="493" 
d="M178 -526l-121 86q195 232 195 501q0 268 -195 500l119 86q110 -126 167.5 -279t57.5 -307q0 -153 -57 -306.5t-166 -280.5z" />
    <glyph glyph-name="Euro" unicode="&#x20ac;" 
d="M641 -25q-187 0 -318.5 131.5t-177.5 368.5h-129v160h111v164h-111v159h129q45 238 177 369t319 131q161 0 273 -91.5t153 -260.5l-166 -51q-53 225 -260 225q-109 0 -189.5 -82.5t-115.5 -239.5h416v-159h-441v-164h441v-160h-416q33 -158 112 -239.5t193 -81.5
q105 0 177 69t100 174l176 -53q-55 -176 -174 -272.5t-279 -96.5z" />
    <glyph glyph-name="litre" unicode="&#x2113;" horiz-adv-x="970" 
d="M639 -25q-233 0 -360 240q-87 -33 -183 -49l-28 164q86 17 151 39q-61 196 -61 460q0 322 102.5 475.5t290.5 153.5q108 0 185 -63t112 -160t35 -217q0 -108 -23.5 -205t-63 -173t-96.5 -142.5t-119 -116t-135 -90.5q68 -148 228 -148q73 0 137 21l37 -150
q-96 -39 -209 -39zM381 440q148 81 236 215t88 322q0 133 -40.5 223t-123.5 90q-56 0 -95 -33t-61.5 -97t-32.5 -146.5t-10 -192.5q0 -234 39 -381z" />
    <glyph glyph-name="numero" unicode="&#x2116;" horiz-adv-x="2189" 
d="M1745 700q-158 0 -260.5 101t-102.5 254t102.5 253.5t260.5 100.5q155 0 256.5 -100.5t101.5 -253.5t-101.5 -254t-256.5 -101zM1745 844q84 0 141.5 60t57.5 151t-57.5 151t-141.5 60q-87 0 -144 -59.5t-57 -151.5t57 -151.5t144 -59.5zM195 0v1167h202l553 -856v856
h185v-1167h-201l-555 850v-850h-184zM1444 455v139h598v-139h-598z" />
    <glyph glyph-name="uni2117" unicode="&#x2117;" horiz-adv-x="1746" 
d="M872 -25q-209 0 -379 98t-265 267.5t-95 376.5q0 208 93 377t262.5 266.5t383.5 97.5t384 -97.5t263 -266.5t93 -377q0 -207 -95.5 -376.5t-265.5 -267.5t-379 -98zM872 104q169 0 308 77t220 218t81 318q0 133 -47.5 248t-129.5 194.5t-194 124.5t-238 45
q-169 0 -306.5 -76.5t-217.5 -217.5t-80 -318t80 -318t217.5 -218t306.5 -77zM604 287v860h324q79 0 153.5 -37.5t125 -113t50.5 -171.5q0 -94 -51 -167t-125 -108.5t-153 -35.5h-154v-227h-170zM913 987h-139v-317h139q75 0 122.5 44.5t47.5 110.5q0 70 -47 116t-123 46z
" />
    <glyph glyph-name="servicemark" unicode="&#x2120;" horiz-adv-x="1421" 
d="M659 860v574h191l125 -398l133 398h182v-574h-125v385l-127 -385h-120l-134 385v-385h-125zM86 987l104 62q42 -86 134 -86q41 0 64.5 18.5t23.5 44.5t-20.5 43t-69.5 35l-78 31q-55 19 -85 59t-30 96q0 67 53.5 112.5t134.5 45.5q136 0 191 -107l-105 -59q-26 53 -81 53
q-28 0 -45 -12.5t-17 -34.5q0 -20 14.5 -31.5t44.5 -21.5l87 -31q139 -51 139 -176q0 -79 -63 -130.5t-163 -51.5q-157 0 -233 141z" />
    <glyph glyph-name="trademark" unicode="&#x2122;" horiz-adv-x="1433" 
d="M125 1309v125h450v-125h-165v-449h-131v449h-154zM674 860v574h188l125 -398l135 398h181v-574h-125v385l-127 -385h-121l-131 385v-385h-125z" />
    <glyph glyph-name="Omega" unicode="&#x2126;" horiz-adv-x="1681" 
d="M129 0v174h266q-120 80 -194 228.5t-74 314.5q0 206 88.5 374.5t253 267.5t373.5 99q157 0 291 -57.5t226 -157.5t143.5 -236t51.5 -290q0 -164 -76.5 -314.5t-191.5 -228.5h268v-174h-612v129q194 64 305 213.5t111 374.5q0 244 -146.5 401.5t-369.5 157.5
q-225 0 -371.5 -157.5t-146.5 -401.5q0 -226 111 -376t306 -212v-129h-612z" />
    <glyph glyph-name="estimated" unicode="&#x212e;" horiz-adv-x="1699" 
d="M311 676v-367q77 -127 220.5 -197.5t318.5 -70.5q212 0 375 112.5t237 278.5h72q-81 -198 -267 -327.5t-417 -129.5q-217 0 -385.5 92t-262 261t-93.5 389q0 216 99 386.5t267.5 262.5t374.5 92q160 0 299 -58.5t235.5 -158.5t151.5 -236t55 -288q0 -27 -2 -41h-1278z
M311 741h1084v359q-71 122 -215 207.5t-330 85.5q-165 0 -311 -74t-228 -203v-375z" />
    <glyph glyph-name="arrowleft" unicode="&#x2190;" horiz-adv-x="1589" 
d="M707 -27l-547 547l547 547l108 -109l-358 -354h973v-168h-967l354 -350z" />
    <glyph glyph-name="arrowup" unicode="&#x2191;" horiz-adv-x="1589" 
d="M711 -53v973l-357 -359l-106 109l547 547l546 -547l-112 -113l-352 354v-964h-166z" />
    <glyph glyph-name="arrowright" unicode="&#x2192;" horiz-adv-x="1589" 
d="M883 -27l-109 107l359 356h-973v166h964l-354 352l113 113l547 -549z" />
    <glyph glyph-name="arrowdown" unicode="&#x2193;" horiz-adv-x="1589" 
d="M795 -53l-547 547l112 110l353 -354v967h166v-975l354 360l108 -108z" />
    <glyph glyph-name="arrowupleft" unicode="&#x2196;" horiz-adv-x="1589" 
d="M1157 39l-688 690v-508h-154v776h775v-159h-500l684 -680z" />
    <glyph glyph-name="arrowupright" unicode="&#x2197;" horiz-adv-x="1589" 
d="M451 39l-117 119l682 680h-498v159h774v-776h-153v508z" />
    <glyph glyph-name="arrowdownright" unicode="&#x2198;" horiz-adv-x="1589" 
d="M518 39v160h498l-682 680l117 118l688 -690v506h153v-774h-774z" />
    <glyph glyph-name="arrowdownleft" unicode="&#x2199;" horiz-adv-x="1589" 
d="M299 39v774h152v-506l688 690l116 -118l-682 -680h498v-160h-772z" />
    <glyph glyph-name="partialdiff" unicode="&#x2202;" horiz-adv-x="1206" 
d="M504 -25q-185 0 -303.5 120.5t-118.5 305.5q0 154 69.5 275t186 185.5t256.5 64.5q69 0 126 -16.5t95 -44.5t62.5 -57.5t40.5 -62.5q8 59 4.5 122t-13 123t-34.5 113t-59 93.5t-87 64t-119 23.5q-155 0 -286 -88l-76 158q174 104 395 104q199 0 324 -158.5t125 -449.5
q0 -409 -156 -642t-432 -233zM528 143q138 0 230 99.5t92 234.5q0 122 -71 199.5t-199 77.5q-136 0 -226 -98.5t-90 -237.5q0 -116 75.5 -195.5t188.5 -79.5z" />
    <glyph glyph-name="Delta" unicode="&#x2206;" horiz-adv-x="1349" 
d="M43 0v80l528 1354h207l529 -1354v-80h-1264zM266 160h813l-405 1081z" />
    <glyph glyph-name="product" unicode="&#x220f;" horiz-adv-x="1392" 
d="M201 -410v1844h991v-1844h-188v1672h-617v-1672h-186z" />
    <glyph glyph-name="summation" unicode="&#x2211;" horiz-adv-x="1202" 
d="M113 -410v183l723 762l-723 716v183h929v-183h-669l628 -622v-180l-641 -676h703v-183h-950z" />
    <glyph glyph-name="minus" unicode="&#x2212;" horiz-adv-x="1134" 
d="M139 633v168h856v-168h-856z" />
    <glyph glyph-name="radical" unicode="&#x221a;" horiz-adv-x="1134" 
d="M420 0l-387 1024h186l297 -823l428 1233h180l-522 -1434h-182z" />
    <glyph glyph-name="infinity" unicode="&#x221e;" horiz-adv-x="1173" 
d="M823 365q-91 0 -153 55.5t-111 152.5q-97 -163 -229 -163q-111 0 -189 78.5t-78 228.5t78 228.5t189 78.5q130 0 229 -162q49 96 111.5 151.5t152.5 55.5q122 0 201.5 -97t79.5 -255t-79.5 -255t-201.5 -97zM813 524q46 0 77 33t42.5 74t11.5 86t-11.5 86t-42.5 73.5
t-77 32.5q-51 0 -92 -49t-90 -143q49 -95 90 -144t92 -49zM340 569q48 0 84 38t74 110q-37 71 -73.5 109t-84.5 38q-58 0 -87.5 -42t-29.5 -105t29.5 -105.5t87.5 -42.5z" />
    <glyph glyph-name="integral" unicode="&#x222b;" horiz-adv-x="811" 
d="M57 -412v179q60 -31 111 -31q69 0 107 42t38 124v1202q0 178 81 266t235 88q70 0 125 -22v-179q-60 31 -113 31q-66 0 -104.5 -44.5t-38.5 -121.5v-1202q0 -178 -81 -266t-235 -88q-70 0 -125 22z" />
    <glyph glyph-name="approxequal" unicode="&#x2248;" horiz-adv-x="1134" 
d="M299 768h-160q0 152 69 233.5t177 81.5q45 0 90 -16t79.5 -39t65.5 -45.5t61.5 -38.5t55.5 -16q40 0 63 23t29.5 54.5t6.5 77.5h159q0 -153 -68.5 -234t-176.5 -81q-58 0 -114.5 24t-92 53t-75.5 53t-69 24q-100 0 -100 -154zM299 348h-160q0 153 69 234.5t177 81.5
q55 0 111 -24t92.5 -53t77.5 -53t71 -24q40 0 63 23t29.5 54t6.5 77h159q0 -152 -68.5 -234t-176.5 -82q-58 0 -114.5 24.5t-92 53.5t-75.5 53.5t-69 24.5q-57 0 -78.5 -42.5t-21.5 -113.5z" />
    <glyph glyph-name="notequal" unicode="&#x2260;" horiz-adv-x="1134" 
d="M995 424h-542l-138 -195h-182l137 195h-131v166h248l178 254h-426v166h543l137 194h182l-137 -194h131v-166h-247l-179 -254h426v-166z" />
    <glyph glyph-name="lessequal" unicode="&#x2264;" horiz-adv-x="1134" 
d="M995 510l-856 268v172l856 269v-164l-641 -185l641 -186v-174zM139 215v168h856v-168h-856z" />
    <glyph glyph-name="greaterequal" unicode="&#x2265;" horiz-adv-x="1134" 
d="M139 510v164l641 184l-641 186v175l856 -271v-172zM139 215v168h856v-168h-856z" />
    <glyph glyph-name="blacksquare" unicode="&#x25a0;" horiz-adv-x="1122" 
d="M164 117v794h794v-794h-794z" />
    <glyph glyph-name="whitesquare" unicode="&#x25a1;" horiz-adv-x="1122" 
d="M164 117v794h794v-794h-794zM315 260h492v508h-492v-508z" />
    <glyph glyph-name="blackuppointingtriangle" unicode="&#x25b2;" horiz-adv-x="1515" 
d="M92 0l666 1331l665 -1331h-1331z" />
    <glyph glyph-name="whiteuppointingtriangle" unicode="&#x25b3;" horiz-adv-x="1515" 
d="M92 0l666 1331l665 -1331h-1331zM340 154h823l-409 843z" />
    <glyph glyph-name="u25B4" unicode="&#x25b4;" horiz-adv-x="1122" 
d="M41 45l520 938l520 -938h-1040z" />
    <glyph glyph-name="u25B5" unicode="&#x25b5;" horiz-adv-x="1122" 
d="M41 45l520 938l520 -938h-1040zM293 197h526l-262 487z" />
    <glyph glyph-name="blackrightpointingtriangle" unicode="&#x25b6;" horiz-adv-x="1515" 
d="M164 0v1331l1331 -665z" />
    <glyph glyph-name="whiterightpointingtriangle" unicode="&#x25b7;" horiz-adv-x="1515" 
d="M164 0v1331l1331 -665zM317 248l844 414l-844 409v-823z" />
    <glyph glyph-name="u25B8" unicode="&#x25b8;" horiz-adv-x="1122" 
d="M164 -6v1040l938 -520z" />
    <glyph glyph-name="u25B9" unicode="&#x25b9;" horiz-adv-x="1122" 
d="M164 -6v1040l938 -520zM315 246l488 264l-488 262v-526z" />
    <glyph glyph-name="blackdownpointingtriangle" unicode="&#x25bc;" horiz-adv-x="1515" 
d="M758 0l-666 1331h1331z" />
    <glyph glyph-name="whitedownpointingtriangle" unicode="&#x25bd;" horiz-adv-x="1515" 
d="M758 0l-666 1331h1331zM762 334l414 844h-824z" />
    <glyph glyph-name="u25BE" unicode="&#x25be;" horiz-adv-x="1122" 
d="M561 45l-520 938h1040z" />
    <glyph glyph-name="u25BF" unicode="&#x25bf;" horiz-adv-x="1122" 
d="M561 45l-520 938h1040zM565 344l264 487h-526z" />
    <glyph glyph-name="blackleftpointingtriangle" unicode="&#x25c0;" horiz-adv-x="1515" 
d="M1352 0l-1332 666l1332 665v-1331z" />
    <glyph glyph-name="whiteleftpointingtriangle" unicode="&#x25c1;" horiz-adv-x="1515" 
d="M1352 0l-1332 666l1332 665v-1331zM1198 260v823l-844 -413z" />
    <glyph glyph-name="u25C2" unicode="&#x25c2;" horiz-adv-x="1122" 
d="M958 -6l-938 520l938 520v-1040z" />
    <glyph glyph-name="u25C3" unicode="&#x25c3;" horiz-adv-x="1122" 
d="M958 -6l-938 520l938 520v-1040zM807 256v526l-488 -264z" />
    <glyph glyph-name="blackdiamond" unicode="&#x25c6;" horiz-adv-x="1122" 
d="M561 -47l-561 561l561 561l561 -561z" />
    <glyph glyph-name="whitediamond" unicode="&#x25c7;" horiz-adv-x="1122" 
d="M561 -47l-561 561l561 561l561 -561zM567 168l340 340l-352 352l-340 -340z" />
    <glyph glyph-name="lozenge" unicode="&#x25ca;" horiz-adv-x="1134" 
d="M63 696l416 738h178l414 -738l-414 -696h-178zM258 696l311 -520l314 520l-314 561z" />
    <glyph glyph-name="whitecircle" unicode="&#x25cb;" horiz-adv-x="1122" 
d="M561 96q-172 0 -295 123t-123 295t123 295t295 123t295 -123t123 -295t-123 -295t-295 -123zM561 244q119 0 190.5 78.5t71.5 191.5q0 112 -71.5 191t-190.5 79t-190.5 -79t-71.5 -191q0 -113 71.5 -191.5t190.5 -78.5z" />
    <glyph glyph-name="blackcircle" unicode="&#x25cf;" horiz-adv-x="1122" 
d="M561 96q-173 0 -296.5 123t-123.5 295t123.5 295t296.5 123t296.5 -123t123.5 -295t-123.5 -295t-296.5 -123z" />
    <glyph glyph-name="heartsuitwhite" unicode="&#x2661;" horiz-adv-x="1726" 
d="M827 0q-25 77 -77.5 148.5t-114 128t-130.5 113.5t-133 115t-115.5 121.5t-82.5 145.5t-31 174q0 182 106.5 283.5t264.5 101.5q115 0 207 -60t141 -186q48 125 141.5 185.5t208.5 60.5q101 0 183.5 -42t135 -131.5t52.5 -211.5q0 -92 -31 -174t-83 -145.5t-116 -121.5
t-133 -115t-131 -113.5t-114.5 -128t-77.5 -148.5h-70zM862 250q35 58 84.5 112.5t98.5 96t101 83.5t96.5 82t80 83.5t56 97.5t20.5 115q0 116 -63.5 177.5t-159.5 61.5q-198 0 -285 -313h-57q-87 313 -285 313q-96 0 -159.5 -61.5t-63.5 -177.5q0 -61 20.5 -115t56 -97.5
t79.5 -83.5t96 -82t101 -83.5t98.5 -96t84.5 -112.5z" />
    <glyph glyph-name="heart" unicode="&#x2665;" horiz-adv-x="1726" 
d="M844 0q-25 77 -78.5 148.5t-116.5 128t-134 113.5t-136.5 115t-118.5 121.5t-85 145.5t-32 174q0 182 106.5 283.5t264.5 101.5q115 0 207 -60t141 -186q48 125 141.5 185.5t208.5 60.5q101 0 183.5 -42t135 -131.5t52.5 -211.5q0 -92 -32 -174t-85 -145.5t-118.5 -121.5
t-136 -115t-133.5 -113.5t-116.5 -128t-78.5 -148.5h-39z" />
    <glyph glyph-name="uni2780" unicode="&#x2780;" horiz-adv-x="1746" 
d="M872 -25q-209 0 -379 98t-265 267.5t-95 376.5q0 208 93 377t262.5 266.5t383.5 97.5t384 -97.5t263 -266.5t93 -377q0 -207 -95.5 -376.5t-265.5 -267.5t-379 -98zM872 104q169 0 308 77t220 218t81 318q0 133 -47.5 248t-129.5 194.5t-194 124.5t-238 45
q-169 0 -306.5 -77t-217.5 -217.5t-80 -317.5t80 -318t217.5 -218t306.5 -77zM829 305v645l-137 -57v147l160 84h135v-819h-158z" />
    <glyph glyph-name="uni2781" unicode="&#x2781;" horiz-adv-x="1746" 
d="M872 -25q-209 0 -379 98t-265 267.5t-95 376.5q0 208 93 377t262.5 266.5t383.5 97.5t384 -97.5t263 -266.5t93 -377q0 -207 -95.5 -376.5t-265.5 -267.5t-379 -98zM872 104q169 0 308 77t220 218t81 318q0 133 -47.5 248t-129.5 194.5t-194 124.5t-238 45
q-169 0 -306.5 -77t-217.5 -217.5t-80 -317.5t80 -318t217.5 -218t306.5 -77zM592 305v141q1 1 34.5 35.5t70.5 72t81.5 81.5t69.5 67q68 67 95.5 104t27.5 79q0 43 -31 71.5t-78 28.5t-75.5 -30t-36.5 -76l-146 45q24 94 91 154.5t177 60.5q108 0 183 -69.5t75 -168.5
q0 -74 -34 -133.5t-105 -128.5l-196 -190h342v-144h-545z" />
    <glyph glyph-name="uni2782" unicode="&#x2782;" horiz-adv-x="1746" 
d="M872 -25q-209 0 -379 98t-265 267.5t-95 376.5q0 208 93 377t262.5 266.5t383.5 97.5t384 -97.5t263 -266.5t93 -377q0 -207 -95.5 -376.5t-265.5 -267.5t-379 -98zM872 104q169 0 308 77t220 218t81 318q0 133 -47.5 248t-129.5 194.5t-194 124.5t-238 45
q-169 0 -306.5 -77t-217.5 -217.5t-80 -317.5t80 -318t217.5 -218t306.5 -77zM567 500l146 49q11 -47 48.5 -78t92.5 -31q60 0 99.5 36.5t39.5 92.5q0 51 -38 87t-103 42l-111 13v106l170 164h-293v143h488v-131l-191 -176q106 -14 172 -80.5t66 -167.5q0 -125 -84.5 -201.5
t-214.5 -76.5q-116 0 -189.5 56.5t-97.5 152.5z" />
    <glyph glyph-name="uni2783" unicode="&#x2783;" horiz-adv-x="1746" 
d="M872 -25q-209 0 -379 98t-265 267.5t-95 376.5q0 208 93 377t262.5 266.5t383.5 97.5t384 -97.5t263 -266.5t93 -377q0 -207 -95.5 -376.5t-265.5 -267.5t-379 -98zM872 104q169 0 308 77t220 218t81 318q0 133 -47.5 248t-129.5 194.5t-194 124.5t-238 45
q-169 0 -306.5 -77t-217.5 -217.5t-80 -317.5t80 -318t217.5 -218t306.5 -77zM565 465v129l367 530h137v-520h115v-139h-115v-160h-158v160h-346zM719 604h192v273z" />
    <glyph glyph-name="uni2784" unicode="&#x2784;" horiz-adv-x="1746" 
d="M872 -25q-209 0 -379 98t-265 267.5t-95 376.5q0 208 93 377t262.5 266.5t383.5 97.5t384 -97.5t263 -266.5t93 -377q0 -207 -95.5 -376.5t-265.5 -267.5t-379 -98zM872 104q169 0 308 77t220 218t81 318q0 133 -47.5 248t-129.5 194.5t-194 124.5t-238 45
q-169 0 -306.5 -77t-217.5 -217.5t-80 -317.5t80 -318t217.5 -218t306.5 -77zM580 498l143 47q14 -48 51.5 -76.5t93.5 -28.5q65 0 108.5 40t43.5 102t-42.5 100.5t-109.5 38.5q-42 0 -77 -18.5t-52 -51.5l-133 27l56 446h452v-147h-332l-28 -160q55 47 145 47
q122 0 200.5 -81t78.5 -205q0 -123 -86.5 -205t-221.5 -82q-117 0 -191.5 56t-98.5 151z" />
    <glyph glyph-name="uni2785" unicode="&#x2785;" horiz-adv-x="1746" 
d="M872 -25q-209 0 -379 98t-265 267.5t-95 376.5q0 208 93 377t262.5 266.5t383.5 97.5t384 -97.5t263 -266.5t93 -377q0 -207 -95.5 -376.5t-265.5 -267.5t-379 -98zM872 104q169 0 308 77t220 218t81 318q0 133 -47.5 248t-129.5 194.5t-194 124.5t-238 45
q-169 0 -306.5 -77t-217.5 -217.5t-80 -317.5t80 -318t217.5 -218t306.5 -77zM580 569q0 95 69 203l232 352h182l-213 -290q24 6 51 6q109 0 187.5 -76t78.5 -191q0 -121 -84.5 -201.5t-210.5 -80.5q-124 0 -208 79.5t-84 198.5zM737 573q0 -59 38.5 -99t96.5 -40t96 40
t38 99q0 56 -38 96t-96 40q-59 0 -97 -39.5t-38 -96.5z" />
    <glyph glyph-name="uni2786" unicode="&#x2786;" horiz-adv-x="1746" 
d="M872 -25q-209 0 -379 98t-265 267.5t-95 376.5q0 208 93 377t262.5 266.5t383.5 97.5t384 -97.5t263 -266.5t93 -377q0 -207 -95.5 -376.5t-265.5 -267.5t-379 -98zM872 104q169 0 308 77t220 218t81 318q0 133 -47.5 248t-129.5 194.5t-194 124.5t-238 45
q-169 0 -306.5 -77t-217.5 -217.5t-80 -317.5t80 -318t217.5 -218t306.5 -77zM616 305l361 676h-361v143h531v-135l-359 -684h-172z" />
    <glyph glyph-name="uni2787" unicode="&#x2787;" horiz-adv-x="1746" 
d="M872 -25q-209 0 -379 98t-265 267.5t-95 376.5q0 208 93 377t262.5 266.5t383.5 97.5t384 -97.5t263 -266.5t93 -377q0 -207 -95.5 -376.5t-265.5 -267.5t-379 -98zM872 104q169 0 308 77t220 218t81 318q0 133 -47.5 248t-129.5 194.5t-194 124.5t-238 45
q-169 0 -306.5 -77t-217.5 -217.5t-80 -317.5t80 -318t217.5 -218t306.5 -77zM584 553q0 67 33.5 123t89.5 82q-34 21 -58 64t-24 91q0 97 70.5 161.5t176.5 64.5q107 0 178.5 -63t71.5 -163q0 -44 -23.5 -88.5t-58.5 -66.5q57 -28 91 -82.5t34 -120.5q0 -112 -83 -188
t-210 -76t-207.5 74.5t-80.5 187.5zM778 909q0 -37 27 -62.5t67 -25.5q41 0 70 25.5t29 62.5q0 36 -29.5 62t-69.5 26t-67 -25.5t-27 -62.5zM741 557q0 -52 36.5 -87.5t94.5 -35.5q59 0 96.5 35.5t37.5 87.5q0 49 -38 86t-96 37q-57 0 -94 -36t-37 -87z" />
    <glyph glyph-name="uni2788" unicode="&#x2788;" horiz-adv-x="1746" 
d="M872 -25q-209 0 -379 98t-265 267.5t-95 376.5q0 208 93 377t262.5 266.5t383.5 97.5t384 -97.5t263 -266.5t93 -377q0 -207 -95.5 -376.5t-265.5 -267.5t-379 -98zM872 104q169 0 308 77t220 218t81 318q0 133 -47.5 248t-129.5 194.5t-194 124.5t-238 45
q-169 0 -306.5 -77t-217.5 -217.5t-80 -317.5t80 -318t217.5 -218t306.5 -77zM582 858q0 119 85 200t207 81q123 0 208 -80.5t85 -200.5q0 -97 -71 -203l-230 -350h-182l211 293q-21 -6 -47 -6q-111 0 -188.5 76.5t-77.5 189.5zM741 856q0 -58 37.5 -96.5t95.5 -38.5
q61 0 98.5 38.5t37.5 96.5t-38 97.5t-98 39.5q-58 0 -95.5 -39.5t-37.5 -97.5z" />
    <glyph glyph-name="uni2789" unicode="&#x2789;" horiz-adv-x="1746" 
d="M872 -25q-209 0 -379 98t-265 267.5t-95 376.5q0 208 93 377t262.5 266.5t383.5 97.5t384 -97.5t263 -266.5t93 -377q0 -207 -95.5 -376.5t-265.5 -267.5t-379 -98zM872 104q169 0 308 77t220 218t81 318q0 133 -47.5 248t-129.5 194.5t-194 124.5t-238 45
q-169 0 -306.5 -77t-217.5 -217.5t-80 -317.5t80 -318t217.5 -218t306.5 -77zM778 717q0 197 76 310.5t201 113.5q126 0 201 -113t75 -311t-75 -311t-201 -113q-125 0 -201 113.5t-76 310.5zM524 307v819h154v-819h-154zM932 717q0 -136 33 -207.5t90 -71.5q58 0 90.5 71
t32.5 208q0 136 -33 207t-90 71t-90 -71t-33 -207z" />
    <glyph glyph-name="uni278A" unicode="&#x278a;" horiz-adv-x="1746" 
d="M872 -25q-209 0 -379 98t-265 267.5t-95 376.5q0 208 93 377t262.5 266.5t383.5 97.5t384 -97.5t263 -266.5t93 -377q0 -207 -95.5 -376.5t-265.5 -267.5t-379 -98zM829 305h158v819h-135l-160 -84v-147l137 59v-647z" />
    <glyph glyph-name="uni278B" unicode="&#x278b;" horiz-adv-x="1746" 
d="M872 -25q-209 0 -379 98t-265 267.5t-95 376.5q0 208 93 377t262.5 266.5t383.5 97.5t384 -97.5t263 -266.5t93 -377q0 -207 -95.5 -376.5t-265.5 -267.5t-379 -98zM592 305h545v144h-342l196 190q71 69 105 128.5t34 133.5q0 99 -75 168.5t-183 69.5q-110 0 -177 -60
t-91 -155l146 -43q8 45 37 75.5t75 30.5q47 0 78 -29.5t31 -72.5q0 -42 -27.5 -79t-95.5 -104q-25 -23 -69.5 -66.5t-81.5 -81.5t-70.5 -72.5t-34.5 -35.5v-141z" />
    <glyph glyph-name="uni278C" unicode="&#x278c;" horiz-adv-x="1746" 
d="M872 -25q-209 0 -379 98t-265 267.5t-95 376.5q0 208 93 377t262.5 266.5t383.5 97.5t384 -97.5t263 -266.5t93 -377q0 -207 -95.5 -376.5t-265.5 -267.5t-379 -98zM567 500q24 -95 97.5 -152t189.5 -57q130 0 214.5 76.5t84.5 203.5q0 100 -66 167t-172 79l191 176v131
h-488v-141h293l-170 -166v-106l111 -11q64 -6 102.5 -43t38.5 -88q0 -55 -39.5 -91t-99.5 -36q-54 0 -92 31t-49 76z" />
    <glyph glyph-name="uni278D" unicode="&#x278d;" horiz-adv-x="1746" 
d="M872 -25q-209 0 -379 98t-265 267.5t-95 376.5q0 208 93 377t262.5 266.5t383.5 97.5t384 -97.5t263 -266.5t93 -377q0 -207 -95.5 -376.5t-265.5 -267.5t-379 -98zM565 465h346v-160h158v160h115v141h-115v518h-137l-367 -528v-131zM719 606l192 277v-277h-192z" />
    <glyph glyph-name="uni278E" unicode="&#x278e;" horiz-adv-x="1746" 
d="M872 -25q-209 0 -379 98t-265 267.5t-95 376.5q0 208 93 377t262.5 266.5t383.5 97.5t384 -97.5t263 -266.5t93 -377q0 -207 -95.5 -376.5t-265.5 -267.5t-379 -98zM580 498q24 -95 98.5 -151t191.5 -56q135 0 221.5 82t86.5 205q0 124 -78.5 205t-200.5 81
q-90 0 -145 -47l28 160h332v147h-452l-56 -446l133 -27q17 33 52 51.5t77 18.5q67 0 109.5 -38.5t42.5 -100.5t-43.5 -102t-108.5 -40q-56 0 -93.5 28.5t-51.5 76.5z" />
    <glyph glyph-name="uni278F" unicode="&#x278f;" horiz-adv-x="1746" 
d="M872 -25q-209 0 -379 98t-265 267.5t-95 376.5q0 208 93 377t262.5 266.5t383.5 97.5t384 -97.5t263 -266.5t93 -377q0 -207 -95.5 -376.5t-265.5 -267.5t-379 -98zM580 569q0 -119 84 -198.5t208 -79.5q126 0 210.5 80.5t84.5 201.5q0 115 -78.5 191t-187.5 76
q-27 0 -51 -6l213 290h-182l-232 -352q-69 -108 -69 -203zM737 573q0 57 38 96.5t97 39.5q58 0 96 -40t38 -96q0 -59 -38 -99t-96 -40t-96.5 40t-38.5 99z" />
    <glyph glyph-name="uni2790" unicode="&#x2790;" horiz-adv-x="1746" 
d="M872 -25q-209 0 -379 98t-265 267.5t-95 376.5q0 208 93 377t262.5 266.5t383.5 97.5t384 -97.5t263 -266.5t93 -377q0 -207 -95.5 -376.5t-265.5 -267.5t-379 -98zM616 305h172l359 686v133h-531v-141h361z" />
    <glyph glyph-name="uni2791" unicode="&#x2791;" horiz-adv-x="1746" 
d="M872 -25q-209 0 -379 98t-265 267.5t-95 376.5q0 208 93 377t262.5 266.5t383.5 97.5t384 -97.5t263 -266.5t93 -377q0 -207 -95.5 -376.5t-265.5 -267.5t-379 -98zM584 555q0 -115 80.5 -189.5t207.5 -74.5t210 77t83 189q0 66 -34 120.5t-91 82.5q35 22 58.5 65.5
t23.5 89.5q0 100 -71.5 162t-178.5 62q-106 0 -176.5 -64.5t-70.5 -161.5q0 -48 24 -90.5t58 -62.5q-56 -28 -89.5 -83.5t-33.5 -121.5zM778 911q0 36 27.5 61t66.5 25q40 0 69.5 -25.5t29.5 -60.5q0 -37 -29 -62.5t-70 -25.5q-40 0 -67 25.5t-27 62.5zM741 557q0 51 37 87
t94 36q59 0 96.5 -36t37.5 -87t-37.5 -86t-96.5 -35q-57 0 -94 35t-37 86z" />
    <glyph glyph-name="uni2792" unicode="&#x2792;" horiz-adv-x="1746" 
d="M872 -25q-209 0 -379 98t-265 267.5t-95 376.5q0 208 93 377t262.5 266.5t383.5 97.5t384 -97.5t263 -266.5t93 -377q0 -207 -95.5 -376.5t-265.5 -267.5t-379 -98zM582 858q0 -113 77.5 -189.5t188.5 -76.5q26 0 47 6l-211 -293h182l230 350q71 106 71 203
q0 120 -85 200.5t-208 80.5q-122 0 -207 -81t-85 -200zM741 856q0 58 37.5 97.5t95.5 39.5q60 0 98 -39.5t38 -97.5t-37.5 -96.5t-98.5 -38.5q-58 0 -95.5 38.5t-37.5 96.5z" />
    <glyph glyph-name="uni2793" unicode="&#x2793;" horiz-adv-x="1746" 
d="M872 -25q-209 0 -379 98t-265 267.5t-95 376.5q0 208 93 377t262.5 266.5t383.5 97.5t384 -97.5t263 -266.5t93 -377q0 -207 -95.5 -376.5t-265.5 -267.5t-379 -98zM778 717q0 -197 76 -310.5t201 -113.5q126 0 201 113t75 311t-75 311t-201 113q-125 0 -201 -113.5
t-76 -310.5zM524 307h154v819h-154v-819zM932 717q0 136 33 207t90 71t90 -71t33 -207q0 -137 -32.5 -208t-90.5 -71q-57 0 -90 71.5t-33 207.5z" />
    <glyph glyph-name="uni27F7" unicode="&#x27f7;" horiz-adv-x="2748" 
d="M707 -27l-547 547l547 547l108 -109l-358 -354h1827l-355 350l113 113l547 -547l-547 -547l-109 109l359 354h-1829l354 -350z" />
    <glyph glyph-name="commaaccent" unicode="&#xf6c3;" horiz-adv-x="1079" 
d="M406 -471l53 315h215l-133 -315h-135z" />
    <glyph glyph-name="centinferior" unicode="&#xf6df;" horiz-adv-x="747" 
d="M676 -199q-28 -59 -84 -101.5t-135 -55.5v-103h-138v107q-107 25 -172 105.5t-65 191.5q0 109 65 189.5t172 105.5v106h138v-100q161 -28 217 -162l-139 -57q-41 86 -140 86q-70 0 -113.5 -47t-43.5 -121q0 -75 44.5 -122.5t114.5 -47.5q97 0 144 86z" />
    <glyph glyph-name="centsuperior" unicode="&#xf6e0;" horiz-adv-x="747" 
d="M676 866q-28 -59 -84 -101.5t-135 -55.5v-103h-138v107q-107 25 -172 105.5t-65 191.5q0 109 65 189.5t172 105.5v106h138v-100q161 -28 217 -162l-139 -57q-41 86 -140 86q-70 0 -113.5 -47t-43.5 -121q0 -75 44.5 -122.5t114.5 -47.5q97 0 144 86z" />
    <glyph glyph-name="commainferior" unicode="&#xf6e1;" horiz-adv-x="395" 
d="M78 -500l65 303h168l-123 -303h-110z" />
    <glyph glyph-name="commasuperior" unicode="&#xf6e2;" horiz-adv-x="395" 
d="M78 565l65 303h168l-123 -303h-110z" />
    <glyph glyph-name="dollarinferior" unicode="&#xf6e3;" horiz-adv-x="720" 
d="M295 -463v107q-171 33 -232 206l140 56q18 -54 61 -87.5t103 -33.5q52 0 87 27t35 69q0 36 -26 63t-84 56l-117 59q-143 75 -143 217q0 74 48 128t128 73v109h141v-111q106 -25 158 -135l-135 -72q-30 72 -99 72q-34 0 -55.5 -16.5t-21.5 -44.5q0 -27 17 -46t60 -43
l121 -63q87 -45 127.5 -103.5t40.5 -142.5q0 -85 -57.5 -150t-155.5 -85v-109h-141z" />
    <glyph glyph-name="dollarsuperior" unicode="&#xf6e4;" horiz-adv-x="720" 
d="M295 602v107q-171 33 -232 206l140 56q18 -54 61 -87.5t103 -33.5q52 0 87 27t35 69q0 36 -26 63t-84 56l-117 59q-143 75 -143 217q0 74 48 128t128 73v109h141v-111q106 -25 158 -135l-135 -72q-30 72 -99 72q-34 0 -55.5 -17t-21.5 -45q0 -27 17 -45.5t60 -42.5
l121 -63q87 -45 127.5 -103.5t40.5 -142.5q0 -85 -57.5 -150t-155.5 -85v-109h-141z" />
    <glyph glyph-name="periodinferior" unicode="&#xf6e7;" horiz-adv-x="415" 
d="M129 -348v147h158v-147h-158z" />
    <glyph glyph-name="periodsuperior" unicode="&#xf6e8;" horiz-adv-x="415" 
d="M129 717v147h158v-147h-158z" />
    <glyph glyph-name="s_t" unicode="&#xfb06;" horiz-adv-x="1550" 
d="M434 -25q-139 0 -232.5 73t-138.5 200l154 63q53 -174 227 -174q77 0 125.5 44t48.5 108q0 63 -38.5 102.5t-130.5 75.5l-132 53q-82 32 -131 101t-49 161q0 111 84.5 189t208.5 78q30 0 70 -7q-19 55 -19 109q0 150 107.5 249t275.5 99q118 0 214 -55.5t149 -147
t53 -196.5v-76h221v-166h-221v-858h-184v858h-133v166h133v76q0 40 -13 78.5t-39 73t-72.5 56t-107.5 21.5q-111 0 -172 -64.5t-61 -158.5q0 -97 53 -176q29 -44 43 -72l-145 -84q-47 113 -152 113q-49 0 -84 -32.5t-35 -78.5q0 -50 31 -77.5t88 -51.5l150 -59
q98 -41 155.5 -115.5t57.5 -181.5q0 -136 -99 -226t-260 -90z" />
    <glyph glyph-name="CR" horiz-adv-x="0" 
 />
    <glyph glyph-name="J.alt" horiz-adv-x="628" 
d="M412 -410l-195 -34v1878h195v-1844z" />
    <glyph glyph-name="fi.cap" horiz-adv-x="1740" 
d="M217 0v1434h807v-183h-612v-415h571v-185h-571v-651h-195zM1329 0v1434h195v-1434h-195z" />
    <glyph glyph-name="fl.cap" horiz-adv-x="2148" 
d="M217 0v1434h807v-183h-612v-415h571v-185h-571v-651h-195zM1327 0v1434h195v-1252h561v-182h-756z" />
    <glyph glyph-name="IJ.alt" horiz-adv-x="1255" 
d="M1036 -410l-194 -34v1878h194v-1844zM217 0v1434h195v-1434h-195z" />
    <glyph glyph-name="Jcircumflex.alt" horiz-adv-x="628" 
d="M14 1563l207 260h189l206 -260h-184l-117 145l-118 -145h-183zM412 -410l-195 -34v1878h195v-1844z" />
    <glyph glyph-name="germandbls.cap" horiz-adv-x="2199" 
d="M561 -25q-372 0 -487 355l178 69q13 -45 37 -85.5t60.5 -76t90.5 -56.5t119 -21q106 0 179 64.5t73 164.5q0 91 -54 150.5t-163 115.5q-109 57 -201 107q-107 56 -167 146.5t-60 199.5q0 153 104.5 251.5t268.5 98.5q263 0 374 -256l-172 -86q-32 78 -80.5 118t-128.5 40
q-71 0 -121.5 -46t-50.5 -112q0 -69 38 -115.5t128 -93.5q9 -5 104.5 -57t104.5 -57q139 -76 205 -172.5t66 -229.5q0 -175 -123.5 -295.5t-321.5 -120.5zM1661 -25q-372 0 -487 355l178 69q13 -45 37 -85.5t60.5 -76t90.5 -56.5t119 -21q106 0 179 64.5t73 164.5
q0 91 -54 150.5t-163 115.5q-109 57 -201 107q-107 56 -167 146.5t-60 199.5q0 153 104 251.5t268 98.5q264 0 375 -256l-172 -86q-32 78 -80.5 118t-128.5 40q-71 0 -121.5 -46t-50.5 -112q0 -69 38 -115.5t128 -93.5q9 -5 104.5 -57t104.5 -57q139 -75 204.5 -172
t65.5 -230q0 -175 -123 -295.5t-321 -120.5z" />
    <glyph glyph-name="a.alt" horiz-adv-x="1171" 
d="M561 131q114 0 188 57t74 140q0 82 -73.5 135t-188.5 53q-118 0 -186 -51.5t-68 -136.5q0 -87 68.5 -142t185.5 -55zM502 -25q-158 0 -268.5 98t-110.5 246q0 154 112 250.5t279 96.5q103 0 172 -21.5t133 -64.5v63q0 105 -76 172.5t-198 67.5q-151 0 -289 -68l-57 156
q174 78 352 78q220 0 334 -113.5t114 -323.5v-612h-147l-23 90q-118 -115 -327 -115z" />
    <glyph glyph-name="g.alt" horiz-adv-x="1378" 
d="M674 141q150 0 247 107t97 264q0 158 -95 264.5t-245 106.5q-149 0 -244.5 -107t-95.5 -264q0 -159 92.5 -265t243.5 -106zM674 -434q-95 0 -173.5 15.5t-137 45.5t-97 58t-78.5 67l113 135q67 -71 153 -112t224 -41q160 0 243 81t83 203v121q-55 -69 -146 -116.5
t-199 -47.5q-155 0 -271.5 72.5t-175 193t-58.5 271.5q0 149 64 271t181.5 194t264.5 72q119 0 210 -49t134 -109l24 133h154v-985q0 -218 -143.5 -345.5t-368.5 -127.5z" />
    <glyph glyph-name="k.alt" horiz-adv-x="1056" 
d="M580 477q94 0 153.5 57t59.5 146t-60 148t-153 59q-88 0 -148.5 -60.5t-60.5 -146.5q0 -85 63 -144t146 -59zM193 0v1464h182v-506q41 41 103.5 66t133.5 25q154 0 259.5 -105.5t105.5 -263.5q0 -138 -94 -234t-234 -108l336 -338h-231l-379 387v-387h-182z" />
    <glyph glyph-name="agrave.alt" horiz-adv-x="1171" 
d="M508 1434l143 -260h-172l-205 260h234zM561 131q114 0 188 57t74 140q0 82 -73.5 135t-188.5 53q-118 0 -186 -51.5t-68 -136.5q0 -87 68.5 -142t185.5 -55zM502 -25q-158 0 -268.5 98t-110.5 246q0 154 112 250.5t279 96.5q103 0 172 -21.5t133 -64.5v63
q0 105 -76 172.5t-198 67.5q-151 0 -289 -68l-57 156q174 78 352 78q220 0 334 -113.5t114 -323.5v-612h-147l-23 90q-118 -115 -327 -115z" />
    <glyph glyph-name="aacute.alt" horiz-adv-x="1171" 
d="M477 1174l144 260h233l-205 -260h-172zM561 131q114 0 188 57t74 140q0 82 -73.5 135t-188.5 53q-118 0 -186 -51.5t-68 -136.5q0 -87 68.5 -142t185.5 -55zM502 -25q-158 0 -268.5 98t-110.5 246q0 154 112 250.5t279 96.5q103 0 172 -21.5t133 -64.5v63
q0 105 -76 172.5t-198 67.5q-151 0 -289 -68l-57 156q174 78 352 78q220 0 334 -113.5t114 -323.5v-612h-147l-23 90q-118 -115 -327 -115z" />
    <glyph glyph-name="acircumflex.alt" horiz-adv-x="1171" 
d="M262 1174l207 260h188l207 -260h-184l-117 145l-119 -145h-182zM561 131q114 0 188 57t74 140q0 82 -73.5 135t-188.5 53q-118 0 -186 -51.5t-68 -136.5q0 -87 68.5 -142t185.5 -55zM502 -25q-158 0 -268.5 98t-110.5 246q0 154 112 250.5t279 96.5q103 0 172 -21.5
t133 -64.5v63q0 105 -76 172.5t-198 67.5q-151 0 -289 -68l-57 156q174 78 352 78q220 0 334 -113.5t114 -323.5v-612h-147l-23 90q-118 -115 -327 -115z" />
    <glyph glyph-name="atilde.alt" horiz-adv-x="1171" 
d="M406 1180h-138q-21 109 31.5 178t140.5 69q44 0 91.5 -27.5t85 -55t57.5 -27.5q70 0 47 110h137q21 -113 -28.5 -180t-145.5 -67q-36 0 -72 17t-59.5 38t-50.5 38t-47 17q-73 0 -49 -110zM561 131q114 0 188 57t74 140q0 82 -73.5 135t-188.5 53q-118 0 -186 -51.5
t-68 -136.5q0 -87 68.5 -142t185.5 -55zM502 -25q-158 0 -268.5 98t-110.5 246q0 154 112 250.5t279 96.5q103 0 172 -21.5t133 -64.5v63q0 105 -76 172.5t-198 67.5q-151 0 -289 -68l-57 156q174 78 352 78q220 0 334 -113.5t114 -323.5v-612h-147l-23 90
q-118 -115 -327 -115z" />
    <glyph glyph-name="adieresis.alt" horiz-adv-x="1171" 
d="M307 1210v168h182v-168h-182zM637 1210v168h182v-168h-182zM561 131q114 0 188 57t74 140q0 82 -73.5 135t-188.5 53q-118 0 -186 -51.5t-68 -136.5q0 -87 68.5 -142t185.5 -55zM502 -25q-158 0 -268.5 98t-110.5 246q0 154 112 250.5t279 96.5q103 0 172 -21.5
t133 -64.5v63q0 105 -76 172.5t-198 67.5q-151 0 -289 -68l-57 156q174 78 352 78q220 0 334 -113.5t114 -323.5v-612h-147l-23 90q-118 -115 -327 -115z" />
    <glyph glyph-name="amacron.alt" horiz-adv-x="1171" 
d="M266 1237v143h594v-143h-594zM561 131q114 0 188 57t74 140q0 82 -73.5 135t-188.5 53q-118 0 -186 -51.5t-68 -136.5q0 -87 68.5 -142t185.5 -55zM502 -25q-158 0 -268.5 98t-110.5 246q0 154 112 250.5t279 96.5q103 0 172 -21.5t133 -64.5v63q0 105 -76 172.5
t-198 67.5q-151 0 -289 -68l-57 156q174 78 352 78q220 0 334 -113.5t114 -323.5v-612h-147l-23 90q-118 -115 -327 -115z" />
    <glyph glyph-name="abreve.alt" horiz-adv-x="1171" 
d="M563 1307q54 0 87.5 35.5t33.5 91.5h145q0 -114 -73.5 -187t-192.5 -73t-192.5 73t-73.5 187h145q0 -56 33.5 -91.5t87.5 -35.5zM561 131q114 0 188 57t74 140q0 82 -73.5 135t-188.5 53q-118 0 -186 -51.5t-68 -136.5q0 -87 68.5 -142t185.5 -55zM502 -25
q-158 0 -268.5 98t-110.5 246q0 154 112 250.5t279 96.5q103 0 172 -21.5t133 -64.5v63q0 105 -76 172.5t-198 67.5q-151 0 -289 -68l-57 156q174 78 352 78q220 0 334 -113.5t114 -323.5v-612h-147l-23 90q-118 -115 -327 -115z" />
    <glyph glyph-name="aring.alt" horiz-adv-x="1171" 
d="M344 1339q0 88 63 152.5t156 64.5q92 0 155.5 -64.5t63.5 -152.5q0 -87 -63.5 -152t-155.5 -65q-93 0 -156 65t-63 152zM563 1430q-39 0 -65.5 -26t-26.5 -65q0 -40 26 -66t66 -26q38 0 64 26t26 66q0 38 -26 64.5t-64 26.5zM561 131q114 0 188 57t74 140q0 82 -73.5 135
t-188.5 53q-118 0 -186 -51.5t-68 -136.5q0 -87 68.5 -142t185.5 -55zM502 -25q-158 0 -268.5 98t-110.5 246q0 154 112 250.5t279 96.5q103 0 172 -21.5t133 -64.5v63q0 105 -76 172.5t-198 67.5q-151 0 -289 -68l-57 156q174 78 352 78q220 0 334 -113.5t114 -323.5v-612
h-147l-23 90q-118 -115 -327 -115z" />
    <glyph glyph-name="aringacute.alt" horiz-adv-x="1171" 
d="M469 1628l143 260h234l-205 -260h-172zM344 1339q0 88 63 152.5t156 64.5q92 0 155.5 -64.5t63.5 -152.5q0 -87 -63.5 -152t-155.5 -65q-93 0 -156 65t-63 152zM563 1430q-39 0 -65.5 -26t-26.5 -65q0 -40 26 -66t66 -26q38 0 64 26t26 66q0 38 -26 64.5t-64 26.5z
M561 131q114 0 188 57t74 140q0 82 -73.5 135t-188.5 53q-118 0 -186 -51.5t-68 -136.5q0 -87 68.5 -142t185.5 -55zM502 -25q-158 0 -268.5 98t-110.5 246q0 154 112 250.5t279 96.5q103 0 172 -21.5t133 -64.5v63q0 105 -76 172.5t-198 67.5q-151 0 -289 -68l-57 156
q174 78 352 78q220 0 334 -113.5t114 -323.5v-612h-147l-23 90q-118 -115 -327 -115z" />
    <glyph glyph-name="aogonek.alt" horiz-adv-x="1171" 
d="M881 -410q-94 0 -153.5 53.5t-59.5 131.5q0 81 52.5 136.5t131.5 88.5l-23 90q-118 -115 -327 -115q-158 0 -268.5 98t-110.5 246q0 154 112 250.5t279 96.5q103 0 172 -21.5t133 -64.5v63q0 105 -76 172.5t-198 67.5q-151 0 -289 -68l-57 156q174 78 352 78
q220 0 334 -113.5t114 -323.5v-612h-18q-79 -38 -121.5 -80.5t-42.5 -99.5q0 -34 25 -56t61 -22q50 0 90 37l90 -92q-32 -39 -83.5 -68t-118.5 -29zM561 131q114 0 188 57t74 140q0 82 -73.5 135t-188.5 53q-118 0 -186 -51.5t-68 -136.5q0 -87 68.5 -142t185.5 -55z" />
    <glyph glyph-name="ae.alt" horiz-adv-x="1900" 
d="M997 602h627q-11 128 -92 204.5t-211 76.5q-133 0 -221.5 -77.5t-102.5 -203.5zM508 -25q-172 0 -285.5 99t-113.5 248t113.5 246.5t285.5 97.5q100 0 168 -20.5t131 -61.5v55q0 106 -78 175t-201 69q-142 0 -290 -68l-60 156q174 78 346 78q145 0 246.5 -50.5
t151.5 -144.5q64 93 166.5 144t230.5 51q117 0 210 -39t152.5 -108.5t91 -162.5t31.5 -204q0 -32 -4 -82h-807q11 -142 101.5 -227t234.5 -85q191 0 297 185l150 -74q-61 -126 -178.5 -201.5t-278.5 -75.5q-125 0 -230.5 50t-168.5 135q-142 -185 -412 -185zM549 133
q111 0 185.5 58.5t74.5 138.5q0 78 -74 133t-186 55q-120 0 -188 -53t-68 -135q0 -81 69.5 -139t186.5 -58z" />
    <glyph glyph-name="aeacute.alt" horiz-adv-x="1900" 
d="M840 1174l143 260h234l-205 -260h-172zM989 602h627q-11 128 -92 204.5t-211 76.5q-133 0 -221.5 -77.5t-102.5 -203.5zM500 -25q-172 0 -286 99t-114 248t114 246.5t286 97.5q100 0 168 -20.5t131 -61.5v55q0 106 -78 175t-201 69q-143 0 -291 -68l-59 156
q174 78 346 78q145 0 246 -50t151 -145q63 93 166.5 144t231.5 51q117 0 210 -39t152.5 -108.5t91 -162.5t31.5 -204q0 -32 -4 -82h-807q11 -142 101.5 -227t234.5 -85q191 0 297 185l149 -74q-62 -126 -178.5 -201.5t-277.5 -75.5q-125 0 -231 50t-169 135
q-142 -185 -411 -185zM541 133q111 0 185.5 58.5t74.5 138.5q0 78 -74 133t-186 55q-120 0 -188 -53t-68 -135q0 -81 69.5 -139t186.5 -58z" />
    <glyph glyph-name="gcircumflex.alt" horiz-adv-x="1378" 
d="M367 1174l206 260h189l207 -260h-185l-116 145l-119 -145h-182zM674 141q150 0 247 107t97 264q0 158 -95 264.5t-245 106.5q-149 0 -244.5 -107t-95.5 -264q0 -159 92.5 -265t243.5 -106zM674 -434q-95 0 -173.5 15.5t-137 45.5t-97 58t-78.5 67l113 135
q67 -71 153 -112t224 -41q160 0 243 81t83 203v121q-55 -69 -146 -116.5t-199 -47.5q-155 0 -271.5 72.5t-175 193t-58.5 271.5q0 149 64 271t181.5 194t264.5 72q119 0 210 -49t134 -109l24 133h154v-985q0 -218 -143.5 -345.5t-368.5 -127.5z" />
    <glyph glyph-name="gbreve.alt" horiz-adv-x="1378" 
d="M668 1307q54 0 87 35.5t33 91.5h146q0 -114 -73.5 -187t-192.5 -73t-193 73t-74 187h146q0 -56 33.5 -91.5t87.5 -35.5zM674 141q150 0 247 107t97 264q0 158 -95 264.5t-245 106.5q-149 0 -244.5 -107t-95.5 -264q0 -159 92.5 -265t243.5 -106zM674 -434
q-95 0 -173.5 15.5t-137 45.5t-97 58t-78.5 67l113 135q67 -71 153 -112t224 -41q160 0 243 81t83 203v121q-55 -69 -146 -116.5t-199 -47.5q-155 0 -271.5 72.5t-175 193t-58.5 271.5q0 149 64 271t181.5 194t264.5 72q119 0 210 -49t134 -109l24 133h154v-985
q0 -218 -143.5 -345.5t-368.5 -127.5z" />
    <glyph glyph-name="gdotaccent.alt" horiz-adv-x="1378" 
d="M561 1206v205h215v-205h-215zM674 141q150 0 247 107t97 264q0 158 -95 264.5t-245 106.5q-149 0 -244.5 -107t-95.5 -264q0 -159 92.5 -265t243.5 -106zM674 -434q-95 0 -173.5 15.5t-137 45.5t-97 58t-78.5 67l113 135q67 -71 153 -112t224 -41q160 0 243 81t83 203
v121q-55 -69 -146 -116.5t-199 -47.5q-155 0 -271.5 72.5t-175 193t-58.5 271.5q0 149 64 271t181.5 194t264.5 72q119 0 210 -49t134 -109l24 133h154v-985q0 -218 -143.5 -345.5t-368.5 -127.5z" />
    <glyph glyph-name="gcommaaccent.alt" horiz-adv-x="1378" 
d="M561 1151l133 315h135l-53 -315h-215zM674 141q150 0 247 107t97 264q0 158 -95 264.5t-245 106.5q-149 0 -244.5 -107t-95.5 -264q0 -159 92.5 -265t243.5 -106zM674 -434q-95 0 -173.5 15.5t-137 45.5t-97 58t-78.5 67l113 135q67 -71 153 -112t224 -41q160 0 243 81
t83 203v121q-55 -69 -146 -116.5t-199 -47.5q-155 0 -271.5 72.5t-175 193t-58.5 271.5q0 149 64 271t181.5 194t264.5 72q119 0 210 -49t134 -109l24 133h154v-985q0 -218 -143.5 -345.5t-368.5 -127.5z" />
    <glyph glyph-name="idotaccent" horiz-adv-x="561" 
d="M174 1206v205h215v-205h-215zM190 0v1024h183v-1024h-183z" />
    <glyph glyph-name="kcommaaccent.alt" horiz-adv-x="1056" 
d="M580 477q94 0 153.5 57t59.5 146t-60 148t-153 59q-88 0 -148.5 -60.5t-60.5 -146.5q0 -85 63 -144t146 -59zM193 0v1464h182v-506q41 41 103.5 66t133.5 25q154 0 259.5 -105.5t105.5 -263.5q0 -138 -94 -234t-234 -108l336 -338h-231l-379 387v-387h-182zM406 -471
l53 315h215l-133 -315h-135z" />
    <glyph glyph-name="A.small" horiz-adv-x="1193" 
d="M399 438h394l-195 508zM37 0l459 1167h202l461 -1167h-203l-104 264h-512l-104 -264h-199z" />
    <glyph glyph-name="B.small" horiz-adv-x="1161" 
d="M195 0v1167h391q151 0 247.5 -84t96.5 -215q0 -69 -38.5 -127t-84.5 -86q90 -28 158.5 -107.5t68.5 -193.5q0 -159 -106 -256.5t-283 -97.5h-450zM381 713h197q74 0 117.5 39t43.5 100t-45.5 101t-120.5 40h-192v-280zM381 174h252q93 0 153 50.5t60 135.5
q0 84 -60.5 135.5t-152.5 51.5h-252v-373z" />
    <glyph glyph-name="C.small" horiz-adv-x="1331" 
d="M723 -20q-179 0 -317.5 80t-211.5 217t-73 307q0 128 43 239t121 191.5t192 127t250 46.5q180 0 313 -75.5t197 -205.5l-164 -90q-98 195 -352 195q-179 0 -295.5 -119.5t-116.5 -308.5q0 -191 117.5 -309.5t300.5 -118.5q126 0 217 50.5t139 137.5l164 -80
q-73 -134 -205.5 -209t-318.5 -75z" />
    <glyph glyph-name="D.small" horiz-adv-x="1296" 
d="M195 0v1167h333q152 0 275.5 -44t205 -121.5t125.5 -184.5t44 -233q0 -168 -79.5 -300.5t-228 -208t-342.5 -75.5h-333zM383 174h160q203 0 323.5 109t120.5 301t-120.5 300.5t-323.5 108.5h-160v-819z" />
    <glyph glyph-name="E.small" horiz-adv-x="1056" 
d="M195 0v1167h716v-174h-528v-301h494v-174h-494v-344h528v-174h-716z" />
    <glyph glyph-name="F.small" horiz-adv-x="1015" 
d="M195 0v1167h714v-174h-526v-303h491v-174h-491v-516h-188z" />
    <glyph glyph-name="G.small" horiz-adv-x="1419" 
d="M709 -20q-173 0 -308 79.5t-207.5 217t-72.5 307.5q0 173 74 309.5t213 215.5t321 79q174 0 304.5 -72t201.5 -192l-156 -107q-124 195 -354 195q-182 0 -299 -119t-117 -309q0 -192 116 -310t294 -118q157 0 256.5 83t103.5 218h-334v172h525v-629h-137l-35 141
q-71 -79 -172 -120t-217 -41z" />
    <glyph glyph-name="H.small" horiz-adv-x="1296" 
d="M195 0v1167h188v-477h530v477h189v-1167h-189v516h-530v-516h-188z" />
    <glyph glyph-name="I.small" horiz-adv-x="575" 
d="M195 0v1167h188v-1167h-188z" />
    <glyph glyph-name="J.small" horiz-adv-x="903" 
d="M377 -20q-216 0 -330 184l143 98q27 -44 74.5 -75t110.5 -31q77 0 125.5 45t48.5 131v835h190v-827q0 -162 -96.5 -261t-265.5 -99z" />
    <glyph glyph-name="J.smallalt" horiz-adv-x="575" 
d="M383 -399l-188 -35v1601h188v-1566z" />
    <glyph glyph-name="K.small" horiz-adv-x="1122" 
d="M195 0v1167h188v-481l448 481h226l-502 -557l524 -610h-235l-461 524v-524h-188z" />
    <glyph glyph-name="L.small" horiz-adv-x="937" 
d="M195 0v1167h188v-993h487v-174h-675z" />
    <glyph glyph-name="M.small" horiz-adv-x="1591" 
d="M195 0v1167h233l369 -911l370 911h232v-1167h-185v803l-333 -803h-168l-336 803v-803h-182z" />
    <glyph glyph-name="N.small" horiz-adv-x="1329" 
d="M195 0v1167h202l553 -856v856h185v-1167h-201l-555 850v-850h-184z" />
    <glyph glyph-name="O.small" horiz-adv-x="1478" 
d="M739 -20q-133 0 -249 47.5t-196.5 128.5t-126.5 192t-46 236q0 126 45 237t124.5 192t196 128t252.5 47q181 0 323.5 -80.5t219 -218t76.5 -305.5q0 -125 -46.5 -236t-127.5 -192t-197 -128.5t-248 -47.5zM739 154q186 0 307 120t121 310t-122 310t-306 120
q-185 0 -307.5 -120t-122.5 -310t122 -310t308 -120z" />
    <glyph glyph-name="P.small" horiz-adv-x="1032" 
d="M195 0v1167h378q160 0 261.5 -92.5t101.5 -232.5q0 -145 -103.5 -239.5t-261.5 -94.5h-188v-508h-188zM383 678h184q83 0 130.5 46t47.5 112t-47.5 111.5t-130.5 45.5h-184v-315z" />
    <glyph glyph-name="Q.small" horiz-adv-x="1468" 
d="M1192 -72l-123 138q-153 -86 -330 -86q-133 0 -249 47.5t-196.5 128.5t-126.5 192t-46 236q0 126 44.5 237t124 192t196 128t253.5 47q181 0 323 -80.5t218 -217.5t76 -306q0 -238 -158 -410l123 -133zM739 156q122 0 213 49l-147 162l125 102l145 -152q92 113 92 267
q0 190 -122 309t-306 119q-185 0 -307.5 -119t-122.5 -309t121 -309t309 -119z" />
    <glyph glyph-name="R.small" horiz-adv-x="1105" 
d="M383 711h207q81 0 126.5 39.5t45.5 101.5q0 63 -46 102t-126 39h-207v-282zM195 0v1167h401q163 0 258.5 -86t95.5 -221q0 -115 -73.5 -194t-200.5 -107l342 -559h-213l-326 541h-96v-541h-188z" />
    <glyph glyph-name="S.small" horiz-adv-x="985" 
d="M502 -20q-325 0 -426 294l168 68q24 -79 90.5 -133.5t167.5 -54.5q89 0 147 45.5t58 122.5q0 64 -44.5 108t-136.5 90q-3 1 -86 42t-86 42q-92 46 -145 120.5t-53 172.5q0 128 92 209.5t239 81.5q233 0 328 -207l-164 -82q-50 117 -168 117q-59 0 -99 -33t-40 -82
q0 -48 30.5 -80t104.5 -69l89 -46q88 -47 89 -49q124 -63 181 -140t57 -193q0 -144 -109 -244t-284 -100z" />
    <glyph glyph-name="T.small" horiz-adv-x="968" 
d="M385 0v993h-330v174h858v-174h-340v-993h-188z" />
    <glyph glyph-name="U.small" horiz-adv-x="1271" 
d="M635 -20q-230 0 -352.5 136t-122.5 353v698h190v-667q0 -170 75 -257t210 -87q137 0 212 87t75 257v667h190v-698q0 -217 -122.5 -353t-354.5 -136z" />
    <glyph glyph-name="V.small" horiz-adv-x="1140" 
d="M469 0l-418 1167h201l317 -909l318 909h203l-422 -1167h-199z" />
    <glyph glyph-name="W.small" horiz-adv-x="1628" 
d="M494 0l-443 1167h199l346 -919l133 344l-221 575h178l133 -350l129 350h174l-217 -563l137 -352l342 915h193l-440 -1167h-185l-137 371l-135 -371h-186z" />
    <glyph glyph-name="X.small" horiz-adv-x="1122" 
d="M41 0l416 612l-369 555h209l264 -393l268 393h207l-370 -551l415 -616h-213l-307 455l-309 -455h-211z" />
    <glyph glyph-name="Y.small" horiz-adv-x="1015" 
d="M414 0v502l-385 665h202l279 -479l278 479h201l-387 -665v-502h-188z" />
    <glyph glyph-name="Z.small" horiz-adv-x="1124" 
d="M104 0v158l664 835h-627v174h858v-157l-655 -836h674v-174h-914z" />
    <glyph glyph-name="Agrave.small" horiz-adv-x="1193" 
d="M543 1561l143 -261h-172l-205 261h234zM399 438h394l-195 508zM37 0l459 1167h202l461 -1167h-203l-104 264h-512l-104 -264h-199z" />
    <glyph glyph-name="Aacute.small" horiz-adv-x="1193" 
d="M512 1298l143 261h234l-205 -261h-172zM399 438h394l-195 508zM37 0l459 1167h202l461 -1167h-203l-104 264h-512l-104 -264h-199z" />
    <glyph glyph-name="Acircumflex.small" horiz-adv-x="1193" 
d="M297 1300l207 261h188l207 -261h-184l-117 146l-119 -146h-182zM399 438h394l-195 508zM37 0l459 1167h202l461 -1167h-203l-104 264h-512l-104 -264h-199z" />
    <glyph glyph-name="Atilde.small" horiz-adv-x="1193" 
d="M440 1307h-137q-21 109 31.5 178t140.5 69q44 0 91.5 -27.5t85 -55t57.5 -27.5q70 0 47 110h137q21 -113 -28.5 -180t-145.5 -67q-45 0 -89.5 27.5t-80.5 55t-60 27.5q-73 0 -49 -110zM399 438h394l-195 508zM37 0l459 1167h202l461 -1167h-203l-104 264h-512l-104 -264
h-199z" />
    <glyph glyph-name="Adieresis.small" horiz-adv-x="1193" 
d="M342 1337v168h182v-168h-182zM672 1337v168h182v-168h-182zM399 438h394l-195 508zM37 0l459 1167h202l461 -1167h-203l-104 264h-512l-104 -264h-199z" />
    <glyph glyph-name="Amacron.small" horiz-adv-x="1193" 
d="M301 1364v143h594v-143h-594zM399 438h394l-195 508zM37 0l459 1167h202l461 -1167h-203l-104 264h-512l-104 -264h-199z" />
    <glyph glyph-name="Abreve.small" horiz-adv-x="1193" 
d="M598 1434q54 0 87.5 35.5t33.5 91.5h145q0 -114 -73.5 -187.5t-192.5 -73.5t-192.5 73.5t-73.5 187.5h145q0 -56 33.5 -91.5t87.5 -35.5zM399 438h394l-195 508zM37 0l459 1167h202l461 -1167h-203l-104 264h-512l-104 -264h-199z" />
    <glyph glyph-name="Aring.small" horiz-adv-x="1193" 
d="M379 1464q0 88 63 152.5t156 64.5q92 0 155.5 -64.5t63.5 -152.5q0 -87 -63.5 -152t-155.5 -65q-93 0 -156 65t-63 152zM598 1554q-40 0 -66 -26t-26 -64q0 -40 26 -66t66 -26q38 0 64 26t26 66q0 38 -26 64t-64 26zM399 438h394l-195 508zM37 0l459 1167h202l461 -1167
h-203l-104 264h-512l-104 -264h-199z" />
    <glyph glyph-name="Aringacute.small" horiz-adv-x="1193" 
d="M510 1759l143 260h234l-205 -260h-172zM379 1464q0 88 63 152.5t156 64.5q92 0 155.5 -64.5t63.5 -152.5q0 -87 -63.5 -152t-155.5 -65q-93 0 -156 65t-63 152zM598 1554q-40 0 -66 -26t-26 -64q0 -40 26 -66t66 -26q38 0 64 26t26 66q0 38 -26 64t-64 26zM399 438h394
l-195 508zM37 0l459 1167h202l461 -1167h-203l-104 264h-512l-104 -264h-199z" />
    <glyph glyph-name="Aogonek.small" horiz-adv-x="1193" 
d="M399 438h394l-195 508zM1237 -299q-31 -39 -84.5 -67.5t-120.5 -28.5q-97 0 -155 50.5t-58 133.5q0 130 154 211h-17l-104 264h-512l-104 -264h-199l459 1167h202l461 -1167h-47q-69 -36 -106 -75t-37 -91q0 -36 24.5 -57t61.5 -21q52 0 92 37z" />
    <glyph glyph-name="AE.small" horiz-adv-x="1585" 
d="M426 438h313v555h-16zM0 0l608 1167h848v-174h-528v-301h493v-174h-493v-344h528v-174h-717v264h-395l-141 -264h-203z" />
    <glyph glyph-name="AEacute.small" horiz-adv-x="1585" 
d="M694 1264l144 260h233l-205 -260h-172zM426 438h313v555h-16zM0 0l608 1167h848v-174h-528v-301h493v-174h-493v-344h528v-174h-717v264h-395l-141 -264h-203z" />
    <glyph glyph-name="Cacute.small" horiz-adv-x="1331" 
d="M604 1300l144 261h233l-205 -261h-172zM723 -20q-179 0 -317.5 80t-211.5 217t-73 307q0 128 43 239t121 191.5t192 127t250 46.5q180 0 313 -75.5t197 -205.5l-164 -90q-98 195 -352 195q-179 0 -295.5 -119.5t-116.5 -308.5q0 -191 117.5 -309.5t300.5 -118.5
q126 0 217 50.5t139 137.5l164 -80q-73 -134 -205.5 -209t-318.5 -75z" />
    <glyph glyph-name="Ccircumflex.small" horiz-adv-x="1331" 
d="M389 1300l207 261h188l207 -261h-184l-117 146l-119 -146h-182zM723 -20q-179 0 -317.5 80t-211.5 217t-73 307q0 128 43 239t121 191.5t192 127t250 46.5q180 0 313 -75.5t197 -205.5l-164 -90q-98 195 -352 195q-179 0 -295.5 -119.5t-116.5 -308.5
q0 -191 117.5 -309.5t300.5 -118.5q126 0 217 50.5t139 137.5l164 -80q-73 -134 -205.5 -209t-318.5 -75z" />
    <glyph glyph-name="Ccaron.small" horiz-adv-x="1331" 
d="M596 1300l-207 261h182l119 -146l117 146h184l-207 -261h-188zM723 -20q-179 0 -317.5 80t-211.5 217t-73 307q0 128 43 239t121 191.5t192 127t250 46.5q180 0 313 -75.5t197 -205.5l-164 -90q-98 195 -352 195q-179 0 -295.5 -119.5t-116.5 -308.5q0 -191 117.5 -309.5
t300.5 -118.5q126 0 217 50.5t139 137.5l164 -80q-73 -134 -205.5 -209t-318.5 -75z" />
    <glyph glyph-name="Cdotaccent.small" horiz-adv-x="1331" 
d="M582 1333v205h215v-205h-215zM723 -20q-179 0 -317.5 80t-211.5 217t-73 307q0 128 43 239t121 191.5t192 127t250 46.5q180 0 313 -75.5t197 -205.5l-164 -90q-98 195 -352 195q-179 0 -295.5 -119.5t-116.5 -308.5q0 -191 117.5 -309.5t300.5 -118.5q126 0 217 50.5
t139 137.5l164 -80q-73 -134 -205.5 -209t-318.5 -75z" />
    <glyph glyph-name="Ccedilla.small" horiz-adv-x="1331" 
d="M662 -465q-95 0 -164 55l63 97q49 -39 98 -39q43 0 73 21.5t30 58.5q0 36 -28.5 57.5t-71.5 21.5q-47 0 -84 -22l-64 47l92 158q-222 36 -353.5 200t-131.5 394q0 128 43 239t121 191.5t192 127t250 46.5q180 0 313 -75.5t197 -205.5l-164 -90q-98 195 -352 195
q-179 0 -295.5 -119.5t-116.5 -308.5q0 -191 117.5 -309.5t300.5 -118.5q126 0 217 50.5t139 137.5l164 -80q-73 -134 -205 -209t-317 -75l-49 -70q87 11 148 -42t61 -140q0 -83 -59.5 -138t-163.5 -55z" />
    <glyph glyph-name="Dcaron.small" horiz-adv-x="1296" 
d="M549 1300l-207 261h182l119 -146l117 146h184l-207 -261h-188zM195 0v1167h333q152 0 275.5 -44t205 -121.5t125.5 -184.5t44 -233q0 -168 -79.5 -300.5t-228 -208t-342.5 -75.5h-333zM383 174h160q203 0 323.5 109t120.5 301t-120.5 300.5t-323.5 108.5h-160v-819z" />
    <glyph glyph-name="Dcroat.small" horiz-adv-x="1296" 
d="M195 0v500h-119v168h119v499h331q153 0 276.5 -44t205 -121.5t125 -184.5t43.5 -233q0 -257 -178 -420.5t-472 -163.5h-331zM383 174h160q202 0 322 109.5t120 300.5q0 193 -119.5 301t-322.5 108h-160v-325h250v-168h-250v-326z" />
    <glyph glyph-name="Egrave.small" horiz-adv-x="1056" 
d="M500 1561l143 -261h-172l-205 261h234zM195 0v1167h716v-174h-528v-301h494v-174h-494v-344h528v-174h-716z" />
    <glyph glyph-name="Eacute.small" horiz-adv-x="1056" 
d="M471 1300l143 261h234l-205 -261h-172zM195 0v1167h716v-174h-528v-301h494v-174h-494v-344h528v-174h-716z" />
    <glyph glyph-name="Ecircumflex.small" horiz-adv-x="1056" 
d="M254 1300l207 261h188l207 -261h-184l-117 146l-119 -146h-182zM195 0v1167h716v-174h-528v-301h494v-174h-494v-344h528v-174h-716z" />
    <glyph glyph-name="Ecaron.small" horiz-adv-x="1056" 
d="M461 1300l-207 261h182l119 -146l117 146h184l-207 -261h-188zM195 0v1167h716v-174h-528v-301h494v-174h-494v-344h528v-174h-716z" />
    <glyph glyph-name="Edieresis.small" horiz-adv-x="1056" 
d="M299 1337v168h182v-168h-182zM629 1337v168h182v-168h-182zM195 0v1167h716v-174h-528v-301h494v-174h-494v-344h528v-174h-716z" />
    <glyph glyph-name="Emacron.small" horiz-adv-x="1056" 
d="M258 1364v143h594v-143h-594zM195 0v1167h716v-174h-528v-301h494v-174h-494v-344h528v-174h-716z" />
    <glyph glyph-name="Ebreve.small" horiz-adv-x="1056" 
d="M555 1434q54 0 87.5 35.5t33.5 91.5h145q0 -114 -73.5 -187.5t-192.5 -73.5t-192.5 73.5t-73.5 187.5h145q0 -56 33.5 -91.5t87.5 -35.5zM195 0v1167h716v-174h-528v-301h494v-174h-494v-344h528v-174h-716z" />
    <glyph glyph-name="Edotaccent.small" horiz-adv-x="1056" 
d="M449 1333v205h215v-205h-215zM195 0v1167h716v-174h-528v-301h494v-174h-494v-344h528v-174h-716z" />
    <glyph glyph-name="Eogonek.small" horiz-adv-x="1056" 
d="M956 -299q-32 -39 -84.5 -67.5t-119.5 -28.5q-97 0 -155 50.5t-58 133.5q0 131 153 211h-497v1167h716v-174h-528v-301h494v-174h-494v-344h528v-174h-80q-69 -36 -106 -75t-37 -91q0 -36 24.5 -57t61.5 -21q52 0 92 37z" />
    <glyph glyph-name="fi.small" horiz-adv-x="1587" 
d="M195 0v1167h714v-174h-526v-303h491v-174h-491v-516h-188zM1206 0v1167h189v-1167h-189z" />
    <glyph glyph-name="fl.small" horiz-adv-x="1949" 
d="M195 0v1167h714v-174h-526v-303h491v-174h-491v-516h-188zM1206 0v1167h189v-993h487v-174h-676z" />
    <glyph glyph-name="Gcircumflex.small" horiz-adv-x="1419" 
d="M410 1300l206 261h189l207 -261h-185l-116 146l-119 -146h-182zM709 -20q-173 0 -308 79.5t-207.5 217t-72.5 307.5q0 173 74 309.5t213 215.5t321 79q174 0 304.5 -72t201.5 -192l-156 -107q-124 195 -354 195q-182 0 -299 -119t-117 -309q0 -192 116 -310t294 -118
q157 0 256.5 83t103.5 218h-334v172h525v-629h-137l-35 141q-71 -79 -172 -120t-217 -41z" />
    <glyph glyph-name="Gbreve.small" horiz-adv-x="1419" 
d="M711 1434q54 0 87 35.5t33 91.5h146q0 -114 -73.5 -187.5t-192.5 -73.5t-193 73.5t-74 187.5h146q0 -56 33.5 -91.5t87.5 -35.5zM709 -20q-173 0 -308 79.5t-207.5 217t-72.5 307.5q0 173 74 309.5t213 215.5t321 79q174 0 304.5 -72t201.5 -192l-156 -107
q-124 195 -354 195q-182 0 -299 -119t-117 -309q0 -192 116 -310t294 -118q157 0 256.5 83t103.5 218h-334v172h525v-629h-137l-35 141q-71 -79 -172 -120t-217 -41z" />
    <glyph glyph-name="Gdotaccent.small" horiz-adv-x="1419" 
d="M604 1333v205h215v-205h-215zM709 -20q-173 0 -308 79.5t-207.5 217t-72.5 307.5q0 173 74 309.5t213 215.5t321 79q174 0 304.5 -72t201.5 -192l-156 -107q-124 195 -354 195q-182 0 -299 -119t-117 -309q0 -192 116 -310t294 -118q157 0 256.5 83t103.5 218h-334v172
h525v-629h-137l-35 141q-71 -79 -172 -120t-217 -41z" />
    <glyph glyph-name="Gcommaaccent.small" horiz-adv-x="1419" 
d="M709 -20q-173 0 -308 79.5t-207.5 217t-72.5 307.5q0 173 74 309.5t213 215.5t321 79q174 0 304.5 -72t201.5 -192l-156 -107q-124 195 -354 195q-182 0 -299 -119t-117 -309q0 -192 116 -310t294 -118q157 0 256.5 83t103.5 218h-334v172h525v-629h-137l-35 141
q-71 -79 -172 -120t-217 -41zM555 -471l53 315h215l-133 -315h-135z" />
    <glyph glyph-name="Hcircumflex.small" horiz-adv-x="1296" 
d="M346 1300l207 261h188l207 -261h-184l-117 146l-119 -146h-182zM195 0v1167h188v-477h530v477h189v-1167h-189v516h-530v-516h-188z" />
    <glyph glyph-name="Hbar.small" horiz-adv-x="1296" 
d="M383 690h530v172h-530v-172zM195 0v862h-115v133h115v172h188v-172h530v172h189v-172h112v-133h-112v-862h-189v516h-530v-516h-188z" />
    <glyph glyph-name="Igrave.small" horiz-adv-x="575" 
d="M233 1561l144 -261h-172l-205 261h233zM195 0v1167h188v-1167h-188z" />
    <glyph glyph-name="Iacute.small" horiz-adv-x="575" 
d="M205 1300l143 261h234l-205 -261h-172zM195 0v1167h188v-1167h-188z" />
    <glyph glyph-name="Icircumflex.small" horiz-adv-x="575" 
d="M-12 1300l207 261h188l207 -261h-184l-117 146l-119 -146h-182zM195 0v1167h188v-1167h-188z" />
    <glyph glyph-name="Itilde.small" horiz-adv-x="575" 
d="M131 1307h-137q-21 109 31.5 178t140.5 69q44 0 91 -27.5t84.5 -55t57.5 -27.5q70 0 47 110h138q21 -113 -28.5 -180t-145.5 -67q-45 0 -89.5 27.5t-80.5 55t-60 27.5q-73 0 -49 -110zM195 0v1167h188v-1167h-188z" />
    <glyph glyph-name="Idieresis.small" horiz-adv-x="575" 
d="M33 1337v168h182v-168h-182zM362 1337v168h183v-168h-183zM195 0v1167h188v-1167h-188z" />
    <glyph glyph-name="Imacron.small" horiz-adv-x="575" 
d="M-8 1364v143h594v-143h-594zM195 0v1167h188v-1167h-188z" />
    <glyph glyph-name="Ibreve.small" horiz-adv-x="575" 
d="M289 1434q54 0 87.5 35.5t33.5 91.5h145q0 -114 -73.5 -187.5t-192.5 -73.5t-192.5 73.5t-73.5 187.5h145q0 -56 33.5 -91.5t87.5 -35.5zM195 0v1167h188v-1167h-188z" />
    <glyph glyph-name="Idotaccent.small" horiz-adv-x="575" 
d="M182 1333v205h215v-205h-215zM195 0v1167h188v-1167h-188z" />
    <glyph glyph-name="Iogonek.small" horiz-adv-x="575" 
d="M471 -299q-31 -39 -84.5 -67.5t-120.5 -28.5q-97 0 -155 50.5t-58 133.5q0 130 154 211h-12v1167h188v-1167h-37q-69 -36 -106 -75t-37 -91q0 -36 24.5 -57t61.5 -21q52 0 92 37z" />
    <glyph glyph-name="IJ.small" horiz-adv-x="1464" 
d="M195 0v1167h188v-1167h-188zM954 -20q-215 0 -329 184l143 98q27 -44 74 -75t110 -31q77 0 125.5 45t48.5 131v835h191v-827q0 -162 -97 -261t-266 -99z" />
    <glyph glyph-name="IJ.smallalt" horiz-adv-x="1157" 
d="M195 0v1167h188v-1167h-188zM965 -399l-189 -35v1601h189v-1566z" />
    <glyph glyph-name="Jcircumflex.small" horiz-adv-x="903" 
d="M326 1298l206 261h189l207 -261h-185l-116 146l-119 -146h-182zM377 -20q-216 0 -330 184l143 98q27 -44 74.5 -75t110.5 -31q77 0 125.5 45t48.5 131v835h190v-827q0 -162 -96.5 -261t-265.5 -99z" />
    <glyph glyph-name="Jcircumflex.smallalt" horiz-adv-x="575" 
d="M-14 1298l207 261h188l207 -261h-185l-116 146l-119 -146h-182zM383 -399l-188 -35v1601h188v-1566z" />
    <glyph glyph-name="Kcommaaccent.small" horiz-adv-x="1122" 
d="M195 0v1167h188v-481l448 481h226l-502 -557l524 -610h-235l-461 524v-524h-188zM434 -471l53 315h215l-133 -315h-135z" />
    <glyph glyph-name="Lacute.small" horiz-adv-x="937" 
d="M205 1300l143 261h234l-205 -261h-172zM195 0v1167h188v-993h487v-174h-675z" />
    <glyph glyph-name="Lcaron.small" horiz-adv-x="937" 
d="M195 0v1167h188v-993h487v-174h-675zM575 793l74 362h189l-117 -362h-146z" />
    <glyph glyph-name="Lcommaaccent.small" horiz-adv-x="937" 
d="M195 0v1167h188v-993h487v-174h-675zM369 -471l53 315h215l-133 -315h-135z" />
    <glyph glyph-name="Lslash.small" horiz-adv-x="937" 
d="M195 0v358l-148 -79v165l148 82v641h188v-534l281 153v-165l-281 -154v-293h487v-174h-675z" />
    <glyph glyph-name="Ldot.small" horiz-adv-x="937" 
d="M195 0v1167h188v-993h487v-174h-675zM608 535v204h215v-204h-215z" />
    <glyph glyph-name="Nacute.small" horiz-adv-x="1329" 
d="M580 1300l143 261h233l-204 -261h-172zM195 0v1167h202l553 -856v856h185v-1167h-201l-555 850v-850h-184z" />
    <glyph glyph-name="Ncaron.small" horiz-adv-x="1329" 
d="M569 1300l-207 261h183l119 -146l116 146h185l-207 -261h-189zM195 0v1167h202l553 -856v856h185v-1167h-201l-555 850v-850h-184z" />
    <glyph glyph-name="Ntilde.small" horiz-adv-x="1329" 
d="M506 1307h-137q-21 109 31.5 178t140.5 69q44 0 91 -27.5t84.5 -55t57.5 -27.5q70 0 47 110h137q21 -113 -28.5 -180t-145.5 -67q-36 0 -72 17t-59.5 38t-50.5 38t-47 17q-73 0 -49 -110zM195 0v1167h202l553 -856v856h185v-1167h-201l-555 850v-850h-184z" />
    <glyph glyph-name="Ncommaaccent.small" horiz-adv-x="1329" 
d="M195 0v1167h202l553 -856v856h185v-1167h-201l-555 850v-850h-184zM510 -471l53 315h215l-133 -315h-135z" />
    <glyph glyph-name="Ograve.small" horiz-adv-x="1478" 
d="M682 1561l143 -261h-172l-204 261h233zM739 -20q-133 0 -249 47.5t-196.5 128.5t-126.5 192t-46 236q0 126 45 237t124.5 192t196 128t252.5 47q181 0 323.5 -80.5t219 -218t76.5 -305.5q0 -125 -46.5 -236t-127.5 -192t-197 -128.5t-248 -47.5zM739 154q186 0 307 120
t121 310t-122 310t-306 120q-185 0 -307.5 -120t-122.5 -310t122 -310t308 -120z" />
    <glyph glyph-name="Oacute.small" horiz-adv-x="1478" 
d="M653 1300l144 261h233l-205 -261h-172zM739 -20q-133 0 -249 47.5t-196.5 128.5t-126.5 192t-46 236q0 126 45 237t124.5 192t196 128t252.5 47q181 0 323.5 -80.5t219 -218t76.5 -305.5q0 -125 -46.5 -236t-127.5 -192t-197 -128.5t-248 -47.5zM739 154q186 0 307 120
t121 310t-122 310t-306 120q-185 0 -307.5 -120t-122.5 -310t122 -310t308 -120z" />
    <glyph glyph-name="Ocircumflex.small" horiz-adv-x="1478" 
d="M436 1300l207 261h188l207 -261h-184l-117 146l-119 -146h-182zM739 -20q-133 0 -249 47.5t-196.5 128.5t-126.5 192t-46 236q0 126 45 237t124.5 192t196 128t252.5 47q181 0 323.5 -80.5t219 -218t76.5 -305.5q0 -125 -46.5 -236t-127.5 -192t-197 -128.5t-248 -47.5z
M739 154q186 0 307 120t121 310t-122 310t-306 120q-185 0 -307.5 -120t-122.5 -310t122 -310t308 -120z" />
    <glyph glyph-name="Otilde.small" horiz-adv-x="1478" 
d="M580 1307h-138q-21 109 31.5 178t140.5 69q44 0 91.5 -27.5t85 -55t57.5 -27.5q70 0 47 110h137q21 -113 -28.5 -180t-145.5 -67q-36 0 -72 17t-59.5 38t-50.5 38t-47 17q-73 0 -49 -110zM739 -20q-133 0 -249 47.5t-196.5 128.5t-126.5 192t-46 236q0 126 45 237
t124.5 192t196 128t252.5 47q181 0 323.5 -80.5t219 -218t76.5 -305.5q0 -125 -46.5 -236t-127.5 -192t-197 -128.5t-248 -47.5zM739 154q186 0 307 120t121 310t-122 310t-306 120q-185 0 -307.5 -120t-122.5 -310t122 -310t308 -120z" />
    <glyph glyph-name="Odieresis.small" horiz-adv-x="1478" 
d="M481 1337v168h183v-168h-183zM811 1337v168h182v-168h-182zM739 -20q-133 0 -249 47.5t-196.5 128.5t-126.5 192t-46 236q0 126 45 237t124.5 192t196 128t252.5 47q181 0 323.5 -80.5t219 -218t76.5 -305.5q0 -125 -46.5 -236t-127.5 -192t-197 -128.5t-248 -47.5z
M739 154q186 0 307 120t121 310t-122 310t-306 120q-185 0 -307.5 -120t-122.5 -310t122 -310t308 -120z" />
    <glyph glyph-name="Omacron.small" horiz-adv-x="1478" 
d="M440 1364v143h594v-143h-594zM739 -20q-133 0 -249 47.5t-196.5 128.5t-126.5 192t-46 236q0 126 45 237t124.5 192t196 128t252.5 47q181 0 323.5 -80.5t219 -218t76.5 -305.5q0 -125 -46.5 -236t-127.5 -192t-197 -128.5t-248 -47.5zM739 154q186 0 307 120t121 310
t-122 310t-306 120q-185 0 -307.5 -120t-122.5 -310t122 -310t308 -120z" />
    <glyph glyph-name="Obreve.small" horiz-adv-x="1478" 
d="M737 1434q54 0 87.5 35.5t33.5 91.5h146q0 -114 -74 -187.5t-193 -73.5t-192.5 73.5t-73.5 187.5h145q0 -56 33.5 -91.5t87.5 -35.5zM739 -20q-133 0 -249 47.5t-196.5 128.5t-126.5 192t-46 236q0 126 45 237t124.5 192t196 128t252.5 47q181 0 323.5 -80.5t219 -218
t76.5 -305.5q0 -125 -46.5 -236t-127.5 -192t-197 -128.5t-248 -47.5zM739 154q186 0 307 120t121 310t-122 310t-306 120q-185 0 -307.5 -120t-122.5 -310t122 -310t308 -120z" />
    <glyph glyph-name="Ohungarumlaut.small" horiz-adv-x="1478" 
d="M524 1300l76 261h199l-140 -261h-135zM813 1300l76 261h201l-134 -261h-143zM739 -20q-133 0 -249 47.5t-196.5 128.5t-126.5 192t-46 236q0 126 45 237t124.5 192t196 128t252.5 47q181 0 323.5 -80.5t219 -218t76.5 -305.5q0 -125 -46.5 -236t-127.5 -192t-197 -128.5
t-248 -47.5zM739 154q186 0 307 120t121 310t-122 310t-306 120q-185 0 -307.5 -120t-122.5 -310t122 -310t308 -120z" />
    <glyph glyph-name="Oslash.small" horiz-adv-x="1478" 
d="M393 319l580 629q-101 66 -234 66q-185 0 -307.5 -120t-122.5 -310q0 -154 84 -265zM739 154q186 0 307 120t121 310q0 154 -86 268l-581 -633q108 -65 239 -65zM739 -20q-203 0 -362 108l-105 -115l-112 97l106 114q-145 167 -145 400q0 126 45 237t124.5 192t196 128
t252.5 47q205 0 361 -105l102 113l107 -96l-101 -111q71 -79 110.5 -183.5t39.5 -221.5q0 -125 -46.5 -236t-127.5 -192t-197 -128.5t-248 -47.5z" />
    <glyph glyph-name="Oslashacute.small" horiz-adv-x="1478" 
d="M653 1300l144 261h233l-205 -261h-172zM393 319l580 629q-101 66 -234 66q-185 0 -307.5 -120t-122.5 -310q0 -154 84 -265zM739 154q186 0 307 120t121 310q0 154 -86 268l-581 -633q108 -65 239 -65zM739 -20q-203 0 -362 108l-105 -115l-112 97l106 114
q-145 167 -145 400q0 126 45 237t124.5 192t196 128t252.5 47q205 0 361 -105l102 113l107 -96l-101 -111q71 -79 110.5 -183.5t39.5 -221.5q0 -125 -46.5 -236t-127.5 -192t-197 -128.5t-248 -47.5z" />
    <glyph glyph-name="OE.small" horiz-adv-x="1769" 
d="M770 0q-294 0 -471.5 163.5t-177.5 420.5q0 259 173 421t476 162h862v-174h-528v-301h493v-174h-493v-344h528v-174h-862zM754 174h161v819h-161q-203 0 -323 -108t-120 -301q0 -191 120.5 -300.5t322.5 -109.5z" />
    <glyph glyph-name="Racute.small" horiz-adv-x="1105" 
d="M459 1300l143 261h234l-205 -261h-172zM383 711h207q81 0 126.5 39.5t45.5 101.5q0 63 -46 102t-126 39h-207v-282zM195 0v1167h401q163 0 258.5 -86t95.5 -221q0 -115 -73.5 -194t-200.5 -107l342 -559h-213l-326 541h-96v-541h-188z" />
    <glyph glyph-name="Rcaron.small" horiz-adv-x="1105" 
d="M451 1300l-207 261h182l119 -146l117 146h184l-207 -261h-188zM383 711h207q81 0 126.5 39.5t45.5 101.5q0 63 -46 102t-126 39h-207v-282zM195 0v1167h401q163 0 258.5 -86t95.5 -221q0 -115 -73.5 -194t-200.5 -107l342 -559h-213l-326 541h-96v-541h-188z" />
    <glyph glyph-name="Rcommaaccent.small" horiz-adv-x="1105" 
d="M383 711h207q81 0 126.5 39.5t45.5 101.5q0 63 -46 102t-126 39h-207v-282zM195 0v1167h401q163 0 258.5 -86t95.5 -221q0 -115 -73.5 -194t-200.5 -107l342 -559h-213l-326 541h-96v-541h-188zM389 -471l53 315h215l-133 -315h-135z" />
    <glyph glyph-name="germandbls.small" horiz-adv-x="1978" 
d="M502 -20q-325 0 -426 294l168 68q24 -79 90.5 -133.5t167.5 -54.5q89 0 147 45.5t58 122.5q0 64 -44.5 108t-136.5 90q-3 1 -86 42t-86 42q-92 46 -145 120.5t-53 172.5q0 128 92 209.5t239 81.5q233 0 328 -207l-164 -82q-50 117 -168 117q-59 0 -99 -33t-40 -82
q0 -48 30.5 -80t104.5 -69l89 -46q88 -47 89 -49q124 -63 181 -140t57 -193q0 -144 -109 -244t-284 -100zM1495 -20q-325 0 -426 294l168 68q24 -79 90.5 -133.5t167.5 -54.5q89 0 147 45.5t58 122.5q0 64 -44 108t-136 90q-3 1 -86 42t-86 42q-92 46 -145.5 121t-53.5 172
q0 128 92.5 209.5t239.5 81.5q232 0 327 -207l-163 -82q-50 117 -168 117q-59 0 -99.5 -33t-40.5 -82q0 -48 31 -80t105 -69l89 -46q88 -47 89 -49q124 -63 180.5 -140t56.5 -193q0 -144 -109 -244t-284 -100z" />
    <glyph glyph-name="Sacute.small" horiz-adv-x="985" 
d="M395 1300l144 261h233l-205 -261h-172zM502 -20q-325 0 -426 294l168 68q24 -79 90.5 -133.5t167.5 -54.5q89 0 147 45.5t58 122.5q0 64 -44.5 108t-136.5 90q-3 1 -86 42t-86 42q-92 46 -145 120.5t-53 172.5q0 128 92 209.5t239 81.5q233 0 328 -207l-164 -82
q-50 117 -168 117q-59 0 -99 -33t-40 -82q0 -48 30.5 -80t104.5 -69l89 -46q88 -47 89 -49q124 -63 181 -140t57 -193q0 -144 -109 -244t-284 -100z" />
    <glyph glyph-name="Scircumflex.small" horiz-adv-x="985" 
d="M180 1300l207 261h188l207 -261h-184l-117 146l-119 -146h-182zM502 -20q-325 0 -426 294l168 68q24 -79 90.5 -133.5t167.5 -54.5q89 0 147 45.5t58 122.5q0 64 -44.5 108t-136.5 90q-3 1 -86 42t-86 42q-92 46 -145 120.5t-53 172.5q0 128 92 209.5t239 81.5
q233 0 328 -207l-164 -82q-50 117 -168 117q-59 0 -99 -33t-40 -82q0 -48 30.5 -80t104.5 -69l89 -46q88 -47 89 -49q124 -63 181 -140t57 -193q0 -144 -109 -244t-284 -100z" />
    <glyph glyph-name="Scaron.small" horiz-adv-x="985" 
d="M387 1300l-207 261h182l119 -146l117 146h184l-207 -261h-188zM502 -20q-325 0 -426 294l168 68q24 -79 90.5 -133.5t167.5 -54.5q89 0 147 45.5t58 122.5q0 64 -44.5 108t-136.5 90q-3 1 -86 42t-86 42q-92 46 -145 120.5t-53 172.5q0 128 92 209.5t239 81.5
q233 0 328 -207l-164 -82q-50 117 -168 117q-59 0 -99 -33t-40 -82q0 -48 30.5 -80t104.5 -69l89 -46q88 -47 89 -49q124 -63 181 -140t57 -193q0 -144 -109 -244t-284 -100z" />
    <glyph glyph-name="Scedilla.small" horiz-adv-x="985" 
d="M453 -465q-95 0 -164 55l63 97q49 -39 99 -39q43 0 72.5 21.5t29.5 58.5q0 36 -28.5 57.5t-71.5 21.5q-47 0 -84 -22l-64 47l92 156q-238 44 -321 286l168 68q24 -79 90.5 -133.5t167.5 -54.5q89 0 147 45.5t58 122.5q0 64 -44.5 108t-136.5 90q-3 1 -86 42t-86 42
q-92 46 -145 120.5t-53 172.5q0 128 92 209.5t239 81.5q233 0 328 -207l-164 -82q-50 117 -168 117q-59 0 -99 -33t-40 -82q0 -48 30.5 -80t104.5 -69l89 -46q88 -47 89 -49q124 -63 181 -140t57 -193q0 -140 -105 -240t-274 -104l-49 -70q87 11 148 -42t61 -140
q0 -83 -59.5 -138t-163.5 -55z" />
    <glyph glyph-name="Scommaaccent.small" horiz-adv-x="985" 
d="M502 -20q-325 0 -426 294l168 68q24 -79 90.5 -133.5t167.5 -54.5q89 0 147 45.5t58 122.5q0 64 -44.5 108t-136.5 90q-3 1 -86 42t-86 42q-92 46 -145 120.5t-53 172.5q0 128 92 209.5t239 81.5q233 0 328 -207l-164 -82q-50 117 -168 117q-59 0 -99 -33t-40 -82
q0 -48 30.5 -80t104.5 -69l89 -46q88 -47 89 -49q124 -63 181 -140t57 -193q0 -144 -109 -244t-284 -100zM326 -471l53 315h215l-133 -315h-135z" />
    <glyph glyph-name="Tcaron.small" horiz-adv-x="968" 
d="M385 1300l-207 261h182l119 -146l117 146h184l-207 -261h-188zM385 0v993h-330v174h858v-174h-340v-993h-188z" />
    <glyph glyph-name="Tcommaaccent.small" horiz-adv-x="968" 
d="M385 0v993h-330v174h858v-174h-340v-993h-188zM324 -471l53 315h215l-133 -315h-135z" />
    <glyph glyph-name="Tbar.small" horiz-adv-x="968" 
d="M385 0v543h-225v147h225v303h-330v174h858v-174h-340v-303h236v-147h-236v-543h-188z" />
    <glyph glyph-name="Ugrave.small" horiz-adv-x="1271" 
d="M580 1561l143 -261h-172l-205 261h234zM635 -20q-230 0 -352.5 136t-122.5 353v698h190v-667q0 -170 75 -257t210 -87q137 0 212 87t75 257v667h190v-698q0 -217 -122.5 -353t-354.5 -136z" />
    <glyph glyph-name="Uacute.small" horiz-adv-x="1271" 
d="M551 1300l143 261h234l-205 -261h-172zM635 -20q-230 0 -352.5 136t-122.5 353v698h190v-667q0 -170 75 -257t210 -87q137 0 212 87t75 257v667h190v-698q0 -217 -122.5 -353t-354.5 -136z" />
    <glyph glyph-name="Ucircumflex.small" horiz-adv-x="1271" 
d="M334 1300l207 261h188l207 -261h-184l-117 146l-119 -146h-182zM635 -20q-230 0 -352.5 136t-122.5 353v698h190v-667q0 -170 75 -257t210 -87q137 0 212 87t75 257v667h190v-698q0 -217 -122.5 -353t-354.5 -136z" />
    <glyph glyph-name="Utilde.small" horiz-adv-x="1271" 
d="M477 1307h-137q-21 109 31.5 178t140.5 69q44 0 91 -27.5t84.5 -55t57.5 -27.5q71 0 48 110h137q21 -113 -28.5 -180t-145.5 -67q-45 0 -89.5 27.5t-80.5 55t-60 27.5q-73 0 -49 -110zM635 -20q-230 0 -352.5 136t-122.5 353v698h190v-667q0 -170 75 -257t210 -87
q137 0 212 87t75 257v667h190v-698q0 -217 -122.5 -353t-354.5 -136z" />
    <glyph glyph-name="Udieresis.small" horiz-adv-x="1271" 
d="M379 1337v168h182v-168h-182zM709 1337v168h182v-168h-182zM635 -20q-230 0 -352.5 136t-122.5 353v698h190v-667q0 -170 75 -257t210 -87q137 0 212 87t75 257v667h190v-698q0 -217 -122.5 -353t-354.5 -136z" />
    <glyph glyph-name="Umacron.small" horiz-adv-x="1271" 
d="M338 1364v143h594v-143h-594zM635 -20q-230 0 -352.5 136t-122.5 353v698h190v-667q0 -170 75 -257t210 -87q137 0 212 87t75 257v667h190v-698q0 -217 -122.5 -353t-354.5 -136z" />
    <glyph glyph-name="Ubreve.small" horiz-adv-x="1271" 
d="M635 1434q54 0 87.5 35.5t33.5 91.5h145q0 -114 -73.5 -187.5t-192.5 -73.5t-192.5 73.5t-73.5 187.5h145q0 -56 33.5 -91.5t87.5 -35.5zM635 -20q-230 0 -352.5 136t-122.5 353v698h190v-667q0 -170 75 -257t210 -87q137 0 212 87t75 257v667h190v-698
q0 -217 -122.5 -353t-354.5 -136z" />
    <glyph glyph-name="Uring.small" horiz-adv-x="1271" 
d="M416 1466q0 88 63 152.5t156 64.5q92 0 155.5 -64.5t63.5 -152.5q0 -87 -63.5 -152t-155.5 -65q-93 0 -156 65t-63 152zM635 1556q-40 0 -66 -26t-26 -64q0 -40 26 -66t66 -26q38 0 64 26t26 66q0 38 -26 64t-64 26zM635 -20q-230 0 -352.5 136t-122.5 353v698h190v-667
q0 -170 75 -257t210 -87q137 0 212 87t75 257v667h190v-698q0 -217 -122.5 -353t-354.5 -136z" />
    <glyph glyph-name="Uhungarumlaut.small" horiz-adv-x="1271" 
d="M420 1300l76 261h198l-139 -261h-135zM709 1300l75 261h201l-133 -261h-143zM635 -20q-230 0 -352.5 136t-122.5 353v698h190v-667q0 -170 75 -257t210 -87q137 0 212 87t75 257v667h190v-698q0 -217 -122.5 -353t-354.5 -136z" />
    <glyph glyph-name="Uogonek.small" horiz-adv-x="1271" 
d="M651 -395q-97 0 -155 50.5t-58 133.5q0 120 125 195q-196 21 -299.5 154t-103.5 331v698h190v-667q0 -170 75 -257t210 -87q137 0 212 87t75 257v667h190v-698q0 -202 -106 -334.5t-308 -152.5q-110 -62 -110 -148q0 -36 24.5 -57t61.5 -21q52 0 92 37l90 -92
q-31 -39 -84.5 -67.5t-120.5 -28.5z" />
    <glyph glyph-name="Wgrave.small" horiz-adv-x="1628" 
d="M756 1561l143 -261h-172l-205 261h234zM494 0l-443 1167h199l346 -919l133 344l-221 575h178l133 -350l129 350h174l-217 -563l137 -352l342 915h193l-440 -1167h-185l-137 371l-135 -371h-186z" />
    <glyph glyph-name="Wacute.small" horiz-adv-x="1628" 
d="M727 1300l143 261h234l-205 -261h-172zM494 0l-443 1167h199l346 -919l133 344l-221 575h178l133 -350l129 350h174l-217 -563l137 -352l342 915h193l-440 -1167h-185l-137 371l-135 -371h-186z" />
    <glyph glyph-name="Wcircumflex.small" horiz-adv-x="1628" 
d="M510 1300l207 261h188l207 -261h-184l-117 146l-119 -146h-182zM494 0l-443 1167h199l346 -919l133 344l-221 575h178l133 -350l129 350h174l-217 -563l137 -352l342 915h193l-440 -1167h-185l-137 371l-135 -371h-186z" />
    <glyph glyph-name="Wdieresis.small" horiz-adv-x="1628" 
d="M555 1337v168h182v-168h-182zM885 1337v168h182v-168h-182zM494 0l-443 1167h199l346 -919l133 344l-221 575h178l133 -350l129 350h174l-217 -563l137 -352l342 915h193l-440 -1167h-185l-137 371l-135 -371h-186z" />
    <glyph glyph-name="Ygrave.small" horiz-adv-x="1015" 
d="M453 1561l143 -261h-172l-205 261h234zM414 0v502l-385 665h202l279 -479l278 479h201l-387 -665v-502h-188z" />
    <glyph glyph-name="Yacute.small" horiz-adv-x="1015" 
d="M422 1300l143 261h234l-205 -261h-172zM414 0v502l-385 665h202l279 -479l278 479h201l-387 -665v-502h-188z" />
    <glyph glyph-name="Ycircumflex.small" horiz-adv-x="1015" 
d="M207 1300l207 261h188l207 -261h-184l-117 146l-119 -146h-182zM414 0v502l-385 665h202l279 -479l278 479h201l-387 -665v-502h-188z" />
    <glyph glyph-name="Ydieresis.small" horiz-adv-x="1015" 
d="M252 1337v168h182v-168h-182zM582 1337v168h182v-168h-182zM414 0v502l-385 665h202l279 -479l278 479h201l-387 -665v-502h-188z" />
    <glyph glyph-name="Zacute.small" horiz-adv-x="1124" 
d="M475 1300l143 261h234l-205 -261h-172zM104 0v158l664 835h-627v174h858v-157l-655 -836h674v-174h-914z" />
    <glyph glyph-name="Zcaron.small" horiz-adv-x="1124" 
d="M467 1300l-207 261h182l119 -146l117 146h184l-207 -261h-188zM104 0v158l664 835h-627v174h858v-157l-655 -836h674v-174h-914z" />
    <glyph glyph-name="Zdotaccent.small" horiz-adv-x="1124" 
d="M453 1333v205h215v-205h-215zM104 0v158l664 835h-627v174h858v-157l-655 -836h674v-174h-914z" />
    <glyph glyph-name="Schwa.small" horiz-adv-x="1439" 
d="M1319 584q0 -171 -70.5 -307t-208 -216.5t-319.5 -80.5q-138 0 -252 50t-188 134.5t-114 193t-40 228.5q0 52 6 104h985q-31 147 -142 234.5t-267 87.5q-140 0 -230.5 -49.5t-146.5 -147.5l-158 96q77 137 214.5 207t320.5 70q136 0 250.5 -46.5t193 -127t122.5 -192
t44 -238.5zM319 516q17 -164 126.5 -263t275.5 -99q170 0 279 98t126 264h-807z" />
    <glyph glyph-name="Eng.small" horiz-adv-x="1329" 
d="M195 0v1167h200l555 -829v829h185v-1192q0 -156 -87.5 -242.5t-242.5 -86.5q-91 0 -170 35l55 161q45 -20 105 -20q69 0 112 39t43 121v32l-571 834v-848h-184z" />
    <glyph glyph-name="Eth.small" horiz-adv-x="1310" 
d="M211 0v500h-119v168h119v499h332q153 0 276.5 -44t204.5 -121.5t124.5 -184.5t43.5 -233q0 -257 -177.5 -420.5t-471.5 -163.5h-332zM399 174h160q202 0 322 109.5t120 300.5q0 193 -119.5 301t-322.5 108h-160v-325h250v-168h-250v-326z" />
    <glyph glyph-name="Thorn.small" horiz-adv-x="1036" 
d="M156 0v1167h188v-227h211q167 0 271 -95t104 -239q0 -151 -106 -250.5t-271 -99.5h-209v-256h-188zM344 432h201q91 0 143.5 46.5t52.5 119.5q0 74 -52.5 121t-143.5 47h-201v-334z" />
    <glyph glyph-name="a.superior" horiz-adv-x="964" 
d="M463 844q88 0 144.5 59.5t56.5 151.5t-56.5 151.5t-144.5 59.5t-143.5 -59.5t-55.5 -151.5t55.5 -151.5t143.5 -59.5zM434 700q-145 0 -238.5 100.5t-93.5 254.5q0 155 97.5 254.5t238.5 99.5q74 0 130 -26t85 -64l19 74h143v-676h-139l-23 78q-29 -39 -87 -67t-132 -28z
" />
    <glyph glyph-name="b.superior" horiz-adv-x="966" 
d="M524 700q-76 0 -132.5 29t-86.5 68l-20 -80h-133v966h159v-370q36 41 93.5 68.5t127.5 27.5q146 0 238 -97t92 -257q0 -155 -97.5 -255t-240.5 -100zM502 844q88 0 144 59.5t56 151.5t-54.5 151.5t-143.5 59.5q-88 0 -145.5 -60t-57.5 -151q0 -92 56.5 -151.5
t144.5 -59.5z" />
    <glyph glyph-name="c.superior" horiz-adv-x="854" 
d="M455 700q-155 0 -254 100.5t-99 254.5q0 153 99.5 253.5t253.5 100.5q108 0 187.5 -48.5t119.5 -139.5l-144 -62q-50 107 -167 107q-82 0 -134.5 -59.5t-52.5 -151.5q0 -93 53.5 -152t137.5 -59q61 0 104.5 30t63.5 76l145 -61q-39 -83 -121 -136t-192 -53z" />
    <glyph glyph-name="d.superior" horiz-adv-x="966" 
d="M463 846q89 0 145 59t56 150q0 93 -56 152t-145 59q-88 0 -144.5 -59.5t-56.5 -151.5q0 -91 56.5 -150t144.5 -59zM438 700q-148 0 -242 100t-94 255q0 159 97.5 256.5t242.5 97.5q73 0 128.5 -27t84.5 -63v364h160v-966h-135l-18 88q-31 -42 -92 -73.5t-132 -31.5z" />
    <glyph glyph-name="e.superior" horiz-adv-x="876" 
d="M446 700q-158 0 -251 98.5t-93 256.5q0 155 94 254.5t250 99.5q159 0 247.5 -96.5t88.5 -239.5q0 -36 -6 -63h-514q8 -77 59.5 -121.5t133.5 -44.5q115 0 174 100l131 -65q-41 -84 -121.5 -131.5t-192.5 -47.5zM264 1126h359q-8 66 -55.5 107t-121.5 41t-124 -41.5
t-58 -106.5z" />
    <glyph glyph-name="f.superior" horiz-adv-x="581" 
d="M178 717v543h-94v133h94v45q0 117 61 179t171 62q47 0 94 -14v-147q-30 18 -70 18q-45 0 -71.5 -26.5t-26.5 -71.5v-45h162v-133h-162v-543h-158z" />
    <glyph glyph-name="g.superior" horiz-adv-x="823" 
d="M410 430q-139 0 -235.5 82.5t-96.5 210.5q0 78 41.5 142.5t103.5 97.5q-41 30 -69.5 78t-28.5 106q0 115 83 188.5t202 73.5h327v-113l-104 -18q57 -61 57 -141q0 -54 -28 -100t-68 -74q61 -29 103 -95t42 -145q0 -129 -94.5 -211t-234.5 -82zM410 1012q60 0 94.5 36.5
t34.5 96.5q0 58 -34.5 94.5t-94.5 36.5q-57 0 -95.5 -37t-38.5 -94q0 -58 38.5 -95.5t95.5 -37.5zM410 569q74 0 124 45t50 113q0 69 -50.5 113.5t-123.5 44.5q-70 0 -123.5 -45t-53.5 -113t52.5 -113t124.5 -45z" />
    <glyph glyph-name="h.superior" horiz-adv-x="909" 
d="M152 717v966h159v-364q30 41 85 65.5t122 24.5q120 0 186 -72t66 -204v-416h-160v389q0 75 -38.5 116.5t-102.5 41.5q-67 0 -112.5 -57t-45.5 -167v-323h-159z" />
    <glyph glyph-name="i.superior" horiz-adv-x="458" 
d="M145 1505v164h170v-164h-170zM150 717v676h159v-676h-159z" />
    <glyph glyph-name="j.superior" horiz-adv-x="458" 
d="M145 1505v164h170v-164h-170zM150 436v957h159v-926z" />
    <glyph glyph-name="k.superior" horiz-adv-x="829" 
d="M152 717v966h159v-530l224 240h198l-295 -310l320 -366h-201l-246 284v-284h-159z" />
    <glyph glyph-name="l.superior" horiz-adv-x="462" 
d="M152 717v966h159v-966h-159z" />
    <glyph glyph-name="m.superior" horiz-adv-x="1306" 
d="M152 717v676h133l22 -86q66 102 201 102q141 0 197 -109q30 47 84 78t131 31q118 0 181.5 -71t63.5 -203v-418h-159v405q0 70 -31 106t-86 36q-66 0 -108 -56t-42 -166v-325h-159v405q0 70 -32 106t-89 36q-64 0 -106 -57t-42 -167v-323h-159z" />
    <glyph glyph-name="o.superior" horiz-adv-x="925" 
d="M465 700q-158 0 -260.5 101t-102.5 254t102.5 253.5t260.5 100.5q155 0 256.5 -100.5t101.5 -253.5t-101.5 -254t-256.5 -101zM465 844q84 0 141.5 60t57.5 151t-57.5 151t-141.5 60q-87 0 -144 -59.5t-57 -151.5t57 -151.5t144 -59.5z" />
    <glyph glyph-name="p.superior" horiz-adv-x="966" 
d="M502 844q89 0 144.5 59t55.5 152q0 91 -56.5 151t-143.5 60t-144 -60t-57 -151q0 -92 56.5 -151.5t144.5 -59.5zM152 446v947h133l20 -88q33 43 95.5 73.5t134.5 30.5q145 0 236 -98.5t91 -255.5q0 -158 -97.5 -256.5t-240.5 -98.5q-75 0 -129.5 27.5t-83.5 65.5v-347
h-159z" />
    <glyph glyph-name="q.superior" horiz-adv-x="966" 
d="M655 446v351q-36 -41 -94 -69t-127 -28q-146 0 -239 97.5t-93 257.5q0 155 98 254.5t242 99.5q75 0 133.5 -28.5t86.5 -67.5l18 80h135v-947h-160zM461 844q88 0 145.5 60t57.5 151q0 93 -56 152t-145 59q-86 0 -142.5 -59.5t-56.5 -151.5t54.5 -151.5t142.5 -59.5z" />
    <glyph glyph-name="r.superior" horiz-adv-x="657" 
d="M152 717v676h133l18 -90q59 106 186 106q47 0 105 -23l-39 -161q-49 22 -98 22q-65 0 -105.5 -47.5t-40.5 -138.5v-344h-159z" />
    <glyph glyph-name="s.superior" horiz-adv-x="677" 
d="M336 700q-99 0 -165 49t-95 132l127 53q37 -100 139 -100q45 0 71.5 22t26.5 55t-22.5 54.5t-77.5 42.5l-88 32q-60 24 -94.5 71.5t-34.5 113.5q0 78 61 131t150 53q152 0 211 -125l-119 -70q-28 66 -88 66q-29 0 -48.5 -16t-19.5 -39q0 -25 16.5 -40.5t47.5 -27.5
l100 -37q156 -63 156 -207q0 -93 -70 -153t-184 -60z" />
    <glyph glyph-name="t.superior" horiz-adv-x="548" 
d="M178 717v543h-94v133h94v182l160 31v-213h145v-133h-145v-543h-160z" />
    <glyph glyph-name="u.superior" horiz-adv-x="909" 
d="M391 700q-122 0 -187 73.5t-65 207.5v412h158v-392q0 -76 38.5 -115.5t102.5 -39.5q72 0 117 54t45 153v340h158v-676h-135l-21 84q-28 -44 -84.5 -72.5t-126.5 -28.5z" />
    <glyph glyph-name="v.superior" horiz-adv-x="778" 
d="M307 717l-256 676h162l176 -502l176 502h162l-256 -676h-164z" />
    <glyph glyph-name="w.superior" horiz-adv-x="1122" 
d="M287 717l-230 676h162l150 -496l127 336l-58 160h158l162 -496l145 496h164l-227 -676h-160l-117 321l-119 -321h-157z" />
    <glyph glyph-name="x.superior" horiz-adv-x="770" 
d="M53 717l244 356l-221 320h176l131 -203l135 203h174l-219 -320l242 -356h-176l-156 235l-154 -235h-176z" />
    <glyph glyph-name="y.superior" horiz-adv-x="782" 
d="M215 446l107 291l-271 656h170l178 -471l164 471h166l-352 -947h-162z" />
    <glyph glyph-name="z.superior" horiz-adv-x="712" 
d="M106 1249v144h510v-129l-335 -404h346v-143h-545v129l336 403h-312z" />
    <glyph glyph-name="grave.cap" horiz-adv-x="1048" 
d="M569 1823l144 -260h-172l-205 260h233z" />
    <glyph glyph-name="acute.cap" horiz-adv-x="1048" 
d="M336 1563l143 260h234l-205 -260h-172z" />
    <glyph glyph-name="circumflex.cap" horiz-adv-x="1048" 
d="M223 1563l207 260h188l207 -260h-184l-117 145l-118 -145h-183z" />
    <glyph glyph-name="caron.cap" horiz-adv-x="1048" 
d="M430 1563l-207 260h183l118 -146l117 146h184l-207 -260h-188z" />
    <glyph glyph-name="caronSlovak" horiz-adv-x="1056" 
d="M397 1071l74 363h188l-116 -363h-146z" />
    <glyph glyph-name="tilde.cap" horiz-adv-x="1048" 
d="M367 1569h-138q-21 109 31.5 178.5t140.5 69.5q35 0 72.5 -17.5t64 -38t54 -38t43.5 -17.5q70 0 47 111h137q21 -113 -28.5 -180.5t-145.5 -67.5q-36 0 -72 17t-59.5 38t-50.5 38t-47 17q-73 0 -49 -110z" />
    <glyph glyph-name="dieresis.cap" horiz-adv-x="1048" 
d="M268 1599v168h183v-168h-183zM598 1599v168h182v-168h-182z" />
    <glyph glyph-name="macron.cap" horiz-adv-x="1048" 
d="M227 1626v143h594v-143h-594z" />
    <glyph glyph-name="breve.cap" horiz-adv-x="1048" 
d="M524 1696q54 0 87.5 35.5t33.5 91.5h146q0 -114 -74 -187t-193 -73t-192.5 73t-73.5 187h145q0 -56 33.5 -91.5t87.5 -35.5z" />
    <glyph glyph-name="ring.cap" horiz-adv-x="1048" 
d="M305 1729q0 88 63 152.5t156 64.5q92 0 155.5 -64.5t63.5 -152.5q0 -87 -63.5 -152.5t-155.5 -65.5q-93 0 -156 65.5t-63 152.5zM524 1819q-40 0 -66 -26t-26 -64q0 -40 26 -66.5t66 -26.5q38 0 64 26.5t26 66.5q0 38 -26 64t-64 26z" />
    <glyph glyph-name="hungarumlaut.cap" horiz-adv-x="1048" 
d="M246 1563l76 260h198l-139 -260h-135zM535 1563l75 260h201l-133 -260h-143z" />
    <glyph glyph-name="dotaccent.cap" horiz-adv-x="1050" 
d="M420 1595v205h215v-205h-215z" />
    <glyph glyph-name="commaaccent.alt" horiz-adv-x="1079" 
d="M406 1151l133 315h135l-53 -315h-215z" />
    <glyph glyph-name="hyphen.cap" horiz-adv-x="921" 
d="M160 578v172h602v-172h-602z" />
    <glyph glyph-name="exclamdown.cap" horiz-adv-x="587" 
d="M188 1233v201h213v-201h-213zM205 0v1079h178v-1079h-178z" />
    <glyph glyph-name="questiondown.cap" horiz-adv-x="966" 
d="M377 1235v199h209v-199h-209zM492 -25q-185 0 -308 120t-123 294q0 152 88.5 261t243.5 141v288h176v-428l-88 -12q-231 -39 -231 -250q0 -96 69.5 -167.5t174.5 -71.5q93 0 157.5 56t93.5 150l170 -59q-45 -157 -156 -239.5t-267 -82.5z" />
    <glyph glyph-name="guilsinglleft.cap" horiz-adv-x="587" 
d="M299 328l-203 348l203 348h190l-202 -346l205 -350h-193z" />
    <glyph glyph-name="guilsinglright.cap" horiz-adv-x="565" 
d="M88 328l203 346l-205 350h190l203 -348l-203 -348h-188z" />
    <glyph glyph-name="guillemotleft.cap" horiz-adv-x="935" 
d="M299 328l-203 348l203 348h190l-202 -346l205 -350h-193zM647 328l-203 348l203 348h191l-203 -346l205 -350h-193z" />
    <glyph glyph-name="guillemotright.cap" horiz-adv-x="913" 
d="M436 328l203 346l-205 350h191l202 -348l-202 -348h-189zM88 328l203 346l-205 350h190l203 -348l-203 -348h-188z" />
    <glyph glyph-name="endash.cap" horiz-adv-x="1267" 
d="M160 580v168h948v-168h-948z" />
    <glyph glyph-name="emdash.cap" horiz-adv-x="1869" 
d="M160 580v168h1550v-168h-1550z" />
    <glyph glyph-name="periodcentered.cap" horiz-adv-x="587" 
d="M184 635v209h219v-209h-219z" />
    <glyph glyph-name="parenleft.cap" horiz-adv-x="698" 
d="M485 -324q-174 230 -266 492t-92 528q0 269 93 528.5t272 489.5l141 -110q-162 -207 -245 -439.5t-83 -468.5q0 -483 328 -907z" />
    <glyph glyph-name="parenright.cap" horiz-adv-x="698" 
d="M213 -324l-143 111q323 425 323 909q0 238 -82.5 470.5t-244.5 439.5l141 108q181 -228 272.5 -487t91.5 -531q0 -266 -92 -528t-266 -492z" />
    <glyph glyph-name="parenleft.small" horiz-adv-x="643" 
d="M434 -264q-152 184 -232.5 400t-80.5 433q0 219 81 433.5t236 398.5l137 -105q-139 -165 -210.5 -351.5t-71.5 -375.5q0 -187 71.5 -373t210.5 -354z" />
    <glyph glyph-name="parenright.small" horiz-adv-x="643" 
d="M209 -264l-139 106q138 167 209 353t71 374q0 190 -71.5 377t-210.5 352l137 103q156 -184 236.5 -398t80.5 -434q0 -217 -80.5 -433t-232.5 -400z" />
    <glyph glyph-name="bracketleft.cap" horiz-adv-x="706" 
d="M217 -307v2044h418v-158h-246v-1729h246v-157h-418z" />
    <glyph glyph-name="bracketright.cap" horiz-adv-x="706" 
d="M72 -307v157h243v1729h-243v158h417v-2044h-417z" />
    <glyph glyph-name="bracketleft.small" horiz-adv-x="647" 
d="M195 -248v1665h376v-151h-211v-1364h211v-150h-376z" />
    <glyph glyph-name="bracketright.small" horiz-adv-x="647" 
d="M76 -248v150h211v1364h-211v151h377v-1665h-377z" />
    <glyph glyph-name="braceleft.cap" horiz-adv-x="784" 
d="M670 -307q-180 0 -265.5 92.5t-85.5 284.5v442q0 76 -39 107.5t-126 31.5h-50v180h50q87 0 126 32t39 108v389q0 192 85.5 284.5t265.5 92.5h53v-158h-53q-88 0 -132 -56.5t-44 -162.5v-395q0 -95 -44.5 -151.5t-117.5 -72.5q73 -16 117.5 -72t44.5 -149v-450
q0 -106 44 -163t132 -57h53v-157h-53z" />
    <glyph glyph-name="braceright.cap" horiz-adv-x="784" 
d="M61 -307v157h54q176 0 176 220v444q0 97 44.5 154t117.5 73q-74 16 -118 71t-44 153v395q0 219 -176 219h-54v158h54q179 0 264.5 -91.5t85.5 -281.5v-393q0 -76 40.5 -108t127.5 -32h47v-180h-47q-87 0 -127.5 -31.5t-40.5 -107.5v-442q0 -192 -85 -284.5t-265 -92.5
h-54z" />
    <glyph glyph-name="braceleft.small" horiz-adv-x="718" 
d="M606 -248q-163 0 -241 76.5t-78 232.5v345q0 61 -35 87.5t-109 26.5h-41v172h41q74 0 109 26.5t35 88.5v299q0 158 78 234.5t241 76.5h45v-153h-45q-151 0 -151 -170v-303q0 -80 -38.5 -126t-103.5 -59q64 -13 103 -59t39 -123v-348q0 -170 151 -170h45v-154h-45z" />
    <glyph glyph-name="braceright.small" horiz-adv-x="718" 
d="M68 -248v154h45q75 0 113 44.5t38 125.5v344q0 80 38 126.5t101 59.5q-64 13 -101.5 58.5t-37.5 126.5v303q0 81 -38 125.5t-113 44.5h-45v153h45q162 0 240.5 -76.5t78.5 -232.5v-301q0 -62 34 -88.5t107 -26.5h45v-172h-45q-74 0 -107.5 -26t-33.5 -88v-345
q0 -156 -78.5 -232.5t-240.5 -76.5h-45z" />
    <glyph glyph-name="at.small" horiz-adv-x="1677" 
d="M854 -86q-167 0 -306.5 51.5t-233.5 141.5t-144.5 212.5t-48.5 262.5q1 142 56 266.5t151.5 214t235 141t300.5 51.5q195 0 353.5 -75.5t250 -212.5t91.5 -310q0 -191 -88 -300t-216 -109q-135 0 -190 119q-30 -48 -96.5 -83.5t-143.5 -35.5q-160 0 -258 96.5t-98 239.5
q0 141 99 238.5t243 97.5q68 0 126.5 -28t88.5 -67l18 78h127v-411q0 -50 27 -75.5t72 -25.5q58 0 99.5 71.5t41.5 188.5q0 96 -39 181.5t-108.5 148.5t-172.5 100t-225 37q-129 0 -241 -42.5t-189 -115.5t-121 -171t-45 -207q-1 -110 39.5 -206.5t114.5 -168.5t185 -114
t245 -42q132 0 224.5 27t174.5 82l80 -113q-106 -70 -217 -101.5t-262 -31.5zM823 393q83 0 138 56t55 135t-55 134.5t-138 55.5q-84 0 -137 -55t-53 -135t53 -135.5t137 -55.5z" />
    <glyph glyph-name="at.cap" horiz-adv-x="1918" 
d="M977 -113q-194 0 -356 64t-270 175t-167 261t-57 322q2 175 65.5 327t174.5 262.5t271.5 174t348.5 63.5q227 0 410.5 -92.5t289 -261t105.5 -381.5q0 -237 -99.5 -368.5t-248.5 -131.5q-75 0 -132.5 38t-88.5 110q-32 -58 -110 -103t-169 -45q-186 0 -297.5 118.5
t-111.5 291.5q0 168 114 288.5t279 120.5q81 0 149 -35t105 -84l20 101h139v-520q0 -125 121 -125q71 0 121.5 92t50.5 242q0 122 -45.5 230t-127.5 188t-204.5 126.5t-267.5 46.5q-152 0 -283.5 -53.5t-221.5 -144.5t-141 -214t-52 -261t46.5 -260t134 -212.5t217.5 -143
t288 -52.5q159 0 267.5 35.5t205.5 107.5l88 -129q-126 -90 -253.5 -129t-307.5 -39zM940 457q102 0 168 74t66 180t-66 180t-168 74t-166.5 -73.5t-64.5 -180.5q0 -106 65 -180t166 -74z" />
    <glyph glyph-name="zero.slash" 
d="M569 -25q-234 0 -379 199.5t-145 542.5q0 344 145 542.5t379 198.5q233 0 378 -198.5t145 -542.5q0 -343 -145 -542.5t-378 -199.5zM254 492l575 610q-88 178 -260 178q-150 0 -243 -146t-93 -417q0 -115 21 -225zM569 154q155 0 244.5 144.5t89.5 418.5q0 119 -22 223
l-572 -612q88 -174 260 -174z" />
    <glyph glyph-name="numbersign.LP" 
d="M442 567h199l61 295h-200zM160 0l86 416h-215v151h245l62 295h-213v154h246l86 418h164l-86 -418h198l86 418h166l-88 -418h209v-154h-240l-61 -295h207v-151h-238l-86 -416h-164l86 416h-200l-86 -416h-164z" />
    <glyph glyph-name="Euro.LP" horiz-adv-x="1193" 
d="M1133 344q-55 -177 -173.5 -273t-279.5 -96q-186 0 -317.5 132t-176.5 368h-131v160h111v164h-111v159h131q44 237 176 368.5t318 131.5q162 0 274.5 -91.5t153.5 -260.5l-168 -51q-53 225 -260 225q-108 0 -189 -83t-114 -239h416v-159h-441v-164h441v-160h-418
q33 -157 113 -239t192 -82q107 0 178 68.5t98 174.5z" />
    <glyph glyph-name="dollar.LP" horiz-adv-x="1099" 
d="M635 -184h-166v166q-296 42 -395 348l178 69q13 -45 37 -85.5t60.5 -76t90.5 -56.5t119 -21q106 0 179 64.5t73 164.5q0 91 -54 150.5t-163 115.5q-109 57 -201 107q-106 56 -166.5 146.5t-60.5 199.5q0 135 83.5 230.5t219.5 115.5v164h166v-170q189 -42 278 -246
l-172 -86q-32 78 -80.5 118t-128.5 40q-71 0 -121.5 -46t-50.5 -112q0 -69 38 -115.5t128 -93.5q9 -5 104.5 -57t104.5 -57q138 -76 204.5 -173t66.5 -229q0 -158 -101.5 -273t-269.5 -138v-164z" />
    <glyph glyph-name="cent.LP" horiz-adv-x="1155" 
d="M1075 252q-54 -106 -152.5 -180t-230.5 -92v-164h-168v168q-189 33 -303.5 180t-114.5 348t114.5 348t303.5 180v168h168v-164q129 -15 225.5 -83.5t149.5 -186.5l-164 -74q-92 183 -289 183q-140 0 -230.5 -104.5t-90.5 -266.5q0 -163 91.5 -267t236.5 -104
q105 0 180.5 53.5t111.5 131.5z" />
    <glyph glyph-name="sterling.LP" horiz-adv-x="1114" 
d="M1020 0h-918v180h154v455h-164v160h164v260q0 178 112.5 290.5t280.5 112.5q134 0 230.5 -65t150.5 -183l-151 -84q-72 156 -224 156q-101 0 -156 -67.5t-55 -202.5v-217h385v-160h-385v-455h576v-180z" />
    <glyph glyph-name="florin.LP" horiz-adv-x="1021" 
d="M848 635h-367l-280 -1045h-191l283 1045h-180v160h223l86 319q47 172 145 258t238 86q80 0 182 -31v-170q-98 29 -162 29q-85 0 -140 -53t-91 -178l-70 -260h324v-160z" />
    <glyph glyph-name="yen.LP" horiz-adv-x="1124" 
d="M926 475h-275v-475h-188v475h-273v160h273v164h-273v159h166l-317 476h213l307 -476l318 476h208l-325 -476h166v-159h-275v-164h275v-160z" />
    <glyph glyph-name="zero.slashLP" horiz-adv-x="1314" 
d="M657 -25q-233 0 -377.5 199.5t-144.5 542.5q0 344 144.5 542.5t377.5 198.5t379 -198.5t146 -542.5q0 -343 -146 -542.5t-379 -199.5zM344 492l574 610q-88 178 -261 178q-148 0 -241.5 -146.5t-93.5 -416.5q0 -126 22 -225zM657 154q155 0 244.5 144.5t89.5 418.5
q0 119 -22 223l-572 -612q88 -174 260 -174z" />
    </font>
</defs>
</svg>
