<svg width="42" height="42" viewBox="0 0 42 42" fill="none" xmlns="http://www.w3.org/2000/svg">
<path d="M31.1034 19.3762L31.1004 19.4005V19.425V21C31.1004 23.5825 28.9956 25.6894 26.5738 25.8509L26.1598 25.8785L26.2025 26.2912L26.7275 31.3662L26.7291 31.3814L26.7318 31.3966C27.0622 33.2135 26.5606 34.9991 25.4426 36.1172C24.2763 37.2834 22.6234 38.1 21.0004 38.1C19.3227 38.1 17.3676 37.423 16.4204 36.16C15.4332 34.8438 14.9347 33.0225 15.0977 31.3721L15.7966 26.3047L15.8553 25.8794L15.427 25.8509C13.0052 25.6894 10.9004 23.5825 10.9004 21V19.425V19.4005L10.8974 19.3762L9.6727 9.40357C9.50944 7.92997 9.83357 6.64882 10.7941 5.52197C11.7811 4.53979 13.0793 3.9 14.5254 3.9H27.6504C28.9157 3.9 30.2142 4.53432 31.2066 5.52197C32.1672 6.64885 32.4914 7.93005 32.3281 9.40371C32.328 9.40442 32.3279 9.40512 32.3278 9.40583L31.1034 19.3762ZM12.8426 7.24216L12.8145 7.27016L12.7926 7.30312C12.6177 7.56546 12.4549 7.82823 12.3704 8.11006C12.2833 8.4002 12.2837 8.69116 12.383 9.01122L13.4284 17.5486L13.4714 17.9H13.8254H28.1754H28.5294L28.5724 17.5486L29.6179 9.01091C29.8251 8.33625 29.591 7.67493 29.1582 7.24216C28.7162 6.80017 28.0798 6.6 27.4754 6.6H26.2504H25.8504V7V10.5C25.8504 10.9341 25.7074 11.2648 25.4863 11.4859C25.2652 11.707 24.9345 11.85 24.5004 11.85C24.0663 11.85 23.7356 11.707 23.5145 11.4859C23.2933 11.2648 23.1504 10.9341 23.1504 10.5V7V6.6H22.7504H14.5254C13.921 6.6 13.2845 6.80017 12.8426 7.24216ZM18.5804 34.19L18.5882 34.2004L18.5967 34.2103C19.803 35.6177 22.1814 35.6215 23.3941 34.2219C23.9965 33.6125 24.3754 32.6374 24.3754 31.675V31.6439L24.3706 31.6133L23.4956 26.0132L23.4427 25.675H23.1004H19.0754H18.733L18.6802 26.0132L17.8052 31.6133L17.8004 31.6439V31.675C17.8004 32.6154 17.9921 33.4056 18.5804 34.19ZM14.0004 20.6H13.6004V21C13.6004 21.6159 13.8074 22.1602 14.1988 22.5516C14.5902 22.943 15.1345 23.15 15.7504 23.15H17.5004H24.5004H26.2504C26.8663 23.15 27.4106 22.943 27.802 22.5516C28.1933 22.1602 28.4004 21.6159 28.4004 21V20.6H28.0004H14.0004Z" fill="#C8151D" stroke="#E2ECF4" stroke-width="0.8"/>
</svg>
