<svg width="42" height="42" viewBox="0 0 42 42" fill="none" xmlns="http://www.w3.org/2000/svg">
<path d="M16.398 11.0525C16.53 11.1244 16.6492 11.1868 16.7585 11.2439C17.0213 11.3813 17.2265 11.4886 17.4129 11.6277C17.5272 11.7131 17.5769 11.7719 17.5957 11.8007C17.5975 11.8035 17.599 11.8058 17.6 11.8077V33.7112C17.6 33.8026 17.5736 33.839 17.5336 33.8717C17.476 33.9188 17.3233 34 17.025 34H7.575C7.27674 34 7.12397 33.9188 7.06641 33.8717C7.02644 33.839 7 33.8026 7 33.7112V11.8598C7.00177 11.8574 7.00374 11.8548 7.00595 11.852C7.04446 11.8024 7.12715 11.7247 7.26639 11.6488L11.9914 9.07119C12.0415 9.04384 12.1799 9 12.3787 9C12.5776 9 12.716 9.04384 12.7661 9.07119L16.398 11.0525ZM6.98681 11.8804C6.98678 11.8804 6.98705 11.8798 6.98773 11.8785C6.98718 11.8798 6.98684 11.8804 6.98681 11.8804Z" stroke="#C8151D" stroke-width="2"/>
<path d="M34.4579 11.0157C34.5718 11.0826 34.676 11.1419 34.7722 11.1966C35.0345 11.3459 35.2374 11.4614 35.4167 11.606C35.5235 11.6922 35.5718 11.7523 35.5914 11.7842C35.5969 11.7931 35.5994 11.7986 35.6004 11.801C35.6004 11.8012 35.6004 11.8015 35.6004 11.8019V33.7112C35.6004 33.8295 35.5638 33.8717 35.5371 33.8953C35.4989 33.929 35.3844 34 35.1379 34H26.3629C26.1163 34 26.0019 33.929 25.9637 33.8953C25.9369 33.8717 25.9004 33.8295 25.9004 33.7112V11.8411C25.9033 11.8364 25.9071 11.8305 25.9122 11.8235C25.9468 11.7756 26.0189 11.7032 26.1382 11.6331L30.5257 9.05554C30.5527 9.03965 30.658 9 30.8235 9C30.989 9 31.0943 9.03965 31.1214 9.05554L34.4579 11.0157ZM25.8929 11.8552C25.8929 11.8552 25.893 11.8546 25.8935 11.8536L25.8929 11.8552Z" stroke="#C8151D" stroke-width="2"/>
<path d="M18.5996 27.7998H24.8996" stroke="#C8151D" stroke-width="2" stroke-linecap="round"/>
<path d="M18.5996 19.6982H24.8996" stroke="#C8151D" stroke-width="2" stroke-linecap="round"/>
</svg>
