<svg width="42" height="42" viewBox="0 0 42 42" fill="none" xmlns="http://www.w3.org/2000/svg">
<path d="M20.8245 29.5948C16.5775 29.5948 12.3304 29.6142 8.08336 29.5899C4.4712 29.5657 4.18742 29.1292 4.01426 25.5698C3.79782 21.0598 6.0921 17.3743 7.66009 13.456C8.16512 12.2 9.49263 11.7296 10.8827 11.7344C17.6116 11.7393 24.3453 11.7441 31.0742 11.7344C32.5797 11.7344 33.8783 12.3406 34.4026 13.6936C35.985 17.7816 38.3274 21.6223 37.9618 26.336C37.7839 28.6006 36.9566 29.5754 34.7681 29.5657C30.1219 29.5414 25.4708 29.5608 20.8245 29.5608C20.8245 29.5705 20.8245 29.5802 20.8245 29.5948ZM20.8293 23.533C25.3986 23.533 29.968 23.5039 34.5325 23.5476C35.9754 23.5621 36.7017 23.3148 35.9946 21.6466C35.0856 19.4983 34.3208 17.2918 33.4791 15.1144C32.9981 13.8682 32.166 13.1989 30.7471 13.2086C24.2539 13.2523 17.7655 13.2426 11.2723 13.2329C9.81008 13.2329 8.91064 13.8536 8.41042 15.289C7.67452 17.4179 6.84724 19.5177 5.95742 21.5836C5.27924 23.1596 5.81313 23.567 7.36189 23.5476C11.8494 23.4942 16.3418 23.5282 20.8293 23.533ZM20.94 25.0121C20.94 25.0169 20.94 25.0169 20.94 25.0218C16.539 25.0218 12.1332 25.0024 7.73224 25.0363C6.828 25.046 5.57264 24.469 5.51492 26.302C5.45721 27.9751 6.39031 28.1157 7.63124 28.1157C16.5967 28.1012 25.5622 28.0866 34.5277 28.106C35.7445 28.1109 36.4516 27.9072 36.4804 26.4087C36.5141 24.8375 35.605 25.0024 34.6287 25.0024C30.0642 25.0169 25.4997 25.0121 20.94 25.0121Z" fill="#C8151D" stroke="#C8151D" stroke-width="0.4"/>
<path d="M21.2339 36.146C18.8531 36.1994 16.9484 35.7047 15.1736 34.6815C14.7744 34.4487 14.2597 34.0414 13.9278 34.1432C13.2545 34.3518 12.4945 35.4235 12.1675 33.9977C11.9703 33.1442 11.6384 31.8689 12.4609 31.2821C13.2737 30.7001 14.4569 30.996 15.4766 31.1802C15.5439 31.1948 15.6642 31.2724 15.6594 31.2966C15.1351 33.8474 17.1071 34.1093 18.6944 34.4342C21.08 34.9191 23.432 34.6864 25.7022 33.5807C26.5584 33.1636 27.5733 31.3451 28.3717 32.7417C29.0258 33.8911 27.1548 34.4439 26.2169 34.9676C24.5816 35.8745 22.7779 36.2673 21.2339 36.146Z" fill="#C8151D" stroke="#C8151D" stroke-width="0.4"/>
<path d="M20.8201 6.48239C18.8866 6.63272 16.9723 7.07887 15.2888 8.30092C14.7357 8.70342 14.0143 9.45993 13.4707 8.57733C12.9465 7.71899 13.9758 7.34074 14.5241 6.99643C18.4248 4.52323 22.4458 4.35835 26.5678 6.4436C27.2075 6.76851 27.7991 7.81113 28.6312 6.58423C28.8044 6.32721 29.6942 6.34176 29.7086 7.01098C29.7231 8.0827 30.3147 9.40173 29.2806 10.1485C28.7467 10.5365 27.7222 10.3377 26.9382 10.2455C25.8319 10.1097 26.0051 9.48417 26.4284 8.70342C26.765 8.0827 26.0965 7.93721 25.7213 7.73354C24.2255 6.89944 22.5949 6.56968 20.8201 6.48239Z" fill="#C8151D" stroke="#C8151D" stroke-width="0.4"/>
</svg>
