<svg width="44" height="44" viewBox="0 0 44 44" fill="none" xmlns="http://www.w3.org/2000/svg">
<path d="M34.947 4.20599C32.344 2.22272 29.2399 0.909878 25.7213 0.301346C25.2308 0.216081 24.7239 0.151841 24.2346 0.0887685C24.0104 0.0595684 23.7862 0.0315362 23.5631 0H20.4672C20.2208 0.0362082 19.9744 0.0689124 19.7268 0.101617C19.1908 0.174033 18.6349 0.247618 18.1001 0.348066C12.3871 1.41796 7.71813 4.34148 4.22401 9.04038C2.09857 11.8997 0.742734 15.232 0.197362 18.9451C0.145978 19.2943 0.1016 19.6517 0.0583911 19.9986C0.0385381 20.154 0.019853 20.3105 0 20.4658V23.5634C0.0350346 23.8063 0.0677336 24.0481 0.100433 24.291C0.170502 24.8178 0.244075 25.3633 0.342172 25.89C1.47496 31.9543 4.6526 36.8121 9.78751 40.329C12.8414 42.4209 16.1673 43.6239 19.6719 43.9054C28.447 44.6109 35.4317 41.2984 40.4323 34.0614C42.4363 31.1613 43.6041 27.899 43.9007 24.3646C44.6003 16.0461 41.5873 9.26346 34.947 4.20599ZM36.269 36.3005C32.4444 40.1211 27.3877 42.2246 22.0298 42.2246C22.0204 42.2246 22.0111 42.2246 22.0006 42.2246C16.6123 42.2176 11.5357 40.0942 7.70528 36.2468C3.88768 32.4122 1.79377 27.3501 1.80896 21.9936C1.82414 16.5915 3.95658 11.5072 7.81272 7.67731C11.6455 3.87078 16.7045 1.78705 22.0473 1.81041C33.1685 1.8583 42.2167 10.9232 42.2179 22.0169C42.2179 27.3956 40.1053 32.4694 36.269 36.3005Z" fill="#C8151D"/>
<path d="M8.73112 12.5794C7.9335 14.9587 8.43449 17.0973 10.2201 18.9369C12.1879 20.9646 14.0108 22.7808 15.7906 24.4896C16.1433 24.8283 16.5672 25.0993 17.0168 25.3866C17.2527 25.5373 17.4956 25.6926 17.7292 25.8597C17.9312 26.0033 18.1052 26.1785 18.2348 26.3654C18.3843 26.5827 18.5221 26.8093 18.6541 27.0277C18.8958 27.4283 19.1247 27.8079 19.4167 28.1104L19.44 28.1349C21.3237 30.0844 23.2717 32.1015 25.2838 33.9738C27.2107 35.7667 29.5137 36.1592 31.9427 35.1091C34.1978 34.1327 35.5093 32.2685 35.6366 29.8578C35.6249 27.8243 35.062 26.3549 33.8124 25.0946L32.9739 24.2478C31.4429 22.7014 29.8605 21.1035 28.2676 19.5723C27.9243 19.2417 27.5073 18.9789 27.0671 18.6998C26.8335 18.5514 26.5918 18.3996 26.3605 18.2349C26.1714 18.1006 25.9985 17.9266 25.8596 17.7303C25.6984 17.5026 25.5489 17.2655 25.4053 17.0354C25.1332 16.602 24.8751 16.1921 24.5516 15.8557C22.9236 14.1644 21.1626 12.3984 18.8421 10.1289C17.6533 8.96561 16.2647 8.37927 14.7034 8.37927C14.4009 8.37927 14.0914 8.40146 13.7749 8.44585C11.2279 8.80326 9.53108 10.1932 8.73112 12.5794ZM26.3138 21.0989L26.4633 20.4179L26.9842 20.8816C27.0192 20.912 27.0519 20.9412 27.0846 20.9692C27.1593 21.0335 27.2294 21.0942 27.2995 21.1643C27.79 21.6537 28.2804 22.1431 28.7709 22.6313C29.9971 23.853 31.2654 25.1156 32.5009 26.3701C33.6407 27.5276 34.0717 29.1301 33.6513 30.6578C33.2414 32.1482 32.0934 33.2742 30.5799 33.6713C30.1583 33.7823 29.7484 33.8372 29.3537 33.8372C28.3178 33.8372 27.3847 33.4599 26.6093 32.7194C25.2289 31.4007 23.8637 30.0248 22.5429 28.6944C22.0127 28.1606 21.4826 27.6269 20.9512 27.0954C20.8531 26.9973 20.8297 26.884 20.8192 26.835L20.6919 26.411L21.1229 26.3094C23.984 25.6926 25.6809 23.9885 26.3138 21.0989ZM24.137 19.6307L24.436 19.6774L24.4792 19.9764C24.6403 21.0849 24.1849 22.3008 23.2635 23.2317C22.4483 24.0539 21.4055 24.5165 20.4035 24.5165C20.2598 24.5165 20.1174 24.5071 19.9772 24.4873L19.6771 24.4464L19.6292 24.1474C19.4482 23.0226 19.8955 21.7915 20.8262 20.8548C21.7617 19.9122 23.0007 19.4543 24.137 19.6307ZM12.4238 10.7702C14.0564 9.84863 16.0826 10.0519 17.3496 11.2631C18.7393 12.5923 20.1069 13.9951 21.43 15.3511C21.9987 15.9339 22.5686 16.5191 23.1444 17.1031L23.6652 17.6311L22.94 17.7899C20.094 18.4125 18.4042 20.1119 17.7759 22.9864L17.6358 23.6241L17.1231 23.2188C17.0951 23.1966 17.0694 23.1779 17.046 23.1604C16.9888 23.1172 16.9292 23.0728 16.8708 23.0144C16.3652 22.5087 15.8583 22.0041 15.3515 21.4995C14.0903 20.2439 12.7858 18.9451 11.5152 17.6533C10.5202 16.6418 10.0601 15.2822 10.2505 13.9226C10.4396 12.5934 11.2314 11.4441 12.4238 10.7702Z" fill="#C8151D"/>
<path d="M30.7345 12.0235C30.0805 12.6262 29.4312 13.2756 28.7492 14.0068C28.4969 14.2778 28.4572 14.6048 28.6336 14.9797C28.7819 15.2951 29.0236 15.4668 29.4324 15.5404C29.4919 15.5158 29.5515 15.4948 29.6099 15.4738C29.7734 15.4142 29.9275 15.357 30.0093 15.2811C30.7123 14.6317 31.3815 13.9659 31.9969 13.3013C32.3052 12.9684 32.283 12.423 31.9467 12.0842C31.7668 11.902 31.5263 11.8098 31.2927 11.8098C31.0895 11.8098 30.8886 11.881 30.7345 12.0235Z" fill="#C8151D"/>
<path d="M14.6113 28.4924C14.5482 28.5169 14.4852 28.5403 14.4233 28.5624C14.2504 28.6255 14.087 28.6851 13.997 28.7669C13.3664 29.3438 12.7264 29.9804 12.0386 30.7139C11.7268 31.0468 11.7385 31.5946 12.0655 31.9368C12.3936 32.2802 12.946 32.3188 13.273 32.0209C13.9118 31.4381 14.5716 30.7805 15.2875 30.0096C15.5853 29.6884 15.5117 29.3205 15.3972 29.0682C15.2536 28.7482 15.0154 28.5718 14.6113 28.4924Z" fill="#C8151D"/>
<path d="M34.6834 18.2174C35.0793 18.0527 35.223 17.5914 35.1319 17.241C35.0163 16.7971 34.6858 16.5331 34.2432 16.5331C34.242 16.5331 34.2408 16.5331 34.2397 16.5331C34.2186 16.5343 34.1964 16.5343 34.1754 16.5355C34.1708 16.5355 34.1661 16.5355 34.1626 16.5355C33.887 16.6348 33.6102 16.7305 33.3323 16.8263C32.6351 17.0669 31.9145 17.3169 31.2384 17.6171C30.8623 17.7841 30.7794 18.3027 30.9371 18.6823C31.1052 19.0887 31.5712 19.3422 31.9332 19.2266C32.857 18.9299 33.7819 18.59 34.6834 18.2174Z" fill="#C8151D"/>
<path d="M9.9102 27.3886C10.7662 27.1212 11.6397 26.8035 12.581 26.4169C12.9477 26.2662 13.1451 25.8294 13.04 25.3984C12.9395 24.9849 12.5752 24.7151 12.1104 24.7081C12.0987 24.7081 12.0858 24.7092 12.0718 24.7092C12.052 24.7092 12.0146 24.7104 11.9994 24.7139C11.7764 24.7945 11.5486 24.8751 11.3221 24.9557C10.6471 25.1951 9.94873 25.4427 9.27957 25.7172C8.87317 25.8843 8.67815 26.3678 8.8358 26.8175C8.99346 27.2683 9.47577 27.5241 9.9102 27.3886Z" fill="#C8151D"/>
<path d="M24.7931 11.7385C24.5911 12.305 24.8013 12.8446 25.2941 13.021C25.8079 13.2056 26.2961 12.9439 26.5109 12.3704C26.7912 11.6194 27.0657 10.8473 27.3226 10.1208C27.3565 10.0251 27.3798 9.91528 27.3973 9.83585C27.4008 9.82184 27.4032 9.80782 27.4067 9.79497C27.4113 9.26236 27.1427 8.89911 26.6663 8.79633C26.6102 8.78465 26.5542 8.77881 26.4969 8.77881C26.1407 8.77881 25.7997 9.01358 25.6584 9.37449C25.3793 10.0916 25.1166 10.831 24.8608 11.547L24.7931 11.7385Z" fill="#C8151D"/>
<path d="M17.1108 35.1056C17.6071 35.2902 18.0988 35.0414 18.3055 34.5006C18.5858 33.7648 18.8567 33.0079 19.1183 32.2767L19.1697 32.1331C19.1989 32.0513 19.2176 31.9532 19.2293 31.889C19.2304 31.8796 19.2328 31.8714 19.2339 31.8633C19.2257 31.3563 18.9466 30.9873 18.4982 30.895C18.434 30.8821 18.3697 30.8751 18.3067 30.8751C17.9446 30.8751 17.6282 31.0924 17.4869 31.4556C17.2066 32.1728 16.9228 32.9483 16.5946 33.8979C16.4136 34.4189 16.6309 34.9269 17.1108 35.1056Z" fill="#C8151D"/>
</svg>
