<svg width="44" height="50" viewBox="0 0 44 50" fill="none" xmlns="http://www.w3.org/2000/svg">
<path d="M22.8098 0C23.2403 0.268595 23.3582 0.665338 23.3562 1.1564C23.3428 3.52455 23.35 5.89372 23.349 8.26187C23.349 8.39104 23.35 8.52227 23.3326 8.65041C23.27 9.10764 22.9523 9.41622 22.5381 9.43057C22.1168 9.44492 21.761 9.11892 21.6954 8.64836C21.678 8.52022 21.68 8.38899 21.68 8.25982C21.679 5.89167 21.6862 3.5225 21.6739 1.15435C21.6708 0.663287 21.7918 0.266545 22.2244 0C22.4202 0 22.615 0 22.8098 0Z" fill="#C8151D"/>
<path d="M8.54522 35.6945C9.21874 35.4557 9.87382 35.1819 10.5525 34.9892C13.1584 34.2511 15.7069 34.4551 18.116 35.6873C19.5215 36.406 20.9465 36.8294 22.5365 36.812C24.1593 36.7945 25.7832 36.9124 27.407 36.9504C29.364 36.9975 30.8536 37.8494 31.8992 39.4948C31.9341 39.5492 31.974 39.5994 32.0315 39.6804C33.0874 39.1842 34.1402 38.689 35.192 38.1929C36.3207 37.6598 37.4412 37.1082 38.5791 36.5956C40.4439 35.755 42.6244 36.3896 43.7366 38.075C44.158 38.7137 44.0821 39.1401 43.4486 39.5502C38.6939 42.6267 33.9495 45.7207 29.1723 48.7624C27.8775 49.5877 26.3685 49.8194 24.8482 49.926C23.0214 50.0541 21.3248 49.4862 19.6097 49.0023C17.1462 48.3082 14.6828 47.6173 12.2204 46.9202C11.3172 46.6639 10.4582 46.7274 9.64008 47.2134C9.40327 47.3538 9.16441 47.4963 8.91017 47.5999C8.41195 47.8039 8.0921 48.0622 8.13311 48.6968C8.16489 49.1879 7.77635 49.4851 7.25865 49.4759C5.13146 49.4339 3.00325 49.3837 0.876055 49.3139C0.278391 49.2945 -0.0148025 48.9398 0.000574796 48.3124C0.0713103 45.5024 0.152297 42.6934 0.231234 39.8844C0.281467 38.0821 0.336825 36.2799 0.382957 34.4766C0.40346 33.6708 0.694603 33.3848 1.47987 33.4074C3.44509 33.4617 5.40928 33.5109 7.3745 33.5591C8.28996 33.5816 8.56675 33.8677 8.54419 34.7719C8.53907 35.0763 8.54522 35.3808 8.54522 35.6945ZM32.5717 41.2612C32.6004 41.5052 32.6332 41.6969 32.6435 41.8896C32.6917 42.8369 32.4108 43.128 31.4717 43.1055C28.4998 43.0327 25.5269 42.9599 22.555 42.882C22.313 42.8759 22.0619 42.8677 21.8322 42.802C21.2838 42.6442 21.0398 41.9522 21.4416 41.5606C21.662 41.3463 22.069 41.2233 22.3889 41.2294C25.085 41.2797 27.7812 41.3689 30.4763 41.4437C30.6116 41.4478 30.7469 41.4273 30.8874 41.4181C30.5112 39.7624 29.1467 38.647 27.4982 38.607C26.0528 38.5722 24.6073 38.5394 23.1618 38.4912C22.3509 38.4635 21.538 38.4338 20.7302 38.3569C19.4764 38.2369 18.398 37.6229 17.2754 37.1103C14.406 35.7991 11.5838 35.9447 8.83021 37.4947C8.55445 37.6495 8.45193 37.8269 8.44475 38.1437C8.38837 40.6615 8.31148 43.1783 8.2428 45.6961C8.23972 45.8007 8.2592 45.9063 8.2674 46.0108C8.33506 46.0078 8.37094 46.0149 8.39555 46.0026C8.55445 45.9216 8.71334 45.8396 8.86814 45.7525C10.0604 45.08 11.306 44.9457 12.6243 45.326C14.445 45.8519 16.2687 46.3645 18.0986 46.8556C19.8803 47.3333 21.6518 47.8961 23.4643 48.2016C25.2224 48.4979 26.9887 48.1945 28.5234 47.2195C32.5102 44.6863 36.4632 42.0998 40.4285 39.5338C40.9267 39.2119 41.4219 38.8849 41.9652 38.5312C41.1235 37.8546 40.2337 37.6762 39.3254 38.0873C37.0691 39.1083 34.8383 40.192 32.5717 41.2612ZM2.02525 35.1717C1.91146 39.3267 1.79664 43.4879 1.6808 47.7219C3.32412 47.7219 4.90593 47.7219 6.51952 47.7219C6.63331 43.573 6.7471 39.4108 6.86294 35.1717C5.22783 35.1717 3.66037 35.1717 2.02525 35.1717Z" fill="#C8151D"/>
<path d="M22.5053 34.6591C15.932 34.6478 10.6176 29.3149 10.6289 22.7445C10.6412 16.2101 15.9823 10.8945 22.5289 10.9048C29.1083 10.9151 34.4186 16.2408 34.4043 22.8132C34.3909 29.3497 29.0458 34.6704 22.5053 34.6591ZM22.532 32.9922C28.1826 32.9819 32.7568 28.4086 32.7548 22.7732C32.7527 17.1368 28.1724 12.5635 22.5268 12.5615C16.8619 12.5584 12.262 17.1563 12.2774 22.805C12.2927 28.4394 16.8875 33.0034 22.532 32.9922Z" fill="#C8151D"/>
<path d="M29.4898 6.7917C29.4898 7.34222 29.5001 7.89376 29.4878 8.44428C29.4745 9.05631 29.1382 9.43972 28.6482 9.43152C28.1725 9.42332 27.8342 9.05323 27.827 8.47298C27.8137 7.32274 27.8117 6.17249 27.8281 5.02225C27.8363 4.43277 28.1684 4.09344 28.6687 4.09857C29.1649 4.10369 29.4714 4.44303 29.4868 5.04173C29.5011 5.62505 29.4898 6.20837 29.4898 6.7917Z" fill="#C8151D"/>
<path d="M15.5398 6.73133C15.5398 6.16441 15.5275 5.59748 15.5429 5.03056C15.5603 4.43289 15.872 4.09766 16.3733 4.09766C16.8725 4.09868 17.1934 4.43494 17.2016 5.03261C17.217 6.18286 17.217 7.3331 17.2016 8.48232C17.1944 9.05949 16.8459 9.43061 16.3712 9.42958C15.8955 9.42856 15.5583 9.05949 15.5429 8.47925C15.5275 7.89797 15.5398 7.31465 15.5398 6.73133Z" fill="#C8151D"/>
<path d="M26.0188 19.9129C26.0219 20.4501 25.7123 20.8284 25.2448 20.8602C24.7619 20.892 24.4247 20.5475 24.3703 19.9683C24.2781 18.9759 23.5994 18.2716 22.6717 18.2071C21.7019 18.1394 20.934 18.7063 20.7054 19.6567C20.4635 20.6685 21.2088 21.7316 22.2442 21.8577C22.646 21.9069 23.0571 21.9274 23.4456 22.0299C24.8921 22.4103 25.9357 23.704 26.0147 25.169C26.0967 26.6842 25.2253 28.1133 23.8209 28.6259C23.3585 28.7951 23.175 28.9888 23.2283 29.4768C23.2714 29.8776 23.1053 30.2682 22.6799 30.3349C22.4031 30.3779 22.0207 30.2887 21.8198 30.1083C21.6414 29.9484 21.587 29.5814 21.5891 29.3076C21.5911 28.9355 21.4927 28.7479 21.1268 28.59C19.8545 28.0426 19.1687 27.0297 19.0211 25.6631C18.9514 25.0163 19.263 24.6072 19.7838 24.5785C20.3046 24.5498 20.5998 24.8625 20.6634 25.5104C20.7536 26.431 21.462 27.165 22.3108 27.2183C23.3462 27.2829 24.1212 26.7098 24.3365 25.7206C24.518 24.883 24.0033 23.9614 23.1514 23.6733C22.85 23.5708 22.5179 23.5482 22.196 23.5185C20.5783 23.3698 19.3379 22.2052 19.0426 20.5465C18.7843 19.0928 19.6229 17.4976 21.0365 16.8815C21.462 16.696 21.6311 16.4858 21.584 16.0306C21.546 15.6575 21.6629 15.274 22.0494 15.152C22.2954 15.0741 22.6594 15.0803 22.8562 15.2146C23.0561 15.352 23.2293 15.6985 23.216 15.9435C23.1883 16.4632 23.3923 16.6457 23.8619 16.82C25.1248 17.2875 26.0116 18.6212 26.0188 19.9129Z" fill="#C8151D"/>
</svg>
