<svg width="46" height="46" viewBox="0 0 46 46" fill="none" xmlns="http://www.w3.org/2000/svg">
<path d="M28.5763 27.2029C28.1894 27.2028 27.8767 26.8892 27.8762 26.5029V26.5027V24.7622C25.1739 24.4173 23.0785 22.1037 23.0785 19.3087C23.0785 18.3851 23.3857 17.3985 23.8399 16.442C24.2949 15.484 24.902 14.5462 25.5131 13.7175C26.7346 12.0612 27.981 10.8287 28.086 10.7259L28.5763 27.2029ZM28.5763 27.2029C28.963 27.2029 29.2764 26.8894 29.2764 26.5027V24.7622C31.9787 24.4173 34.0745 22.1038 34.0745 19.3087C34.0745 18.3851 33.7673 17.3985 33.313 16.442C32.8581 15.484 32.2508 14.5462 31.6397 13.7175C30.4174 12.0603 29.1703 10.8273 29.0666 10.7254L29.0665 10.7254M28.5763 27.2029L29.0665 10.7254M29.0665 10.7254C28.7946 10.4588 28.3587 10.4583 28.0862 10.7257L29.0665 10.7254ZM24.4788 19.3087C24.4788 18.0728 25.2379 16.5769 26.1596 15.2237C27.019 13.9618 28.001 12.8507 28.5763 12.234C29.1518 12.8504 30.1339 13.9616 30.9935 15.2235C31.9153 16.5768 32.6745 18.0728 32.6745 19.3087C32.6745 21.5681 30.8361 23.4069 28.5763 23.4069C26.3172 23.4069 24.4788 21.5681 24.4788 19.3087Z" fill="#C8151D" stroke="#C8151D" stroke-width="0.3"/>
<path d="M18.1221 33.0351V34.7755C18.1221 35.1622 17.8087 35.4756 17.4221 35.4757C17.422 35.4757 17.422 35.4757 17.422 35.4757V35.3278M18.1221 33.0351L17.4221 35.3257L17.422 35.3278M18.1221 33.0351C20.8248 32.6905 22.9202 30.3765 22.9202 27.5815C22.9202 26.6579 22.613 25.6713 22.1588 24.7148C21.7039 23.7568 21.0967 22.819 20.4856 21.9904C19.2634 20.3332 18.0164 19.1003 17.9126 18.9985C17.6405 18.7315 17.2046 18.7316 16.9323 18.9981L16.9322 18.9982C16.8284 19.1 15.5813 20.333 14.359 21.9902C13.7479 22.8188 13.1407 23.7566 12.6857 24.7146C12.2315 25.6712 11.9242 26.6578 11.9242 27.5815C11.9242 30.3762 14.0196 32.6897 16.7219 33.035L18.1221 33.0351ZM17.422 35.3278L17.4123 35.4754L17.4122 35.4754L17.4171 35.3257C17.4187 35.3257 17.4203 35.3257 17.422 35.3257V35.3278ZM13.3245 27.5815C13.3245 26.3456 14.0838 24.8495 15.0056 23.4962C15.8653 22.2342 16.8475 21.123 17.4228 20.5067C17.9982 21.1228 18.9802 22.2333 19.8396 23.4949C20.7612 24.8478 21.5202 26.3441 21.5202 27.5815C21.5202 29.8409 19.6818 31.6797 17.4227 31.6797C15.1629 31.6797 13.3245 29.8413 13.3245 27.5815Z" fill="#C8151D" stroke="#C8151D" stroke-width="0.3"/>
<path d="M32.7684 7.76383L32.768 7.76383L32.7669 7.76383C32.3808 7.76383 32.0672 7.45142 32.0667 7.06501C32.0662 6.67899 32.3785 6.36444 32.7654 6.36388L32.7684 7.76383ZM32.7684 7.76383L37.3611 7.75424M32.7684 7.76383L38.0599 7.05553M38.0599 7.05553V7.05561C38.0589 7.44107 37.747 7.75375 37.3611 7.75424M38.0599 7.05553L38.0691 2.44513V2.44502M38.0599 7.05553L38.0691 2.44502M37.3611 7.75424L37.3609 7.60424L37.3612 7.75424L37.3611 7.75424ZM38.0691 2.44502C38.0696 2.05982 37.7596 1.74641 37.374 1.74391M38.0691 2.44502L37.374 1.74391M37.374 1.74391C36.9556 1.72458 36.6697 2.06722 36.6691 2.44259L37.374 1.74391ZM35.3957 6.3583L32.7655 6.36388L5.60519 35.5741C5.92592 35.3577 6.00959 34.9227 5.79351 34.6022L5.79343 34.6021C3.47535 31.171 2.24994 27.16 2.24994 23.0012V22.9535L2.24943 22.9527C2.27525 11.5327 11.574 2.24988 22.9999 2.24988C27.477 2.24988 31.828 3.70011 35.3957 6.3583ZM36.6691 2.44272L36.6625 5.57116L36.6691 2.44272Z" fill="#C8151D" stroke="#C8151D" stroke-width="0.3"/>
<path d="M40.2721 10.5339L40.2595 10.5184L40.3957 10.4264C40.7151 10.2105 41.1518 10.2943 41.3679 10.6145C43.8424 14.2784 45.1507 18.5612 45.1507 23C45.1507 35.2146 35.2137 45.1506 23.0001 45.1506C17.9023 45.1506 13.0027 43.4068 9.06713 40.218L9.06088 43.2499L9.06088 43.25C9.05991 43.6361 8.74696 43.9486 8.36071 43.9486H8.35956H8.35937C7.97203 43.9481 7.66006 43.6339 7.66055 43.2475L7.66055 43.2474L7.67014 38.637L7.67014 38.6369C7.67111 38.2515 7.98294 37.9388 8.36884 37.9383L40.2721 10.5339ZM40.2721 10.5339C40.0575 10.7671 40.023 11.125 40.2079 11.3992L40.2079 11.3993C42.526 14.8304 43.7514 18.8414 43.7514 23.0002C43.7514 34.4421 34.4427 43.7507 23.0009 43.7507C18.335 43.7507 13.8476 42.1913 10.2059 39.3346M40.2721 10.5339L10.2059 39.3346M10.2059 39.3346L12.9645 39.3286L10.2059 39.3346ZM12.9617 37.9287L8.36896 37.9383L12.9646 39.3286C13.3515 39.3281 13.6638 39.0135 13.6633 38.6275C13.6628 38.2411 13.3492 37.9287 12.9631 37.9287H12.962H12.9617Z" fill="#C8151D" stroke="#C8151D" stroke-width="0.3"/>
</svg>
