<svg width="56" height="86" viewBox="0 0 56 86" fill="none" xmlns="http://www.w3.org/2000/svg">
<path d="M3.56519 1.02175C3.36088 1.08986 3.27008 1.63468 3.27008 2.58811C3.27008 4.17717 3.20198 4.26797 1.63562 4.58578L1 4.72199V31.5089V58.2732L1.52212 58.4321C1.79453 58.5229 2.18044 58.6137 2.40745 58.6364C2.61176 58.6591 3.47439 59.0904 4.33702 59.5898C6.13038 60.6568 9.33119 62.5182 11.4424 63.7441C12.2596 64.2208 14.1438 65.3104 15.642 66.1958C17.1403 67.0584 19.0925 68.1707 19.9552 68.6702C20.8405 69.1696 23.1787 70.5316 25.1764 71.6894C27.174 72.8471 30.3975 74.7086 32.3271 75.8436C34.2567 76.9559 37.4348 78.7947 39.3644 79.9071C41.2939 81.0421 43.6321 82.3814 44.5628 82.9036C45.4936 83.403 46.5151 84.1067 46.8329 84.4245C47.9907 85.5823 49.1257 85.7866 49.1257 84.8558C49.1257 84.5834 49.6251 84.1748 50.5559 83.6527L51.9633 82.8582L53.121 83.5165C53.7567 83.8797 54.4604 84.1748 54.6647 84.1748C55.0052 84.1748 55.0279 82.0409 54.9825 57.3652L54.9144 30.5328L53.4843 29.6702L52.0314 28.7848L50.3061 29.7383L48.5582 30.669L46.6286 29.5113C45.5617 28.8983 42.0885 26.878 38.9103 25.0392C35.7322 23.2004 32.4633 21.3163 31.6461 20.8396C30.8289 20.3628 28.5361 19.0462 26.5384 17.8885C24.5407 16.7307 22.248 15.4141 21.4307 14.9374C20.6135 14.4606 17.9575 12.9397 15.5285 11.5322C9.64901 8.14981 8.01455 7.19638 7.42433 6.83316C6.94761 6.56075 6.90221 6.35645 6.90221 4.63119V2.72431L6.10768 2.2476C4.17811 1.08986 3.8149 0.930951 3.56519 1.02175ZM5.26775 2.06599C5.90337 2.40651 6.44819 2.72431 6.44819 2.79242C6.44819 2.92862 4.24621 4.04096 4.01921 4.04096C3.9284 4.01826 4.33702 3.74585 4.97264 3.42804C5.85797 2.97403 6.03958 2.79242 5.76717 2.63351C3.47439 1.24876 3.24738 0.999056 5.26775 2.06599ZM4.72293 2.3157L5.60826 2.72431L4.65483 3.26914C4.11001 3.56425 3.63329 3.81395 3.58789 3.81395C3.54249 3.81395 3.49709 3.33724 3.49709 2.76972C3.49709 2.2022 3.56519 1.77088 3.67869 1.81629C3.7695 1.86169 4.24621 2.08869 4.72293 2.3157ZM6.6752 4.72199C6.6752 5.58462 6.6298 6.31104 6.5617 6.31104C6.5163 6.31104 5.94878 5.99323 5.31315 5.63002C4.11001 4.92629 3.7241 4.90359 3.7241 5.58461C3.7241 6.22024 2.54365 10.8512 2.38475 10.8512C2.31665 10.8512 2.27124 9.60266 2.31665 8.059L2.38475 5.28951L4.35972 4.24527C5.44936 3.65505 6.40279 3.17833 6.5163 3.15563C6.6071 3.15563 6.6752 3.83666 6.6752 4.72199ZM3.9511 4.15446C3.9511 4.19987 3.51979 4.47227 3.02037 4.74468C2.31665 5.0852 2.02154 5.1533 1.81723 4.94899C1.63562 4.76739 1.65832 4.72199 1.90803 4.81279C2.08964 4.8809 2.56636 4.74468 2.92957 4.49498C3.58789 4.06366 3.9511 3.92746 3.9511 4.15446ZM1.90803 31.8721C1.90803 49.4426 1.83993 58.2732 1.68102 58.1824C1.52212 58.0916 1.45402 48.9886 1.45402 31.5997C1.45402 14.0293 1.52212 5.1987 1.68102 5.28951C1.83993 5.38031 1.90803 14.4833 1.90803 31.8721ZM5.17695 5.87973C6.17578 6.44725 6.26659 6.69695 5.31315 6.19754C4.94994 5.99323 4.63213 5.90243 4.63213 5.94783C4.63213 6.15214 5.60826 6.60616 6.13038 6.67426C6.6071 6.71966 13.0314 10.3291 13.0314 10.5561C13.0314 10.6469 10.33 9.19404 9.3993 8.58112C8.44586 7.9455 6.08498 6.69696 6.33469 6.94667C6.47089 7.08287 7.17462 7.53689 7.92375 7.9682C8.67287 8.39952 10.0576 9.19404 10.9884 9.71616C11.9191 10.261 12.8952 10.715 13.1676 10.7604C13.4173 10.7831 14.3935 11.2371 15.3242 11.7592C16.2549 12.3041 17.7986 13.1894 18.7747 13.7342C19.7282 14.279 20.5227 14.7784 20.5227 14.8465C20.5227 14.9828 19.6147 14.506 16.6863 12.8035C13.6897 11.0328 13.2584 10.8058 13.2584 10.9193C13.2584 11.0328 15.4604 12.3268 23.7008 17.0939C30.8743 21.2255 31.8731 21.8157 34.7788 23.541C36.05 24.3128 37.1624 24.9257 37.2078 24.9257C37.2986 24.9257 38.2066 25.4478 43.2235 28.4443C45.1758 29.5794 47.6729 30.9187 47.4231 30.669C47.3096 30.5555 44.4947 28.8756 41.1804 26.9915C37.8661 25.0846 34.461 23.1096 33.5757 22.5875C32.713 22.0881 31.4191 21.339 30.7381 20.9304C30.057 20.5444 28.468 19.6137 27.2194 18.91C25.9709 18.1836 24.4953 17.3209 23.9278 16.9804C23.3603 16.6399 22.4296 16.0951 21.8393 15.7546C21.2264 15.4141 20.7497 15.0963 20.7497 15.0282C20.7497 14.9601 20.8178 14.96 20.9313 15.0055C21.0902 15.0963 24.2683 16.935 35.6187 23.4956C39.5006 25.7429 43.8818 28.2627 45.3801 29.1254C46.8783 29.988 48.1723 30.7825 48.2404 30.896C48.3085 30.9868 49.1257 30.669 50.0564 30.1696C50.9872 29.6475 51.8498 29.2389 52.0087 29.2389C52.2811 29.2389 54.5739 30.6009 54.5739 30.7598C54.5739 30.8052 53.9837 30.5328 53.2345 30.1242L51.9179 29.3978L50.1245 30.3739C48.0361 31.5089 48.1042 31.4635 48.3085 31.6678C48.3993 31.7586 48.5355 31.7359 48.6263 31.5997C48.7625 31.35 51.4412 29.9199 51.7363 29.9199C51.8044 29.9199 51.8498 31.1911 51.8498 32.7575C51.8498 34.3238 51.759 35.5951 51.6455 35.5951C51.532 35.5951 51.2596 35.0503 51.0326 34.3919C50.8283 33.7563 50.5559 33.0753 50.4424 32.9391C50.3061 32.7802 50.2607 32.5078 50.3288 32.3262C50.4423 32.0311 49.8521 31.2819 49.5343 31.2819C49.0576 31.2819 48.8987 33.2342 48.8987 38.8413C48.8987 44.1533 48.9441 44.9932 49.2619 45.2202C49.557 45.4472 49.5797 45.6288 49.3754 46.2645L49.1257 47.059L49.2392 46.3326C49.2846 45.9239 49.2392 45.538 49.1257 45.4699C48.9895 45.3791 48.876 52.5299 48.8306 65.1515C48.8079 78.4769 48.7852 76.2749 48.7852 58.4094V31.8495L48.2631 31.804C47.8772 31.7813 47.8091 31.8494 47.9907 32.0538C48.1269 32.2581 48.2404 41.1341 48.2631 58.7045C48.3085 73.2103 48.3085 85.0828 48.2858 85.0828C48.2631 85.0828 48.1042 85.0147 47.8999 84.9466C47.582 84.8104 47.5366 82.2679 47.5366 58.2959C47.5366 34.9595 47.582 31.7359 47.8772 31.4181C48.0815 31.2138 48.1269 31.0322 47.9907 30.9414C47.8772 30.8733 47.7637 30.9187 47.7637 31.0322C47.7637 31.5543 47.7183 31.5316 40.0454 27.0823C38.6833 26.3105 34.3475 23.7907 29.83 21.1801C28.2637 20.272 25.8347 18.8646 24.4272 18.0247C23.0198 17.2074 21.4307 16.2767 20.9086 15.9816C19.8871 15.4141 19.2287 15.0282 13.4854 11.7138C4.65483 6.60616 4.29162 6.37914 4.26892 5.87973C4.22351 5.28951 4.20081 5.28951 5.17695 5.87973ZM5.04074 7.06017C5.49476 7.35528 6.6525 8.0363 7.58323 8.58112C8.51397 9.12594 10.0122 9.98858 10.8748 10.5107C11.7602 11.0328 12.9179 11.7138 13.4854 12.0316C14.6432 12.69 15.9371 13.4391 23.5873 17.8885C26.9924 19.8634 29.2171 21.1574 31.0105 22.1789C31.4191 22.4059 32.3725 22.9507 33.1216 23.382C33.8708 23.8361 36.1181 25.13 38.1158 26.2878C40.1135 27.4455 42.3609 28.7621 43.11 29.1935C43.8591 29.6248 45.1077 30.3512 45.9022 30.7825C46.674 31.2365 47.3096 31.6678 47.3096 31.7813C47.3096 32.19 47.2188 32.1446 41.1804 28.6259C35.7322 25.4705 30.3067 22.3378 26.3114 20.045C24.3137 18.8873 20.7951 16.8442 18.4796 15.5049C16.1641 14.1655 12.6001 12.0997 10.5343 10.9193C4.35972 7.35528 3.9511 7.12827 3.9511 6.81046C3.9511 6.42455 4.06461 6.44725 5.04074 7.06017ZM5.81257 8.55843C6.85681 9.17135 10.2619 11.1463 13.3719 12.9397C22.1344 18.002 36.436 26.2877 42.0885 29.5567L47.1961 32.5305L47.0826 34.3919L46.9691 36.2761L44.472 34.8233C36.5722 30.2604 19.1152 20.2039 14.053 17.2528C13.3038 16.8215 11.6694 15.8681 10.4208 15.1644C9.17229 14.4606 7.49243 13.4845 6.6752 13.0078C5.85797 12.5311 4.65483 11.85 3.99651 11.4641C3.13388 10.9874 2.83877 10.6923 2.90687 10.4426C2.97497 10.2156 3.17928 9.46645 3.38358 8.74003C3.58789 8.0363 3.7922 7.44609 3.8603 7.44609C3.9057 7.44609 4.79103 7.9455 5.81257 8.55843ZM6.94761 13.4164C8.99068 14.5968 11.624 16.1178 12.8044 16.7988C15.869 18.5922 19.0698 20.4309 22.3388 22.3151C23.9051 23.2231 26.1979 24.5398 27.4464 25.2662C32.032 27.9222 44.2904 35.0049 45.7887 35.8675C46.6513 36.3669 47.3096 36.8209 47.2415 36.8663C47.1961 36.9344 46.2881 36.4804 45.2439 35.8675C44.1996 35.2546 37.8207 31.5543 31.0786 27.6498C24.3364 23.7453 15.2107 18.456 10.8067 15.9135C6.40279 13.3483 2.72526 11.3052 2.67986 11.3733C2.54365 11.4868 2.92957 11.7138 8.71827 15.0508C12.1007 17.0031 24.9947 24.4717 27.3329 25.8337C31.1921 28.0811 33.6438 29.4886 40.0454 33.2115C47.0826 37.2976 47.4912 37.5474 47.2642 37.7517C47.1961 37.8198 44.0861 36.0945 40.3632 33.9379C36.6403 31.7813 30.1478 28.0357 25.9709 25.6067C21.7939 23.2004 17.7986 20.885 17.1176 20.4763C16.0506 19.8634 6.31199 14.2336 3.33818 12.5311C2.40745 12.0089 2.15774 11.5776 2.52095 11.2144C2.74796 11.0101 2.83876 11.0328 6.94761 13.4164ZM3.06577 12.6673C3.54249 12.9397 3.51979 13.0305 2.88417 15.3233C2.70256 15.9816 2.49825 16.5264 2.40745 16.5264C2.31665 16.5264 2.27124 15.6184 2.31665 14.4833C2.36205 13.371 2.45285 12.4403 2.49825 12.4403C2.56636 12.4403 2.81606 12.5538 3.06577 12.6673ZM12.3504 18.0928C16.8906 20.7261 19.0244 21.9746 21.2037 23.2458C23.8824 24.8122 26.9243 26.5602 30.3975 28.5578C32.3952 29.7156 34.688 31.0322 35.5052 31.5089C39.1828 33.6655 45.6752 37.3884 46.3335 37.729C47.0599 38.0922 47.0599 38.0922 47.128 40.1352C47.1961 42.1556 47.1507 42.3826 46.7194 41.974C46.6059 41.8378 45.4936 41.1795 44.245 40.4531C42.9965 39.7493 41.3847 38.8186 40.681 38.41C38.706 37.2522 36.6403 36.0491 35.6187 35.4816C35.1193 35.1865 32.4633 33.6655 29.7165 32.0765C26.9697 30.4874 22.4296 27.8541 19.6147 26.2423C13.7125 22.8372 14.3027 23.155 9.28579 20.272C7.17462 19.0462 4.88184 17.7295 4.24621 17.389C3.58789 17.0258 3.02037 16.6626 2.97497 16.5718C2.90687 16.481 3.06577 15.6865 3.31548 14.8011L3.7695 13.1667L5.83527 14.3471C6.99301 15.0055 9.92142 16.6853 12.3504 18.0928ZM5.35855 18.2517C6.766 19.0916 9.5809 20.7261 11.624 21.8838C13.6443 23.0642 16.9587 24.9711 19.0017 26.1515C27.8096 31.2365 33.0762 34.2784 33.7573 34.6644C34.4156 35.0503 40.7264 38.7051 44.472 40.8844C47.1734 42.428 47.4458 42.6323 47.0599 42.6323C46.8783 42.6323 46.6286 42.5415 46.4924 42.428C46.2881 42.2237 40.4086 38.8186 15.3015 24.2901C8.49127 20.3628 2.83877 17.0485 2.72526 16.9577C2.18044 16.4583 2.97497 16.8669 5.35855 18.2517ZM4.24621 18.1836C6.539 19.5683 7.69674 20.2266 19.7282 27.1958C25.6077 30.6009 31.0559 33.7563 31.8731 34.233C32.6903 34.7098 36.4587 36.889 40.2724 39.1137C44.0861 41.3157 47.2415 43.1545 47.2869 43.2226C47.3323 43.268 47.3096 43.3815 47.2415 43.4496C47.1734 43.5404 44.3131 41.9967 40.908 40.0217C34.234 36.1626 24.3364 30.442 13.2584 24.0177C9.4447 21.8157 5.44936 19.5002 4.35972 18.8873C3.24738 18.2744 2.36205 17.6387 2.36205 17.4798C2.36205 17.0712 2.43015 17.1166 4.24621 18.1836ZM2.99767 18.5014C3.45169 18.91 3.45169 18.9327 3.04307 20.6125C2.58906 22.474 2.63446 22.6556 3.7468 23.1096C4.11001 23.2685 4.38242 23.4502 4.31432 23.4956C4.26892 23.541 3.9057 23.4274 3.49709 23.2231C3.08847 23.0188 2.72526 22.8826 2.67986 22.9507C2.63446 22.9961 4.49592 24.1539 6.83411 25.4932C9.19499 26.8326 11.6694 28.2854 12.3504 28.694C13.0314 29.1027 18.4115 32.19 24.2683 35.5951C30.1478 38.9775 35.5052 42.0875 36.1862 42.4961C36.8673 42.9047 39.6141 44.4938 42.2701 46.0148C44.9034 47.5584 47.1507 48.8978 47.2188 49.034C47.4912 49.4653 47.0826 49.488 46.4697 49.0567C46.1292 48.807 44.3585 47.7627 42.5425 46.7185C40.7264 45.6742 38.6833 44.4938 38.0023 44.1079C37.3213 43.722 35.4144 42.6096 33.7573 41.6562C32.1228 40.7028 28.4907 38.6143 25.6985 37.0025C22.9063 35.3681 17.4127 32.19 13.4854 29.9199C9.5582 27.6498 5.76717 25.4705 5.08614 25.0392C4.40512 24.6306 3.49709 24.1312 3.08847 23.9269C2.45285 23.5864 2.33935 23.4502 2.45285 22.9734C2.54365 22.6783 2.52095 22.4286 2.43015 22.4286C2.31665 22.4286 2.24854 21.4525 2.24854 20.272C2.24854 19.0916 2.31665 18.1155 2.38475 18.1155C2.47555 18.1155 2.74796 18.2971 2.99767 18.5014ZM6.17578 20.3174C7.37893 21.0212 8.94528 21.9065 9.62631 22.3151C10.3073 22.701 12.5093 23.9723 14.507 25.13C16.5046 26.2878 20.9086 28.8302 24.2683 30.7825C27.6507 32.7121 30.9651 34.6416 31.6461 35.0276C32.3271 35.4362 33.8708 36.3215 35.0512 37.0025C36.2316 37.6836 38.9557 39.2499 41.0669 40.4758C43.2008 41.7016 45.4482 42.9955 46.0611 43.3361L47.1961 43.9717L47.0826 46.0375C47.0145 47.1952 47.0599 48.194 47.1734 48.3302C47.4685 48.6026 47.0372 48.6026 46.7194 48.3302C46.6059 48.2167 41.7706 45.3791 35.9592 42.0194C30.1478 38.6597 20.6816 33.1661 14.8929 29.8064C9.12689 26.4694 4.45052 23.6772 4.49592 23.6091C4.56403 23.541 4.74563 23.6091 4.90454 23.7226C5.06344 23.8588 6.539 24.7214 8.15075 25.6521C11.6013 27.6498 17.6397 31.123 21.6577 33.4385C23.2241 34.3465 26.6973 36.3669 29.376 37.9106C38.3428 43.109 41.9523 45.1975 44.3131 46.5596C45.6071 47.286 46.6967 47.8535 46.7421 47.8081C46.8329 47.7173 45.9476 47.1952 43.2235 45.6515C42.7922 45.4018 41.4074 44.6073 40.1589 43.8809C38.9103 43.1544 36.5722 41.7924 34.9377 40.8617C33.3259 39.9309 31.4191 38.8186 30.7381 38.4327C30.057 38.0241 27.7642 36.7074 25.6304 35.4816C20.4546 32.5078 19.6601 32.0311 17.0041 30.4874C14.4843 29.0118 12.4639 27.8541 11.1019 27.0823C10.6024 26.7872 9.4901 26.1515 8.60477 25.6294C7.74214 25.13 6.06228 24.1766 4.90454 23.5183C3.40629 22.6783 2.83877 22.247 2.90687 21.9973C2.97497 21.793 3.17928 21.0439 3.38358 20.3174C3.58789 19.6137 3.7922 19.0235 3.8603 19.0235C3.9057 19.0235 4.94994 19.591 6.17578 20.3174ZM2.97497 24.1993L3.47439 24.5852L3.04307 26.2651C2.81606 27.1731 2.54365 28.013 2.43015 28.1265C2.33935 28.2173 2.24854 27.2866 2.24854 26.038C2.24854 24.8122 2.29395 23.7907 2.36205 23.7907C2.43015 23.7907 2.70256 23.9723 2.97497 24.1993ZM7.92375 27.0823C9.17229 27.8087 10.7613 28.7167 11.4424 29.1254C12.1234 29.5113 14.0757 30.6463 15.7555 31.6224C17.4354 32.5986 19.7963 33.9606 20.9767 34.6416C23.1787 35.9129 24.3137 36.5939 30.9651 40.4077C33.0308 41.5881 37.0716 43.9263 39.9319 45.5834C42.8149 47.2633 45.5844 48.8524 46.1065 49.1475L47.0599 49.6923L47.128 51.9624C47.1734 53.1882 47.1734 54.2097 47.128 54.2097C46.8783 54.2097 45.6979 53.4833 45.7887 53.3698C45.8568 53.3244 46.1292 53.3925 46.4016 53.5287C46.6967 53.6876 46.8556 53.7103 46.7648 53.5741C46.674 53.4379 46.0838 53.0293 45.4255 52.6661C44.7899 52.3029 43.5186 51.5991 42.6106 51.077C41.7252 50.5549 40.6356 49.942 40.227 49.6923C39.8184 49.4653 38.8422 48.8978 38.0704 48.4437C37.2759 47.9897 36.0046 47.2633 35.2328 46.8093C34.4383 46.3553 33.5076 45.8104 33.1216 45.5834C32.7584 45.3791 31.1694 44.4484 29.603 43.5404C28.0367 42.6323 25.7439 41.293 24.4953 40.5893C23.2468 39.8855 21.6123 38.9321 20.8632 38.5008C20.1141 38.0695 19.1379 37.5019 18.7066 37.2522C18.2753 37.0025 15.3015 35.2773 12.1234 33.4385C1.68102 27.4001 2.83877 28.1719 3.04307 27.3547C3.15658 26.9461 3.36088 26.1969 3.49709 25.6521L3.7468 24.676L4.70023 25.2208C5.22235 25.5159 6.6752 26.3559 7.92375 27.0823ZM7.94645 31.3273C10.8067 32.9618 13.4627 34.4827 13.826 34.687C14.2119 34.9141 16.7544 36.3896 19.5012 37.9787C22.248 39.5677 26.1752 41.8378 28.241 43.0409C32.5541 45.5153 37.2986 48.2621 42.2701 51.1451C44.1769 52.2348 45.6752 53.1882 45.6298 53.2336C45.5844 53.3017 43.8137 52.3483 41.7025 51.1224C39.6141 49.9193 36.6176 48.194 35.0512 47.286C33.4848 46.378 30.0116 44.3803 27.3329 42.8139C24.6542 41.2703 19.0244 38.0241 14.8475 35.5951C10.6705 33.1888 6.7887 30.9414 6.22118 30.6009C5.65366 30.2604 4.60943 29.6475 3.9057 29.2616C2.74796 28.6032 2.38475 28.3308 2.67986 28.3308C2.72526 28.3308 5.10885 29.6702 7.94645 31.3273ZM6.47089 31.0776C8.65017 32.3489 11.0792 33.7563 11.8964 34.233C13.3492 35.073 20.0233 38.9321 35.0512 47.6265C42.1112 51.7127 46.2654 54.1189 47.0826 54.6184C47.2642 54.7319 47.355 54.9135 47.2869 54.9816C47.1961 55.0724 45.8114 54.3913 44.2223 53.4606C32.3952 46.6504 27.9232 44.0625 26.6519 43.3134C25.8347 42.8366 21.862 40.5212 17.7986 38.183C13.7352 35.8448 8.65017 32.8937 6.47089 31.6451C4.29162 30.3739 2.47555 29.2162 2.40745 29.0572C2.36205 28.921 2.36205 28.7848 2.43015 28.7848C2.47555 28.7848 4.29162 29.8064 6.47089 31.0776ZM3.08847 30.0788C3.40629 30.442 3.40629 30.6463 3.15658 31.6224C2.52095 34.1649 2.40745 33.8471 4.29162 34.9368C6.35739 36.1626 6.35739 36.4123 4.29162 35.2546C3.45169 34.8006 2.74796 34.46 2.67986 34.5054C2.63446 34.5735 5.47206 36.2761 8.99068 38.3192C20.8405 45.1521 29.4668 50.169 30.9651 51.0316C31.7823 51.5083 35.2101 53.4833 38.5698 55.4356C46.1973 59.8395 47.4912 60.6114 47.1734 60.7249C46.9691 60.793 44.5628 59.4763 38.6833 56.0258C37.8661 55.5491 34.5972 53.6649 31.4191 51.8262C28.241 49.9874 24.972 48.1032 24.1548 47.6265C23.3376 47.1498 21.0448 45.8331 19.0471 44.6754C14.9383 42.3145 11.6921 40.4304 9.85331 39.3407C9.17229 38.9548 7.19732 37.7971 5.47206 36.8209C2.67986 35.2092 2.36205 34.9822 2.47555 34.5054C2.54365 34.233 2.52095 34.006 2.43015 34.006C2.31665 34.006 2.24854 33.0299 2.24854 31.8495C2.24854 29.6248 2.40745 29.307 3.08847 30.0788ZM53.3254 30.442L54.2334 30.9641L54.3015 57.3425C54.3242 71.8483 54.2788 83.7208 54.188 83.7208C54.0745 83.7208 53.5978 83.4711 53.121 83.176L52.2357 82.6539L52.213 56.2755C52.1903 41.7924 52.2357 29.9199 52.3038 29.9199C52.3719 29.9199 52.8259 30.1696 53.3254 30.442ZM7.46973 32.5759C8.35506 33.098 12.2823 35.3681 16.2095 37.6382C20.1368 39.9082 24.0186 42.1556 24.8358 42.6323C25.6531 43.109 28.922 44.9932 32.1001 46.832C39.7957 51.2813 40.8853 51.8943 42.0885 52.6207C42.656 52.9612 44.0634 53.7784 45.1985 54.4367C46.3562 55.0951 47.2642 55.6853 47.1961 55.7761C47.1507 55.8669 47.0826 56.8203 47.0599 57.91C47.0372 58.9996 46.9918 59.8849 46.9464 59.8849C46.8783 59.8849 39.4325 55.5945 35.5052 53.3017C34.688 52.825 31.6915 51.0997 28.8085 49.4426C25.9482 47.7854 22.7701 45.9467 21.7712 45.3564C20.7724 44.7662 16.7998 42.4734 12.9633 40.2487C9.12689 38.0241 6.01688 36.1626 6.08498 36.1172C6.15308 36.0491 6.78871 36.3669 7.51513 36.7982C8.24156 37.2295 11.4424 39.091 14.6205 40.9298C17.7986 42.7685 21.0675 44.6527 21.8847 45.1294C23.9959 46.3553 29.8754 49.7604 33.3486 51.7581C34.9831 52.6888 37.2759 54.0281 38.4563 54.7092C44.4039 58.1597 46.6513 59.4309 46.8102 59.4309C47.0599 59.4309 46.1746 58.8861 43.11 57.1154C41.4982 56.1847 38.7741 54.6184 37.0943 53.6422C35.4144 52.6661 33.3486 51.4856 32.5087 51.0089C31.6688 50.5322 30.6472 49.942 30.2386 49.6923C29.149 49.0794 26.8562 47.74 25.358 46.8547C24.6315 46.4461 23.0198 45.5153 21.7712 44.7889C20.5227 44.0625 18.8882 43.1091 18.1391 42.6777C17.39 42.2464 15.7555 41.293 14.507 40.5893C13.2584 39.8855 11.624 38.9321 10.8748 38.5008C10.1257 38.0695 8.03725 36.8663 6.22118 35.8221C4.40512 34.7779 2.90687 33.9152 2.88417 33.9152C2.86147 33.8925 3.04307 33.098 3.31548 32.1446L3.7922 30.4193L4.83644 31.0322C5.40396 31.3727 6.6071 32.0765 7.46973 32.5759ZM54.7328 70.6224C54.7101 77.8867 54.6874 71.9391 54.6874 57.3879C54.6874 42.8366 54.7101 36.889 54.7328 44.176C54.7782 51.4402 54.7782 63.3355 54.7328 70.6224ZM49.7159 32.3035C49.6705 33.0753 49.4662 33.5066 49.2392 33.3023C49.1257 33.1661 49.557 31.5089 49.6932 31.5089C49.7386 31.5089 49.7613 31.8721 49.7159 32.3035ZM50.2607 33.098C50.2607 33.2115 50.1472 33.325 50.011 33.325C49.8975 33.325 49.8521 33.2115 49.9202 33.098C49.9883 32.9618 50.1018 32.871 50.1699 32.871C50.2153 32.871 50.2607 32.9618 50.2607 33.098ZM49.4662 34.5281C49.3527 35.073 49.3754 35.1638 49.557 34.9141C49.6932 34.7325 49.8067 34.4146 49.8067 34.2103C49.8067 33.8244 50.3515 33.4839 50.5786 33.7109C50.6467 33.8017 50.7148 34.006 50.6921 34.2103C50.6921 34.4827 50.624 34.46 50.4878 34.1195C50.3061 33.6882 50.2834 33.6882 50.2834 34.1649C50.2607 34.4373 50.3742 34.9368 50.5332 35.2546C50.8737 36.0264 50.6921 36.1399 49.8521 35.6632C49.2619 35.3227 49.1484 35.1411 49.1938 34.4146C49.2165 33.9606 49.3073 33.6428 49.4208 33.7109C49.5116 33.779 49.5343 34.1422 49.4662 34.5281ZM51.5547 35.8221C51.7136 35.8221 51.8498 36.0037 51.8498 36.208C51.8498 36.5031 51.7817 36.5258 51.6001 36.3442C51.4639 36.208 51.2142 36.1172 51.078 36.1853C50.9191 36.2534 50.8283 35.9583 50.8056 35.4362C50.7829 34.5962 50.7829 34.5962 51.0099 35.1865C51.1461 35.5497 51.3958 35.8221 51.5547 35.8221ZM2.97497 35.7767C3.42899 36.1172 3.47439 36.2761 3.29278 36.9571C3.15658 37.3884 2.95227 38.183 2.81606 38.7051C2.67986 39.2499 2.49825 39.6812 2.40745 39.6812C2.31665 39.6812 2.24854 38.7051 2.24854 37.5246C2.24854 36.3442 2.29395 35.3681 2.36205 35.3681C2.43015 35.3681 2.70256 35.5497 2.97497 35.7767ZM51.5547 36.8663C51.7817 36.7755 51.8498 37.2749 51.8498 39.0002C51.8498 40.226 51.759 41.293 51.6455 41.3611C51.5547 41.4292 51.2823 40.9071 51.0553 40.1806C50.8283 39.4769 50.5786 38.7959 50.4651 38.6597C50.3515 38.5462 50.2607 38.2284 50.2607 37.956C50.2607 37.2749 49.6251 36.7528 49.33 37.2068C49.1938 37.4338 49.1257 37.2522 49.1711 36.5939L49.2165 35.6632L50.238 36.3215C50.8056 36.662 51.3958 36.9117 51.5547 36.8663ZM8.62747 39.0229C11.2381 40.5212 14.0303 42.1556 14.8475 42.6323C15.6647 43.109 18.9336 44.9932 22.1117 46.832C25.2899 48.6707 28.468 50.4868 29.149 50.8954C31.2602 52.144 33.3713 53.3698 38.7968 56.4798C41.6798 58.137 44.699 59.8849 45.539 60.3844L47.0599 61.247L47.128 63.5171C47.1734 64.9699 47.1053 65.7645 46.9691 65.7191C46.8556 65.6736 46.7421 65.492 46.7421 65.3331C46.7421 65.0153 45.8568 64.4478 40.3859 61.2924C38.7741 60.3617 36.1181 58.818 34.4837 57.8873C32.8719 56.9565 29.8527 55.2086 27.7869 54.0281C25.7212 52.8477 23.4284 51.5083 22.6793 51.077C21.9301 50.6457 20.2957 49.6923 19.0471 48.9886C16.936 47.7854 14.8021 46.5596 13.1449 45.5834C12.7817 45.3564 11.8283 44.8116 11.0565 44.3576C10.2619 43.9036 8.99068 43.1772 8.21886 42.7004C7.42433 42.2464 5.90337 41.3838 4.81374 40.7709C3.7014 40.1579 2.81606 39.6131 2.81606 39.5904C2.81606 39.545 2.90687 39.2272 3.04307 38.864C3.15658 38.5008 3.36088 37.7744 3.49709 37.2295C3.63329 36.7074 3.7695 36.2761 3.8149 36.2761C3.8376 36.2761 6.01688 37.5019 8.62747 39.0229ZM49.6932 38.4781C49.6024 38.8413 49.4889 39.5677 49.4662 40.1125C49.3527 41.4746 49.1484 41.5654 49.1484 40.226C49.1484 38.7732 49.33 37.8652 49.6251 37.8652C49.7613 37.8652 49.784 38.1149 49.6932 38.4781ZM50.2607 38.864C50.2607 38.9321 50.1699 39.0456 50.0337 39.1137C49.9202 39.1818 49.8067 39.1364 49.8067 39.0229C49.8067 38.8867 49.9202 38.7732 50.0337 38.7732C50.1699 38.7732 50.2607 38.8186 50.2607 38.864ZM50.8283 40.385C51.0553 41.0206 51.3504 41.5881 51.532 41.6562C51.7136 41.7243 51.8498 41.8605 51.8498 41.9513C51.8498 42.201 50.6694 41.9286 50.0791 41.5427C49.6251 41.2476 49.557 41.066 49.6932 40.385C49.8294 39.7266 50.1018 39.2499 50.4196 39.2272C50.4423 39.2272 50.624 39.7493 50.8283 40.385ZM6.06228 41.7697C7.83294 42.7685 9.85331 43.949 10.5343 44.3349C11.2154 44.7208 13.1222 45.8331 14.734 46.7639C16.3684 47.6946 18.7066 49.0567 19.9552 49.7831C21.2037 50.5095 23.9051 52.0759 25.9709 53.2563C28.0367 54.4595 31.2602 56.3209 33.1216 57.3879C35.0058 58.4775 38.2747 60.3617 40.3859 61.5875C42.5198 62.8133 44.7672 64.13 45.4255 64.5159C46.0838 64.8791 46.5605 65.2423 46.5151 65.2877C46.4697 65.3558 44.6536 64.357 42.4971 63.1085C34.1205 58.2505 14.0076 46.6277 8.83178 43.6539C3.17928 40.4077 2.36205 39.9082 2.67986 39.9082C2.77066 39.9082 4.31432 40.7482 6.06228 41.7697ZM8.89988 44.0171C12.3504 46.0148 16.2095 48.2621 17.4581 48.9886C18.7066 49.715 21.9755 51.5991 24.7223 53.1882C27.4691 54.7773 30.6472 56.616 31.7596 57.2744C32.8946 57.91 35.5506 59.4536 37.6618 60.6568C39.7957 61.8826 42.0885 63.222 42.7695 63.6306C43.4505 64.0392 44.699 64.7429 45.539 65.1969C46.3789 65.6736 47.1507 66.1504 47.2188 66.2639C47.5139 66.7633 47.0826 66.6952 46.0384 66.0596C45.4255 65.6964 44.2223 64.9926 43.337 64.4932C42.4744 63.9938 40.8853 63.0631 39.8184 62.4501C38.7514 61.8145 35.4825 59.9303 32.5541 58.2505C25.7439 54.3232 13.3719 47.1498 11.4424 46.0375C10.6251 45.5607 8.26426 44.1987 6.17578 42.9728C2.95227 41.1114 1.88533 40.3623 2.47555 40.3623C2.54365 40.3623 5.42666 41.9967 8.89988 44.0171ZM3.08847 41.5881C3.45169 41.8605 3.45169 41.974 3.02037 43.6312C2.77066 44.6073 2.61176 45.4472 2.67986 45.5153C2.72526 45.5834 2.90687 45.1748 3.04307 44.6527C3.17928 44.1079 3.40629 43.2907 3.56519 42.8366L3.8376 41.9967L7.35623 44.0398C9.28579 45.1748 11.5332 46.4688 12.3504 46.9455C13.1676 47.4222 16.4365 49.3064 19.6147 51.1451C22.7928 52.9839 26.3341 55.027 27.4464 55.6853C28.5815 56.3436 29.8981 57.1154 30.3975 57.3879C31.4872 58.0008 42.1339 64.1527 43.9045 65.1969C44.5855 65.6055 45.5844 66.1731 46.1065 66.4682L47.0599 66.9903L47.128 69.2377C47.1734 70.4635 47.1507 71.4624 47.1053 71.4624C46.8102 71.4624 44.1088 69.8052 44.2223 69.7144C44.2904 69.6236 44.8807 69.896 45.5163 70.3046C46.1519 70.6905 46.7194 70.9856 46.7875 70.9402C46.8783 70.8494 43.4732 68.8064 38.5698 66.0142C37.3213 65.3104 35.6868 64.357 34.9377 63.9257C34.1886 63.4944 31.8958 62.155 29.83 60.9746C27.7642 59.7714 23.837 57.5014 21.0902 55.9123C18.3434 54.3232 15.6874 52.8023 15.188 52.5072C6.83411 47.7173 3.7922 45.9694 3.61059 45.7877C3.33818 45.5153 2.97497 45.5153 3.15658 45.8104C3.33818 46.1056 3.13388 46.1056 2.63446 45.7877C2.29395 45.5834 2.24854 45.2429 2.31665 43.4042C2.36205 42.2237 2.45285 41.2703 2.54365 41.2703C2.63446 41.2703 2.88417 41.4065 3.08847 41.5881ZM51.6228 42.5188C51.7817 42.428 51.8498 43.1544 51.8498 44.6527C51.8498 45.9012 51.759 46.9682 51.6455 47.0363C51.4412 47.1725 50.4197 44.5392 50.3515 43.7447C50.3061 43.1771 50.0337 42.8593 49.6251 42.882C49.3754 42.882 49.3527 42.9501 49.5343 43.0182C49.8521 43.1545 49.8975 44.176 49.5797 44.6754C49.2619 45.1975 49.103 44.8343 49.33 44.0398C49.4662 43.5858 49.4662 43.3134 49.3073 43.268C49.1484 43.1999 49.1257 42.8593 49.2165 42.3372L49.3754 41.4973L50.3742 42.0875C50.9418 42.4053 51.4866 42.6096 51.6228 42.5188ZM50.3969 45.7423C50.4197 46.2191 50.4878 46.832 50.6013 47.1271C50.7602 47.6265 50.7375 47.6265 50.1699 47.3541C49.6024 47.1044 49.557 46.9909 49.6932 46.2872C49.8294 45.6288 50.1699 44.9024 50.3515 44.9024C50.3742 44.9024 50.3969 45.2883 50.3969 45.7423ZM7.81024 49.1702C9.87601 50.3733 13.1222 52.2348 15.0291 53.3471C16.9133 54.4367 20.046 56.2528 21.9528 57.3425C23.837 58.4548 27.1513 60.3617 29.2625 61.5875C31.3964 62.8133 34.7107 64.7202 36.6403 65.8553C38.5698 66.9676 41.7706 68.8064 43.7456 69.9187C46.9464 71.7575 47.7637 72.3704 47.0826 72.3704C46.9691 72.3704 46.3789 72.0753 45.7887 71.7121C45.1758 71.3716 40.6583 68.7383 35.7322 65.9007C30.8062 63.0404 25.8801 60.2028 24.7904 59.5671C23.7235 58.9315 18.2299 55.7534 12.6001 52.5072C6.97031 49.261 2.38475 46.4688 2.36205 46.3099C2.36205 46.0829 2.61176 46.1283 3.22468 46.4915C3.67869 46.7866 5.74447 47.9897 7.81024 49.1702ZM6.38009 47.7173C15.2334 52.8023 21.9301 56.6841 24.518 58.2051C25.6531 58.8634 26.8335 59.5444 27.1286 59.7033C29.2398 60.8384 44.0861 69.5328 44.018 69.6009C43.9726 69.669 42.7241 69.0107 41.2485 68.148C38.2066 66.4001 27.2421 60.0666 23.8143 58.0689C22.5658 57.3425 19.9552 55.8442 18.0256 54.7319C5.72177 47.6265 3.58789 46.4007 3.40629 46.2191C2.83877 45.7423 3.7241 46.1737 6.38009 47.7173ZM51.5547 47.3995C51.7136 47.3995 51.8498 47.5811 51.8271 47.7854C51.8271 48.0351 51.759 48.0805 51.6909 47.8989C51.6455 47.7627 51.4412 47.6265 51.2596 47.6265C51.078 47.6265 50.9418 47.5584 50.9418 47.4449C50.9418 47.3541 50.8964 47.0363 50.8283 46.7185C50.7375 46.1737 50.7375 46.1737 50.9872 46.7639C51.1461 47.1271 51.3958 47.3995 51.5547 47.3995ZM2.95227 47.3541L3.45169 47.74L3.04307 49.4426L2.61176 51.1451L3.11117 51.5537L3.61059 51.9624L3.11117 51.8262C1.83993 51.4856 2.31665 51.7581 12.2369 57.5014C14.9837 59.0904 18.1618 60.9065 19.2741 61.5648C20.4092 62.2231 27.0378 66.0596 34.0297 70.1003C41.0215 74.141 46.8783 77.5689 47.0599 77.7278C47.2415 77.9094 47.3323 78.091 47.2642 78.1591C47.1961 78.2272 45.9249 77.5916 44.4493 76.7062C42.9511 75.8436 37.9115 72.9152 33.2351 70.2138C28.5588 67.5124 24.064 64.9018 23.2468 64.4251C4.29162 53.3925 1.63562 51.8943 2.97497 53.0066C3.42899 53.3698 3.47439 53.5287 3.29278 54.2097C3.15658 54.6411 2.95227 55.4356 2.81606 55.9577C2.67986 56.5025 2.47555 56.9338 2.33935 56.9338C2.20314 56.9338 2.15774 56.843 2.22584 56.7522C2.31665 56.5933 2.45285 51.8035 2.38475 51.4856C2.27124 51.1224 2.27124 46.9455 2.36205 46.9455C2.43015 46.9455 2.70256 47.1271 2.95227 47.3541ZM50.5559 47.967C51.0099 48.2848 51.5093 48.4891 51.6455 48.421C51.7817 48.3302 51.8498 49.1929 51.8271 50.9635L51.8044 53.6649L51.1915 53.5741C50.851 53.5287 50.3515 53.3244 50.0564 53.0974C49.6251 52.7569 49.557 52.5753 49.6932 51.8943C49.784 51.4402 49.9883 51.0089 50.1699 50.9408C50.4196 50.85 50.4651 50.9408 50.3515 51.3494C50.2834 51.6219 50.3969 52.2121 50.5786 52.6434C50.9418 53.4152 50.9418 53.3698 50.6013 51.7127C50.5332 51.3948 50.6467 51.5537 50.8283 52.0532C51.0326 52.5526 51.2823 53.052 51.3958 53.1655C51.6682 53.4379 50.7375 50.5776 50.4196 50.1917C50.3061 50.0328 50.2607 49.7604 50.3288 49.5788C50.3969 49.3972 50.2607 49.0794 50.011 48.8524C49.6251 48.4891 49.5116 48.4891 49.3527 48.7615C49.1711 49.034 49.1257 48.9886 49.1257 48.6026C49.1257 48.0124 49.3527 47.3995 49.557 47.3995C49.6251 47.3995 50.0791 47.6492 50.5559 47.967ZM6.7433 49.4653C8.26426 50.3733 10.8521 51.8716 12.4639 52.8023C14.0984 53.733 16.5955 55.1859 18.0256 56.0258C19.4558 56.8657 22.0209 58.3413 23.7008 59.3174C25.3807 60.2936 28.3318 61.9961 30.2386 63.0858C32.1228 64.1981 35.2555 65.9915 37.1624 67.1038C39.0465 68.2161 42.0658 69.9414 43.8364 70.9856L47.0599 72.8471L47.128 75.1172C47.1734 76.343 47.1734 77.3646 47.1734 77.3646C47.1507 77.3646 45.766 76.57 44.1088 75.5939C42.429 74.5951 38.252 72.1888 34.8242 70.2138C31.3964 68.2388 24.8585 64.4478 20.2957 61.8145C15.7328 59.1812 10.103 55.9123 7.74214 54.5503C5.40396 53.2109 3.54249 52.0532 3.58789 52.0078C3.63329 51.9397 4.99534 52.6661 6.6071 53.5968C9.21769 55.1178 11.6467 56.5252 15.3015 58.6364C15.9825 59.0223 19.3195 60.9519 22.6793 62.8815C26.0617 64.8337 30.4429 67.3762 32.4406 68.534C34.4383 69.6917 36.6403 70.9629 37.3213 71.3489C43.2235 74.7313 46.3335 76.5473 46.5832 76.7516C46.7421 76.8878 46.8556 76.8878 46.8556 76.7516C46.8556 76.6381 46.6286 76.4111 46.3562 76.2749C46.0611 76.1387 45.3347 75.7301 44.699 75.3669C42.3609 74.0048 39.1146 72.1207 34.2567 69.3058C32.1455 68.0799 28.8085 66.1504 26.8789 65.038C24.9493 63.903 22.7928 62.6771 22.1117 62.2685C21.4307 61.8826 19.1379 60.5433 17.0041 59.3174C14.8929 58.0916 12.6909 56.843 12.1234 56.5252C11.5559 56.2074 10.3981 55.5264 9.5128 55.0043C8.65017 54.4822 7.31082 53.7103 6.5617 53.3017C5.81257 52.8931 4.70023 52.2348 4.06461 51.8716C3.45169 51.4856 2.90687 51.1678 2.86147 51.1451C2.83877 51.1224 2.90687 50.8046 3.02037 50.4414C3.15658 50.0782 3.36088 49.3518 3.49709 48.807C3.63329 48.2848 3.7922 47.8535 3.8603 47.8535C3.9057 47.8535 5.19965 48.5799 6.7433 49.4653ZM49.7159 49.942C49.6251 50.2371 49.5116 50.9635 49.4662 51.5764C49.33 53.052 49.1484 53.1882 49.1484 51.8035C49.1484 50.3279 49.33 49.4426 49.6251 49.4426C49.7613 49.4426 49.8067 49.6469 49.7159 49.942ZM50.2607 50.4414C50.2607 50.5095 50.1699 50.623 50.0337 50.6911C49.9202 50.7592 49.8067 50.7138 49.8067 50.6003C49.8067 50.4641 49.9202 50.3506 50.0337 50.3506C50.1699 50.3506 50.2607 50.396 50.2607 50.4414ZM51.6228 54.0962C51.759 54.0054 51.8498 54.8 51.8498 56.2301C51.8498 57.4787 51.759 58.5456 51.6455 58.6137C51.4185 58.7499 50.1472 55.3675 50.3515 55.1632C50.5559 54.9816 50.011 54.4367 49.6024 54.4367C49.2846 54.4367 49.2846 54.4822 49.5797 54.6638C49.8067 54.8227 49.8294 54.8908 49.6251 54.8908C49.2392 54.8908 49.0576 54.3232 49.2165 53.6195L49.3754 53.052L50.3969 53.6422C50.9418 53.96 51.5093 54.1643 51.6228 54.0962ZM6.7887 55.2767C7.67404 55.7988 11.6013 58.0689 15.5285 60.339C19.4558 62.609 23.61 65.0153 24.7223 65.6736C25.8574 66.332 27.7869 67.467 29.0355 68.1707C32.3271 70.0776 37.4575 73.0514 42.5879 76.0252L47.0826 78.6131V80.4746C47.0826 81.5188 47.0372 82.3587 46.9691 82.3587C46.901 82.3587 45.8568 81.7912 44.6309 81.0875C43.4278 80.3838 42.1339 79.6119 41.7479 79.4076C39.546 78.1137 38.0704 77.2738 36.8219 76.5473C36.0273 76.0706 34.3702 75.1172 33.1216 74.4135C31.8731 73.7097 30.2386 72.7563 29.4895 72.325C28.7404 71.8937 27.1513 70.9629 25.9709 70.2819C24.7904 69.6009 22.8382 68.4885 21.6577 67.7848C17.163 65.1742 11.0792 61.6783 9.85331 60.9746C9.422 60.7249 8.15075 59.9757 7.01571 59.3401C5.90337 58.6818 4.49592 57.8873 3.9057 57.5468C2.88417 56.9565 2.86147 56.9111 3.04307 56.2074C3.15658 55.7988 3.36088 55.027 3.49709 54.4822L3.7468 53.506L4.47322 53.9373C4.88184 54.1643 5.92607 54.7773 6.7887 55.2767ZM49.8067 55.5037C49.8067 55.9577 49.4208 56.6387 49.2619 56.4798C49.2165 56.4117 49.2165 56.0939 49.2846 55.7307C49.4208 55.0497 49.8067 54.8908 49.8067 55.5037ZM50.2607 56.1166C50.2607 56.1847 50.1699 56.2982 50.0337 56.3663C49.9202 56.4344 49.8067 56.389 49.8067 56.2755C49.8067 56.1393 49.9202 56.0258 50.0337 56.0258C50.1699 56.0258 50.2607 56.0712 50.2607 56.1166ZM50.851 57.7284C51.078 58.4094 51.3958 58.9769 51.5547 58.9769C51.7136 58.9769 51.8498 59.1585 51.8271 59.3628C51.8271 59.6125 51.759 59.6579 51.6909 59.4763C51.6455 59.3401 51.4639 59.2039 51.305 59.2039C51.1461 59.2039 50.851 58.6591 50.6467 58.0008C50.3061 56.8884 50.2834 57.5241 50.6467 58.7499C50.7829 59.2947 50.7829 59.3174 50.238 58.9315C49.8294 58.6591 49.7159 58.3867 49.7613 57.8192C49.8067 57.1835 50.1472 56.4798 50.3969 56.4798C50.4424 56.4798 50.6467 57.0473 50.851 57.7284ZM49.3981 57.8646L49.1711 58.6364L49.1938 57.683C49.2165 57.1381 49.3073 56.7976 49.4208 56.9111C49.5116 57.0019 49.5116 57.4333 49.3981 57.8646ZM4.13271 57.9327C4.85914 58.364 7.42433 59.8622 9.85331 61.247C20.1368 67.1492 21.8393 68.148 23.0198 68.8291C25.1991 70.1003 27.2875 71.3261 33.2351 74.754C41.7479 79.68 42.1112 79.8844 43.2235 80.5427C43.791 80.8832 44.9488 81.5415 45.7887 82.0182C46.6286 82.4722 47.2869 82.9036 47.2188 82.9717C47.1053 83.0852 43.7456 81.1783 28.5815 72.3704C25.6985 70.6905 15.5058 64.811 8.21886 60.5887C5.10885 58.7953 2.58906 57.2971 2.58906 57.2517C2.58906 57.0473 2.92957 57.2062 4.13271 57.9327ZM3.45169 58.137C4.38242 58.7272 4.88184 59.0223 13.2584 63.8576C16.4365 65.6963 19.7055 67.5805 20.5227 68.0572C21.3399 68.534 25.1764 70.7586 29.0355 72.9833C32.9173 75.2307 38.5925 78.5223 41.7025 80.3157C44.7899 82.0863 47.3096 83.6527 47.3096 83.7889C47.3096 84.1294 46.8783 83.9024 37.6618 78.5677C32.8038 75.7301 23.4965 70.35 17.0041 66.5817C10.5116 62.8133 4.56403 59.3855 3.7922 58.9542C2.99767 58.5229 2.36205 58.0462 2.36205 57.8873C2.36205 57.5014 2.47555 57.5241 3.45169 58.137ZM51.5093 59.8849C51.8044 59.8849 51.8498 60.2936 51.8271 62.6317C51.8271 64.13 51.7363 65.3104 51.6682 65.2196C51.6001 65.1515 51.5093 64.9472 51.4866 64.7656C51.3958 64.1527 50.6467 62.0415 50.4424 61.7691C50.3061 61.6102 50.2607 61.3378 50.3288 61.1562C50.3969 60.9746 50.2607 60.6568 50.011 60.4298C49.6251 60.0666 49.5116 60.0665 49.3527 60.339C49.1938 60.5887 49.1257 60.5433 49.1257 60.0666C49.1257 58.8407 49.3073 58.7045 50.2834 59.3174C50.7602 59.6352 51.3277 59.8849 51.5093 59.8849ZM49.7613 61.0654C49.7613 61.4513 49.8975 61.8372 50.0337 61.928C50.238 62.0415 50.238 62.1323 50.0564 62.2458C49.9202 62.3366 49.8067 62.2912 49.8067 62.155C49.8067 62.0188 49.6932 61.9734 49.5797 62.0415C49.4435 62.1323 49.3981 62.3593 49.4435 62.5636C49.5116 62.7906 49.4889 63.2447 49.3754 63.6306C49.1938 64.2435 49.1938 64.1981 49.1711 63.1766C49.1484 62.1777 49.4662 60.339 49.6705 60.339C49.7159 60.339 49.7386 60.6568 49.7613 61.0654ZM50.8964 63.676C51.1461 64.3343 51.2823 64.9018 51.2142 64.9699C50.9872 65.2196 50.7375 65.1061 50.851 64.811C50.8964 64.6521 50.8056 64.13 50.624 63.6306C50.4423 63.1312 50.2834 62.9042 50.2834 63.1085C50.2607 63.3128 50.3742 63.7668 50.4878 64.1073C50.7829 64.8564 50.6694 64.9926 50.0337 64.6067C49.6478 64.357 49.5797 64.1754 49.6932 63.5171C49.784 63.0858 49.9656 62.6544 50.1018 62.5636C50.4197 62.3593 50.3742 62.2912 50.8964 63.676ZM50.5105 65.2196C51.0099 65.5374 51.5093 65.7418 51.6228 65.6736C51.759 65.5828 51.8498 66.4001 51.8498 67.8075C51.8498 69.0561 51.759 70.123 51.6455 70.1911C51.5547 70.2592 51.2823 69.7371 51.0553 69.0107C50.8283 68.3069 50.5559 67.5805 50.4424 67.4443C50.3061 67.2854 50.2607 67.013 50.3288 66.8314C50.465 66.4682 49.6705 65.6282 49.4208 65.878C49.33 65.9688 49.3981 66.1277 49.5797 66.2412C49.8294 66.4001 49.8294 66.4682 49.6251 66.4682C49.4662 66.4682 49.2846 66.3093 49.2165 66.1277C49.0803 65.7645 49.2846 64.6521 49.4662 64.6521C49.5343 64.6521 49.9883 64.9018 50.5105 65.2196ZM49.8067 67.0811C49.8067 67.5351 49.4208 68.2161 49.2619 68.0572C49.2165 67.9891 49.2165 67.6713 49.2846 67.3081C49.4208 66.6271 49.8067 66.4682 49.8067 67.0811ZM50.2607 67.694C50.2607 67.7621 50.1699 67.8756 50.0337 67.9437C49.9202 68.0118 49.8067 67.9664 49.8067 67.8529C49.8067 67.7167 49.9202 67.6032 50.0337 67.6032C50.1699 67.6032 50.2607 67.6486 50.2607 67.694ZM50.851 69.3058C51.078 69.9868 51.3958 70.5543 51.5547 70.5543C51.7136 70.5543 51.8498 70.6451 51.8498 70.7586C51.8498 70.8721 51.6682 70.9175 51.4185 70.8494C51.1461 70.7813 50.8737 70.3273 50.6467 69.5782C50.3061 68.5112 50.2834 69.1015 50.624 70.2592C50.7602 70.7359 50.7602 70.7359 49.9656 70.3727C49.2619 70.0322 49.1711 69.896 49.1938 69.1469C49.2165 68.6929 49.3073 68.375 49.4208 68.4431C49.5116 68.5113 49.557 68.8745 49.4889 69.2604C49.3754 69.9641 49.3754 69.9641 49.6251 69.1923C49.8521 68.534 50.1699 68.0799 50.4196 68.0572C50.4423 68.0572 50.6467 68.6248 50.851 69.3058ZM51.6228 71.3489C51.7817 71.258 51.8498 71.9845 51.8498 73.4827C51.8498 74.7313 51.759 75.7982 51.6455 75.8663C51.532 75.9571 51.2596 75.4577 51.0553 74.8221C50.8283 74.1638 50.5786 73.5281 50.4651 73.4146C50.3515 73.2784 50.2607 72.9152 50.2607 72.5747C50.2607 71.8937 49.6251 71.4851 49.3073 71.9618C49.103 72.3023 49.0576 71.2353 49.2619 70.6905C49.3754 70.3954 49.5343 70.4181 50.3969 70.9175C50.9418 71.2353 51.4866 71.4397 51.6228 71.3489ZM49.6705 72.7563C49.6024 73.233 49.5116 74.0729 49.4662 74.6178C49.3527 75.9798 49.1711 76.0479 49.1484 74.7086C49.1484 73.6643 49.4889 71.9164 49.6932 71.9164C49.7613 71.9164 49.7386 72.3023 49.6705 72.7563ZM50.3742 74.6859C50.3742 75.0945 50.4651 75.662 50.5559 75.9571C50.7375 76.4338 50.7148 76.4565 50.1472 76.1841C49.6024 75.9344 49.557 75.8209 49.6932 75.1172C49.784 74.6632 49.9656 74.2319 50.1018 74.141C50.2607 74.0502 50.3742 73.9594 50.3742 73.9594C50.3742 73.9594 50.3742 74.3 50.3742 74.6859ZM51.5547 76.2295C51.7136 76.2295 51.8498 76.3884 51.8498 76.5927C51.8498 76.9105 51.7817 76.9105 51.5093 76.6835C51.3277 76.5246 51.1688 76.4792 51.1461 76.5927C51.1234 76.8651 50.4878 74.8221 50.5105 74.527C50.5105 74.3908 50.6921 74.7313 50.8964 75.2534C51.1007 75.7982 51.3958 76.2295 51.5547 76.2295ZM50.5105 76.7743C51.0553 77.0922 51.5547 77.2965 51.6682 77.2284C51.759 77.1603 51.8498 78.1364 51.8498 79.3849C51.8498 80.6335 51.759 81.7004 51.6682 81.7685C51.5547 81.8366 51.2823 81.2918 51.078 80.5881C50.851 79.8844 50.5559 79.1579 50.4424 79.0217C50.3061 78.8628 50.2607 78.5904 50.3288 78.3861C50.5105 77.9321 49.557 77.2511 49.3073 77.6597C49.103 78.0002 49.0576 77.1376 49.2619 76.5927C49.4435 76.1387 49.3527 76.116 50.5105 76.7743ZM49.6932 78.8855C49.6024 79.2487 49.4889 79.9752 49.4662 80.5427L49.3981 81.5642L49.6478 80.7243C50.011 79.453 50.397 79.4757 50.8283 80.7924C51.0553 81.428 51.3504 81.9955 51.532 82.0636C51.7136 82.1317 51.8498 82.2679 51.8498 82.3587C51.8498 82.6084 50.6694 82.336 50.1472 81.9955C49.8975 81.8139 49.6024 81.6777 49.4662 81.6777C49.1257 81.7004 50.2607 82.5857 50.624 82.5857C51.305 82.5857 51.1234 83.0625 50.2834 83.4938C49.784 83.7435 49.33 83.9478 49.2619 83.9478C49.2165 83.9478 49.1711 82.8128 49.1711 81.4507C49.1711 80.066 49.2619 78.9536 49.3754 78.9536C49.4662 78.9536 49.5116 78.7947 49.4435 78.6131C49.3527 78.4315 49.4208 78.2726 49.5797 78.2726C49.7613 78.2726 49.8067 78.4769 49.6932 78.8855ZM50.2607 79.2714C50.2607 79.3395 50.1699 79.453 50.0337 79.5211C49.9202 79.5892 49.8067 79.5438 49.8067 79.4303C49.8067 79.2941 49.9202 79.1806 50.0337 79.1806C50.1699 79.1806 50.2607 79.226 50.2607 79.2714Z" fill="#C8151D" stroke="#C8151D" stroke-width="0.4"/>
<path d="M50.2834 40.0196C50.2834 40.2693 50.4197 40.7687 50.6013 41.1547C50.9872 42.04 51.0099 41.4044 50.6013 40.3601C50.397 39.838 50.2834 39.7245 50.2834 40.0196Z" fill="#C8151D" stroke="#C8151D" stroke-width="0.4"/>
<path d="M50.2834 80.4259C50.2834 80.6756 50.4197 81.175 50.6013 81.5609C50.9872 82.4462 51.0099 81.8106 50.6013 80.7664C50.397 80.2443 50.2834 80.1308 50.2834 80.4259Z" fill="#C8151D" stroke="#C8151D" stroke-width="0.4"/>
</svg>
