<svg width="66" height="66" viewBox="0 0 66 66" fill="none" xmlns="http://www.w3.org/2000/svg">
<path d="M56.4808 63.4615V1.26923C56.4808 0.568615 55.9122 0 55.2116 0H12.0577C11.3571 0 10.7885 0.568615 10.7885 1.26923V63.4615H4.44232V66H12.0577H55.2116H61.5577V63.4615H56.4808ZM13.3269 63.4615V2.53846H53.9423V63.4615H13.3269Z" fill="#C8151D"/>
<line x1="12.6923" y1="9.15234" x2="54.5769" y2="9.15234" stroke="#C8151D" stroke-width="2"/>
<line x1="12.6923" y1="44.0586" x2="54.5769" y2="44.0586" stroke="#C8151D" stroke-width="2"/>
<line x1="12.6923" y1="37.0781" x2="54.5769" y2="37.0781" stroke="#C8151D" stroke-width="2"/>
<line x1="12.6923" y1="51.0391" x2="54.5769" y2="51.0391" stroke="#C8151D" stroke-width="2"/>
<line x1="12.6923" y1="58.0195" x2="54.5769" y2="58.0195" stroke="#C8151D" stroke-width="2"/>
<line x1="12.6923" y1="23.1172" x2="54.5769" y2="23.1172" stroke="#C8151D" stroke-width="2"/>
<line x1="12.6923" y1="16.1328" x2="54.5769" y2="16.1328" stroke="#C8151D" stroke-width="2"/>
<line x1="12.6923" y1="30.0977" x2="54.5769" y2="30.0977" stroke="#C8151D" stroke-width="2"/>
</svg>
