<svg width="33" height="30" viewBox="0 0 33 30" fill="none" xmlns="http://www.w3.org/2000/svg">
<path d="M11.299 4.01706C11.433 4.09015 11.5571 4.15504 11.673 4.21564C11.9631 4.36728 12.2017 4.49207 12.4148 4.65112C12.6883 4.85524 12.6882 4.95331 12.6882 4.98152V4.98193V28.6096C12.6882 28.7608 12.6363 28.8511 12.5512 28.9207C12.4502 29.0034 12.2425 29.0995 11.8897 29.0995H1.69853C1.34578 29.0995 1.13803 29.0034 1.03705 28.9207C0.951898 28.8511 0.9 28.7608 0.9 28.6096V4.99717C0.903978 4.98701 0.915275 4.96331 0.943995 4.92638C1.00325 4.85019 1.1128 4.75149 1.28027 4.66013L6.37586 1.8804C6.46313 1.83279 6.64383 1.78184 6.87904 1.78184C7.11426 1.78184 7.29496 1.83279 7.38223 1.8804L11.299 4.01706Z" stroke="black" stroke-width="1.8"/>
<path d="M30.7803 3.98019C30.8963 4.04835 31.0048 4.11005 31.1066 4.168C31.395 4.33208 31.6306 4.46611 31.8359 4.63176C32.0923 4.83856 32.1005 4.94171 32.1005 4.98193V28.6096C32.1005 28.7851 32.0415 28.8806 31.9717 28.942C31.8916 29.0126 31.7234 29.0995 31.4233 29.0995H21.96C21.6598 29.0995 21.4916 29.0126 21.4116 28.942C21.3418 28.8806 21.2828 28.7851 21.2828 28.6096V4.98742C21.2845 4.98002 21.2932 4.95082 21.3293 4.90077C21.3833 4.82599 21.4808 4.73212 21.6273 4.64604L26.3589 1.86631C26.4224 1.82902 26.5693 1.78184 26.7705 1.78184C26.9717 1.78184 27.1186 1.82902 27.1821 1.86631L30.7803 3.98019Z" stroke="black" stroke-width="1.8"/>
<path d="M13.5879 22.2354H20.382" stroke="black" stroke-width="1.8" stroke-linecap="round"/>
<path d="M13.5879 13.5L20.382 13.5" stroke="black" stroke-width="1.8" stroke-linecap="round"/>
</svg>
