<svg width="43" height="46" viewBox="0 0 43 46" fill="none" xmlns="http://www.w3.org/2000/svg">
<path d="M5.42289 29.9522C2.76129 28.2431 1 25.2557 1 21.8548C1 16.538 5.31253 12.2258 10.629 12.2258C10.763 12.2258 10.8969 12.2287 11.0279 12.2342C11.2638 7.13027 15.4828 3.08008 20.6453 3.08008C23.6735 3.08008 26.3726 4.4809 28.1371 6.67022" stroke="#04142D" stroke-width="2" stroke-miterlimit="10"/>
<path d="M37.2713 15.3057C38.8812 17.0236 39.8657 19.3355 39.8657 21.8774C39.8657 25.2692 38.1099 28.245 35.46 29.9542" stroke="#04142D" stroke-width="2" stroke-miterlimit="10"/>
<path d="M35.4546 29.7695H5.17285" stroke="#04142D" stroke-width="2" stroke-miterlimit="10" stroke-linecap="round"/>
<path d="M28.1367 6.67383C29.3829 8.21733 30.1633 10.1533 30.2623 12.2672C33.0284 12.2672 35.5211 13.4351 37.2708 15.307" stroke="#04142D" stroke-width="2" stroke-miterlimit="10" stroke-linecap="round"/>
<path d="M37.2705 15.3013C38.927 14.8235 40.3394 13.7785 41.2825 12.3867" stroke="#04142D" stroke-width="2" stroke-miterlimit="10" stroke-linecap="round"/>
<path d="M28.1367 6.6691C28.8734 3.42254 31.7764 1 35.2471 1C36.7146 1 38.0799 1.43384 39.2245 2.18215" stroke="#04142D" stroke-width="2" stroke-miterlimit="10" stroke-linecap="round"/>
<path d="M39.2245 2.17871C36.8567 2.66613 35.0762 4.76227 35.0762 7.27595C35.0762 10.1513 37.4076 12.4809 40.2814 12.4809C40.6253 12.4809 40.959 12.4471 41.2839 12.3843" stroke="#04142D" stroke-width="2" stroke-miterlimit="10" stroke-linecap="round"/>
<path d="M24.6807 32.6816V43.455" stroke="#04142D" stroke-width="2" stroke-miterlimit="10" stroke-linecap="round"/>
<path d="M30.7959 32.6816V39.3786" stroke="#04142D" stroke-width="2" stroke-miterlimit="10" stroke-linecap="round"/>
<path d="M8.56265 35.678C9.1517 35.678 9.62921 35.2005 9.62921 34.6115C9.62921 34.0224 9.1517 33.5449 8.56265 33.5449C7.97361 33.5449 7.49609 34.0224 7.49609 34.6115C7.49609 35.2005 7.97361 35.678 8.56265 35.678Z" stroke="#04142D" stroke-width="1.6" stroke-miterlimit="10" stroke-linecap="round"/>
<path d="M8.56265 45.0003C9.1517 45.0003 9.62921 44.5228 9.62921 43.9337C9.62921 43.3447 9.1517 42.8672 8.56265 42.8672C7.97361 42.8672 7.49609 43.3447 7.49609 43.9337C7.49609 44.5228 7.97361 45.0003 8.56265 45.0003Z" stroke="#04142D" stroke-width="1.6" stroke-miterlimit="10" stroke-linecap="round"/>
<path d="M14.3859 40.3343C14.9749 40.3343 15.4525 39.8568 15.4525 39.2677C15.4525 38.6787 14.9749 38.2012 14.3859 38.2012C13.7968 38.2012 13.3193 38.6787 13.3193 39.2677C13.3193 39.8568 13.7968 40.3343 14.3859 40.3343Z" stroke="#04142D" stroke-width="1.6" stroke-miterlimit="10" stroke-linecap="round"/>
</svg>
