<svg width="40" height="44" viewBox="0 0 40 44" fill="none" xmlns="http://www.w3.org/2000/svg">
<path d="M36.607 1.92815C36.7164 1.50734 37.4041 1.3908 37.5555 1.79836C39.0878 5.92235 39.4991 10.0759 38.3121 14.3804C37.7352 16.4705 36.6916 18.3 35.1965 19.8115C34.5844 20.4318 34.2683 21.0677 34.183 21.959C33.7716 26.3997 31.3032 29.4124 27.1339 30.6216C26.286 30.8666 25.6639 31.2471 25.1722 32.081C23.5918 34.7705 20.998 35.5263 18.1984 35.5576C15.4942 35.5888 12.7749 35.5367 10.0807 35.2813C5.54517 34.8539 4.66717 37.1942 3.11687 41.3587C2.93123 41.8539 3.13694 42.5523 2.52484 42.8286C1.50135 43.2872 0.87922 42.8025 1.0197 41.6506C1.26052 39.6335 2.04822 37.7884 3.32257 36.3185C4.78256 34.635 5.01335 32.6804 5.22909 30.6008C5.53011 27.7132 5.98166 24.8361 7.06034 22.1205C8.07381 19.5561 9.68933 17.7214 12.4989 17.3566C13.0558 17.2836 13.4723 17.023 13.8184 16.4757C15.9959 13.0096 18.9058 10.784 23.0801 10.8414C23.3912 10.8466 23.6671 10.8205 23.9079 10.5755C25.965 8.45938 28.619 7.4847 31.2631 6.52045C33.7151 5.62567 35.9302 4.53395 36.607 1.92815ZM9.05215 33.3945C12.4488 33.3945 15.8504 33.4362 19.247 33.3736C20.6869 33.3476 22.0165 32.8681 23.0801 31.466C22.2222 31.3617 21.3843 31.7474 21.4094 30.3818C21.4345 29.0423 22.1971 29.3759 22.8744 29.3186C25.2927 29.1101 27.6557 28.6983 29.6174 27.0617C31.0072 25.9046 31.8601 24.4139 32.0809 22.3551C31.4487 22.6678 31.0273 22.8398 30.646 23.0744C29.9134 23.5278 29.5773 23.3506 29.2211 22.5062C28.7996 21.5055 29.3716 21.4117 29.9837 21.1198C35.9691 18.2531 38.0262 11.962 36.5511 6.02529C34.9155 7.3127 33.0341 8.00071 31.1778 8.75126C29.9686 9.24121 28.7595 9.73637 27.6005 10.341C25.4733 11.446 23.943 13.0826 23.7173 15.6783C23.6571 16.335 23.4313 16.5331 22.7941 16.5435C20.9528 16.5748 21.9061 15.2613 21.871 14.4795C21.8509 14.0104 22.4178 13.4266 21.9813 13.0722C21.6251 12.7855 21.0381 13.093 20.5615 13.265C17.0696 14.5003 15.2082 17.3253 14.0141 20.6924C13.5375 22.0371 12.8802 21.6045 12.1277 21.2553C11.2196 20.8331 12.509 20.1607 11.9872 19.676C9.23277 20.5308 7.06034 25.9723 7.27106 31.6901C13.096 26.3372 19.7537 22.3603 25.9148 17.6693C27.9216 16.1421 30.0038 14.6671 31.1878 12.233C31.549 11.4929 32.417 11.7691 32.9488 11.9724C33.5057 12.1861 33.0742 12.7646 32.9187 13.166C32.0909 15.2873 30.4302 16.6686 28.7796 18.0133C25.2375 20.9061 21.4094 23.3871 17.6967 26.0401C14.6714 28.2136 11.6259 30.3923 9.05215 33.3945Z" fill="#04142D" stroke="white" stroke-width="0.2"/>
</svg>
