<svg width="37" height="39" viewBox="0 0 37 39" fill="none" xmlns="http://www.w3.org/2000/svg">
<path d="M18.0377 25.0823C21.1673 25.0823 23.7044 22.5453 23.7044 19.4157C23.7044 16.2861 21.1673 13.749 18.0377 13.749C14.9081 13.749 12.3711 16.2861 12.3711 19.4157C12.3711 22.5453 14.9081 25.0823 18.0377 25.0823Z" stroke="#04142D" stroke-width="2" stroke-miterlimit="10" stroke-linecap="round" stroke-linejoin="round"/>
<path d="M34.6942 11.4351L33.2776 8.98147C32.4956 7.62572 30.763 7.16247 29.4072 7.94447L28.6621 8.37514C25.8288 10.01 22.2871 7.96572 22.2871 4.69465V3.83332C22.2871 2.26791 21.0192 1 19.4538 1H16.6205C15.0551 1 13.7871 2.26791 13.7871 3.83332V4.69465C13.7871 7.96572 10.2455 10.0114 7.41217 8.37514L6.66701 7.94447C5.31127 7.16247 3.57869 7.62572 2.79669 8.98147L1.38003 11.4351C0.598037 12.7909 1.06128 14.5234 2.41703 15.3054L3.16219 15.7361C5.99551 17.3723 5.99551 21.4608 3.16219 23.0971L2.41703 23.5277C1.06128 24.3097 0.598037 26.0423 1.38003 27.3981L2.79669 29.8517C3.57869 31.2075 5.31127 31.6707 6.66701 30.8887L7.41217 30.458C10.2455 28.8218 13.7871 30.8675 13.7871 34.1385V34.9999C13.7871 36.5653 15.0551 37.8332 16.6205 37.8332H19.4538C21.0192 37.8332 22.2871 36.5653 22.2871 34.9999V34.1385C22.2871 30.8675 25.8288 28.8218 28.6621 30.458L29.4072 30.8887C30.763 31.6707 32.4956 31.2075 33.2776 29.8517L34.6942 27.3981C35.4762 26.0423 35.013 24.3097 33.6572 23.5277L32.9121 23.0971C30.0787 21.4608 30.0787 17.3723 32.9121 15.7361L33.6572 15.3054C35.013 14.5234 35.4776 12.7909 34.6942 11.4351Z" stroke="#04142D" stroke-width="2" stroke-miterlimit="10" stroke-linecap="round" stroke-linejoin="round"/>
</svg>
