<svg width="48" height="49" viewBox="0 0 48 49" fill="none" xmlns="http://www.w3.org/2000/svg">
<g clip-path="url(#clip0_11195_382)">
<path d="M46.4819 28.2938C46.7134 27.2446 46.3542 26.091 45.4096 24.8644C44.4571 23.6273 44.4624 22.599 45.4229 21.3123C46.3063 20.13 46.6362 18.9399 46.3728 17.8777C46.1174 16.8416 45.3059 15.9621 44.026 15.3357C42.5706 14.6232 42.089 13.6706 42.3631 12.0472C42.6052 10.617 42.4056 9.48432 41.7724 8.68048C41.1338 7.87141 40.0535 7.3938 38.5582 7.2607C36.246 7.05452 36.1581 6.98927 35.4823 4.89092C35.0646 3.5912 34.3382 2.67252 33.3856 2.23406C32.4278 1.79299 31.2331 1.83736 29.9293 2.36195C27.8166 3.21277 27.7102 3.18667 26.1404 1.5059C25.2251 0.519367 24.1767 0 23.1097 0C23.1071 0 23.1044 0 23.1044 0C22.0428 0.00260988 21.0051 0.519367 20.1031 1.49285C18.496 3.22843 18.3869 3.25453 16.2157 2.41936C14.9279 1.92349 13.6693 1.93653 12.6742 2.44807C11.735 2.93351 11.0884 3.82087 10.801 5.01881C10.362 6.85617 9.45469 7.59215 7.75712 7.47993C7.56821 7.46427 7.36067 7.50864 7.13982 7.55301C7.06 7.56867 6.98018 7.58693 6.90035 7.59998C4.89147 7.9471 3.52384 9.82621 3.85111 11.7888C4.28482 14.3752 4.2316 14.4901 1.99124 15.8446C0.934914 16.484 0.248436 17.4079 0.0542001 18.4441C-0.121411 19.3888 0.131362 20.3284 0.788572 21.1583C2.09501 22.8156 2.10831 24.0892 0.828483 25.7074C0.160631 26.553 -0.100124 27.6152 0.115398 28.6226C0.306973 29.5204 0.849769 30.2486 1.64534 30.674C3.53714 31.684 5.13627 32.9341 4.05333 35.2073C4.05067 37.5928 5.43427 39.1613 7.58683 39.2135C9.34294 39.2553 10.6281 39.7303 11.1842 41.9121C11.4609 42.9978 12.0835 43.8147 12.9829 44.2689C13.9567 44.7595 15.1541 44.7752 16.3594 44.308C17.2986 43.9452 17.876 43.7338 18.3496 43.7338C19.0388 43.7338 19.5097 44.1775 20.5661 45.2423C21.4308 46.114 22.4446 46.5577 23.5062 46.5499C24.5519 46.5316 25.539 46.0566 26.3585 45.1745C28.0375 43.3658 28.1546 43.3397 30.5705 44.2062C31.7652 44.6369 32.9466 44.5951 33.8992 44.0914C34.8012 43.6138 35.4185 42.776 35.6845 41.6616C36.1103 39.8843 37.0069 39.143 38.8801 39.0178C40.3063 38.9238 41.4025 38.4227 42.0491 37.5693C42.701 36.7106 42.8739 35.5257 42.5493 34.1425C42.1422 32.3913 42.8713 31.5979 44.0926 30.948C45.4469 30.2277 46.2504 29.3325 46.4819 28.2938ZM43.0016 29.4056C40.6256 30.7392 40.1254 31.8354 40.6735 34.5053C40.8544 35.3848 40.7772 35.9981 40.434 36.4366C40.1014 36.8594 39.5214 37.0891 38.6619 37.1413C35.6952 37.3187 34.8198 37.9921 33.9843 40.7377C33.689 41.706 33.3484 42.2227 32.8482 42.4602C32.3532 42.6951 31.7413 42.6429 30.8047 42.2775C28.1253 41.2362 27.1195 41.4737 25.1506 43.6086C24.4933 44.3184 23.9585 44.6369 23.4131 44.6395C23.4104 44.6395 23.4104 44.6395 23.4078 44.6395C22.8703 44.6395 22.3434 44.3315 21.6969 43.6451C19.7199 41.5363 18.6583 41.2936 16.0188 42.348C15.0769 42.7238 14.433 42.7864 13.9381 42.5516C13.4458 42.3193 13.1026 41.7973 12.8259 40.8656C12.0569 38.2766 10.982 37.4623 8.22542 37.384C7.29415 37.3579 6.69547 37.1413 6.33893 36.708C5.98505 36.2748 5.8999 35.6562 6.07552 34.7637C6.5784 32.1903 5.99037 30.9584 3.64624 29.6927C2.64579 29.1524 2.18814 28.7139 2.05776 28.1815C1.93004 27.6491 2.1429 27.0567 2.78947 26.138C4.26886 24.0423 4.24757 22.7582 2.70698 20.6442C2.06042 19.7594 1.8449 19.1879 1.96197 18.6659C2.07904 18.1465 2.52073 17.7133 3.48393 17.1783C5.82274 15.8785 6.29902 14.9077 5.91055 12.2299C5.76953 11.2486 5.75888 10.5439 6.14736 10.0742C6.53317 9.60437 7.23029 9.46866 8.22808 9.4008C10.7851 9.22333 11.8786 8.33597 12.5545 5.88007C12.8259 4.89353 13.1718 4.34546 13.6773 4.09752C14.1829 3.84958 14.8374 3.90961 15.8033 4.28804C18.3709 5.29807 19.4618 5.03969 21.351 2.97527C22.0454 2.21579 22.5749 1.88956 23.1124 1.88695C23.1151 1.88695 23.1177 1.88695 23.1204 1.88695C23.6579 1.88695 24.1847 2.20535 24.8818 2.95178C26.7949 4.99532 27.9124 5.23543 30.5812 4.1706C31.5071 3.8026 32.1085 3.73996 32.5927 3.96441C33.0743 4.18625 33.4043 4.67169 33.6969 5.58515C34.5936 8.37773 35.4903 9.05108 38.4996 9.17635C39.2819 9.21028 39.8007 9.39297 40.128 9.75314C40.458 10.1159 40.5857 10.6483 40.5325 11.4287V11.4313C40.5271 11.4939 40.5218 11.554 40.5191 11.6166C40.5085 11.7732 40.4979 11.935 40.4713 12.0994C40.0828 14.5292 40.6362 15.6306 42.8393 16.8103C43.8824 17.3688 44.3586 17.8151 44.4917 18.3553C44.6221 18.893 44.4065 19.4958 43.744 20.438C42.2566 22.5572 42.2699 23.7134 43.8052 25.817C44.4491 26.7017 44.6726 27.3098 44.5529 27.8527C44.4358 28.3982 43.9702 28.8627 43.0016 29.4056Z" fill="#04142D" stroke="#04142D" stroke-width="0.05"/>
<path d="M23.2697 9.7998C23.2645 9.7998 23.2568 9.7998 23.2516 9.7998C15.8543 9.7998 9.82306 15.7775 9.79986 23.1327C9.78955 26.8154 11.184 30.2526 13.7305 32.8138C16.2538 35.3516 19.6329 36.7498 23.2465 36.7498C23.2465 36.7498 23.249 36.7498 23.2516 36.7498C30.6773 36.7498 36.7317 30.7127 36.7498 23.2877C36.7575 19.6928 35.3605 16.3099 32.814 13.7617C30.2623 11.2109 26.8755 9.80497 23.2697 9.7998ZM31.4144 31.5345C29.2236 33.7131 26.3085 34.9123 23.2052 34.9123C23.1846 34.9123 23.164 34.9123 23.1434 34.9123C16.893 34.8813 11.6221 29.5419 11.635 23.2567C11.6427 20.1658 12.8567 17.2583 15.0553 15.0694C17.2745 12.8623 20.2231 11.6476 23.3676 11.6476C23.3908 11.6476 23.4114 11.6476 23.4346 11.6476C29.7339 11.6812 34.8425 16.9353 34.8244 23.3549C34.8141 26.451 33.6053 29.3559 31.4144 31.5345Z" fill="#04142D" stroke="#04142D" stroke-width="0.05"/>
<path d="M27.3027 19.5996C27.3002 19.5996 27.3002 19.5996 27.3027 19.5996C27.0298 19.5996 26.7274 19.7779 26.3464 20.159C25.8842 20.6231 25.4147 21.0848 24.9452 21.544C24.1216 22.3501 23.2686 23.1855 22.4672 24.0379C22.1599 24.3628 21.9043 24.5094 21.6412 24.5094H21.6388C21.3044 24.5094 21.034 24.2676 20.7931 24.0062C20.7046 23.9109 20.6186 23.8083 20.5301 23.7057C20.1662 23.2783 19.8245 22.8752 19.2296 22.8093C18.8978 22.8801 18.6568 23.0535 18.4946 23.3369C18.2881 23.696 18.3471 24.016 18.6863 24.375C19.0158 24.7219 19.3624 25.0663 19.6992 25.401C20.0458 25.7429 20.4022 26.0971 20.7439 26.4586C21.0537 26.786 21.3364 26.9472 21.6117 26.9496C21.6142 26.9496 21.6166 26.9496 21.6191 26.9496C21.9067 26.9496 22.2189 26.7762 22.5704 26.4195C24.2691 24.6975 26.0416 22.9656 27.605 21.4365C28.2638 20.7916 28.3425 20.3617 27.8877 19.9001C27.6911 19.6973 27.4993 19.5996 27.3027 19.5996Z" fill="#04142D" stroke="#04142D" stroke-width="0.05"/>
</g>
<defs>
<clipPath id="clip0_11195_382">
<rect width="47.775" height="49" fill="white"/>
</clipPath>
</defs>
</svg>
