<svg width="42" height="42" viewBox="0 0 42 42" fill="none" xmlns="http://www.w3.org/2000/svg">
<g clip-path="url(#clip0_11198_551)">
<path d="M23.5772 37.0432V37.1432C23.5772 37.2694 23.5811 37.398 23.5851 37.5274C23.5941 37.8185 23.6032 38.1141 23.5676 38.3981L23.5676 38.3984C23.5191 38.7771 23.3674 39.0794 23.1237 39.2876C22.8805 39.4953 22.5553 39.6012 22.1744 39.6058H22.1744L23.5772 37.0432ZM23.5772 37.0432H23.4772M23.5772 37.0432H23.4772M23.4772 37.0432H23.4673H23.4574H23.4476H23.4377H23.4279H23.418H23.4082H23.3983H23.3885H23.3787H23.3688H23.359H23.3491H23.3393H23.3294H23.3196H23.3098H23.2999H23.2901H23.2803H23.2704H23.2606H23.2508H23.241H23.2311H23.2213H23.2115H23.2017H23.1918H23.182H23.1722H23.1624H23.1526H23.1428H23.133H23.1231H23.1133H23.1035H23.0937H23.0839H23.0741H23.0643H23.0545H23.0447H23.0349H23.0251H23.0153H23.0055H22.9957H22.9859H22.9761H22.9663H22.9565H22.9468H22.937H22.9272H22.9174H22.9076H22.8978H22.888H22.8783H22.8685H22.8587H22.8489H22.8391H22.8294H22.8196H22.8098H22.8H22.7903H22.7805H22.7707H22.761H22.7512H22.7414H22.7317H22.7219H22.7121H22.7024H22.6926H22.6829H22.6731H22.6633H22.6536H22.6438H22.6341H22.6243H22.6146H22.6048H22.5951H22.5853H22.5756H22.5658H22.5561H22.5463H22.5366H22.5268H22.5171H22.5074H22.4976H22.4879H22.4781H22.4684H22.4587H22.4489H22.4392H22.4295H22.4197H22.41H22.4003H22.3905H22.3808H22.3711H22.3613H22.3516H22.3419H22.3322H22.3224H22.3127H22.303H22.2933H22.2835H22.2738H22.2641H22.2544H22.2447H22.235H22.2252H22.2155H22.2058H22.1961H22.1864H22.1767H22.167H22.1573H22.1475H22.1378H22.1281H22.1184H22.1087H22.099H22.0893H22.0796H22.0699H22.0602H22.0505H22.0408H22.0311H22.0214H22.0117H22.002H21.9923H21.9826H21.9729H21.9632H21.9535H21.9438H21.9341H21.9244H21.9147H21.9051H21.8954H21.8857H21.876H21.8663H21.8566H21.8469H21.8372H21.8275H21.8179H21.8082H21.7985H21.7888H21.7791H21.7694H21.7598H21.7501H21.7404H21.7307H21.721H21.7114H21.7017H21.692H21.6823H21.6727H21.663H21.6533H21.6436H21.634H21.6243H21.6146H21.6049H21.5953H21.5856H21.5759H21.5663H21.5566H21.5469H21.5373H21.5276H21.5179H21.5083H21.4986H21.4889H21.4793H21.4696H21.4599H21.4503H21.4406H21.4309H21.4213H21.4116H21.4019H21.3923H21.3826H21.373H21.3633H21.3536H21.344H21.3343H21.3247H21.315H21.3054H21.2957H21.286H21.2764H21.2667H21.2571H21.2474H21.2378H21.2281H21.2185H21.2088H21.1991H21.1895H21.1798H21.1702H21.1605H21.1509H21.1412H21.1316H21.1219H21.1123H21.1026H21.093H21.0833H21.0737H21.064H21.0544H21.0447H21.0351H21.0254H21.0158H21.0061H20.9965H20.9869H20.9772H20.9676H20.9579H20.9483H20.9386H20.929H20.9193H20.9097H20.9H20.8904H20.8808H20.8711H20.8615H20.8518H20.8422H20.8325H20.8229H20.8133H20.8036H20.794H20.7843H20.7747H20.765H20.7554H20.7458H20.7361H20.7265H20.7168H20.7072H20.6975H20.6879H20.6783H20.6686H20.659H20.6493H20.6397H20.6301H20.6204H20.6108H20.6011H20.5915H20.5819H20.5722H20.5626H20.5529H20.5433H20.5337H20.524H20.5144H20.5047H20.4951H20.4855H20.4758H20.4662H20.4565H20.4469H20.4373H20.4276H20.418H20.4083H20.3987H20.3891H20.3794H20.3698H20.3601H20.3505H20.3409H20.3312H20.3216H20.3119H20.3023H20.2927H20.283H20.2734H20.2637H20.2541H20.2445H20.2348H20.2252H20.2155H20.2059H20.1963H20.1866H20.177H20.1673H20.1577H20.1481H20.1384H20.1288H20.1191H20.1095H20.0998H20.0902H20.0806H20.0709H20.0613H20.0516H20.042H20.0323H20.0227H20.0131H20.0034H19.9938H19.9841H19.9745H19.9648H19.9552H19.9455H19.9359H19.9262H19.9166H19.907H19.8973H19.8877H19.878H19.8684H19.8587H19.8491H19.8394H19.8298H19.8201H19.8105H19.8008H19.7912H19.7815H19.7719H19.7622H19.7526H19.7429H19.7333H19.7236H19.714H19.7043H19.6947H19.685H19.6753H19.6657H19.656H19.6464H19.6367H19.6271H19.6174H19.6078H19.5981H19.5884H19.5788H19.5691H19.5595H19.5498H19.5402H19.5305H19.5208H19.5112H19.5015H19.4918H19.4822H19.4725H19.4629H19.4532H19.4435H19.4339H19.4242H19.4145H19.4049H19.3952H19.3855H19.3759H19.3662H19.3565H19.3469H19.3372H19.3275H19.3179H19.3082H19.2985H19.2888H19.2792H19.2695H19.2598H19.2502H19.2405H19.2308H19.2211H19.2114H19.2018H19.1921H19.1824H19.1727H19.1631H19.1534H19.1437H19.134H19.1243H19.1147H19.105H19.0953H19.0856H19.0759H19.0662H19.0565H19.0469H19.0372H19.0275H19.0178H19.0081H18.9984H18.9887H18.979H18.9693H18.9596H18.95H18.9403H18.9306H18.9209H18.9112H18.9015H18.8918H18.8821H18.8724H18.8627H18.853H18.8433H18.8336H18.8239H18.8142H18.8045H18.7948H18.7851H18.7753H18.7656H18.7559H18.7462H18.7365H18.7268H18.7171H18.7074H18.6977H18.6879H18.6782H18.6685H18.6588H18.6491H18.6394H18.6296H18.6199H18.6102H18.6005H18.5908H18.581H18.5713H18.5616H18.5519H18.5421H18.5324H18.5227H18.513H18.413M23.4772 37.0432H18.413M18.413 37.0432V37.1432M18.413 37.0432V37.1432M18.413 37.1432C18.413 37.2689 18.411 37.3907 18.409 37.5096M18.413 37.1432L18.409 37.5096M18.409 37.5096C18.4049 37.7662 18.4009 38.0091 18.4176 38.2483M18.409 37.5096L18.4176 38.2483M18.4176 38.2483C18.4473 38.6745 18.589 39.0156 18.8426 39.2505M18.4176 38.2483L18.8426 39.2505M18.8426 39.2505C19.096 39.4852 19.4486 39.6024 19.8773 39.6058L18.8426 39.2505ZM16.2146 38.5884L16.2146 38.5879C16.1905 38.3495 16.1692 38.1137 16.1713 37.8791L16.172 37.8326C16.185 36.8993 16.1978 35.983 15.4738 35.1272L15.4736 35.1269C15.2917 34.9136 15.166 34.6173 15.0843 34.2888C15.0028 33.9614 14.9668 33.6092 14.9592 33.2906L14.9592 33.2906C14.9149 31.4317 14.3131 29.8808 13.0176 28.5078L13.0176 28.5078C7.47315 22.6387 9.92881 12.9685 17.6066 10.5519L17.6066 10.5518C24.2165 8.47022 30.7806 12.7372 31.7994 19.1984L31.7994 19.1985C32.3376 22.6077 31.5309 25.6656 29.2183 28.2228C27.8301 29.7543 26.9995 31.4188 27.0506 33.5251C27.0695 34.3152 26.7189 35.0238 26.2238 35.6854L26.2238 35.6854C26.0091 35.9723 25.8819 36.3671 25.8456 36.7194L25.8455 36.7199C25.813 37.0516 25.8103 37.3886 25.8076 37.7197C25.807 37.7949 25.8064 37.8697 25.8054 37.9442C25.8002 38.3493 25.7849 38.7442 25.7071 39.1248C25.376 40.7419 23.9401 41.8505 22.2624 41.8953C21.9724 41.9026 21.6837 41.9002 21.3931 41.8977C21.2468 41.8965 21.1001 41.8953 20.9524 41.8953C20.8195 41.8953 20.6874 41.8963 20.5558 41.8973C20.2942 41.8992 20.0343 41.9011 19.7732 41.8953C17.8504 41.8527 16.3979 40.5024 16.2146 38.5884ZM23.2514 34.7427L23.2515 34.7427L24.6827 33.2252L24.7825 33.2307C24.7825 33.2307 24.7825 33.2306 24.7825 33.2306C24.8196 32.5616 24.8848 31.8904 25.0085 31.2355L24.9102 31.2169L25.0085 31.2355C25.3382 29.4878 26.302 28.0955 27.4833 26.7727C29.5424 24.4683 30.2054 21.7382 29.3845 18.7668L29.3845 18.7668C28.8922 16.9868 28.0403 15.555 26.8539 14.4906C25.6675 13.4264 24.1517 12.7341 22.3388 12.4252L22.3388 12.4252C19.417 11.9276 16.7771 12.7558 14.7338 14.9317L14.7338 14.9317C11.4066 18.4754 11.4451 23.4967 14.7709 27.0522L14.7709 27.0522C16.4071 28.8008 17.1838 30.8417 17.2206 33.2048L17.2206 33.2049C17.2285 33.6971 17.3559 34.0836 17.6242 34.3483C17.8923 34.6127 18.2846 34.7392 18.787 34.7471L18.7877 34.7471C19.263 34.7513 19.7373 34.7492 20.2108 34.7472C20.4809 34.7461 20.7507 34.7449 21.0202 34.7449C21.2517 34.7449 21.4837 34.746 21.7159 34.747C22.2277 34.7494 22.7404 34.7518 23.2514 34.7427Z" fill="#04142D" stroke="white" stroke-width="0.2"/>
<path d="M6.24039 7.82987C5.84366 7.34367 5.86977 6.70307 6.26546 6.29343L6.26547 6.29342C6.66954 5.87518 7.35035 5.80042 7.78289 6.21316C9.02845 7.40178 10.235 8.6344 11.436 9.87251L11.5078 9.80288L11.4359 9.87233C11.5116 9.95075 11.5643 10.0593 11.6208 10.2079C11.6374 10.2515 11.6544 10.2988 11.6725 10.3491C11.708 10.4479 11.7477 10.5582 11.7963 10.6739C11.7237 10.762 11.6522 10.8574 11.5822 10.9507C11.5314 11.0184 11.4814 11.0851 11.4324 11.1472C11.2983 11.3168 11.1616 11.466 11.0008 11.5695L11.0007 11.5696C10.7753 11.7149 10.5482 11.741 10.3303 11.6875C10.1092 11.6331 9.89254 11.4953 9.69858 11.3045L9.69842 11.3043C8.98508 10.6058 8.28051 9.89764 7.57571 9.18922C7.34073 8.95303 7.10573 8.71682 6.87036 8.48093L6.87028 8.48085C6.81254 8.42311 6.7548 8.36699 6.6977 8.3115C6.5354 8.15374 6.37827 8.00101 6.24079 7.83036L6.24079 7.83036L6.24039 7.82987Z" fill="#04142D" stroke="white" stroke-width="0.2"/>
<path d="M35.6033 7.99449L35.6033 7.99453C34.5431 9.09387 33.4588 10.1694 32.3673 11.2389C32.0679 11.5319 31.7582 11.677 31.4688 11.6929C31.1813 11.7086 30.9 11.5976 30.6525 11.3511L30.5819 11.4219L30.6525 11.3511C30.4063 11.1059 30.294 10.8235 30.3082 10.5346C30.3226 10.244 30.4658 9.9335 30.7562 9.63678C31.8408 8.53045 32.9408 7.43711 34.0434 6.3478L34.0434 6.34774C34.2478 6.14549 34.4736 6.0058 34.7031 5.9542C34.9296 5.90327 35.166 5.9365 35.4016 6.09117L35.4017 6.09128C35.5569 6.19276 35.6862 6.34217 35.8169 6.51903C35.8616 6.57957 35.9073 6.64455 35.9543 6.71141C36.0275 6.81537 36.1038 6.92386 36.1846 7.02719C36.1121 7.15376 36.0488 7.27486 35.9905 7.38638C35.9582 7.44822 35.9274 7.50711 35.8974 7.56235C35.8032 7.73616 35.7149 7.87885 35.6033 7.99449Z" fill="#04142D" stroke="white" stroke-width="0.2"/>
<path d="M19.8028 1.20736L19.9028 1.20829C19.9089 0.56273 20.3833 0.105995 20.9937 0.101979L20.9937 0.101979C21.6015 0.0979676 22.0843 0.55492 22.0985 1.19411C22.1107 1.78545 22.108 2.37819 22.1052 2.9723C22.1041 3.22742 22.1029 3.4828 22.1029 3.73843C22.1029 4.00141 22.1042 4.26367 22.1055 4.52556C22.1083 5.09149 22.1112 5.65569 22.1007 6.22171L22.1007 6.22174C22.0885 6.89572 21.5803 7.39077 20.9782 7.37491C20.386 7.3589 19.9069 6.88145 19.9028 6.24043L19.9028 6.24027C19.8897 4.5629 19.8897 2.88552 19.9028 1.20814L19.8028 1.20736ZM19.8028 1.20736C19.8094 0.50732 20.3279 0.00635679 20.993 0.00198156C21.6559 -0.00239367 22.1832 0.49857 22.1985 1.19204C22.2108 1.7847 22.208 2.37949 22.2052 2.97418C22.2041 3.22901 22.2029 3.48381 22.2029 3.73843C22.2029 4.00033 22.2042 4.26201 22.2055 4.52361C22.2083 5.09017 22.2112 5.65635 22.2007 6.22356L19.8028 1.20736Z" fill="#04142D" stroke="white" stroke-width="0.2"/>
<path d="M1.28282 22.0997L1.28291 22.0997L1.28282 22.0997ZM1.28282 22.0997C0.926104 22.0977 0.633502 21.981 0.429649 21.7908M1.28282 22.0997L0.429649 21.7908M1.31204 19.8955L1.31179 19.8955C0.93669 19.8997 0.631643 20.0206 0.422693 20.2163C0.214428 20.4115 0.0951068 20.6868 0.100154 21.0146L1.31204 19.8955ZM1.31204 19.8955C1.86849 19.888 2.42545 19.8898 2.98372 19.8917C3.23235 19.8925 3.48123 19.8934 3.73044 19.8934C3.97326 19.8934 4.21565 19.8928 4.45782 19.8922M1.31204 19.8955L4.45782 19.8922M4.45782 19.8922C5.02189 19.8908 5.58475 19.8894 6.14907 19.8955L4.45782 19.8922ZM0.429649 21.7908C0.226149 21.601 0.105229 21.3326 0.100154 21.0147L0.429649 21.7908ZM6.14911 19.8955C6.88291 19.9038 7.38591 20.3908 7.37603 21.0102C7.36608 21.6195 6.8779 22.0936 6.18659 22.0997L6.14911 19.8955Z" fill="#04142D" stroke="white" stroke-width="0.2"/>
<path d="M38.2713 22.1017H38.2716C39.035 22.1039 39.7983 22.1039 40.5595 22.1017L40.5598 22.1017C40.5782 22.1017 40.5945 22.102 40.6097 22.1022C40.6365 22.1027 40.66 22.1031 40.6861 22.1018L40.6883 22.1017L40.6883 22.1017C41.0643 22.0913 41.3694 21.9692 41.578 21.7738C41.7857 21.5792 41.9045 21.306 41.8994 20.9782L38.2713 22.1017ZM38.2713 22.1017C38.0337 22.1017 37.7964 22.1024 37.5595 22.1031C36.9683 22.1049 36.3787 22.1067 35.7876 22.0973C35.1082 22.085 34.6156 21.5887 34.6235 20.9845L34.6235 20.9845M38.2713 22.1017L34.6235 20.9845M34.6235 20.9845C34.6315 20.3755 35.1216 19.8994 35.8128 19.8953L35.8128 19.8953M34.6235 20.9845L35.8128 19.8953M35.8128 19.8953C37.4467 19.8844 39.0828 19.8844 40.7167 19.8953L40.7167 19.8953M35.8128 19.8953L40.7167 19.8953M40.7167 19.8953C41.0736 19.8974 41.3662 20.0136 41.57 20.2032M40.7167 19.8953L41.57 20.2032M41.57 20.2032C41.7734 20.3925 41.8943 20.6603 41.8994 20.9782L41.57 20.2032Z" fill="#04142D" stroke="white" stroke-width="0.2"/>
<path d="M20.7934 14.8345L20.7957 14.9345C21.2072 14.9251 21.535 15.04 21.7576 15.2403C21.9791 15.4396 22.1065 15.7323 22.1024 16.0999C22.0983 16.415 21.9891 16.6851 21.801 16.8796C21.6131 17.0739 21.3408 17.1988 20.9994 17.2132C20.0668 17.251 19.2949 17.5008 18.6807 17.9677C18.0667 18.4345 17.6186 19.1121 17.3228 19.9917L17.3228 19.9918C17.1037 20.6448 16.4748 20.9415 15.8781 20.7446C15.3019 20.5538 14.9993 19.9373 15.1881 19.2766L15.1881 19.2765C15.8981 16.7788 18.1989 14.9969 20.7958 14.9345L20.7934 14.8345ZM20.7934 14.8345C21.6555 14.8149 22.2112 15.3158 22.2024 16.1012L15.0919 19.2491C15.8139 16.7093 18.1527 14.898 20.7934 14.8345Z" fill="#04142D" stroke="white" stroke-width="0.2"/>
</g>
<defs>
<clipPath id="clip0_11198_551">
<rect width="42" height="42" fill="white"/>
</clipPath>
</defs>
</svg>
