<svg width="384" height="56" viewBox="0 0 384 56" fill="none" xmlns="http://www.w3.org/2000/svg">
<path d="M12.5642 50.1214L0 55.1701V10.9717L12.5642 7.65869V50.1214Z" fill="#958578"/>
<path d="M37.1737 50.0728L24.6095 55.1215C24.653 42 24.6964 24.267 24.7399 11.1531C22.6744 10.5729 20.6063 9.99769 18.5434 9.4123C16.4805 8.82691 14.4533 8.24918 12.3495 7.6689L37.1737 0V50.0728Z" fill="#958578"/>
<path d="M51.0622 40.3896V47.1408H49.9553V40.3896H51.0622Z" fill="white"/>
<path d="M61.7142 47.1511H60.6074L57.2842 42.11V47.1511H56.1747V40.3896H57.2842L60.6074 45.423V40.3896H61.7142V47.1511Z" fill="white"/>
<path d="M72.3612 47.1511H71.2544L67.9312 42.11V47.1511H66.8268V40.3896H67.9337L71.2569 45.423V40.3896H72.3638L72.3612 47.1511Z" fill="white"/>
<path d="M79.1915 46.8545C78.6689 46.5653 78.2356 46.1382 77.9389 45.6198C77.6356 45.0759 77.4764 44.4634 77.4764 43.8406C77.4764 43.2178 77.6356 42.6054 77.9389 42.0614C78.2373 41.5456 78.6703 41.1206 79.1915 40.8318C79.7254 40.5417 80.3234 40.3896 80.9311 40.3896C81.5388 40.3896 82.1368 40.5417 82.6707 40.8318C83.191 41.1201 83.6224 41.5453 83.9181 42.0614C84.2182 42.6064 84.3756 43.2185 84.3756 43.8406C84.3756 44.4628 84.2182 45.0748 83.9181 45.6198C83.6241 46.1385 83.1924 46.5658 82.6707 46.8545C82.1368 47.1447 81.5388 47.2967 80.9311 47.2967C80.3234 47.2967 79.7254 47.1447 79.1915 46.8545V46.8545ZM82.1211 46.0288C82.473 45.8225 82.758 45.5189 82.9416 45.1546C83.1459 44.7463 83.2477 44.2945 83.2382 43.8381C83.2479 43.3833 83.146 42.933 82.9416 42.5267C82.7583 42.1647 82.4731 41.8644 82.1211 41.6626C81.7539 41.4646 81.3432 41.361 80.926 41.361C80.5088 41.361 80.0981 41.4646 79.7309 41.6626C79.3789 41.8644 79.0937 42.1647 78.9104 42.5267C78.7059 42.933 78.6041 43.3833 78.6138 43.8381C78.6043 44.2945 78.7061 44.7463 78.9104 45.1546C79.094 45.5189 79.3789 45.8225 79.7309 46.0288C80.0971 46.23 80.5082 46.3354 80.926 46.3354C81.3438 46.3354 81.7549 46.23 82.1211 46.0288V46.0288Z" fill="white"/>
<path d="M95.8585 40.3896L93.3227 47.1408H92.0445L89.4882 40.3896H90.6743L92.6759 46.0135L94.6852 40.3896H95.8585Z" fill="white"/>
<path d="M105.427 45.7732H102.615L102.129 47.1511H100.971L103.392 40.3896H104.67L107.088 47.1511H105.923L105.427 45.7732ZM105.117 44.8683L104.018 41.7317L102.911 44.8683H105.117Z" fill="white"/>
<path d="M116.899 40.3896V41.2997H115.11V47.146H113.99V41.2997H112.201V40.3948L116.899 40.3896Z" fill="white"/>
<path d="M123.119 40.3896V47.1408H122.012V40.3896H123.119Z" fill="white"/>
<path d="M134.599 40.3896L132.066 47.1408H130.788L128.232 40.3896H129.418L131.419 46.0135L133.428 40.3896H134.599Z" fill="white"/>
<path d="M140.819 41.2946V43.2757H143.15V44.1781H140.819V46.2487H143.444V47.1511H139.712V40.3896H143.444V41.2946H140.819Z" fill="white"/>
<path d="M158.922 40.3896V41.2997H156.057V43.291H158.291V44.1934H156.057V47.146H154.947V40.3896H158.922Z" fill="white"/>
<path d="M165.75 46.8545C165.227 46.566 164.794 46.1388 164.498 45.6198C164.194 45.0759 164.035 44.4634 164.035 43.8406C164.035 43.2178 164.194 42.6054 164.498 42.0614C164.795 41.5451 165.228 41.1199 165.75 40.8319C166.284 40.5417 166.881 40.3896 167.488 40.3896C168.096 40.3896 168.693 40.5417 169.227 40.8319C169.748 41.1194 170.179 41.5448 170.474 42.0614C170.774 42.6064 170.932 43.2185 170.932 43.8406C170.932 44.4628 170.774 45.0748 170.474 45.6198C170.181 46.1391 169.749 46.5666 169.227 46.8545C168.693 47.1447 168.096 47.2967 167.488 47.2967C166.881 47.2967 166.284 47.1447 165.75 46.8545V46.8545ZM168.677 46.0288C169.029 45.8218 169.315 45.5185 169.5 45.1546C169.704 44.7461 169.805 44.2943 169.794 43.8381C169.805 43.3835 169.704 42.9333 169.5 42.5267C169.315 42.1651 169.029 41.865 168.677 41.6627C168.31 41.4647 167.9 41.361 167.483 41.361C167.067 41.361 166.656 41.4647 166.29 41.6627C165.938 41.8644 165.652 42.1648 165.469 42.5267C165.263 42.9326 165.162 43.3832 165.172 43.8381C165.162 44.2946 165.264 44.7467 165.469 45.1546C165.653 45.5189 165.938 45.8225 166.29 46.0288C166.655 46.23 167.066 46.3355 167.483 46.3355C167.901 46.3355 168.311 46.23 168.677 46.0288V46.0288Z" fill="white"/>
<path d="M179.549 47.142L177.995 44.4426H177.151V47.142H176.044V40.3908H178.378C178.832 40.3779 179.283 40.4715 179.695 40.6644C180.028 40.8237 180.308 41.0769 180.5 41.3929C180.676 41.7042 180.765 42.0577 180.756 42.4154C180.758 42.8457 180.624 43.2656 180.372 43.6143C180.083 43.9953 179.663 44.2565 179.194 44.348L180.863 47.1446L179.549 47.142ZM177.151 43.5632H178.378C178.547 43.5758 178.717 43.5547 178.877 43.5011C179.038 43.4476 179.186 43.3627 179.314 43.2513C179.421 43.142 179.505 43.0115 179.56 42.868C179.614 42.7245 179.639 42.5713 179.631 42.418C179.639 42.267 179.616 42.1159 179.562 41.9745C179.508 41.8332 179.425 41.7047 179.319 41.5974C179.056 41.3799 178.718 41.2735 178.378 41.3009H177.151V43.5632Z" fill="white"/>
<path d="M197.07 40.3896V41.2997H195.28V47.146H194.174V41.2997H192.366V40.3948L197.07 40.3896Z" fill="white"/>
<path d="M207.574 40.3896V47.1408H206.467V44.1883H203.292V47.1408H202.182V40.3896H203.292V43.2859H206.467V40.3896H207.574Z" fill="white"/>
<path d="M213.796 41.2946V43.2757H216.125V44.1781H213.796V46.2487H216.419V47.1511H212.686V40.3896H216.419V41.2946H213.796Z" fill="white"/>
<path d="M231.897 40.3896V41.2997H229.031V43.291H231.266V44.1934H229.031V47.146H227.922V40.3896H231.897Z" fill="white"/>
<path d="M238.118 40.3896V44.6945C238.102 44.9045 238.13 45.1154 238.2 45.3142C238.269 45.513 238.379 45.6954 238.522 45.8499C238.829 46.1227 239.231 46.2625 239.641 46.2385C240.055 46.2637 240.463 46.124 240.774 45.8499C240.917 45.6954 241.027 45.513 241.096 45.3142C241.166 45.1154 241.193 44.9045 241.178 44.6945V40.3896H242.285V44.674C242.3 45.1649 242.175 45.6501 241.924 46.0723C241.695 46.4463 241.361 46.7442 240.963 46.9287C240.545 47.114 240.092 47.2098 239.635 47.2098C239.178 47.2098 238.725 47.114 238.307 46.9287C237.913 46.7438 237.583 46.4457 237.359 46.0723C237.115 45.6475 236.995 45.1633 237.011 44.674V40.3896H238.118Z" fill="white"/>
<path d="M252.102 40.3896V41.2997H250.313V47.146H249.203V41.2997H247.399V40.3948L252.102 40.3896Z" fill="white"/>
<path d="M258.323 40.3896V44.6945C258.308 44.9045 258.335 45.1154 258.405 45.3142C258.474 45.513 258.584 45.6954 258.727 45.8499C259.048 46.1018 259.445 46.2387 259.853 46.2387C260.261 46.2387 260.658 46.1018 260.979 45.8499C261.122 45.6954 261.232 45.513 261.301 45.3142C261.371 45.1154 261.399 44.9045 261.383 44.6945V40.3896H262.49V44.674C262.505 45.1646 262.381 45.6494 262.132 46.0723C261.901 46.4459 261.566 46.7436 261.168 46.9287C260.75 47.114 260.298 47.2098 259.84 47.2098C259.383 47.2098 258.93 47.114 258.512 46.9287C258.118 46.7444 257.789 46.4461 257.566 46.0723C257.321 45.6482 257.2 45.1637 257.216 44.674V40.3896H258.323Z" fill="white"/>
<path d="M271.114 47.1421L269.559 44.4426H268.716V47.1421H267.604V40.3909H269.935C270.388 40.3776 270.839 40.4713 271.249 40.6644C271.584 40.8229 271.865 41.0763 272.057 41.393C272.232 41.7048 272.32 42.0579 272.312 42.4155C272.319 42.8391 272.192 43.254 271.949 43.6016C271.66 43.9826 271.241 44.2437 270.771 44.3353L272.44 47.1319L271.114 47.1421ZM268.716 43.5633H269.94C270.109 43.5758 270.279 43.5547 270.439 43.5012C270.6 43.4477 270.748 43.3628 270.876 43.2514C270.984 43.1421 271.067 43.0115 271.122 42.868C271.177 42.7246 271.201 42.5713 271.193 42.418C271.201 42.267 271.178 42.116 271.124 41.9746C271.07 41.8332 270.988 41.7047 270.881 41.5975C270.618 41.38 270.28 41.2736 269.94 41.3009H268.716V43.5633Z" fill="white"/>
<path d="M278.66 41.2946V43.2757H280.991V44.1781H278.66V46.2487H281.282V47.1511H277.553V40.3896H281.282V41.2946H278.66Z" fill="white"/>
<path d="M217.002 9.01099H215.573V24.6913H217.002V9.01099Z" fill="white"/>
<path d="M218.444 12.9146H226.693C227.521 12.9152 228.315 13.2446 228.901 13.8302C229.487 14.4159 229.816 15.2101 229.817 16.0384V24.7093H228.385V16.0384C228.385 15.5889 228.207 15.1578 227.889 14.8399C227.571 14.5221 227.14 14.3435 226.69 14.3435H217.015C217.015 13.9645 217.165 13.6011 217.433 13.3331C217.701 13.0651 218.065 12.9146 218.444 12.9146V12.9146Z" fill="white"/>
<path d="M178.987 24.6658C178.8 24.6658 178.614 24.6288 178.441 24.557C178.267 24.4851 178.11 24.3798 177.978 24.2471C177.845 24.1144 177.74 23.9568 177.669 23.7835C177.597 23.6101 177.56 23.4243 177.561 23.2368V9.0979H178.987V24.6658Z" fill="white"/>
<path d="M191.398 24.6658H178.987C178.987 24.4781 179.024 24.2923 179.096 24.1189C179.168 23.9456 179.273 23.788 179.406 23.6554C179.538 23.5227 179.696 23.4174 179.869 23.3456C180.043 23.2738 180.228 23.2368 180.416 23.2368H191.408L191.398 24.6658Z" fill="white"/>
<path d="M194.936 13.0833H193.507V24.5432H194.936V13.0833Z" fill="white"/>
<path d="M194.936 10.3838H193.507V11.8128H194.936V10.3838Z" fill="white"/>
<path d="M234.306 24.5763C234.118 24.5766 233.932 24.54 233.759 24.4685C233.586 24.3969 233.428 24.2919 233.295 24.1594C233.163 24.0269 233.057 23.8696 232.985 23.6963C232.914 23.5231 232.877 23.3374 232.877 23.1499V9.01099H234.306V24.5763Z" fill="white"/>
<path d="M246.714 24.5763H234.306C234.306 24.3888 234.343 24.2031 234.414 24.0299C234.486 23.8566 234.592 23.6993 234.724 23.5668C234.857 23.4343 235.015 23.3293 235.188 23.2578C235.361 23.1862 235.547 23.1496 235.735 23.1499H246.727L246.714 24.5763Z" fill="white"/>
<path d="M247.726 13.2495H234.313V14.6785H247.726V13.2495Z" fill="white"/>
<path d="M211.002 13.2495H200.128C199.65 13.2681 199.199 13.4757 198.874 13.8265C198.549 14.1774 198.377 14.6428 198.395 15.1207V22.6695C198.377 23.1472 198.55 23.6123 198.875 23.963C199.2 24.3137 199.65 24.5214 200.128 24.5407H211.002C211.105 24.5408 211.208 24.5305 211.309 24.51V27.1762H197.454V28.8506H211.002C211.23 28.851 211.456 28.8064 211.666 28.7194C211.877 28.6325 212.068 28.5049 212.23 28.3439C212.391 28.1829 212.519 27.9917 212.606 27.7813C212.693 27.5708 212.738 27.3453 212.738 27.1174V15.1207C212.755 14.6426 212.582 14.1771 212.257 13.8264C211.932 13.4756 211.48 13.2681 211.002 13.2495V13.2495ZM211.296 23.0069H199.821V14.791H211.296V23.0069Z" fill="white"/>
<path d="M64.7001 24.7145H63.2737V10.5347H53.0842C52.6193 10.552 52.1801 10.7526 51.8625 11.0926C51.545 11.4327 51.3749 11.8846 51.3894 12.3496V24.7145H49.9553V12.3496C49.9553 10.5065 51.3587 9.00854 53.0791 9.00854H64.695L64.7001 24.7145Z" fill="white"/>
<path d="M63.9869 15.8262H50.6762V17.3523H63.9869V15.8262Z" fill="white"/>
<path d="M69.7846 9.00854H68.3556V24.7093H69.7846V9.00854Z" fill="white"/>
<path d="M86.8734 12.2856H85.4445V24.7553H86.8734V12.2856Z" fill="white"/>
<path d="M84.0053 24.5176H75.7561C74.9276 24.5176 74.133 24.1885 73.5472 23.6027C72.9614 23.0169 72.6323 22.2223 72.6323 21.3938V12.365H74.0587V21.3938C74.0587 21.6166 74.1026 21.8372 74.1879 22.043C74.2733 22.2488 74.3983 22.4358 74.556 22.5932C74.7136 22.7506 74.9008 22.8754 75.1067 22.9604C75.3126 23.0454 75.5333 23.089 75.7561 23.0887H85.4317C85.432 23.2762 85.3954 23.462 85.3238 23.6353C85.2523 23.8087 85.1473 23.9662 85.0148 24.099C84.8823 24.2317 84.7249 24.337 84.5517 24.4088C84.3785 24.4807 84.1928 24.5176 84.0053 24.5176V24.5176Z" fill="white"/>
<path d="M145.449 12.0964H144.02V24.5661H145.449V12.0964Z" fill="white"/>
<path d="M142.58 24.3283H134.331C133.505 24.3283 132.712 24.001 132.127 23.4179C131.541 22.8348 131.211 22.0436 131.207 21.2173V12.1782H132.634V21.2173C132.634 21.6675 132.813 22.0992 133.131 22.4175C133.449 22.7359 133.881 22.9147 134.331 22.9147H144.007C144.003 23.2908 143.852 23.6503 143.585 23.9151C143.317 24.1798 142.957 24.3283 142.58 24.3283V24.3283Z" fill="white"/>
<path d="M116.151 12.209H114.722V24.9138H116.151V12.209Z" fill="white"/>
<path d="M117.59 12.2959H125.839C126.681 12.3094 127.483 12.6565 128.068 13.2609C128.654 13.8654 128.976 14.6778 128.963 15.5194V24.832H127.534V15.5194C127.541 15.0626 127.366 14.6218 127.049 14.2935C126.731 13.9653 126.296 13.7764 125.839 13.7683H116.164C116.16 13.578 116.195 13.3889 116.265 13.2119C116.335 13.0349 116.439 12.8734 116.572 12.7366C116.704 12.5999 116.862 12.4906 117.037 12.415C117.212 12.3394 117.4 12.2989 117.59 12.2959V12.2959Z" fill="white"/>
<path d="M90.984 12.186H89.555V24.7707H90.984V12.186Z" fill="white"/>
<path d="M99.5118 13.4333H98.0828V24.7731H99.5118V13.4333Z" fill="white"/>
<path d="M107.996 24.7067H106.567V15.7009C106.567 14.6784 105.8 13.8527 104.872 13.8527H90.9814C90.9655 13.457 91.1069 13.0711 91.3746 12.7794C91.6424 12.4877 92.0148 12.3138 92.4104 12.2959H104.872C106.595 12.2959 107.996 13.8297 107.996 15.7009V24.7067Z" fill="white"/>
<path d="M149.186 12.0557H147.757V24.6403H149.186V12.0557Z" fill="white"/>
<path d="M157.714 13.3005H156.285V24.6403H157.714V13.3005Z" fill="white"/>
<path d="M166.195 24.5762H164.769V15.5678C164.769 14.5453 164.002 13.7196 163.074 13.7196H149.183C149.167 13.324 149.309 12.9381 149.576 12.6463C149.844 12.3546 150.217 12.1808 150.612 12.1628H163.074C164.797 12.1628 166.195 13.6966 166.195 15.5678V24.5762Z" fill="white"/>
<path d="M112.321 13.05H110.892V24.5099H112.321V13.05Z" fill="white"/>
<path d="M112.321 10.3506H110.892V11.7796H112.321V10.3506Z" fill="white"/>
<path d="M355.096 12.0122H353.667V24.717H355.096V12.0122Z" fill="white"/>
<path d="M356.538 12.0991H364.787C365.203 12.1055 365.615 12.1938 365.997 12.3591C366.38 12.5244 366.726 12.7634 367.016 13.0625C367.306 13.3616 367.534 13.7149 367.688 14.1023C367.841 14.4896 367.917 14.9034 367.911 15.3201V24.6352H366.482V15.3201C366.489 14.8635 366.314 14.4229 365.996 14.0951C365.678 13.7673 365.243 13.579 364.787 13.5716H355.109C355.103 13.1869 355.251 12.8158 355.519 12.5397C355.786 12.2636 356.153 12.1052 356.538 12.0991V12.0991Z" fill="white"/>
<path d="M296.311 9.28711H294.882V24.8652H296.311V9.28711Z" fill="white"/>
<path d="M313.382 12.324H311.953V24.7936H313.382V12.324Z" fill="white"/>
<path d="M310.514 24.556H302.262C301.434 24.556 300.639 24.2269 300.053 23.641C299.468 23.0552 299.138 22.2607 299.138 21.4322V12.4033H300.565V21.4322C300.565 21.655 300.609 21.8756 300.694 22.0813C300.779 22.2871 300.905 22.4741 301.062 22.6315C301.22 22.7889 301.407 22.9137 301.613 22.9987C301.819 23.0838 302.039 23.1273 302.262 23.127H311.938C311.938 23.3143 311.902 23.4999 311.83 23.6731C311.759 23.8463 311.654 24.0037 311.522 24.1364C311.39 24.2691 311.233 24.3744 311.06 24.4464C310.887 24.5184 310.701 24.5556 310.514 24.556V24.556Z" fill="white"/>
<path d="M317.677 24.7962C317.298 24.7955 316.935 24.6447 316.667 24.3769C316.399 24.1091 316.248 23.746 316.248 23.3672V9.23853H317.677V24.7962Z" fill="white"/>
<path d="M330.085 24.7962H317.677C317.677 24.4172 317.827 24.0537 318.095 23.7857C318.363 23.5177 318.727 23.3672 319.106 23.3672H330.085V24.7962Z" fill="white"/>
<path d="M331.097 13.4768H317.684V14.9058H331.097V13.4768Z" fill="white"/>
<path d="M272.354 24.8961H259.572V23.4671H272.354C272.931 23.4671 273.399 22.9098 273.399 22.2247V18.6306C273.399 17.9455 272.931 17.3856 272.354 17.3856H262.103C260.738 17.3856 259.628 16.1867 259.628 14.7143V12.0634C259.628 10.591 260.738 9.39209 262.103 9.39209H274.956V10.8211H262.103C261.525 10.8211 261.057 11.3783 261.057 12.0634V14.7143C261.057 15.3994 261.525 15.9592 262.103 15.9592H272.354C273.719 15.9592 274.828 17.1556 274.828 18.6306V22.2247C274.815 23.6972 273.706 24.8961 272.354 24.8961Z" fill="white"/>
<path d="M381.63 24.6174H369.986V23.462H381.63C381.89 23.4539 382.136 23.3435 382.314 23.1547C382.492 22.9659 382.588 22.7143 382.581 22.4548V19.5483C382.588 19.2888 382.492 19.0371 382.314 18.8483C382.136 18.6596 381.89 18.5491 381.63 18.5411H372.305C371.72 18.552 371.154 18.3306 370.732 17.9252C370.31 17.5198 370.066 16.9636 370.053 16.3784V14.2363C370.066 13.6511 370.31 13.0949 370.732 12.6895C371.154 12.2841 371.72 12.0627 372.305 12.0736H384V13.2291H372.305C372.045 13.2364 371.799 13.3466 371.62 13.5355C371.441 13.7243 371.345 13.9763 371.351 14.2363V16.3784C371.345 16.6379 371.442 16.8893 371.621 17.0776C371.799 17.2659 372.045 17.3757 372.305 17.3831H381.633C382.218 17.3728 382.783 17.5946 383.204 17.9999C383.626 18.4052 383.87 18.961 383.882 19.5457V22.4548C383.87 23.0401 383.626 23.5967 383.204 24.0023C382.782 24.4078 382.216 24.629 381.63 24.6174V24.6174Z" fill="white"/>
<path d="M289.136 25.0161H280.823C279.309 25.0161 278.08 23.6306 278.08 21.9281V15.3507C278.08 13.6457 279.309 12.2627 280.823 12.2627H289.136C290.649 12.2627 291.879 13.6457 291.879 15.3507V21.9281C291.879 23.6306 290.649 25.0161 289.136 25.0161ZM280.823 13.8681C280.097 13.8681 279.506 14.5327 279.506 15.3507V21.9281C279.506 22.7461 280.097 23.4082 280.823 23.4082H289.136C289.862 23.4082 290.452 22.7461 290.452 21.9281V15.3507C290.452 14.5327 289.862 13.8681 289.136 13.8681H280.823Z" fill="white"/>
<path d="M348.851 25.2896H340.538C339.024 25.2896 337.795 23.9041 337.795 22.2016V15.6217C337.795 13.9192 339.024 12.5337 340.538 12.5337H348.851C350.364 12.5337 351.594 13.9192 351.594 15.6217V22.2016C351.599 23.9041 350.364 25.2896 348.851 25.2896ZM340.538 14.1416C339.812 14.1416 339.221 14.8062 339.221 15.6217V22.2016C339.221 23.0171 339.812 23.6817 340.538 23.6817H348.851C349.577 23.6817 350.167 23.0171 350.167 22.2016V15.6217C350.167 14.8062 349.577 14.1416 348.851 14.1416H340.538Z" fill="white"/>
<path d="M335.157 13.3848H333.728V24.8447H335.157V13.3848Z" fill="white"/>
<path d="M335.157 10.6853H333.728V12.1143H335.157V10.6853Z" fill="white"/>
</svg>
