<svg width="32" height="32" viewBox="0 0 32 32" fill="none" xmlns="http://www.w3.org/2000/svg">
<path d="M24.545 6.39844H7.45491C6.44564 6.40436 5.4797 6.81523 4.7681 7.5413C4.05651 8.26736 3.65709 9.24961 3.6571 10.2735V22.6601C3.6571 23.6819 4.05723 24.6618 4.76946 25.3843C5.48168 26.1068 6.44767 26.5127 7.45491 26.5127H24.545C25.5523 26.5127 26.5182 26.1068 27.2305 25.3843C27.9427 24.6618 28.3428 23.6819 28.3428 22.6601V10.2735C28.3428 9.24961 27.9434 8.26736 27.2318 7.5413C26.5202 6.81523 25.5543 6.40436 24.545 6.39844V6.39844ZM7.45491 8.07836H24.545C24.9759 8.09113 25.3936 8.23155 25.7468 8.48231C26.0999 8.73306 26.3729 9.08319 26.5322 9.4895C25.7555 10.0169 25.0175 10.6008 24.3242 11.2366C22.1162 13.2301 18.495 16.2764 15.9779 16.2764C13.4607 16.2764 9.97205 13.2301 7.65363 11.2366C6.9603 10.6008 6.22235 10.0169 5.4456 9.4895C5.60638 9.07974 5.88282 8.72726 6.24026 8.47622C6.5977 8.22519 7.02024 8.08679 7.45491 8.07836V8.07836ZM26.6868 22.6601C26.6868 23.2542 26.4542 23.8239 26.0401 24.2439C25.626 24.664 25.0644 24.9 24.4788 24.9H7.45491C6.8693 24.9 6.30768 24.664 5.8936 24.2439C5.47951 23.8239 5.24688 23.2542 5.24688 22.6601V11.4606C5.64433 11.7742 6.10801 12.1774 6.50546 12.5358C9.0226 14.7757 12.8204 17.9787 15.9337 17.9787C19.047 17.9787 22.8448 14.7085 25.362 12.5358C25.7594 12.1774 26.2231 11.7742 26.6206 11.4606L26.6868 22.6601Z" fill="#C8151D"/>
</svg>
