<svg width="32" height="32" viewBox="0 0 32 32" fill="none" xmlns="http://www.w3.org/2000/svg">
<path d="M16.0012 29.7481C15.6184 29.7448 15.2405 29.6615 14.8918 29.5037C14.543 29.3459 14.231 29.117 13.9758 28.8316C10.6307 25.1657 5.00355 18.1914 5.00355 13.5815C4.96191 10.6216 6.09671 7.76619 8.15872 5.64231C10.2207 3.51843 13.0414 2.29975 16.0012 2.25391C18.9611 2.29975 21.7817 3.51843 23.8437 5.64231C25.9058 7.76619 27.0406 10.6216 26.9989 13.5815C26.9989 18.1639 21.3718 25.1199 18.0266 28.8408C17.7706 29.1245 17.4583 29.3517 17.1096 29.5079C16.7608 29.6641 16.3834 29.7459 16.0012 29.7481ZM16.0012 4.08685C13.5283 4.13504 11.1752 5.16133 9.45747 6.94095C7.73969 8.72056 6.79723 11.1084 6.8365 13.5815C6.8365 16.4592 10.0167 21.7015 15.3414 27.6127C15.4269 27.7014 15.5294 27.772 15.6427 27.8202C15.7561 27.8684 15.878 27.8932 16.0012 27.8932C16.1244 27.8932 16.2464 27.8684 16.3597 27.8202C16.4731 27.772 16.5756 27.7014 16.6611 27.6127C21.9858 21.7015 25.166 16.4592 25.166 13.5815C25.2052 11.1084 24.2628 8.72056 22.545 6.94095C20.8272 5.16133 18.4742 4.13504 16.0012 4.08685V4.08685Z" fill="#C8151D"/>
<path d="M16.0002 18.7516C14.9126 18.7516 13.8495 18.4291 12.9452 17.8249C12.0409 17.2207 11.3361 16.3619 10.9199 15.3571C10.5037 14.3523 10.3948 13.2467 10.607 12.18C10.8192 11.1133 11.3429 10.1335 12.1119 9.36448C12.8809 8.59546 13.8607 8.07174 14.9274 7.85957C15.9941 7.64739 17.0997 7.75629 18.1045 8.17248C19.1093 8.58868 19.9681 9.29348 20.5723 10.1978C21.1765 11.102 21.499 12.1652 21.499 13.2528C21.499 14.7111 20.9197 16.1098 19.8885 17.141C18.8572 18.1723 17.4586 18.7516 16.0002 18.7516ZM16.0002 9.58686C15.2751 9.58686 14.5664 9.80186 13.9635 10.2047C13.3607 10.6075 12.8908 11.18 12.6133 11.8499C12.3359 12.5197 12.2633 13.2568 12.4047 13.9679C12.5462 14.679 12.8953 15.3322 13.408 15.8449C13.9207 16.3576 14.5739 16.7068 15.285 16.8482C15.9961 16.9897 16.7332 16.9171 17.4031 16.6396C18.0729 16.3621 18.6455 15.8923 19.0483 15.2894C19.4511 14.6866 19.6661 13.9778 19.6661 13.2528C19.6661 12.2805 19.2799 11.3481 18.5924 10.6606C17.9049 9.97308 16.9724 9.58686 16.0002 9.58686V9.58686Z" fill="#C8151D"/>
</svg>
